<?xml version="1.0" encoding="utf-8"?>
<!-- Generator: Adobe Illustrator 21.1.0, SVG Export Plug-In . SVG Version: 6.00 Build 0)  -->
<svg version="1.1" id="Layer_1" xmlns="http://www.w3.org/2000/svg" xmlns:xlink="http://www.w3.org/1999/xlink" x="0px" y="0px"
	 viewBox="0 0 30 40" style="enable-background:new 0 0 30 40;" xml:space="preserve">
<g>
	<g>
		<g>
			<path d="M18.5,7.8c-0.1,1-0.1,2-0.2,3c-0.2,4.6-0.5,9.2-0.7,13.8c-0.1,2.4-0.2,4.8-0.3,7.2l-0.1,2.8l-0.1,1.4l-0.9-1.1
				c-1-1.3-1.9-2.6-2.9-3.9c-2.8-3.8-5.7-7.6-8.6-11.5c-0.7-1-1.5-2-2.2-2.9l-1.1-1.5l-0.3-0.4l0,0c-0.4,0.9,0.3-1.4,0.9-0.8l0,0
				L2.2,14l0.1,0.1l0.1,0.2L3,14.9c1.6,1.8,3.4,3.6,5.2,5.4c2.6,2.6,5.4,5.3,8.2,8l0.7,0.7c0.1,0.2,0.2,0,0.2-0.1l0.2-0.3
				c0.8-1.2,1.7-2.4,2.6-3.5c1.7-2.4,3.4-4.8,5.2-7.2c1-1.1,2.1-2.3,3.1-3.4c-0.6,1.4-1.1,2.8-1.7,4.2c-1,1.8-1.9,3.6-2.9,5.3
				c1-1.8,1.9-3.6,2.9-5.4c0.5-1.4,1.1-2.8,1.6-4.2c-1,1-1.9,2-2.9,3c-1.5,2.1-3,4.2-4.6,6.3L18.7,27l-1.1,1.6
				c-0.1,0.1-0.2,0.3-0.3,0.4L14,26l-3.7-3.6c-2.4-2.4-4.8-4.8-7.1-7.3c-0.3-0.3-0.5-0.6-0.8-0.9L2.3,14c0,0,0,0-0.1-0.1
				c0.9-0.7-1.3,0.8-1,0.8l0,0l0,0l0.1,0.1l0.4,0.5l1.5,2c1,1.4,2,2.7,3,4.1c2,2.7,4,5.4,6,8.1c1.2,1.7,2.5,3.3,3.7,5l1.3,1.7
				l0.1-2.1l0.2-3.7c0.3-6.6,0.7-13.1,1-19.6c0,3.3-0.1,7.2-0.3,11.8c-0.1,2.7-0.3,5.5-0.4,8.2l-0.2,3.8l-0.1,2l0,0.2l0,0.1
				c0,0,0,0.1,0,0l-0.3-0.4l-0.6-0.8c-1.3-1.7-2.5-3.4-3.8-5c-3.3-4.4-6.5-8.7-9.7-13c0,0,0.1-0.1,0.1-0.1l-1.4-1.8L1.2,15l-0.1-0.1
				l0-0.1l0,0l0,0c0-0.1,0.1,0.1-0.1-0.2c1.9-2.3,1.2-0.3,1.4-0.9l0.1,0.1l0,0l0,0.1L2.6,14l0.3,0.4c0.9,1.1,2,2.2,3,3.3
				c2.1,2.1,4.3,4.2,6.4,6.3c1.1,1,2.1,2.1,3.2,3.1l1.5,1.4c0.1,0,0.1,0.2,0.2,0.1l0.1-0.2c3-4.2,6.1-8.4,9.1-12.6
				c0.6-0.4,1.3-0.8,2-1.4c-0.2,0.9-0.4,1.8-0.6,2.7c-3.1,5.7-6.2,11.4-9.4,17.2c-0.4-4-0.7-8.1-1.1-12.2c-0.1-0.8-0.1-1.5-0.2-2.3
				c0-0.4-0.1-0.9-0.1-1.3c0-0.4-0.1-0.7-0.1-1.1c0,0.6,0,0.8,0,1.2l0,0l0,0c0,0.3,0,0.6,0,0.8c0-0.2,0-0.5,0-0.8
				c0,0.3,0.1,0.6,0.1,0.8c0.5,5.2,0.9,10.3,1.3,15.4c3.4-6.2,6.8-12.4,10.1-18.6c0-0.6,0-1.3,0-1.9c-0.5,0.2-1.1,0.5-1.6,0.6
				c-3.1,4.3-6.2,8.6-9.3,12.9l-0.4,0.5c0,0,0,0.1,0,0l-0.1-0.1l-1.2-1.1c-1-1-2.1-2-3.1-3c-2.1-2-4.1-4-6.2-6.1c-1-1-2-2.1-3-3.1
				c-0.2-0.3-0.5-0.5-0.7-0.8l-0.3-0.4l-0.1-0.1l0-0.1l0,0c0,0-0.1-0.1-0.1-0.1c1-1.2-2.4,1-1.5,1.3l0,0l0,0l0,0L1,15L1,15.1
				l1.3,1.8l-1.3-1.8l-0.2-0.3l0-0.1c-0.8-0.3,2.7-2.3,1.6-1.3l0,0l0.1,0.1l0.1,0.1l0.1,0.1C2.8,14,2.9,14.1,3,14.3
				c0.2,0.3,0.4,0.5,0.7,0.8c0.9,1.1,2,2.1,3,3.1c2,2.1,4.1,4.1,6.2,6.1l3.1,3l1.2,1.1c0,0,0.1,0.1,0.1,0l0.3-0.4
				c3.2-4.4,6.3-8.8,9.5-13.2l1.4-0.3l0.3,1.4c-3.5,6.4-7,12.8-10.5,19.2c-0.4-5-0.9-10-1.3-15.1l-0.1-0.8l0,0.9
				c-0.1,2.7-0.2,5.5-0.3,8.2c-3.4-2-6.8-4.1-10.2-6.1l-0.2-0.1l0.2,0.2c0.4,0.5,0.9,1.1,1.4,1.6c1.3,1.5,4,4.7,5.3,6.2
				c0.9,1.1,1.8,2.2,2.7,3.2c0.4,0.5,0.9,1.1,1.3,1.6l0.3,0.4l0.1,0.1l0.1,0.2l0.1-0.1l0.1-0.1l0.2-0.4l1-1.7
				c0.7-1.2,1.4-2.3,2.1-3.4c1.4-2.3,2.8-4.6,4.1-6.9c-0.8,1.9,3.7-4.9-4.7,9.1c0,0,0.1,0.1,0.2,0.1c8.5-13.9,12.2-18.8,4-4.7
				c-2.2,3.7-4.4,7.6-6.8,11.6c-5.4-6.3-11.2-13.1-17.1-20L1.1,18L2,17.3c4.2,2.5,8.4,5.1,12.6,7.6c0.2-5.1,0.4-10.2,0.6-15.2
				l0.2-5.6c0.4-0.2,0.7-0.3,1.1-0.4c0.4,0,0.7,0,1.1,0c0.7,8.1,1.4,16.2,2.1,24.3c0,0,0,0,0,0l0,0l-0.1,0.2L19.3,29l-0.1,0.2
				c0.2-0.3,0.4-0.7,0.6-1c-0.1,0.1-0.2,0.2-0.4,0.4L19,29.2l-0.9,1.2L17.7,31c-0.1,0.2-0.3,0.5-0.5,0.2l-1.1-1l-1.4-1.3
				C11.8,26,8.7,23,5.7,20c-1.5-1.5-3-3-4.4-4.7L1.1,15c0,0-0.1-0.1-0.1-0.1C1,15,1.3,14.7,1.4,14.6c0.4-0.4,0-0.1,0.5-0.3
				c-0.1-0.1,0.6-0.4,0.5-0.4l0,0l0,0l0.1,0.1L3,14.5l0.9,1.3l1.9,2.5c2.5,3.3,4.9,6.6,7.3,9.9c0.6,0.8,1.3,1.7,2,2.7
				c0.2,0.2,0.3,0.4,0.5,0.7l0.2,0.2l0.1,0.1c0,0,0.1,0.1,0.1,0C16,30,16,28,16.1,26.2c0.2-5.1,0.4-9.7,0.6-11.7
				c0.2-2.9,0.3-3,0.4-2.6c-0.3,6.6-0.6,13.1-0.9,19.7l0,0.7l0,0.3l0,0.2c0,0-0.1-0.1-0.1-0.1l-0.8-1.1l-2.9-3.9c-2-2.7-4-5.3-6-8
				l-2.9-3.9l-0.7-1l-0.4-0.5L2.2,14l0,0c0,0,0.1-0.1-0.1,0.1c0.1,0-0.5,0.5-0.4,0.3l-0.3,0.3c0,0,0,0,0,0l0,0.1l0.1,0.1
				c0.5,0.7,1.1,1.3,1.6,1.9c2.2,2.4,4.6,4.7,6.9,7l3.5,3.4l1.8,1.7l1,1l0.7,0.7l0.3,0.3c0.1-0.1,0.2-0.2,0.3-0.4l3-4.1l1.7-2.3
				l-0.1,0.1l0.1-0.2c-0.5,0.7-1.1,1.4-1.6,2.2c-1,1.3-2,2.7-2.9,4l-0.3,0.4l-0.1,0.1l0,0l0,0l-0.2-0.2L16.5,30l-1.1-1l-1.8-1.7
				c-1.2-1.1-2.3-2.3-3.5-3.4c-2.3-2.3-4.7-4.6-7-7.1c-0.6-0.6-1.1-1.2-1.7-1.9l-0.2-0.2c0,0,0,0,0,0c0,0,0,0,0,0
				c0.1-0.1,0.3-0.3,0.3-0.3c-0.1,0.3,0.5-0.3,0.4-0.3c0.1-0.1,0,0,0.1,0l0,0l0.1,0.1l0.4,0.5l0.7,1c1,1.3,2,2.7,3,4l5.9,7.9
				l2.9,3.9l0.9,1.2l0.1,0.1l0,0c0,0,0,0,0,0l0-0.1l0-0.4l0-0.7c0.3-6.5,0.6-12.9,0.9-19.4c0.1,0.5,0.1,1,0.3,0.2
				c0,0,0.2-4.1,0.3-6.1c0.6-8.1,0.8-6.1,0.9-2C18.5,5.4,18.5,6.6,18.5,7.8z"/>
		</g>
	</g>
</g>
</svg>
