<?xml version="1.0" encoding="utf-8"?>
<!-- Generator: Adobe Illustrator 21.1.0, SVG Export Plug-In . SVG Version: 6.00 Build 0)  -->
<svg version="1.1" id="Layer_1" xmlns="http://www.w3.org/2000/svg" xmlns:xlink="http://www.w3.org/1999/xlink" x="0px" y="0px"
	 viewBox="0 0 63.5 57.8" style="enable-background:new 0 0 63.5 57.8;" xml:space="preserve">
<style type="text/css">
	.st0{fill:#FFFFFF;stroke:#000000;stroke-width:2.6499;stroke-miterlimit:10;}
</style>
<path class="st0" d="M59.7,22.1c0-7.5-6-13.5-13.5-13.5c-1.5,0-2.9,0.2-4.2,0.7c-2.2-3.5-6.5-5.8-11.4-5.8c-5.7,0-10.5,4.8-8.7,12.1
	c-7.3-2.2-18.7-1.8-18.7,10.7c0,5.7,3.6,6.2,7.6,9.1c-0.2,0.8-0.8,2.9-1.3,5.1c-1.7,7.7,6.4,14.2,14.2,14.2c4.4,0,8.3-2,10.9-5.1
	c2.2,1.9,5,3.1,8.1,3.1c6.7,0,12.2-5.5,12.2-12.2c0-2.5-0.7-4.8-2-6.7C57,31.4,59.7,27,59.7,22.1z"/>
</svg>
