<?xml version="1.0" encoding="utf-8"?>
<!-- Generator: Adobe Illustrator 21.1.0, SVG Export Plug-In . SVG Version: 6.00 Build 0)  -->
<svg version="1.1" id="Layer_1" xmlns="http://www.w3.org/2000/svg" xmlns:xlink="http://www.w3.org/1999/xlink" x="0px" y="0px"
	 viewBox="0 0 82.6 68.8" style="enable-background:new 0 0 82.6 68.8;" xml:space="preserve">
<style type="text/css">
	.st0{fill:#FFFFFF;stroke:#000000;stroke-width:2.6499;stroke-miterlimit:10;}
</style>
<path class="st0" d="M39.6,65.4c9.5,1.3,18.3-4.6,21-13.6c10.9,0.2,16.8-7.4,17.9-15.5c1.2-9-4.6-15.7-17-17.3
	c-0.8-0.1-1.6-0.2-2.4-0.2c-2.7-7.8-9.8-12.8-18.4-15.1C28.7,0.5,20.4,9.6,20.5,20.4C11.7,21.1,4.3,28.2,3,37.8
	c-1.7,12.4,6.3,19.9,14.9,21c2.8,0.4,5.6-0.4,8.2-2C29,61.3,33.9,64.6,39.6,65.4z"/>
</svg>
