<?xml version="1.0" encoding="utf-8"?>
<!-- Generator: Adobe Illustrator 21.1.0, SVG Export Plug-In . SVG Version: 6.00 Build 0)  -->
<svg version="1.1" id="Layer_1" xmlns="http://www.w3.org/2000/svg" xmlns:xlink="http://www.w3.org/1999/xlink" x="0px" y="0px"
	 viewBox="0 0 383.7 262.7" style="enable-background:new 0 0 383.7 262.7;" xml:space="preserve">
<style type="text/css">
	.st0{fill:#FFFFFF;stroke:#000000;stroke-width:4.4639;stroke-miterlimit:10;}
</style>
<path class="st0" d="M379.4,91.2c0-22.4-9.4-36.7-32.1-46.7C332,37.7,315.6,40,308.8,45c0.6-14.7-9.3-24.9-21.5-24.9
	c-12.6,0-24,4.1-32.3,12.5c-7-16.2-23.2-27.4-42-27.4c-20,0-37,12.9-43.1,30.9c-7.7-5.9-17.3-9.4-27.7-9.4c-11.9,0-22.7,4.6-30.8,12
	c0,0-17.3-21.5-42.2-19.5c-25,2-45.5,28.5-45.5,53.6c0,8.7,2.5,16.9,6.7,23.8c-15.3,8.3-25.1,21.4-25.1,36.1
	c0,18.7,15.8,34.7,38.4,41.7c-1,3.8-1.6,7.9-1.6,12c0,25.1,20.4,45.5,45.5,45.5c10.7,0,20.4-3.7,28.2-9.8
	c4.5,20.4,22.7,35.6,44.4,35.6c17.7,0,33.1-10.1,40.6-24.9c6.2,3.1,13.1,4.9,20.5,4.9c15.7,0,29.6-8,37.7-20.1
	c8.6,16.6,29.1,28.3,53.1,28.3c31.7,0,57.4-20.4,57.4-45.5c0-6.7-1.8-16-14.2-18.3c13-3.4,18.7-14.6,18.7-21c0-9.6-7.9-17-22.1-19.3
	C368,133.4,379.4,113.9,379.4,91.2z"/>
</svg>
