<?xml version="1.0" encoding="utf-8"?>
<!-- Generator: Adobe Illustrator 21.1.0, SVG Export Plug-In . SVG Version: 6.00 Build 0)  -->
<svg version="1.1" id="Layer_1" xmlns="http://www.w3.org/2000/svg" xmlns:xlink="http://www.w3.org/1999/xlink" x="0px" y="0px"
	 viewBox="0 0 989 305" style="enable-background:new 0 0 989 305;" xml:space="preserve">
<style type="text/css">
	.st0{fill:#FFFFFF;}
</style>
<g>
	
		<ellipse transform="matrix(0.6938 -0.7202 0.7202 0.6938 -82.4569 104.6889)" class="st0" cx="81.9" cy="149.3" rx="75.1" ry="75.1"/>
	
		<ellipse transform="matrix(0.6938 -0.7202 0.7202 0.6938 -33.6543 261.7941)" class="st0" cx="291" cy="170.5" rx="42.8" ry="42.8"/>
	
		<ellipse transform="matrix(0.6938 -0.7202 0.7202 0.6938 -12.9518 138.9983)" class="st0" cx="157" cy="84.7" rx="64.8" ry="64.8"/>
	<ellipse transform="matrix(0.6938 -0.7202 0.7202 0.6938 -48.5247 196.2863)" class="st0" cx="206.5" cy="155.2" rx="76" ry="76"/>
</g>
<g>
	<g>
		
			<ellipse transform="matrix(0.6938 -0.7202 0.7202 0.6938 59.3246 593.2126)" class="st0" cx="727.2" cy="226.8" rx="68.5" ry="68.5"/>
		
			<ellipse transform="matrix(0.6938 -0.7202 0.7202 0.6938 29.3649 543.3889)" class="st0" cx="653.6" cy="237.2" rx="42.8" ry="42.8"/>
		
			<ellipse transform="matrix(0.6938 -0.7202 0.7202 0.6938 119.0423 617.7653)" class="st0" cx="785.9" cy="168.9" rx="64.8" ry="64.8"/>
		<ellipse transform="matrix(0.6938 -0.7202 0.7202 0.6938 98.6211 665.5475)" class="st0" cx="831.9" cy="216.8" rx="76" ry="76"/>
	</g>
	<ellipse transform="matrix(0.6938 -0.7202 0.7202 0.6938 117.2959 722.2171)" class="st0" cx="907.9" cy="223.2" rx="76" ry="76"/>
</g>
</svg>
