<?xml version="1.0" encoding="utf-8"?>
<!-- Generator: Adobe Illustrator 21.1.0, SVG Export Plug-In . SVG Version: 6.00 Build 0)  -->
<svg version="1.1" id="Layer_1" xmlns="http://www.w3.org/2000/svg" xmlns:xlink="http://www.w3.org/1999/xlink" x="0px" y="0px"
	 viewBox="0 0 62.7 85.5" style="enable-background:new 0 0 62.7 85.5;" xml:space="preserve">
<style type="text/css">
	.st0{fill:#3A3434;}
	.st1{fill:#D89839;}
	.st2{fill:none;stroke:#000000;stroke-width:2.3078;stroke-linecap:round;stroke-miterlimit:10;}
	.st3{fill:none;stroke:#000000;stroke-width:1.3106;stroke-linecap:round;stroke-miterlimit:10;}
</style>
<path class="st0" d="M49.3,3.6L29.8,5.2c-2.2,0.5-4,2.3-4.4,4.6l-2.3,23.6c-1.8,7-6.1,11.3-9.1,13.8c-3.1,2.5-5.5,4.4-9.1,6.7
	c-6.7,4.4,19,27.6,26.4,28.3c5.6,0.5,7.4-9.9-0.8-18.1c-10.6-10.6,7.9-23.6,11.7-27.2c0,0,4.7-6.3,18.7-8.7"/>
<path class="st1" d="M17,47.2c-3.9-0.7-8.5,4.4-12.1,6.7c-6.7,4.4,19,27.6,26.4,28.3c5.6,0.5,6.8-8.6-0.8-18.1
	c-2-3.5-3.2-9.8-0.8-13.6C32.7,45.9,20.6,47.8,17,47.2z"/>
<path class="st2" d="M49.3,3.6L29.8,5.2c-2.2,0.5-4,2.3-4.4,4.6l-2.3,23.6c-1.8,7-6.1,11.3-9.1,13.8c-3.1,2.5-5.5,4.4-9.1,6.7
	c-6.7,4.4,19,27.6,26.4,28.3c5.6,0.5,7.4-9.9-0.8-18.1c-10.6-10.6,12.3-30.7,20.3-33"/>
<path class="st3" d="M30.1,81.8c0,0,5.1-3.1,1.7-9.5"/>
<path class="st3" d="M26.8,80.8c0,0,5.1-3.1,1.7-9.5"/>
</svg>
