<?xml version="1.0" encoding="utf-8"?>
<!-- Generator: Adobe Illustrator 21.1.0, SVG Export Plug-In . SVG Version: 6.00 Build 0)  -->
<svg version="1.1" id="Layer_1" xmlns="http://www.w3.org/2000/svg" xmlns:xlink="http://www.w3.org/1999/xlink" x="0px" y="0px"
	 viewBox="0 0 67 87" style="enable-background:new 0 0 67 87;" xml:space="preserve">
<style type="text/css">
	.st0{fill:#3A3434;}
	.st1{fill:#D89839;}
	.st2{fill:none;stroke:#000000;stroke-width:2.3078;stroke-linecap:round;stroke-miterlimit:10;}
	.st3{fill:none;stroke:#000000;stroke-width:1.3106;stroke-linecap:round;stroke-miterlimit:10;}
</style>
<path class="st0" d="M59.7,28c-14,2.4-18.7,8.7-18.7,8.7c-3.7,3.6-22.3,16.6-11.7,27.2c8.2,8.2,6.4,18.6,0.8,18.1
	C22.7,81.3-3,58.1,3.7,53.7c3.6-2.3,6-4.2,9.1-6.7c3-2.5,7.3-6.8,9.1-13.8l2.3-23.6c0.4-2.3,2.2-4,4.4-4.6l19.5-1.6"/>
<path class="st1" d="M20.4,37.3c-3,6.2-4.7,7.2-7.6,9.7c-3.1,2.5-5.5,4.4-9.1,6.7C-3,58.1,22.7,81.3,30.1,82
	c5.6,0.5,6.8-8.6-0.8-18.1c-2-3.5-2.8-6.8-1.9-11.2C29.6,42.5,20.4,37.3,20.4,37.3z"/>
<path class="st2" d="M50.7,32.9c-8,2.3-32,20.4-21.3,31c8.2,8.2,6.4,18.6,0.8,18.1C22.7,81.3-3,58.1,3.7,53.7c3.6-2.3,6-4.2,9.1-6.7
	c3-2.5,7.3-6.8,9.1-13.8l2.3-23.6c0.4-2.3,2.2-4,4.4-4.6l19.5-1.6"/>
<path class="st3" d="M29.2,81.2c0,0,5.1-3.1,1.7-9.5"/>
<path class="st3" d="M25.9,80.2c0,0,5.1-3.1,1.7-9.5"/>
<path class="st0" d="M48.2,4.5c5.2-2,12.9,1.1,15.5,7.9c2.6,6.8,1.3,13.6-4,15.6"/>
</svg>
