<?xml version="1.0" encoding="utf-8"?>
<!-- Generator: Adobe Illustrator 21.1.0, SVG Export Plug-In . SVG Version: 6.00 Build 0)  -->
<svg version="1.1" id="Layer_1" xmlns="http://www.w3.org/2000/svg" xmlns:xlink="http://www.w3.org/1999/xlink" x="0px" y="0px"
	 viewBox="0 0 1247.9 392" style="enable-background:new 0 0 1247.9 392;" xml:space="preserve">
<style type="text/css">
	.st0{fill:none;stroke:#009345;stroke-width:3.415;stroke-linecap:round;stroke-linejoin:round;}
	.st1{fill:none;stroke:#0A3D23;stroke-width:3.0239;stroke-linecap:round;stroke-linejoin:round;}
	.st2{fill:none;stroke:#006838;stroke-width:2.1193;stroke-linecap:round;stroke-linejoin:round;}
	.st3{fill:none;stroke:#006838;stroke-width:3.415;stroke-linecap:round;stroke-linejoin:round;}
	.st4{fill:none;stroke:#009345;stroke-width:2.2714;stroke-linecap:round;stroke-linejoin:round;}
	.st5{fill:none;stroke:#0A3D23;stroke-width:3.2988;stroke-linecap:round;stroke-linejoin:round;}
	.st6{fill:none;stroke:#0A3D23;stroke-width:3.415;stroke-linecap:round;stroke-linejoin:round;}
	.st7{fill:none;stroke:#006838;stroke-width:2.4996;stroke-linecap:round;stroke-linejoin:round;}
	.st8{fill:none;stroke:#0A3D23;stroke-width:4.2046;stroke-linecap:round;stroke-linejoin:round;}
	.st9{fill:none;stroke:#006838;stroke-width:2.2262;stroke-linecap:round;stroke-linejoin:round;}
	.st10{fill:none;stroke:#006838;stroke-width:3.1752;stroke-linecap:round;stroke-linejoin:round;}
	.st11{fill:none;stroke:#0A3D23;stroke-width:2.9653;stroke-linecap:round;stroke-linejoin:round;}
	.st12{fill:none;stroke:#0A3D23;stroke-width:2.1023;stroke-linecap:round;stroke-linejoin:round;}
	.st13{fill:none;stroke:#006838;stroke-width:3.234;stroke-linecap:round;stroke-linejoin:round;}
	.st14{fill:none;stroke:#009345;stroke-width:2.8826;stroke-linecap:round;stroke-linejoin:round;}
	.st15{fill:none;stroke:#0A3D23;stroke-width:3.6218;stroke-linecap:round;stroke-linejoin:round;}
	.st16{fill:none;stroke:#009345;stroke-width:3.5076;stroke-linecap:round;stroke-linejoin:round;}
	.st17{fill:none;stroke:#009345;stroke-width:2.4268;stroke-linecap:round;stroke-linejoin:round;}
	.st18{fill:none;stroke:#006838;stroke-width:2.5392;stroke-linecap:round;stroke-linejoin:round;}
	.st19{fill:none;stroke:#009345;stroke-width:3.3204;stroke-linecap:round;stroke-linejoin:round;}
	.st20{fill:none;stroke:#009345;stroke-width:3.3745;stroke-linecap:round;stroke-linejoin:round;}
	.st21{fill:none;stroke:#006838;stroke-width:3.1933;stroke-linecap:round;stroke-linejoin:round;}
	.st22{fill:none;stroke:#0A3D23;stroke-width:1.8592;stroke-linecap:round;stroke-linejoin:round;}
	.st23{fill:none;stroke:#006838;stroke-width:2.7594;stroke-linecap:round;stroke-linejoin:round;}
	.st24{fill:none;stroke:#0A3D23;stroke-width:2.7334;stroke-linecap:round;stroke-linejoin:round;}
	.st25{fill:none;stroke:#0A3D23;stroke-width:2.929;stroke-linecap:round;stroke-linejoin:round;}
	.st26{fill:none;stroke:#006838;stroke-width:2.9002;stroke-linecap:round;stroke-linejoin:round;}
	.st27{fill:none;stroke:#009345;stroke-width:2.693;stroke-linecap:round;stroke-linejoin:round;}
	.st28{fill:none;stroke:#006838;stroke-width:2.118;stroke-linecap:round;stroke-linejoin:round;}
	.st29{fill:none;stroke:#009345;stroke-width:2.8621;stroke-linecap:round;stroke-linejoin:round;}
	.st30{fill:#499353;}
	.st31{fill:#61C46E;}
	.st32{fill:#543421;}
	.st33{fill:#A06E4E;stroke:#543421;stroke-width:0.8858;stroke-linejoin:round;stroke-miterlimit:10;}
	.st34{fill:none;stroke:#543421;stroke-width:0.6644;stroke-linejoin:round;stroke-miterlimit:10;}
</style>
<g>
	<g>
		<g>
			<polyline class="st0" points="1239.8,265.6 1190,264.7 1271.4,261 1192.2,259.6 1271.1,255.9 1192.4,254.5 1272.2,250.7 
				1195.8,249.4 1272.1,245.6 1195.9,244.3 1268,240.4 1198.5,239.2 1266.3,235.3 1198.1,234.1 1263.5,230.1 1199.5,229 1262.2,225 
				1202.1,223.9 1261.6,219.8 1203.3,218.8 1259.7,214.7 1201.4,213.7 1262.6,209.6 1203.6,208.6 1258.3,204.4 1208,203.5 
				1258.6,199.3 1209.3,198.4 1256.1,194.1 1209.7,193.3 1254.6,189 1211.9,188.2 1254.4,183.8 1211.3,183.1 1254.4,178.7 
				1211.3,178 1251,173.5 1215.1,172.9 1247.4,168.4 1217.5,167.8 1245.8,163.2 1215.8,162.7 1245,158.1 1220.4,157.6 1244.1,152.9 
				1219.8,152.5 1243.7,147.8 1221.7,147.4 1241.8,142.7 1221.6,142.3 1242.3,137.5 1225.8,137.2 1242,132.4 1222.7,132.1 
				1237.2,127.2 1224.5,127 1235.4,122 1228.3,121.9 1235.4,116.9 1230.4,116.8 1232.4,111.7 1231.4,111.7 1232.4,106.6 
				1229.9,106.6 			"/>
		</g>
	</g>
	<g>
		<g>
			<polyline class="st1" points="1203.2,249.3 1158.6,248.5 1247.1,245.5 1162.1,244.1 1243.2,241 1164.7,239.6 1243.2,236.5 
				1165.5,235.1 1241.7,231.9 1166.7,230.6 1240.1,227.4 1168.2,226.1 1238,222.8 1172,221.6 1239,218.3 1171.1,217.1 1233.8,213.7 
				1175.1,212.6 1232.1,209.1 1175.8,208.1 1231.3,204.5 1174.4,203.5 1231,200 1179.3,199.1 1230.2,195.5 1178,194.6 1227.6,190.9 
				1182.3,190.1 1225.1,186.3 1182.7,185.5 1223.4,181.7 1183.5,181 1223.5,177.1 1184.3,176.4 1220.3,172.5 1189.4,171.9 
				1219.8,167.9 1189.6,167.3 1217.4,163.3 1190.3,162.8 1217.2,158.7 1191.6,158.3 1213.6,154.1 1194,153.8 1210.9,149.6 
				1197,149.3 1208.5,145 1199.5,144.8 1206.8,140.4 1199.9,140.3 1208.6,135.9 1200.4,135.8 1205.4,131.3 1202.7,131.3 			"/>
		</g>
	</g>
	<g>
		<g>
			<polyline class="st2" points="620.2,215.7 588.5,215.2 638.3,212.8 590.4,212 637.6,209.6 592.3,208.8 636.7,206.4 593.1,205.7 
				637.5,203.3 592.7,202.5 635.5,200.1 591.8,199.3 636.2,196.9 592.9,196.2 634,193.7 594.7,193 633.4,190.5 596.6,189.9 
				632.1,187.3 595.7,186.7 632.5,184.1 598.2,183.5 631.7,180.9 597,180.3 630.6,177.8 597.9,177.2 630.2,174.6 597.9,174 
				627.7,171.3 599.5,170.9 627.1,168.1 601.7,167.7 627.1,164.9 602.9,164.5 625.5,161.7 603.3,161.4 625.7,158.6 602.9,158.2 
				624.5,155.4 603.6,155 624.7,152.2 605.1,151.9 622.4,149 605.9,148.7 621.4,145.8 604.6,145.5 623.3,142.6 607.6,142.4 
				621.1,139.4 607,139.1 619.5,136.2 607.5,136 620.5,133 609.1,132.8 618.7,129.8 608.1,129.6 619.4,126.6 609.9,126.5 
				616.9,123.4 610.3,123.3 618,120.3 611.3,120.2 617.6,117.1 613.8,117 616.4,113.9 613,113.8 614.6,110.6 614,110.6 			"/>
		</g>
	</g>
	<g>
		<g>
			<polyline class="st3" points="1173.8,227.7 1127.7,226.9 1212.8,223.3 1126.9,221.8 1209.3,218.1 1131.6,216.8 1207.6,213 
				1131.6,211.6 1205.5,207.8 1130,206.5 1206.5,202.7 1133.4,201.4 1201.8,197.5 1135,196.3 1204.6,192.4 1138.7,191.3 
				1202.6,187.3 1135.9,186.1 1202,182.1 1138,181 1200.2,177 1141.9,176 1195.4,171.8 1141.2,170.8 1197.8,166.7 1141.9,165.7 
				1192.3,161.5 1143.5,160.6 1192,156.3 1146.7,155.5 1191.5,151.2 1145.9,150.4 1191.7,146.1 1147.7,145.3 1186.7,140.9 
				1149.8,140.2 1187.7,135.8 1150.3,135.1 1188.2,130.7 1154,130.1 1184.3,125.5 1153,124.9 1182.8,120.3 1154.2,119.8 
				1182.7,115.2 1155.2,114.7 1182.4,110.1 1156.4,109.6 1181.8,104.9 1157.5,104.5 1177.2,99.7 1159.6,99.4 1176.5,94.6 1162,94.3 
				1177.4,89.5 1164.1,89.3 1174.6,84.3 1163,84.1 1173,79.2 1167.9,79.1 1171.4,74 1168.9,74 1169.9,68.9 1169.1,68.9 			"/>
		</g>
	</g>
	<g>
		<g>
			<polyline class="st4" points="56.8,304.5 23.2,303.9 64.5,301.2 23.7,300.5 63.6,297.8 26,297.2 63.5,294.4 26.7,293.8 62.1,291 
				25.9,290.4 62.9,287.6 24.9,286.9 60.4,284.1 28,283.5 61.5,280.7 26.2,280.1 60.6,277.3 29.2,276.7 59.6,273.9 27.8,273.3 
				58.2,270.4 28.8,269.9 60.1,267.1 29.9,266.5 58.2,263.6 30.6,263.1 58.2,260.2 29.7,259.7 57,256.7 29,256.3 57.8,253.4 
				30.3,252.9 56.4,249.9 31.9,249.5 56.8,246.5 31,246.1 56.1,243.1 33.4,242.7 57.1,239.7 31.7,239.3 55.3,236.3 32.4,235.9 
				53.9,232.9 33.3,232.5 53.4,229.5 32.8,229.1 55,226.1 34.5,225.8 52.7,222.7 33.4,222.3 53,219.3 34.6,219 53.7,215.9 
				35.2,215.6 51.2,212.5 37,212.3 52.3,209.1 38.2,208.9 50.8,205.7 35.9,205.5 49.5,202.3 36.4,202.1 48.9,198.9 38.8,198.7 
				48.2,195.5 37.7,195.3 47.8,192 40.4,191.9 49.4,188.7 39.9,188.5 49.2,185.2 41.1,185.1 47,181.8 41.5,181.7 46.5,178.4 
				40.9,178.3 48.5,175.1 42.2,175 47.1,171.6 42.8,171.5 46.4,168.2 40.6,168.1 46.2,164.8 42.5,164.8 45,161.4 43.1,161.4 
				46.2,158.1 44.4,158 44.2,154.6 42.3,154.6 			"/>
		</g>
	</g>
	<g>
		<g>
			<polyline class="st5" points="23.1,308.3 -25.1,307.5 58.5,304 -22.7,302.6 58,299 -22.4,297.6 58.8,294.1 -18.9,292.7 
				58.6,289.1 -18.7,287.8 54.5,284.2 -16,282.9 52.6,279.2 -16.3,277.9 49.8,274.1 -14.8,273 48.4,269.2 -12,268.1 47.6,264.2 
				-10.7,263.2 45.7,259.2 -12.4,258.2 48.3,254.3 -10.1,253.3 44,249.3 -5.7,248.4 44.1,244.3 -4.3,243.5 41.5,239.4 -3.7,238.6 
				39.9,234.4 -1.4,233.7 39.6,229.4 -1.9,228.7 39.4,224.5 -1.7,223.8 35.9,219.5 2.1,218.9 32.3,214.5 4.5,214 30.6,209.5 
				3.1,209 29.6,204.6 7.7,204.2 28.6,199.6 7.3,199.2 28.1,194.6 9.3,194.3 26.1,189.7 9.3,189.4 26.4,184.7 13.6,184.5 
				25.9,179.7 10.8,179.5 21.1,174.7 12.7,174.6 19.2,169.7 16.5,169.7 19,164.7 18.7,164.7 			"/>
		</g>
	</g>
	<g>
		<g>
			<polyline class="st0" points="1050.8,182.2 1005.7,181.5 1084.8,177.7 1003.7,176.3 1087.1,172.6 1006.5,171.2 1082.3,167.4 
				1007,166.1 1081,162.3 1011.1,161.1 1082,157.2 1011.4,155.9 1082.4,152.1 1011.2,150.8 1081.2,146.9 1014.6,145.8 1075.3,141.7 
				1014.9,140.6 1077.9,136.6 1017.1,135.5 1075.2,131.4 1016.4,130.4 1073.2,126.3 1018.8,125.3 1073.7,121.2 1017.9,120.2 
				1069.2,116 1019.5,115.1 1067.8,110.8 1021,110 1066.3,105.7 1024.7,104.9 1066.8,100.5 1022.9,99.8 1063.2,95.4 1028.4,94.8 
				1061.5,90.2 1025.6,89.6 1062.1,85.1 1030.5,84.5 1060.8,79.9 1028.1,79.4 1062.2,74.9 1031.3,74.3 1060.5,69.7 1032.5,69.2 
				1058.3,64.6 1036.1,64.2 1056.3,59.4 1037.1,59.1 1055.6,54.3 1035.8,53.9 1054.9,49.1 1037.9,48.8 1050.9,43.9 1037.5,43.7 
				1051.1,38.8 1039.6,38.6 1048.5,33.6 1041.1,33.5 1047.4,28.5 1043.3,28.4 1047.1,23.4 1046.8,23.4 			"/>
		</g>
	</g>
	<g>
		<g>
			<polyline class="st6" points="1114.1,174.5 1067.9,173.7 1153,170 1067.1,168.5 1149.6,164.9 1071.8,163.5 1147.9,159.7 
				1071.9,158.4 1145.7,154.5 1070.2,153.2 1146.8,149.4 1073.7,148.2 1142.1,144.2 1075.2,143.1 1144.9,139.2 1079,138 1142.9,134 
				1076.2,132.8 1142.2,128.9 1078.3,127.7 1140.4,123.7 1082.2,122.7 1135.6,118.5 1081.5,117.6 1138.1,113.4 1082.2,112.5 
				1132.6,108.2 1083.7,107.4 1132.3,103.1 1087,102.3 1131.8,97.9 1086.1,97.1 1132,92.8 1088,92.1 1127,87.6 1090.1,87 1128,82.5 
				1090.6,81.9 1128.4,77.4 1094.2,76.8 1124.6,72.2 1093.3,71.7 1123,67.1 1094.5,66.6 1122.9,61.9 1095.4,61.5 1122.6,56.8 
				1096.7,56.4 1122.1,51.7 1097.8,51.3 1117.4,46.5 1099.9,46.2 1116.7,41.3 1102.3,41.1 1117.6,36.2 1104.4,36 1114.9,31.1 
				1103.3,30.9 1113.2,25.9 1108.2,25.8 1111.6,20.8 1109.2,20.7 1110.1,15.6 1109.3,15.6 			"/>
		</g>
	</g>
	<g>
		<g>
			<polyline class="st7" points="1080.1,192.3 1046.4,191.7 1110.2,189.1 1045.8,187.9 1107.6,185.3 1049.3,184.3 1106.3,181.5 
				1049.4,180.5 1104.7,177.7 1048.2,176.8 1105.4,174 1050.8,173.1 1101.9,170.2 1052,169.3 1103.9,166.5 1054.8,165.6 
				1102.4,162.7 1052.8,161.8 1101.8,158.9 1054.4,158.1 1100.5,155.2 1057.3,154.4 1096.9,151.4 1056.8,150.7 1098.7,147.7 
				1057.4,147 1094.6,143.8 1058.6,143.2 1094.3,140.1 1061,139.5 1093.9,136.3 1060.4,135.7 1094,132.6 1061.8,132 1090.3,128.8 
				1063.4,128.3 1091,125.1 1063.8,124.6 1091.2,121.3 1066.6,120.9 1088.4,117.5 1065.9,117.1 1087.2,113.8 1066.8,113.4 
				1087.1,110 1067.6,109.6 1086.8,106.2 1068.5,105.9 1086.4,102.5 1069.4,102.2 1082.9,98.7 1071,98.5 1082.3,94.9 1072.8,94.8 
				1082.9,91.2 1074.3,91 1080.9,87.4 1073.6,87.3 1079.6,83.7 1077.2,83.6 1078.4,79.9 1078,79.9 			"/>
		</g>
	</g>
	<g>
		<g>
			<polyline class="st8" points="149.4,333.2 84.3,332.1 187.6,327.6 88.8,325.9 187,321.3 92.5,319.7 184.7,315 93.3,313.4 
				182.5,308.6 90.9,307 185.7,302.3 93.4,300.7 181.9,295.9 94.8,294.4 182,289.7 96.5,288.2 175.6,283.3 98.3,281.9 173.7,277 
				104.2,275.7 172.9,270.6 101.4,269.4 172.9,264.3 105,263.1 168.3,257.9 104.1,256.8 172.1,251.7 108,250.6 167.6,245.3 
				110.6,244.3 168.9,239 113.7,238.1 163.1,232.6 111,231.7 163.2,226.3 116.4,225.5 162.9,220 114.4,219.1 161,213.7 118.4,212.9 
				159,207.3 117.6,206.6 156.3,200.9 118.4,200.3 155.7,194.6 120.2,194 155.1,188.3 126.4,187.8 150.3,181.9 127.5,181.5 
				149,175.6 125.6,175.2 147.4,169.3 131.7,169 147.8,163 132.9,162.7 145,156.6 131.2,156.4 140.3,150.3 133.8,150.1 139,143.9 
				136.1,143.9 139.6,137.6 137.8,137.6 			"/>
		</g>
	</g>
	<g>
		<g>
			<polyline class="st0" points="1143.6,245.6 1097.4,244.8 1182.6,241.1 1096.7,239.6 1179.1,235.9 1101.3,234.6 1177.4,230.8 
				1101.4,229.5 1175.3,225.6 1099.7,224.3 1176.3,220.5 1103.2,219.2 1171.6,215.3 1104.7,214.1 1174.4,210.2 1108.5,209.1 
				1172.4,205.1 1105.7,203.9 1171.8,199.9 1107.8,198.8 1170,194.8 1111.7,193.8 1165.2,189.6 1111,188.6 1167.6,184.5 
				1111.7,183.5 1162.1,179.3 1113.2,178.4 1161.8,174.2 1116.5,173.4 1161.3,169 1115.7,168.2 1161.5,163.9 1117.5,163.1 
				1156.5,158.7 1119.6,158.1 1157.5,153.6 1120.1,152.9 1157.9,148.5 1123.8,147.9 1154.1,143.3 1122.8,142.7 1152.6,138.2 
				1124,137.7 1152.4,133 1125,132.5 1152.2,127.9 1126.2,127.4 1151.6,122.8 1127.3,122.3 1147,117.6 1129.4,117.3 1146.3,112.4 
				1131.8,112.2 1147.1,107.3 1133.9,107.1 1144.4,102.1 1132.8,101.9 1142.7,97 1137.7,96.9 1141.2,91.9 1138.7,91.8 1139.6,86.7 
				1138.8,86.7 			"/>
		</g>
	</g>
	<g>
		<g>
			<polyline class="st3" points="143.9,346.5 98.8,345.8 177.9,342 96.8,340.6 180.2,336.9 99.6,335.5 175.5,331.7 100.1,330.4 
				174.1,326.6 104.2,325.4 175.1,321.5 104.5,320.2 175.5,316.4 104.3,315.1 174.3,311.2 107.8,310.1 168.5,306 108,304.9 
				171,300.9 110.2,299.8 168.3,295.7 109.5,294.7 166.3,290.6 111.9,289.6 166.9,285.5 111,284.5 162.3,280.3 112.6,279.4 
				160.9,275.1 114.1,274.3 159.4,270 117.8,269.2 160,264.8 116.1,264.1 156.3,259.7 121.5,259.1 154.6,254.5 118.7,253.9 
				155.2,249.4 123.7,248.8 153.9,244.2 121.3,243.7 155.3,239.2 124.5,238.6 153.6,234 125.6,233.5 151.5,228.9 129.2,228.5 
				149.4,223.7 130.3,223.4 148.7,218.6 128.9,218.2 148,213.4 131,213.1 144,208.2 130.6,208 144.2,203.1 132.7,202.9 141.6,197.9 
				134.2,197.8 140.5,192.8 136.4,192.7 140.2,187.7 139.9,187.7 			"/>
		</g>
	</g>
	<g>
		<g>
			<polyline class="st7" points="68.2,302.6 31.3,302 95.3,299.3 33.9,298.2 92.4,295.5 35.7,294.5 92.7,291.8 36,290.8 91.8,288.1 
				36.7,287.1 90.8,284.3 37.6,283.4 89.5,280.5 40.4,279.7 90.6,276.8 39.4,275.9 86.7,273 42.3,272.2 85.6,269.2 42.6,268.5 
				85.2,265.4 41.1,264.7 85.3,261.7 44.9,261 85,258 43.4,257.3 83.2,254.2 46.7,253.5 81.4,250.4 46.7,249.8 80.4,246.6 47,246 
				80.8,242.8 47.3,242.2 78.4,239 51.2,238.5 78.4,235.2 51,234.7 76.8,231.4 51.3,231 76.9,227.7 52.1,227.2 74.3,223.9 
				53.7,223.5 72.4,220.1 55.9,219.8 70.7,216.3 57.7,216.1 69.6,212.5 57.6,212.3 71.4,208.9 57.8,208.6 68.1,205 61,204.9 
				67.1,201.2 62,201.2 67.6,197.5 61.6,197.4 66.2,193.7 63.1,193.7 65.4,189.9 65,189.9 			"/>
		</g>
	</g>
	<g>
		<g>
			<polyline class="st9" points="183.8,303.3 153.3,302.8 191.6,300.1 152.8,299.4 191.2,296.7 153.8,296.1 188.4,293.3 
				154.7,292.7 188.2,290 153,289.4 188.1,286.6 155.7,286.1 188.8,283.3 154.6,282.7 187.6,279.9 156.5,279.4 189,276.6 
				156.8,276.1 188.3,273.3 154.8,272.7 187.4,269.9 155.7,269.4 186.7,266.6 156.1,266.1 184.8,263.2 157.8,262.8 185.5,259.9 
				157.8,259.4 185.4,256.6 159.7,256.1 185.9,253.2 160,252.7 183.7,249.8 160.1,249.4 185.1,246.5 158.2,246 183.2,243.2 
				160.7,242.8 182.2,239.8 160,239.4 182.5,236.4 161.4,236.1 182.5,233.1 161.7,232.7 183,229.7 162.4,229.4 180.1,226.4 
				163.8,226.1 182,223 162,222.7 180,219.7 163.7,219.4 181,216.4 164.2,216.1 180,213 165.4,212.8 177.9,209.6 166,209.4 
				177.8,206.3 164.7,206.1 176.9,203 166.5,202.8 176.7,199.6 167.3,199.4 177.1,196.3 166.9,196.1 176.4,193 167.5,192.8 
				176,189.6 166.9,189.4 177.1,186.2 167.6,186.1 176.8,182.9 168,182.7 176.4,179.5 169.8,179.4 174.3,176.1 169.5,176.1 
				175.4,172.8 169.1,172.7 174.2,169.4 169.8,169.3 172.4,166 169.6,166 172.6,162.7 169.9,162.7 172.7,159.4 170.9,159.3 
				172.3,156 172.2,156 			"/>
		</g>
	</g>
	<g>
		<g>
			<polyline class="st0" points="104.5,303.1 54.8,302.3 137.6,298.6 53.9,297.1 137.2,293.5 56.4,292.1 136.8,288.3 59.7,287 
				131.7,283.1 60.1,281.9 130.8,278 59.4,276.7 130.9,272.9 64,271.7 129.6,267.7 62.6,266.5 129.9,262.6 65.6,261.5 126.7,257.4 
				66.3,256.4 125.5,252.3 65.4,251.2 122.5,247.1 71,246.2 122.4,241.9 72.2,241.1 123.2,236.8 72.8,236 119.8,231.7 72.8,230.8 
				119.2,226.5 76.2,225.8 118.8,221.4 74.2,220.6 116.6,216.2 76.4,215.5 115.6,211.1 79.9,210.5 112.8,205.9 77.6,205.3 
				112.6,200.8 83,200.3 111.9,195.6 81.6,195.1 109.5,190.5 85.2,190.1 109.8,185.4 87.1,185 108.2,180.2 84.9,179.8 107,175.1 
				88.3,174.7 104.6,169.9 87.2,169.6 100.5,164.7 87.7,164.5 99.5,159.5 93.4,159.4 100.3,154.4 93.8,154.3 98,149.3 94.6,149.2 
				96.8,144.1 95.4,144.1 			"/>
		</g>
	</g>
	<g>
		<g>
			<polyline class="st10" points="212.6,323.4 170.6,322.7 246.1,319.3 168.9,317.9 248.2,314.6 171.5,313.2 243.7,309.7 172,308.5 
				242.4,305 175.9,303.8 243.3,300.2 176.3,299 243.5,295.4 176.2,294.2 242.4,290.7 179.4,289.6 236.9,285.8 179.7,284.8 
				239.2,281 181.8,280 236.6,276.2 181.3,275.2 234.6,271.4 183.6,270.5 235.1,266.6 182.8,265.7 230.8,261.8 184.3,261 
				229.5,257.1 185.7,256.3 228.1,252.3 189.3,251.6 228.5,247.5 187.7,246.8 225,242.7 192.8,242.1 223.4,237.9 190.3,237.3 
				223.8,233.1 195,232.6 222.6,228.3 192.8,227.8 223.8,223.6 195.8,223.2 222.2,218.9 197,218.4 220.1,214.1 200.4,213.7 
				218.1,209.3 201.4,209 217.5,204.5 200.2,204.2 216.7,199.7 202.2,199.4 212.9,194.9 201.9,194.7 213.1,190.2 203.9,190 
				210.6,185.3 205.4,185.2 209.5,180.5 207.5,180.5 			"/>
		</g>
	</g>
	<g>
		<g>
			<polyline class="st11" points="180.6,336.9 136.9,336.1 220.8,333.1 139.5,331.7 220.7,328.7 140.6,327.3 217.3,324.1 
				143.7,322.8 217.2,319.7 146.9,318.4 215.3,315.1 146.4,313.9 216.2,310.7 147.9,309.5 211.7,306.2 151.2,305.1 211.5,301.7 
				150.9,300.7 208.3,297.2 154.6,296.3 207.7,292.7 152.7,291.8 207.1,288.3 155.4,287.4 207.1,283.8 158.6,283 205.5,279.4 
				159.3,278.6 201.8,274.9 162,274.2 199.8,270.4 163.8,269.8 199.7,265.9 164.3,265.3 198.4,261.5 165.2,260.9 197.5,257 
				168,256.5 193,252.5 167.3,252.1 192.4,248 169.4,247.6 192.3,243.6 170.1,243.2 191.8,239.2 171.6,238.8 189.7,234.7 
				172.7,234.4 184.9,230.2 177.2,230 184.1,225.7 178.9,225.6 182.4,221.2 180.6,221.2 180.9,216.7 179.7,216.7 			"/>
		</g>
	</g>
	<g>
		<g>
			<polyline class="st3" points="1016.7,176.7 969.8,175.9 1053.7,172.3 969.8,170.8 1052.5,167.1 972.1,165.7 1047.4,161.9 
				974,160.6 1046.4,156.7 972.2,155.5 1045.6,151.6 977,150.4 1045.9,146.5 976.1,145.3 1043.4,141.3 979.6,140.2 1044.9,136.2 
				980.7,135.1 1043.1,131.1 978.4,129.9 1041,125.9 980.5,124.9 1039.2,120.8 981.8,119.8 1035.7,115.6 985.1,114.7 1036.1,110.5 
				985.7,109.6 1035.2,105.3 989.3,104.5 1035.2,100.2 990.5,99.4 1031.1,95 991.3,94.3 1032.7,89.9 989.1,89.1 1029,84.7 
				993.6,84.1 1026.8,79.6 993.3,79 1026.6,74.4 996.1,73.9 1025.8,69.3 997.2,68.8 1025.9,64.2 998.9,63.7 1020.7,59 1001.8,58.6 
				1023.1,53.9 999.7,53.5 1019.2,48.7 1003,48.4 1020.1,43.6 1004.6,43.3 1017.8,38.4 1007,38.2 1013.9,33.2 1008.6,33.1 
				1013.1,28.1 1007.4,28 1011,22.9 1010.7,22.9 1011.7,17.8 1010.3,17.8 			"/>
		</g>
	</g>
	<g>
		<g>
			<polyline class="st7" points="958.2,159.2 920.3,158.5 984.6,155.9 923.6,154.8 984.6,152.1 922.2,151 983.2,148.3 924.1,147.3 
				982.5,144.5 923.9,143.5 980.9,140.8 927.5,139.8 978.1,137 925.6,136.1 978.6,133.3 928.5,132.4 977.1,129.5 931.1,128.7 
				974.6,125.7 928.8,124.9 975.5,121.9 931,121.2 972.9,118.1 930.9,117.4 972,114.4 933.1,113.7 970.9,110.6 933.1,109.9 
				969.7,106.8 935.3,106.2 971,103.1 937.2,102.5 969.4,99.3 936.9,98.8 965.4,95.5 937,95 967.8,91.8 940,91.3 966.7,88 
				939.9,87.6 963.3,84.2 940.9,83.8 963.4,80.5 941.6,80.1 963.5,76.7 943.3,76.4 961.1,72.9 946.2,72.7 961.3,69.2 945.7,68.9 
				958.5,65.4 946,65.2 957.6,61.7 947.5,61.5 957.4,57.9 947.2,57.7 955.2,54.1 951.7,54 956,50.4 949.4,50.3 953.3,46.6 
				953.1,46.6 			"/>
		</g>
	</g>
	<g>
		<g>
			<polyline class="st12" points="981.9,159.2 951.4,158.7 1002.3,156.4 950.8,155.5 1002.1,153.2 952.3,152.4 1001.8,150.1 
				954.4,149.2 998.7,146.8 954.6,146.1 998.2,143.7 954.2,142.9 998.2,140.6 957,139.9 997.4,137.4 956.2,136.7 997.6,134.2 
				958,133.5 995.6,131 958.5,130.4 994.9,127.8 957.9,127.2 993,124.6 961.4,124.1 993,121.4 962.1,120.9 993.5,118.3 962.5,117.8 
				991.4,115.1 962.4,114.6 991,112 964.6,111.5 990.7,108.8 963.3,108.3 989.4,105.6 964.7,105.2 988.8,102.5 966.8,102.1 
				987,99.3 965.4,98.9 986.9,96.1 968.7,95.8 986.5,92.9 967.9,92.6 985,89.7 970.1,89.5 985.2,86.6 971.3,86.3 984.2,83.4 
				969.9,83.1 983.4,80.2 972,80 981.9,77 971.3,76.8 979.4,73.8 971.6,73.7 978.8,70.7 975.2,70.6 979.3,67.5 975.4,67.5 
				977.9,64.4 975.9,64.3 977.2,61.2 976.4,61.2 			"/>
		</g>
	</g>
	<g>
		<g>
			<polyline class="st11" points="344.2,311 304.2,310.3 387.8,307.4 303.9,305.9 385.3,302.9 307.8,301.5 384.8,298.5 307.4,297.1 
				383,294 309.3,292.7 378.9,289.5 309,288.3 379.3,285 310.1,283.8 378.1,280.5 315.3,279.4 377.3,276.1 314.3,275 376.2,271.6 
				315.6,270.6 374.1,267.1 317.6,266.2 372.7,262.7 318.2,261.8 368.1,258.2 321.8,257.4 368.4,253.8 324.8,253 366.6,249.3 
				324.6,248.6 364.8,244.8 324.4,244.1 364.3,240.4 328,239.7 361.8,235.9 329.2,235.3 358.2,231.4 332.9,230.9 356.5,226.9 
				333.9,226.5 358.3,222.5 334.2,222.1 355.6,218 336.3,217.7 351.8,213.5 338.4,213.3 351.5,209 339.1,208.8 352.7,204.6 
				342.1,204.4 348.1,200.1 342.5,200 345.6,195.6 343.9,195.5 347.4,191.1 345,191.1 			"/>
		</g>
	</g>
	<g>
		<g>
			<polyline class="st13" points="293.9,329 246.5,328.1 326.3,324.7 249.1,323.3 321.2,319.8 251.3,318.6 323.9,315 253.3,313.8 
				320.3,310.1 254.4,308.9 321.2,305.2 254.5,304.1 320.5,300.4 254.6,299.2 317.1,295.5 256.2,294.4 317.1,290.6 259.4,289.6 
				316.8,285.8 259,284.8 311.8,280.8 260.2,279.9 314.8,276.1 261.6,275.1 313.1,271.2 263,270.3 308.9,266.2 264.8,265.5 
				307.3,261.4 262.9,260.6 308.9,256.5 267.7,255.8 306.3,251.6 267.6,250.9 303.8,246.7 267.5,246.1 301.8,241.8 270.1,241.2 
				304.4,236.9 269.8,236.3 300.2,232 271.5,231.5 301.6,227.2 271.7,226.7 298.1,222.3 272.2,221.8 300.1,217.5 274,217 
				294.6,212.5 275.2,212.2 294.5,207.7 279.6,207.4 295.8,202.9 280,202.6 295.2,198 278.9,197.7 292.9,193.1 282.1,192.9 
				289.9,188.3 284.4,188.2 291.7,183.4 284.9,183.3 288.9,178.5 284.5,178.5 287.2,173.6 286,173.6 			"/>
		</g>
	</g>
	<g>
		<g>
			<polyline class="st14" points="311.6,323.5 269.1,322.7 352.2,319.9 272.6,318.5 350.4,315.5 271.2,314.1 349.7,311.1 
				275.4,309.8 347.2,306.7 273.7,305.5 346.8,302.4 278.9,301.2 346,298.1 280.8,296.9 344.9,293.7 278.8,292.6 342.4,289.4 
				282.3,288.3 341.2,285 283.4,284 340.4,280.7 283.6,279.7 337.2,276.3 286.1,275.4 334.3,271.9 289.8,271.2 334.8,267.6 
				291.5,266.9 332.2,263.2 290.6,262.5 330.6,258.9 292.4,258.2 328.2,254.5 296.6,254 326.2,250.1 294.8,249.6 326.6,245.8 
				299.6,245.3 323.9,241.4 300.4,241 320.2,237 303,236.7 319.9,232.7 302.1,232.4 320.6,228.4 305.6,228.1 315.8,224 307.6,223.8 
				317.5,219.7 309.2,219.5 314.5,215.3 308.6,215.2 313,211 311.5,211 			"/>
		</g>
	</g>
	<g>
		<g>
			<polyline class="st15" points="258.9,314.5 205.1,313.6 301.2,309.8 209.1,308.2 300.2,304.4 212.2,302.8 299.4,298.9 
				213.8,297.4 294,293.4 213.7,292 292.7,288 215.4,286.7 290.8,282.6 218.3,281.3 291.3,277.1 216.8,275.8 292.2,271.7 
				218.6,270.4 289.7,266.3 220.3,265 286.9,260.8 222.3,259.7 283.5,255.3 223.6,254.3 282.3,249.9 224.7,248.8 284,244.5 
				226.6,243.5 280.5,239 229.3,238.1 279.8,233.6 228.5,232.7 276.9,228 233.4,227.3 273.9,222.5 236,221.9 272,217.1 233.3,216.4 
				270.1,211.6 239,211.1 270.7,206.2 239,205.6 268.3,200.7 243.1,200.2 268.3,195.2 240.8,194.8 267.8,189.8 241.9,189.4 
				266.4,184.4 244.6,184 262.9,178.9 247,178.6 260.9,173.4 250.1,173.2 259,168 249.8,167.8 256.6,162.5 249.4,162.4 257,157 
				251.5,156.9 			"/>
		</g>
	</g>
	<g>
		<g>
			<polyline class="st16" points="390.9,324.7 342.2,323.9 426.5,320.1 339.4,318.5 423.5,314.7 340.5,313.3 423.2,309.5 
				345.4,308.1 422.2,304.3 344.9,302.9 419.1,298.9 345.4,297.7 417.8,293.7 349.1,292.5 415.2,288.4 347.4,287.2 416.2,283.2 
				349.7,282 414.8,277.9 353.8,276.9 412.7,272.7 355.6,271.7 412.7,267.4 352.4,266.4 409.2,262.1 357.5,261.2 408.1,256.8 
				356.8,255.9 407.5,251.5 360.2,250.7 403.7,246.2 362,245.5 404.8,240.9 361.3,240.2 405.7,235.6 360.6,234.8 401.5,230.3 
				365.7,229.7 400.4,225 367.8,224.4 400.3,219.7 367.2,219.1 395.5,214.4 366.8,213.9 398.2,209.2 367.7,208.7 396.5,203.9 
				373.4,203.5 395.9,198.6 375.1,198.3 392.9,193.3 375.7,193 388.5,187.9 374.1,187.7 390.7,182.7 375.2,182.4 390.3,177.5 
				377.5,177.3 385.5,172.1 377.8,172 383.9,166.9 378.8,166.8 386,161.6 382.8,161.6 			"/>
		</g>
	</g>
	<g>
		<g>
			<polyline class="st17" points="229.2,323.1 195.5,322.6 255,320 197.8,319 255.5,316.4 196.8,315.3 253.2,312.7 196.9,311.7 
				252.2,309 199,308.1 250.6,305.3 201.6,304.5 250.3,301.7 203,300.9 248.9,298.1 203.4,297.3 247.1,294.4 204.4,293.7 
				246.4,290.8 203.5,290 246.7,287.1 204,286.4 244.7,283.5 205,282.8 243.7,279.8 206.5,279.1 245.1,276.2 207.9,275.5 
				244.1,272.5 207.9,271.9 240.7,268.8 208.6,268.3 240.9,265.1 211.6,264.6 241.1,261.5 212.7,261 237.8,257.8 211.4,257.3 
				237.9,254.2 215.5,253.8 238.3,250.5 215.2,250.1 234.3,246.8 214.6,246.5 234,243.2 218.4,242.9 233.1,239.6 216.2,239.3 
				233.8,235.9 219.5,235.7 233.5,232.3 221.1,232.1 231.3,228.6 222.1,228.5 228.9,224.9 220.9,224.8 229.2,221.3 221.2,221.2 
				226.8,217.6 224.2,217.6 226.7,214 225.8,214 225.6,210.3 224,210.3 			"/>
		</g>
	</g>
	<g>
		<g>
			<polyline class="st18" points="355.9,346.6 320.7,346 392.2,343.4 319.1,342.1 388.9,339.6 321.4,338.4 386.1,335.7 324.8,334.6 
				387.4,331.9 325.4,330.8 385.8,328.1 326.2,327 383.9,324.2 326.5,323.2 381.4,320.3 327.4,319.4 381,316.5 330.1,315.6 
				381.4,312.8 331.4,311.9 379.6,308.9 334.1,308.1 378.9,305.1 333.7,304.3 374.9,301.3 333.9,300.5 373.5,297.4 334.6,296.8 
				372.3,293.6 335.7,293 370.1,289.8 340.6,289.3 369.9,286 339.5,285.5 369.4,282.2 341.3,281.7 366.4,278.3 343,277.9 
				365.1,274.5 344.9,274.1 365.5,270.7 344.5,270.3 364,266.8 346.1,266.5 362.9,263 348.6,262.7 362.5,259.1 348.5,258.9 
				358.8,255.2 349.5,255.1 358,251.4 351.6,251.3 358.2,247.6 352.9,247.5 357.5,243.8 355.4,243.7 			"/>
		</g>
	</g>
	<g>
		<g>
			<polyline class="st19" points="932.1,183.4 887.2,182.6 969.4,179 886.4,177.6 966,174 890.9,172.7 964.4,169 891,167.7 
				962.4,164 889.4,162.7 963.4,159.1 892.7,157.8 958.8,154 894.2,152.9 961.6,149 897.8,147.9 959.7,144 895.1,142.9 959,139 
				897.1,138 957.3,134 900.8,133.1 952.7,129 900.2,128.1 955.1,124.1 900.8,123.1 949.7,119 902.3,118.2 949.5,114 905.5,113.2 
				949,109 904.6,108.2 949.2,104 906.4,103.3 944.4,99 908.4,98.3 945.3,94 908.9,93.4 945.8,89 912.4,88.4 942.1,84 911.5,83.5 
				940.6,79 912.6,78.5 940.5,74 913.5,73.5 940.3,69 914.7,68.6 939.7,64.1 915.8,63.7 935.2,59 917.8,58.7 934.6,54 920.1,53.7 
				935.5,49 922.1,48.8 932.8,44 921.1,43.8 931.2,39 925.8,38.9 929.7,34 926.7,34 928.2,29 926.9,29 			"/>
		</g>
	</g>
	<g>
		<g>
			<polyline class="st13" points="485.4,315.8 442.6,315.1 515.3,311.5 440.7,310.2 517.5,306.7 443.2,305.4 513.1,301.8 
				443.6,300.6 511.9,297 447.4,295.8 512.9,292.1 447.7,291 513.4,287.2 447.4,286.1 512.3,282.4 450.6,281.3 506.8,277.4 
				450.8,276.4 509.3,272.6 452.8,271.6 506.9,267.7 452.1,266.7 505,262.7 454.3,261.9 505.6,257.9 453.4,257 501.4,253 
				454.7,252.2 500.2,248.2 456.1,247.4 498.8,243.3 459.6,242.6 499.4,238.4 457.8,237.7 496,233.6 462.9,233 494.5,228.7 
				460.2,228.1 495.1,223.8 464.8,223.3 493.9,218.9 462.5,218.4 495.4,214.1 465.4,213.6 493.8,209.3 466.4,208.8 491.9,204.4 
				469.8,204 490,199.5 470.7,199.2 489.4,194.7 469.3,194.3 488.8,189.8 471.3,189.5 485.1,184.9 470.8,184.6 485.4,180.1 
				472.7,179.8 483,175.1 474.1,175 482,170.2 476.1,170.1 481.8,165.4 479.3,165.4 479.8,160.5 478.7,160.5 			"/>
		</g>
	</g>
	<g>
		<g>
			<polyline class="st15" points="452,301.4 397.2,300.4 495,296.7 399.8,295.1 494.5,291.2 402.7,289.6 490,285.7 406.3,284.3 
				489.4,280.3 404.7,278.8 486.5,274.8 408.1,273.4 483.2,269.3 410.2,268.1 481.6,263.9 411.5,262.7 480.5,258.4 412.4,257.3 
				483.3,253.1 415,251.9 480.6,247.6 416.8,246.5 476.4,242.1 418.1,241.1 476.4,236.6 418.6,235.6 472.8,231.2 418.1,230.2 
				473.8,225.8 422.8,224.9 472.5,220.3 424.5,219.4 469.4,214.8 423.7,214 465.7,209.3 425.8,208.6 468.3,203.9 430.3,203.3 
				465.5,198.4 432.2,197.8 462.5,192.9 431.6,192.4 461.7,187.5 431.4,186.9 457.8,181.9 435.2,181.6 458.1,176.5 438.2,176.2 
				454.2,171 435.9,170.7 455.3,165.6 439.1,165.3 452.5,160.1 442,159.9 451.2,154.7 442.5,154.5 448.3,149.2 444.8,149.1 
				450.6,143.8 447.3,143.7 			"/>
		</g>
	</g>
	<g>
		<g>
			<polyline class="st9" points="424.5,303.3 391.5,302.8 430.7,300.1 392.4,299.4 429.3,296.7 392.8,296.1 429.8,293.4 
				393.1,292.8 429.2,290.1 393.7,289.5 427.6,286.7 393.8,286.1 428.7,283.4 395.2,282.8 426.8,280.1 395.5,279.5 427.9,276.8 
				395.7,276.2 426.7,273.4 394.3,272.9 427.4,270.1 397.2,269.6 424.5,266.7 395.5,266.2 424.7,263.4 397.1,262.9 424.1,260 
				398,259.6 423.1,256.7 398.5,256.2 422.9,253.3 398.4,252.9 423,250 399.9,249.6 422.6,246.7 397.9,246.2 423.4,243.3 
				399.8,242.9 423.3,240 401,239.6 421.6,236.6 400.2,236.2 420.5,233.3 399.8,232.9 420.2,229.9 402.9,229.6 420.7,226.6 
				403.2,226.3 421.6,223.3 401.6,223 420.8,219.9 402.8,219.6 419.2,216.6 404.6,216.3 419.5,213.2 403.8,213 419.7,209.9 
				405.5,209.7 416.7,206.5 404.1,206.3 419,203.2 403.5,202.9 418.8,199.8 405.9,199.6 417.7,196.4 405.3,196.2 417.3,193.1 
				406.5,192.9 416,189.8 407.8,189.6 415.7,186.4 405.5,186.2 414.7,183.1 408.8,183 413.2,179.7 407.5,179.6 415.5,176.4 
				407.7,176.3 415.2,173 408.8,172.9 413.6,169.7 409.6,169.6 412.9,166.3 409.7,166.3 413.9,163 411.4,162.9 413.7,159.6 
				411.8,159.6 410.2,156.2 410.1,156.2 			"/>
		</g>
	</g>
	<g>
		<g>
			<polyline class="st20" points="571.7,285 522.5,284.1 606.7,280.5 526.3,279.1 607.1,275.5 529,274.1 602.2,270.3 525.8,268.9 
				603.6,265.2 529.8,263.9 599.1,260.1 530,258.9 600.8,255.1 533.8,253.9 599.4,250 531.4,248.8 599,244.9 537,243.8 597.4,239.8 
				537.9,238.8 595.6,234.7 536.9,233.7 594.2,229.6 539.5,228.7 593.1,224.6 538.4,223.6 592.6,219.5 539.4,218.6 590.5,214.4 
				543.2,213.6 590.3,209.3 543.5,208.5 584.6,204.2 547.3,203.5 587.8,199.2 547.4,198.4 583.6,194 549.2,193.4 582.9,188.9 
				551.2,188.4 581.4,183.8 550.9,183.3 581,178.8 551,178.3 577.5,173.7 552.2,173.2 578,168.6 553.5,168.2 576.8,163.5 
				556.7,163.2 575.9,158.4 559.2,158.2 575.4,153.4 559.8,153.1 571.5,148.2 560.3,148 572.3,143.2 563,143 569.2,138.1 
				561.4,137.9 568.6,133 564.4,132.9 564.8,127.9 564.1,127.9 			"/>
		</g>
	</g>
	<g>
		<g>
			<polyline class="st19" points="646.3,243.9 599.5,243.1 677.4,239.5 601,238.2 679.9,234.6 603.6,233.2 677.7,229.6 601.6,228.2 
				678.1,224.6 603.4,223.3 675.1,219.6 604.5,218.4 675,214.7 604.9,213.4 674,209.7 607.7,208.5 672.4,204.6 607.2,203.5 
				667.5,199.6 609.4,198.6 669.1,194.6 609.9,193.6 668.3,189.7 610.9,188.6 666.4,184.6 613.6,183.7 663.5,179.6 615.1,178.8 
				665.2,174.7 614.7,173.8 662.2,169.7 618.7,168.9 658.7,164.6 617.5,163.9 658,159.6 621.2,159 658.6,154.6 624,154 657.3,149.7 
				622.6,149.1 655.3,144.7 624.1,144.1 652.6,139.6 627.6,139.2 651.5,134.6 625.4,134.2 649.5,129.6 629.3,129.2 651,124.6 
				628.6,124.3 648.2,119.6 630.2,119.3 646.6,114.6 631.7,114.4 645.7,109.6 634.8,109.4 644.9,104.6 635.7,104.5 644,99.6 
				635.4,99.5 640.3,94.6 639.4,94.6 642.1,89.6 637.9,89.5 			"/>
		</g>
	</g>
	<g>
		<g>
			<polyline class="st21" points="595,278.9 549.9,278.2 630.8,274.8 551.6,273.4 633,270.1 554.3,268.7 630.7,265.3 552.6,263.9 
				630.9,260.5 554.5,259.2 627.8,255.7 555.8,254.4 627.5,250.9 556.4,249.7 626.3,246.1 559.2,244.9 624.6,241.2 559,240.1 
				619.7,236.4 561.3,235.4 621,231.6 562,230.6 620.1,226.8 563.1,225.8 618,222 565.9,221.1 615,217.2 567.5,216.4 616.5,212.5 
				567.3,211.6 613.4,207.6 571.4,206.9 609.8,202.7 570.4,202.1 608.9,198 574.2,197.4 609.3,193.1 577.1,192.6 607.8,188.4 
				575.9,187.8 605.8,183.5 577.6,183 603,178.7 581.1,178.3 601.7,173.9 579.2,173.5 599.5,169 583.2,168.8 600.7,164.3 582.7,164 
				597.9,159.5 584.4,159.2 596.2,154.6 586,154.5 595.1,149.8 589.2,149.7 594.1,145 590.2,144.9 593.1,140.2 590.2,140.2 			"/>
		</g>
	</g>
	<g>
		<g>
			<polyline class="st11" points="622.9,262.9 579.8,262.1 662.3,259.2 581.4,257.8 664.3,254.8 584,253.4 662.1,250.3 586.5,249 
				660,245.9 586.9,244.6 659.3,241.4 588.7,240.2 657.8,236.9 588.6,235.7 654.9,232.5 589.8,231.3 653.4,228 590.4,226.9 
				653.2,223.5 593.4,222.5 651.5,219 593.9,218 647,214.5 595.3,213.6 648.7,210.1 597.3,209.2 643.3,205.5 601,204.8 643.1,201.1 
				602.3,200.4 643.6,196.7 602.9,195.9 641.6,192.2 605.9,191.6 636.9,187.7 605.9,187.1 635.4,183.2 609.5,182.7 634.2,178.7 
				607.5,178.2 632.2,174.2 610.9,173.8 634.1,169.8 612.2,169.4 632.9,165.3 613.5,164.9 627.3,160.8 616.9,160.6 627.1,156.3 
				617.7,156.1 627.7,151.9 617.5,151.7 625.9,147.4 618.8,147.2 621.4,142.8 620.2,142.8 			"/>
		</g>
	</g>
	<g>
		<g>
			<polyline class="st22" points="552.2,262.9 524.9,262.4 556.7,260.2 524.5,259.6 557.9,257.4 525.5,256.9 557.2,254.6 
				525.5,254.1 556.6,251.8 526.7,251.3 556.9,249 527.8,248.5 555.1,246.2 527.4,245.7 556.2,243.4 528.4,242.9 556.4,240.6 
				528,240.1 554.9,237.8 527.3,237.3 553.1,235 528.9,234.6 552.9,232.2 527.9,231.8 553.6,229.5 528.5,229 553.4,226.7 
				529.6,226.3 552,223.9 529.9,223.5 551.6,221.1 531.5,220.8 553.3,218.3 530,217.9 552.6,215.5 532.6,215.2 550.3,212.7 
				531.7,212.4 551.1,210 530.8,209.6 549.2,207.1 532.3,206.8 549.3,204.3 533,204 551,201.6 534.4,201.3 549.1,198.8 532.7,198.5 
				549.8,196 533.3,195.7 548.1,193.2 533.9,192.9 548.2,190.4 533.6,190.2 548.7,187.6 536,187.4 548.6,184.8 534.7,184.6 
				547.3,182 535.9,181.8 547.5,179.2 535,179 546.7,176.4 536.1,176.2 546.7,173.6 537.2,173.5 545.5,170.9 537.4,170.7 545.6,168 
				537.2,167.9 544.3,165.2 539,165.1 543.3,162.5 537.4,162.3 544.5,159.7 539.8,159.6 543.2,156.9 538.4,156.8 544.2,154.1 
				540.2,154 544,151.3 539.9,151.2 543.4,148.5 540,148.4 542.1,145.7 540.8,145.7 541.8,142.9 540.9,142.9 			"/>
		</g>
	</g>
	<g>
		<g>
			<polyline class="st21" points="699.2,222.9 652.6,222.1 737.6,218.8 656.4,217.4 737.9,214 659.1,212.6 733,209.1 656.3,207.8 
				734.2,204.3 660.3,203 729.8,199.5 660.6,198.3 731.1,194.7 664.3,193.5 729.6,189.9 662.3,188.7 729.1,185.1 667.8,184 
				727.3,180.2 668.8,179.2 725.5,175.4 668,174.4 724,170.6 670.7,169.7 722.8,165.8 669.8,164.9 722.2,161 670.9,160.1 
				719.9,156.2 674.7,155.4 719.6,151.4 675.1,150.6 713.9,146.5 679,145.9 716.8,141.7 679.2,141.1 712.7,136.9 681.1,136.3 
				711.8,132.1 683.2,131.6 710.2,127.2 683,126.8 709.7,122.5 683.4,122 706.2,117.6 684.7,117.2 706.5,112.8 686.1,112.5 
				705.2,108 689.3,107.7 704.1,103.2 691.9,103 703.5,98.4 692.6,98.2 699.6,93.5 693.2,93.4 700.2,88.7 695.9,88.7 697,83.9 
				694.6,83.9 			"/>
		</g>
	</g>
	<g>
		<g>
			<polyline class="st23" points="518.4,278.8 477.5,278.1 557,275.4 480.8,274 556,271.2 483.3,269.9 555.2,267.1 484.8,265.8 
				550.9,262.9 484.9,261.7 549.6,258.7 486.5,257.6 548,254.6 488.9,253.6 548.1,250.4 488,249.4 548.6,246.3 489.6,245.3 
				546.4,242.2 491.1,241.2 544.1,238 492.8,237.1 541.2,233.8 494,233 540.1,229.7 495.1,228.9 541.2,225.6 496.8,224.8 
				538.2,221.4 499.1,220.7 537.5,217.3 498.6,216.6 535.1,213 502.7,212.5 532.6,208.8 504.8,208.4 530.8,204.7 503,204.2 
				529.2,200.5 507.6,200.1 529.4,196.3 507.8,196 527.4,192.2 511.1,191.9 527.1,188 509.6,187.7 526.5,183.9 510.7,183.6 
				525.2,179.7 513,179.5 522.3,175.5 515.1,175.4 520.6,171.4 517.6,171.3 518.9,167.2 517.6,167.2 			"/>
		</g>
	</g>
	<g>
		<g>
			<polyline class="st24" points="667.3,237.2 627.6,236.5 713.4,234 629.5,232.5 714.9,229.9 632.2,228.5 712.5,225.8 635,224.5 
				710.2,221.7 635.8,220.4 709.1,217.6 637.8,216.4 707.3,213.5 638,212.3 704.3,209.4 639.5,208.2 702.5,205.2 640.4,204.2 
				701.9,201.1 643.7,200.1 699.9,197 644.5,196 695.4,192.8 646.1,191.9 696.5,188.7 648.4,187.8 691.2,184.5 652.2,183.8 
				690.6,180.4 653.8,179.7 690.7,176.3 654.7,175.7 688.4,172.2 657.9,171.6 683.7,168 658.3,167.5 681.9,163.8 662,163.5 
				680.4,159.7 660.5,159.4 678.2,155.5 664,155.3 679.6,151.5 665.6,151.2 678,147.3 667.2,147.1 672.5,143.1 670.8,143.1 
				671.9,139 671.9,139 			"/>
		</g>
	</g>
	<g>
		<g>
			<polyline class="st17" points="482.6,332.4 448.9,331.8 508.4,329.2 451.1,328.2 508.8,325.6 450.2,324.6 506.6,321.9 450.3,321 
				505.6,318.3 452.4,317.3 504,314.6 455,313.7 503.7,311 456.4,310.1 502.2,307.3 456.7,306.5 500.5,303.7 457.7,302.9 499.8,300 
				456.8,299.3 500,296.4 457.4,295.7 498.1,292.7 458.4,292 497.1,289 459.9,288.4 498.5,285.4 461.3,284.8 497.5,281.8 
				461.3,281.2 494,278.1 462,277.5 494.3,274.4 465,273.9 494.5,270.7 466.1,270.2 491.1,267 464.8,266.6 491.3,263.4 468.9,263 
				491.7,259.8 468.6,259.4 487.7,256.1 467.9,255.8 487.4,252.4 471.8,252.2 486.5,248.8 469.6,248.5 487.1,245.2 472.8,244.9 
				486.9,241.6 474.5,241.4 484.7,237.9 475.5,237.7 482.3,234.2 474.3,234 482.6,230.6 474.5,230.4 480.2,226.9 477.5,226.8 
				480.1,223.3 479.2,223.2 478.9,219.6 477.4,219.5 			"/>
		</g>
	</g>
	<g>
		<g>
			<polyline class="st0" points="904.1,215 853.3,214.1 938.9,210.4 857,209 938.2,205.3 859.7,203.9 937.6,200.2 861.1,198.8 
				932.7,195 860.8,193.7 931.6,189.8 862.3,188.6 930,184.7 864.9,183.6 930.6,179.6 863.2,178.4 931.7,174.5 864.8,173.3 
				929.5,169.3 866.2,168.2 927,164.2 867.9,163.1 924,159 869,158 923,153.9 869.9,152.9 924.8,148.8 871.5,147.8 921.6,143.6 
				873.9,142.8 921.1,138.5 872.9,137.6 918.6,133.3 877.4,132.6 916,128.1 879.7,127.5 914.3,123 876.9,122.3 912.7,117.8 
				882.2,117.3 913.4,112.7 882,112.1 911.4,107.5 885.7,107.1 911.5,102.4 883.4,101.9 911.2,97.3 884.2,96.8 910,92.1 886.6,91.7 
				906.9,87 888.7,86.6 905.2,81.8 891.4,81.6 903.6,76.7 891.1,76.5 901.5,71.5 890.5,71.3 902,66.4 892.3,66.2 897.3,61.2 
				896.5,61.2 898,56.1 896.5,56.1 			"/>
		</g>
	</g>
	<g>
		<g>
			<polyline class="st9" points="669.6,252.3 636.9,251.8 673.8,249.1 636,248.4 675.7,245.7 636.2,245.1 675.4,242.4 638.7,241.8 
				672.2,239 639.3,238.4 673.1,235.6 638.4,235 673.1,232.3 640.4,231.8 673.1,229 638.2,228.4 672.6,225.6 641.6,225.1 
				672.2,222.3 639.6,221.7 670.8,218.9 639.9,218.4 671,215.6 640.1,215 671.3,212.2 641.8,211.7 670.6,208.9 643.6,208.4 
				669.7,205.5 643.2,205.1 667.6,202.1 642.6,201.7 667.9,198.8 644.6,198.4 667.8,195.5 644.6,195.1 666.6,192.1 645.1,191.8 
				666.9,188.8 643.3,188.4 666.7,185.5 645.6,185.1 665.7,182.2 645.1,181.8 665.9,178.8 644.7,178.4 666.7,175.5 647.6,175.1 
				664.5,172.1 648.2,171.8 664.2,168.7 646.9,168.4 664.4,165.4 646.9,165.1 664.2,162 648.7,161.7 664.4,158.7 648.5,158.4 
				662.1,155.3 647.7,155 662.7,151.9 648.3,151.7 661.4,148.5 649.3,148.3 661.1,145.2 650.7,145 661.6,141.8 650,141.6 
				660.7,138.5 652.8,138.3 661,135.1 653.2,135 659.3,131.7 652.5,131.6 658.8,128.4 652.6,128.2 657.5,125 653.1,124.9 
				657.3,121.6 654.9,121.6 656.9,118.3 653.4,118.2 656.8,115 655.1,114.9 657.6,111.6 655.3,111.6 657.3,108.3 656.7,108.3 
				657.2,104.9 655,104.9 			"/>
		</g>
	</g>
	<g>
		<g>
			<polyline class="st25" points="860,187.4 816.8,186.7 886,183.5 818.4,182.3 886.4,179.1 819.8,177.9 885.2,174.7 821.9,173.6 
				883.6,170.2 823.1,169.2 883.7,165.8 825.2,164.8 879.7,161.3 824.9,160.4 882.3,157 827.5,156 877.3,152.5 828.6,151.6 
				879.1,148.1 829,147.3 877.4,143.7 828.3,142.9 875.3,139.3 830.8,138.5 873.2,134.8 832.7,134.1 875.1,130.5 830.4,129.7 
				871.1,126 835.2,125.4 872.1,121.6 835.8,121 871.1,117.2 836.7,116.6 871.9,112.9 836.6,112.3 869.9,108.4 835.7,107.8 
				868.6,104.1 839.5,103.6 867.4,99.7 838.7,99.2 866.7,95.3 841.6,94.8 864.6,90.8 841,90.4 865.2,86.4 842.5,86 863.7,82 
				844.5,81.6 860.1,77.5 842.9,77.2 859.3,73.2 847.4,73 857.7,68.7 846.7,68.5 856.4,64.3 847.3,64.1 858.3,59.9 847,59.7 
				857.5,55.5 851.4,55.4 855.7,51.1 849.6,51 853.9,46.6 853.6,46.6 			"/>
		</g>
	</g>
	<g>
		<g>
			<polyline class="st26" points="882.8,183.5 843.2,182.8 924.4,179.9 842.9,178.5 925.2,175.6 846.9,174.2 921.3,171.2 
				846.7,169.9 922.4,166.8 849.9,165.6 918.9,162.4 851.6,161.3 915.8,158 852.6,156.9 914.7,153.6 853.6,152.6 914.3,149.3 
				856.8,148.3 914.9,144.9 854.7,143.9 912.1,140.5 856.3,139.5 911.2,136.1 861.1,135.3 909.8,131.8 860.6,130.9 906.9,127.4 
				864.4,126.6 905,123 865.2,122.3 903.5,118.6 867,118 900.7,114.2 868.5,113.6 901.9,109.8 869.7,109.3 896.7,105.4 869.7,104.9 
				896.2,101 873.4,100.6 895.5,96.7 874.7,96.3 893.9,92.3 874.3,91.9 893.5,87.9 878.3,87.6 891.1,83.5 877.8,83.3 889.3,79.1 
				881.4,79 885.7,74.7 881.8,74.6 884.6,70.3 882.7,70.3 			"/>
		</g>
	</g>
	<g>
		<g>
			<polyline class="st27" points="824.6,201.8 787.3,201.2 863.9,198.5 790.2,197.2 864,194.4 789.5,193.1 861.1,190.4 790,189.1 
				859.6,186.3 792.7,185.1 857.5,182.2 795.9,181.1 856.8,178.2 797.8,177.1 854.8,174.1 798.6,173.1 852.5,170.1 800.1,169.2 
				851.3,166 799.4,165.1 851.2,162 800.4,161.1 848.6,157.9 801.9,157.1 847.2,153.8 803.9,153 848.4,149.8 805.8,149 846.9,145.7 
				806.2,145 842.7,141.6 807.3,141 842.6,137.5 811,137 842.4,133.5 812.6,132.9 838.3,129.4 811.6,128.9 838.1,125.3 816.4,125 
				838.2,121.3 816.5,120.9 833.4,117.2 816.1,116.9 832.6,113.1 820.8,112.9 831.3,109.1 818.7,108.9 831.6,105.1 822.7,104.9 
				831,101 824.8,100.9 828.1,96.9 826.4,96.9 826.6,92.9 826.1,92.8 			"/>
		</g>
	</g>
	<g>
		<g>
			<polyline class="st0" points="778.1,212.9 730.5,212.1 814.4,208.4 729,206.9 812.4,203.2 731.3,201.8 809.4,198.1 734.5,196.8 
				808.1,192.9 735.3,191.6 804.9,187.7 735.5,186.5 804,182.6 738.2,181.4 806.5,177.5 736.8,176.3 804.4,172.4 738.9,171.2 
				799.4,167.1 741.6,166.1 800.8,162 743.6,161 798.6,156.9 744.6,155.9 797.3,151.7 746.4,150.9 798,146.6 747.7,145.8 797,141.5 
				749.8,140.7 791.4,136.3 747.8,135.5 794.3,131.2 750.3,130.4 790.5,126 752.1,125.3 790.5,120.9 753.3,120.2 789.6,115.7 
				755.9,115.2 786.9,110.6 753.4,110 784.4,105.4 755.6,104.9 785.2,100.3 757.5,99.8 784.8,95.2 760.4,94.7 782.6,90 762.4,89.7 
				781,84.9 762.2,84.5 776.9,79.7 764.2,79.4 778,74.6 765.6,74.3 774.2,69.4 765.4,69.2 777.1,64.3 769.5,64.2 773.6,59.1 
				771.2,59.1 771.9,54 770.5,53.9 			"/>
		</g>
	</g>
	<g>
		<g>
			<polyline class="st28" points="808.3,190 778.7,189.5 817,187 777.3,186.3 816.1,183.8 778.4,183.2 814.7,180.6 780,180 
				814.2,177.4 780.1,176.8 812.7,174.2 779.9,173.6 812.5,171 781.2,170.5 814.4,167.9 779.9,167.3 813.5,164.7 780.9,164.2 
				810.8,161.5 782.1,161 812.1,158.3 783,157.8 811.1,155.1 783.2,154.7 810.7,152 784,151.5 811.5,148.8 784.4,148.3 811.3,145.6 
				785.3,145.2 808.2,142.4 783.6,142 810.4,139.2 784.8,138.8 808.4,136 785.5,135.6 808.8,132.8 785.9,132.4 808.7,129.7 
				787.2,129.3 807.3,126.5 785.2,126.1 806.2,123.3 786.2,122.9 807.1,120.1 787,119.8 807.2,116.9 788.4,116.6 806.2,113.8 
				789.3,113.5 805.6,110.6 788.7,110.3 803.5,107.3 789.6,107.1 804.6,104.2 790.1,104 802.6,101 789.6,100.8 804.8,97.9 
				791.7,97.6 803,94.7 792.4,94.5 802.2,91.5 792.5,91.3 802.5,88.3 792.7,88.2 802.9,85.2 793,85 801.1,82 793,81.8 801.1,78.8 
				793.1,78.6 799.8,75.5 793.9,75.4 798.4,72.4 793.1,72.3 798.3,69.2 793.7,69.1 800,66 795.4,66 797.8,62.8 794.6,62.8 
				797.7,59.6 796.4,59.6 798.5,56.4 795.7,56.4 			"/>
		</g>
	</g>
	<g>
		<g>
			<polyline class="st29" points="739,233.8 700.3,233.1 764.3,229.9 699.4,228.8 761.6,225.6 703.1,224.6 760.4,221.3 702.9,220.3 
				758.9,217 701.3,216 760,212.7 703.9,211.8 756.2,208.4 705,207.5 758.8,204.1 707.9,203.2 757.4,199.8 705.4,198.9 757.1,195.5 
				706.9,194.6 755.8,191.2 709.9,190.4 752,186.8 709.1,186.1 754.3,182.6 709.5,181.8 749.9,178.2 710.6,177.5 749.9,173.9 
				713.1,173.3 749.7,169.6 712.2,169 750,165.4 713.5,164.7 746.1,161 715,160.4 747.1,156.7 715.2,156.2 747.7,152.4 718.1,151.9 
				744.8,148.1 717,147.6 743.7,143.8 717.8,143.4 743.8,139.5 718.4,139 743.8,135.2 719.2,134.8 743.6,130.9 719.9,130.5 
				739.9,126.6 721.4,126.3 739.6,122.3 723.2,122 740.5,118 724.8,117.7 738.4,113.7 723.6,113.4 737.3,109.4 727.5,109.2 
				736.2,105.1 728.1,104.9 735.1,100.7 728,100.6 735.4,96.5 728.3,96.3 734.1,92.2 728.1,92.1 732.5,87.9 730.3,87.8 731.6,83.6 
				731.1,83.6 			"/>
		</g>
	</g>
	<g>
		<g>
			<polyline class="st24" points="756,196.7 715.3,196 803.4,193.4 719,191.9 801.2,189.3 721.5,187.9 798.5,185.2 721,183.8 
				797.2,181 724.3,179.8 798.5,177 724.9,175.7 795.9,172.8 727.9,171.7 791.4,168.7 729.6,167.6 789.9,164.6 733.2,163.6 
				787.5,160.5 732.5,159.5 788.2,156.4 734.8,155.5 785,152.3 735.5,151.4 782.4,148.2 738.6,147.4 781.9,144.1 741.5,143.4 
				779.2,139.9 741.7,139.2 777.3,135.8 745.7,135.2 778.4,131.7 746.3,131.1 775.5,127.5 746.5,127 774.4,123.4 750.9,123 
				772.3,119.3 752.1,119 767.2,115.1 751.5,114.9 766.7,111 753.5,110.8 765,106.9 758.3,106.8 764.8,102.8 759.8,102.7 
				763.6,98.7 762.1,98.6 			"/>
		</g>
	</g>
</g>
<g>
	<path class="st30" d="M1247.9,234.5c0,0-205.6-191.8-633.5,0S0,234.5,0,234.5V392h1247.9V234.5z"/>
</g>
<g>
	<path class="st31" d="M0,276.5c0,0,205.6-54.6,633.5,0s614.5,0,614.5,0V392H0V276.5z"/>
</g>
<g>
	<path class="st32" d="M279.1,242.3c0,0,1.2,26.4-6.2,30.8c-7.4,4.3-15.2,2.5-19.3,5.3c-4.1,2.8-10.3,11.5-16.5,14
		c0,0,2.5,3.7,9.9,1.9c7.4-1.9,13.4-2,15.6,0.5c2.2,2.6,17.7,2.6,25.8-7.4c0,0-5.3,5.6-5.3,10.3c0,4.7-10.3,11.8-15.2,10.9
		c0,0,13.6,1.9,24.9-4.7c11.2-6.6,16.2-2.5,21.2-9c5-6.6,10.3-0.6,13.6,4.1c3.4,4.7,10.9,6.4,14.4,9.9c3.5,3.5,11.5,7.9,15.9,6.9
		c0,0-6.8-7.4-4.1-12.4c2.7-5,1.6-9.3,1.6-9.3s13,12.1,30.8,6.6c0,0-3.1-1.6-4.1-4.7c-1-3.1-1-6.2-5.3-7.4c0,0,15.2,3.1,21.2,0
		c5.9-3.1,16.2-1.2,19.3-4.7c0,0-5.6,0.4-9-3.1c-3.5-3.5-12.4-2.5-15.6-4.3s-9.3-3.1-9.9-7.4s-7.4-19.6-6.6-23L279.1,242.3z"/>
	<g>
		<path class="st33" d="M303.1,231.2c0,0-22.3,2.3-24.2,9.4c-1.9,7,4.9,13.8,18.5,12.8c0,0-1.5,8.5,17.6,10
			c19.1,1.5,14.6-1.7,14.6-1.7s10.2,3.2,18.2,0.9c8.1-2.3,8.5-6.6,8.5-6.6s18.9-2.8,19.3-8.4c0.4-5.6-2.1-10.5-10.8-12.8
			c0,0,2.1-4.7-10.6-8.1c-12.8-3.4-18.1,0-18.1,0s-8.6-2.7-12.7,0.2c0,0-6.2-3-13.5-0.4C306.2,227.6,303.1,231.2,303.1,231.2z"/>
		<path class="st34" d="M305.5,232.7c0,0-19.5,1.9-21.2,7.5c-1.7,5.7,4.3,11.2,16.2,10.3c0,0-1.3,6.8,15.4,8.1s12.8-1.4,12.8-1.4
			s8.9,2.6,16,0.7c7.1-1.9,7.4-5.3,7.4-5.3s16.6-2.2,16.9-6.8c0.4-4.5-1.9-8.5-9.5-10.4c0,0,1.9-3.8-9.3-6.6
			c-11.2-2.7-15.8,0-15.8,0s-7.5-2.2-11.1,0.2c0,0-5.4-2.4-11.8-0.4C308.1,229.9,305.5,232.7,305.5,232.7z"/>
		<path class="st34" d="M307.3,234.1c0,0-17.7,1.5-19.2,6.1c-1.5,4.6,3.9,8.9,14.7,8.3c0,0-1.2,5.5,14,6.5c15.2,1,11.7-1.2,11.7-1.2
			s8.1,2,14.5,0.5s6.7-4.3,6.7-4.3s15.1-1.8,15.4-5.5c0.4-3.6-1.7-6.8-8.6-8.3c0,0,1.7-3-8.4-5.2c-10.1-2.2-14.4,0-14.4,0
			s-6.8-1.8-10.1,0.2c0,0-5-1.9-10.7-0.3C309.8,231.9,307.3,234.1,307.3,234.1z"/>
		<path class="st34" d="M310.7,235.6c0,0-15.2,1.2-16.5,4.7c-1.3,3.5,3.4,7,12.6,6.5c0,0-1,4.3,12,5s10-0.9,10-0.9s6.9,1.6,12.5,0.4
			c5.5-1.2,5.8-3.4,5.8-3.4s12.9-1.4,13.2-4.3s-1.4-5.3-7.4-6.5c0,0,1.4-2.4-7.3-4.1c-8.7-1.7-12.3,0-12.3,0s-5.8-1.4-8.7,0.1
			c0,0-4.3-1.5-9.1-0.2C312.8,233.8,310.7,235.6,310.7,235.6z"/>
		<path class="st34" d="M315.2,237.6c0,0-12,0.8-12.9,3.4c-1.1,2.5,2.7,5,9.9,4.5c0,0-0.8,3,9.5,3.5c10.3,0.5,7.9-0.6,7.9-0.6
			s5.5,1.2,9.7,0.3c4.3-0.8,4.5-2.3,4.5-2.3s10.1-1,10.4-3c0.3-2-1.2-3.7-5.8-4.6c0,0,1.2-1.7-5.7-2.8c-6.8-1.2-9.7,0-9.7,0
			s-4.6-1-6.8,0.1c0,0-3.4-1.1-7.2-0.2C316.8,236.3,315.2,237.6,315.2,237.6z"/>
		<path class="st34" d="M318,239.8c0,0-8.5,0.4-9.2,1.8s1.9,2.7,7,2.5c0,0-0.5,1.6,6.7,1.9c7.3,0.3,5.6-0.4,5.6-0.4s3.9,0.6,6.9,0.2
			c3.1-0.4,3.2-1.2,3.2-1.2s7.2-0.5,7.4-1.6c0.2-1.1-0.8-2-4.2-2.5c0,0,0.8-0.9-4.1-1.6c-4.9-0.7-6.9,0-6.9,0s-3.3-0.5-4.9,0
			c0,0-2.4-0.5-5.1-0.1C319.2,239.1,318,239.8,318,239.8z"/>
		<path class="st32" d="M323.4,241.4c0,0-3.5,0.2-3.8,0.7s0.8,1.1,2.9,1c0,0-0.3,0.7,2.7,0.8c3,0.1,2.3-0.2,2.3-0.2s1.6,0.3,2.8,0.1
			c1.2-0.2,1.3-0.5,1.3-0.5s2.9-0.3,3-0.7c0.1-0.4-0.4-0.8-1.7-1.1c0,0,0.4-0.4-1.7-0.6s-2.8,0-2.8,0s-1.3-0.2-1.9,0
			c0,0-1-0.3-2.1,0C323.9,241.1,323.4,241.4,323.4,241.4z"/>
	</g>
</g>
</svg>
