<?xml version="1.0" encoding="utf-8"?>
<!-- Generator: Adobe Illustrator 21.1.0, SVG Export Plug-In . SVG Version: 6.00 Build 0)  -->
<svg version="1.1" id="Layer_1" xmlns="http://www.w3.org/2000/svg" xmlns:xlink="http://www.w3.org/1999/xlink" x="0px" y="0px"
	 viewBox="0 0 227 147.9" style="enable-background:new 0 0 227 147.9;" xml:space="preserve">
<style type="text/css">
	.st0{fill:#3A3434;stroke:#000000;stroke-width:3.0436;stroke-linecap:round;stroke-miterlimit:10;}
	.st1{fill:#3A3434;}
	.st2{fill:#FFFFFF;}
	.st3{fill:none;stroke:#000000;stroke-width:3.0436;stroke-linecap:round;stroke-miterlimit:10;}
	.st4{fill:#FFFFFF;stroke:#000000;stroke-width:2.9364;stroke-miterlimit:10;}
	.st5{fill:#3C2415;stroke:#000000;stroke-width:2.9364;stroke-miterlimit:10;}
	.st6{fill:none;stroke:#000000;stroke-width:4.5654;stroke-linecap:round;stroke-miterlimit:10;}
</style>
<path class="st0" d="M122.5,138.4h-21.2c-12.6,0-34.9-36.5-44.7-53.9C53,78.3,51.4,71.1,52.1,64c2.8-30.6,17.5-53.7,49.6-53.7h20.9
	c33,0,48.7,23.5,52,54.7c0.9,8-1,16.1-5.4,22.9C158.1,104.9,134.8,138.4,122.5,138.4z"/>
<path class="st1" d="M120.5,144.4h-14.2c-17.2,0-31.1-13.9-31.1-31.1V112c0-11.3,9.2-20.5,20.5-20.5h35.2c11.4,0,20.6,9.2,20.6,20.6
	v1.3C151.5,130.5,137.6,144.4,120.5,144.4z"/>
<ellipse class="st2" cx="114.3" cy="142.1" rx="17.8" ry="3.1"/>
<path class="st3" d="M151.5,112.3v1.3c0,17.1-13.9,31-31,31h-14.2c-17.2,0-31.1-13.9-31.1-31.1v-1.3"/>
<path class="st0" d="M141.4,27.5l21.8-19c6.8-5.9,16.9-6.7,24.6-2l25.9,15.9c10.4,6.4,12.3,21,7.2,29.7c-9.1,15.6-1.8,25.1-1.8,25.1
	s-28.5,10.1-52.7-27.5"/>
<path class="st0" d="M85.4,27.5l-21.8-19c-6.8-5.9-16.9-6.7-24.6-2L13,22.5c-10.4,6.4-12.3,21-7.2,29.7c9.1,15.6,1.8,25.1,1.8,25.1
	s28.5,10.1,52.7-27.5"/>
<g>
	<g>
		<circle class="st4" cx="149.1" cy="57.5" r="25.2"/>
		<circle class="st5" cx="149.1" cy="57.5" r="18.9"/>
		<circle cx="147.2" cy="54.4" r="13.6"/>
		<circle class="st2" cx="150.3" cy="45.2" r="1.6"/>
		<circle class="st2" cx="154" cy="53" r="4.4"/>
	</g>
	<g>
		<circle class="st4" cx="77.7" cy="57.5" r="25.2"/>
		<circle class="st5" cx="77.7" cy="57.5" r="18.9"/>
		<circle cx="75.7" cy="54.4" r="13.6"/>
		<circle class="st2" cx="78.9" cy="45.2" r="1.6"/>
		<circle class="st2" cx="82.5" cy="53" r="4.4"/>
	</g>
</g>
<path class="st2" d="M118.5,131.5h-3.1c-7.2,0-13.1-5.9-13.1-13.1v-2.7c0-4.8,3.9-8.7,8.7-8.7h12c4.8,0,8.7,3.9,8.7,8.7v2.7
	C131.6,125.6,125.8,131.5,118.5,131.5z"/>
<path class="st6" d="M136.4,96.2L132,115c0,10.8-8.3,19.5-18.6,19.5h0c-10.3,0-18.6-8.7-18.6-19.5l-4.4-18.9"/>
<path d="M117.2,134.5h-7.7c-8.1,0-14.8-6.6-14.8-14.8v0c0-5.4,4.4-9.7,9.7-9.7h17.6c5.4,0,9.8,4.4,9.8,9.8v0
	C132,127.9,125.4,134.5,117.2,134.5z"/>
</svg>
