<?xml version="1.0" encoding="utf-8"?>
<!-- Generator: Adobe Illustrator 21.1.0, SVG Export Plug-In . SVG Version: 6.00 Build 0)  -->
<svg version="1.1" id="Layer_1" xmlns="http://www.w3.org/2000/svg" xmlns:xlink="http://www.w3.org/1999/xlink" x="0px" y="0px"
	 viewBox="0 0 217.8 170.8" style="enable-background:new 0 0 217.8 170.8;" xml:space="preserve">
<style type="text/css">
	.st0{fill:#3A3434;}
	.st1{fill:none;stroke:#000000;stroke-width:3.5918;stroke-miterlimit:10;}
	.st2{enable-background:new    ;}
	.st3{clip-path:url(#SVGID_2_);enable-background:new    ;}
	.st4{fill:#353537;}
	.st5{fill:#333435;}
	.st6{fill:#313233;}
	.st7{fill:#303031;}
	.st8{fill:#2E2E2F;}
	.st9{clip-path:url(#SVGID_4_);enable-background:new    ;}
	.st10{fill:#373738;}
	.st11{fill:#38393A;}
	.st12{fill:#3A3B3C;}
	.st13{fill:#3C3D3E;}
	.st14{fill:#3E3E40;}
	.st15{fill:#3F4042;}
	.st16{fill:#414243;}
	.st17{fill:#434445;}
	.st18{clip-path:url(#SVGID_6_);enable-background:new    ;}
	.st19{fill:#121011;}
	.st20{fill:#131111;}
	.st21{fill:#141112;}
	.st22{fill:#141213;}
	.st23{fill:#151313;}
	.st24{clip-path:url(#SVGID_8_);enable-background:new    ;}
	.st25{clip-path:url(#SVGID_10_);enable-background:new    ;}
	.st26{fill:#161314;}
	.st27{fill:#161414;}
	.st28{fill:#171415;}
	.st29{fill:#181516;}
	.st30{fill:#191616;}
	.st31{fill:#191617;}
	.st32{fill:#1A1718;}
	.st33{clip-path:url(#SVGID_12_);enable-background:new    ;}
	.st34{fill:#1B1818;}
	.st35{fill:#454648;}
	.st36{fill:#1C1819;}
	.st37{clip-path:url(#SVGID_14_);enable-background:new    ;}
	.st38{fill:#D1D3D4;stroke:#939598;stroke-width:1.0219;stroke-miterlimit:10;}
</style>
<path class="st0" d="M144.6,73.4c-8.2-13-38.7-8.6-68.3,10C53.7,97.6,38.2,116,36,129.6l-22,7.8L39.3,163c7,6.4,17.7,6.4,24.6,0
	L97,135.7c3-1.6,6-3.3,9-5.2C135.5,112,152.8,86.4,144.6,73.4z"/>
<path class="st1" d="M14.5,138.1L39.3,163c7,6.4,17.7,6.4,24.6,0l30.5-25.1c7.4-4.5,14.9-9.3,17.8-11.4c25.6-18.8,40.7-40,32.5-53
	s-42.5-12-78.9,15.2"/>
<g>
	<g>
		<g class="st2">
			<g class="st2">
				<g>
					<defs>
						<path id="SVGID_1_" d="M190.2,104.5l-3.1,2.2c-8.2,5.7-18.1,9.2-28.9,9.3l3.1-2.2C172.1,113.7,182,110.2,190.2,104.5z"/>
					</defs>
					<clipPath id="SVGID_2_">
						<use xlink:href="#SVGID_1_"  style="overflow:visible;"/>
					</clipPath>
					<g class="st3">
						<path class="st4" d="M158.2,116l3.1-2.2c0.9,0,1.8-0.1,2.6-0.1l-3.1,2.2C159.9,116,159.1,116,158.2,116"/>
						<path class="st5" d="M160.8,115.9l3.1-2.2c1.6-0.1,3.2-0.3,4.7-0.5l-3.1,2.2C164,115.6,162.4,115.8,160.8,115.9"/>
						<path class="st6" d="M165.5,115.4l3.1-2.2c1.7-0.3,3.5-0.6,5.1-1.1l-3.1,2.2C169,114.8,167.3,115.1,165.5,115.4"/>
						<path class="st7" d="M170.7,114.3l3.1-2.2c2.2-0.6,4.3-1.3,6.3-2.1l-3.1,2.2C175,113,172.9,113.7,170.7,114.3"/>
						<path class="st8" d="M177,112.2l3.1-2.2c3.6-1.5,7-3.3,10.1-5.5l-3.1,2.2C184,108.9,180.6,110.7,177,112.2"/>
					</g>
				</g>
			</g>
			<g class="st2">
				<g>
					<defs>
						<path id="SVGID_3_" d="M124.2,16.8l3.1-2.2c-14.2,10-23.1,26.9-22.2,45.9c1.4,29.9,26.6,53.8,56.2,53.3l-3.1,2.2
							c-29.6,0.5-54.8-23.4-56.2-53.3C101.1,43.7,110,26.8,124.2,16.8z"/>
					</defs>
					<clipPath id="SVGID_4_">
						<use xlink:href="#SVGID_3_"  style="overflow:visible;"/>
					</clipPath>
					<g class="st9">
						<path class="st8" d="M124.2,16.8l3.1-2.2c-5.1,3.6-9.5,8.1-13.1,13.3l-3.1,2.2C114.7,24.9,119.1,20.4,124.2,16.8"/>
						<path class="st7" d="M111.1,30.1l3.1-2.2c-1.2,1.8-2.4,3.7-3.4,5.7l-3.1,2.2C108.8,33.8,109.9,31.9,111.1,30.1"/>
						<path class="st6" d="M107.8,35.8l3.1-2.2c-0.8,1.6-1.5,3.2-2.2,4.9l-3.1,2.2C106.2,39,107,37.4,107.8,35.8"/>
						<path class="st5" d="M105.6,40.7l3.1-2.2c-0.6,1.5-1.1,3-1.5,4.5l-3.1,2.2C104.5,43.6,105,42.1,105.6,40.7"/>
						<path class="st4" d="M104.1,45.2l3.1-2.2c-0.4,1.4-0.8,2.8-1,4.3l-3.1,2.2C103.3,48,103.6,46.6,104.1,45.2"/>
						<path class="st10" d="M103,49.5l3.1-2.2c-0.3,1.4-0.5,2.8-0.7,4.2l-3.1,2.2C102.5,52.3,102.7,50.8,103,49.5"/>
						<path class="st11" d="M102.3,53.7l3.1-2.2c-0.2,1.4-0.3,2.8-0.3,4.3L102,58C102.1,56.5,102.2,55.1,102.3,53.7"/>
						<path class="st12" d="M102,57.9l3.1-2.2c-0.1,1.5-0.1,2.9,0,4.4l-3.1,2.2C101.9,60.9,101.9,59.4,102,57.9"/>
						<path class="st13" d="M102,62.3l3.1-2.2c0,0.1,0,0.2,0,0.4c0.1,1.4,0.2,2.9,0.4,4.3l-3.1,2.2c-0.2-1.4-0.3-2.8-0.4-4.3
							C102,62.6,102,62.5,102,62.3"/>
						<path class="st14" d="M102.4,67l3.1-2.2c0.2,1.7,0.5,3.3,0.8,4.9l-3.1,2.2C102.9,70.3,102.6,68.6,102.4,67"/>
						<path class="st15" d="M103.2,71.9l3.1-2.2c0.4,1.9,0.9,3.8,1.5,5.6l-3.1,2.2C104.1,75.7,103.6,73.8,103.2,71.9"/>
						<path class="st16" d="M104.7,77.5l3.1-2.2c0.8,2.4,1.8,4.8,2.9,7.1l-3.1,2.2C106.5,82.3,105.5,79.9,104.7,77.5"/>
						<path class="st17" d="M107.6,84.6l3.1-2.2c3.7,7.6,9.1,14.2,15.6,19.4l-3.1,2.2C116.7,98.8,111.3,92.1,107.6,84.6"/>
						<path class="st16" d="M123.2,104l3.1-2.2c2,1.6,4.2,3.1,6.4,4.4l-3.1,2.2C127.4,107.1,125.2,105.6,123.2,104"/>
						<path class="st15" d="M129.6,108.4l3.1-2.2c1.6,1,3.3,1.9,5,2.7l-3.1,2.2C132.9,110.3,131.2,109.4,129.6,108.4"/>
						<path class="st14" d="M134.6,111l3.1-2.2c1.5,0.7,3,1.3,4.6,1.9l-3.1,2.2C137.7,112.4,136.1,111.7,134.6,111"/>
						<path class="st13" d="M139.2,112.9l3.1-2.2c1.4,0.5,2.9,1,4.3,1.3l-3.1,2.2C142.1,113.9,140.6,113.4,139.2,112.9"/>
						<path class="st12" d="M143.6,114.3l3.1-2.2c1.4,0.4,2.8,0.7,4.2,0.9l-3.1,2.2C146.4,114.9,144.9,114.6,143.6,114.3"/>
						<path class="st11" d="M147.8,115.2l3.1-2.2c1.4,0.2,2.8,0.4,4.2,0.6l-3.1,2.2C150.6,115.6,149.2,115.5,147.8,115.2"/>
						<path class="st10" d="M152,115.8l3.1-2.2c1.4,0.1,2.9,0.2,4.3,0.2l-3.1,2.2C154.9,116,153.4,115.9,152,115.8"/>
						<path class="st4" d="M156.3,116l3.1-2.2c0.6,0,1.2,0,1.9,0l-3.1,2.2C157.6,116,156.9,116,156.3,116"/>
					</g>
				</g>
			</g>
			<g class="st2">
				<g>
					<defs>
						<path id="SVGID_5_" d="M127.3,14.6c8.2-5.7,18.1-9.2,28.9-9.3l-3.1,2.2c-10.8,0.2-20.7,3.6-28.9,9.3
							C125.2,16.2,126.4,15.3,127.3,14.6z"/>
					</defs>
					<clipPath id="SVGID_6_">
						<use xlink:href="#SVGID_5_"  style="overflow:visible;"/>
					</clipPath>
					<g class="st18">
						<path class="st19" d="M124.2,16.8l3.1-2.2c3.1-2.2,6.5-4,10.1-5.5l-3.1,2.2C130.7,12.8,127.3,14.6,124.2,16.8"/>
						<path class="st20" d="M134.3,11.3l3.1-2.2c2-0.8,4.1-1.5,6.3-2.1l-3.1,2.2C138.4,9.8,136.3,10.5,134.3,11.3"/>
						<path class="st21" d="M140.6,9.2l3.1-2.2c1.7-0.4,3.4-0.8,5.1-1.1l-3.1,2.2C144,8.4,142.3,8.8,140.6,9.2"/>
						<path class="st22" d="M145.8,8.1l3.1-2.2c1.6-0.2,3.1-0.4,4.7-0.5l-3.1,2.2C148.9,7.7,147.3,7.9,145.8,8.1"/>
						<path class="st23" d="M150.5,7.6l3.1-2.2c0.9-0.1,1.8-0.1,2.6-0.1l-3.1,2.2C152.2,7.5,151.3,7.5,150.5,7.6"/>
					</g>
				</g>
			</g>
			<g class="st2">
				<g>
					<defs>
						<path id="SVGID_7_" d="M123.1,15.2l3.1-2.2c8.5-5.9,18.8-9.5,30-9.7L153,5.5C141.8,5.7,131.5,9.2,123.1,15.2z"/>
					</defs>
					<clipPath id="SVGID_8_">
						<use xlink:href="#SVGID_7_"  style="overflow:visible;"/>
					</clipPath>
					<g class="st24">
						<path class="st8" d="M123.1,15.2l3.1-2.2c3.2-2.3,6.7-4.2,10.5-5.7l-3.1,2.2C129.8,11,126.3,12.9,123.1,15.2"/>
						<path class="st7" d="M133.5,9.4l3.1-2.2c2.1-0.9,4.3-1.6,6.5-2.2L140,7.3C137.8,7.9,135.6,8.6,133.5,9.4"/>
						<path class="st6" d="M140,7.3l3.1-2.2c1.7-0.5,3.5-0.8,5.3-1.1l-3.1,2.2C143.6,6.4,141.8,6.8,140,7.3"/>
						<path class="st5" d="M145.4,6.1l3.1-2.2c1.6-0.3,3.2-0.4,4.9-0.6l-3.1,2.2C148.6,5.7,147,5.9,145.4,6.1"/>
						<path class="st4" d="M150.3,5.6l3.1-2.2c0.9-0.1,1.8-0.1,2.7-0.1L153,5.5C152.1,5.5,151.2,5.5,150.3,5.6"/>
					</g>
				</g>
			</g>
			<g class="st2">
				<g>
					<defs>
						<path id="SVGID_9_" d="M156.2,5.3c11.1-0.2,21.6,3.1,30.4,8.8c-1,0.7-2.1,1.5-3.1,2.2c-8.8-5.7-19.3-9-30.4-8.8
							C154,6.8,155.1,5.7,156.2,5.3z"/>
					</defs>
					<clipPath id="SVGID_10_">
						<use xlink:href="#SVGID_9_"  style="overflow:visible;"/>
					</clipPath>
					<g class="st25">
						<path class="st23" d="M153.1,7.5l3.1-2.2c0.6,0,1.2,0,1.9,0L155,7.5C154.4,7.5,153.7,7.5,153.1,7.5"/>
						<path class="st26" d="M155,7.5l3.1-2.2c1.5,0,2.9,0.1,4.3,0.2l-3.1,2.2C157.9,7.6,156.4,7.5,155,7.5"/>
						<path class="st27" d="M159.3,7.7l3.1-2.2c1.4,0.1,2.8,0.3,4.2,0.6l-3.1,2.2C162.1,8.1,160.7,7.9,159.3,7.7"/>
						<path class="st28" d="M163.5,8.3l3.1-2.2c1.4,0.3,2.8,0.6,4.2,0.9l-3.1,2.2C166.3,8.9,164.9,8.6,163.5,8.3"/>
						<path class="st29" d="M167.7,9.3l3.1-2.2c1.5,0.4,2.9,0.8,4.3,1.3l-3.1,2.2C170.6,10.1,169.2,9.6,167.7,9.3"/>
						<path class="st30" d="M172.1,10.6l3.1-2.2c1.6,0.6,3.1,1.2,4.6,1.9l-3.1,2.2C175.2,11.8,173.6,11.2,172.1,10.6"/>
						<path class="st31" d="M176.7,12.5l3.1-2.2c1.7,0.8,3.4,1.7,5,2.7l-3.1,2.2C180.1,14.2,178.4,13.3,176.7,12.5"/>
						<path class="st32" d="M181.7,15.1l3.1-2.2c2.2,1.3,4.4,2.8,6.4,4.4l-3.1,2.2C186.1,17.9,183.9,16.5,181.7,15.1"/>
					</g>
				</g>
			</g>
			<g class="st2">
				<g>
					<defs>
						<path id="SVGID_11_" d="M212.4,58.6c0.9,19-8,35.9-22.2,45.9l-3.1,2.2c14.2-10,23.1-26.9,22.2-45.9
							c-0.9-18.7-11-35.1-25.8-44.6c1-0.7,2.1-1.5,3.1-2.2C201.4,23.6,211.5,39.9,212.4,58.6z"/>
					</defs>
					<clipPath id="SVGID_12_">
						<use xlink:href="#SVGID_11_"  style="overflow:visible;"/>
					</clipPath>
					<g class="st33">
						<path class="st32" d="M181.7,15.1l3.1-2.2c2.2,1.3,4.4,2.8,6.4,4.4l-3.1,2.2C186.1,17.9,183.9,16.5,181.7,15.1"/>
						<path class="st34" d="M188.1,19.6l3.1-2.2c6.5,5.2,11.9,11.8,15.6,19.4l-3.1,2.2C200,31.4,194.6,24.8,188.1,19.6"/>
						<path class="st32" d="M203.7,39l3.1-2.2c1.1,2.3,2.1,4.6,2.9,7.1l-3.1,2.2C205.8,43.6,204.8,41.2,203.7,39"/>
						<path class="st31" d="M206.6,46l3.1-2.2c0.6,1.8,1.1,3.7,1.5,5.6l-3.1,2.2C207.7,49.7,207.2,47.9,206.6,46"/>
						<path class="st30" d="M208.1,51.6l3.1-2.2c0.4,1.6,0.6,3.3,0.8,4.9l-3.1,2.2C208.7,54.9,208.4,53.3,208.1,51.6"/>
						<path class="st29" d="M208.9,56.6l3.1-2.2c0.2,1.4,0.3,2.8,0.4,4.3c0,0.1,0,0.2,0,0.4l-3.1,2.2c0-0.1,0-0.2,0-0.4
							C209.2,59.4,209.1,58,208.9,56.6"/>
						<path class="st28" d="M209.3,61.2l3.1-2.2c0.1,1.5,0.1,3,0,4.4l-3.1,2.2C209.4,64.1,209.4,62.7,209.3,61.2"/>
						<path class="st27" d="M209.3,65.6l3.1-2.2c-0.1,1.4-0.2,2.9-0.3,4.3l-3.1,2.2C209.1,68.4,209.2,67,209.3,65.6"/>
						<path class="st26" d="M209,69.9l3.1-2.2c-0.2,1.4-0.4,2.8-0.7,4.2l-3.1,2.2C208.6,72.7,208.8,71.3,209,69.9"/>
						<path class="st23" d="M208.3,74.1l3.1-2.2c-0.3,1.5-0.6,2.9-1,4.3l-3.1,2.2C207.7,77,208,75.5,208.3,74.1"/>
						<path class="st22" d="M207.2,78.4l3.1-2.2c-0.4,1.5-0.9,3-1.5,4.5l-3.1,2.2C206.3,81.4,206.8,79.9,207.2,78.4"/>
						<path class="st21" d="M205.7,82.9l3.1-2.2c-0.7,1.7-1.4,3.3-2.2,4.9l-3.1,2.2C204.3,86.2,205.1,84.5,205.7,82.9"/>
						<path class="st20" d="M203.5,87.8l3.1-2.2c-1,2-2.1,3.9-3.4,5.7l-3.1,2.2C201.4,91.6,202.5,89.7,203.5,87.8"/>
						<path class="st19" d="M200.2,93.4l3.1-2.2c-3.5,5.2-8,9.7-13.1,13.3l-3.1,2.2C192.2,103.1,196.6,98.6,200.2,93.4"/>
					</g>
				</g>
			</g>
			<g>
				<path class="st35" d="M153,5.5c30.7-0.5,56.8,24.3,58.3,55.3s-22.3,56.7-53,57.3c-30.7,0.5-56.8-24.3-58.3-55.3
					C98.6,31.7,122.3,6,153,5.5z M158.2,116c29.6-0.5,52.5-25.3,51.1-55.2C207.9,30.9,182.7,7,153.1,7.5S100.6,32.8,102,62.7
					S128.6,116.6,158.2,116"/>
			</g>
			<g>
				<path class="st36" d="M153.1,7.5c29.6-0.5,54.8,23.4,56.2,53.3s-21.5,54.7-51.1,55.2S103.4,92.6,102,62.7S123.5,8,153.1,7.5z"/>
			</g>
			<g class="st2">
				<g>
					<defs>
						<path id="SVGID_13_" d="M191.4,106.2l-3.1,2.2c14.7-10.3,24-27.9,23-47.6c-1.4-31-27.6-55.9-58.3-55.3l3.1-2.2
							c30.7-0.5,56.8,24.3,58.3,55.3C215.3,78.3,206.1,95.8,191.4,106.2z"/>
					</defs>
					<clipPath id="SVGID_14_">
						<use xlink:href="#SVGID_13_"  style="overflow:visible;"/>
					</clipPath>
					<g class="st37">
						<path class="st4" d="M153,5.5l3.1-2.2c0.6,0,1.3,0,1.9,0l-3,2.2C154.3,5.5,153.7,5.5,153,5.5"/>
						<path class="st10" d="M155,5.5l3.1-2.2c1.5,0,3,0.1,4.5,0.3l-3.1,2.2C157.9,5.6,156.5,5.5,155,5.5"/>
						<path class="st11" d="M159.4,5.7l3.1-2.2c1.5,0.1,2.9,0.3,4.4,0.6l-3.1,2.2C162.4,6.1,160.9,5.9,159.4,5.7"/>
						<path class="st12" d="M163.8,6.3l3.1-2.2c1.5,0.3,2.9,0.6,4.4,1l-3.1,2.2C166.7,6.9,165.3,6.6,163.8,6.3"/>
						<path class="st13" d="M168.2,7.3l3.1-2.2c1.5,0.4,3,0.9,4.5,1.4l-3.1,2.2C171.2,8.2,169.7,7.7,168.2,7.3"/>
						<path class="st14" d="M172.7,8.7l3.1-2.2c1.6,0.6,3.2,1.2,4.8,1.9l-3.1,2.2C175.9,9.9,174.3,9.3,172.7,8.7"/>
						<path class="st15" d="M177.4,10.6l3.1-2.2c1.8,0.8,3.5,1.7,5.2,2.8l-3.1,2.2C181,12.4,179.2,11.5,177.4,10.6"/>
						<path class="st16" d="M182.7,13.4l3.1-2.2c2.3,1.4,4.5,2.9,6.6,4.6l-3.1,2.2C187.2,16.3,185,14.8,182.7,13.4"/>
						<path class="st17" d="M189.3,18l3.1-2.2c6.7,5.4,12.3,12.3,16.1,20.1l-3.1,2.2C201.6,30.2,196.1,23.4,189.3,18"/>
						<path class="st16" d="M205.5,38.1l3.1-2.2c1.2,2.4,2.2,4.8,3,7.4l-3.1,2.2C207.6,42.9,206.6,40.5,205.5,38.1"/>
						<path class="st15" d="M208.5,45.5l3.1-2.2c0.6,1.9,1.2,3.8,1.6,5.8l-3.1,2.2C209.6,49.3,209.1,47.4,208.5,45.5"/>
						<path class="st14" d="M210,51.3l3.1-2.2c0.4,1.7,0.7,3.4,0.9,5.1l-3.1,2.2C210.7,54.7,210.4,52.9,210,51.3"/>
						<path class="st13" d="M210.9,56.4l3.1-2.2c0.2,1.5,0.3,2.9,0.4,4.4c0,0.1,0,0.2,0,0.4l-3.1,2.2c0-0.1,0-0.2,0-0.4
							C211.2,59.3,211.1,57.8,210.9,56.4"/>
						<path class="st12" d="M211.3,61.2l3.1-2.2c0.1,1.5,0.1,3.1,0,4.6l-3.1,2.2C211.4,64.2,211.4,62.7,211.3,61.2"/>
						<path class="st11" d="M211.3,65.7l3.1-2.2c-0.1,1.5-0.2,3-0.3,4.4l-3.1,2.2C211.1,68.7,211.2,67.2,211.3,65.7"/>
						<path class="st10" d="M211,70.2l3.1-2.2c-0.2,1.5-0.4,2.9-0.7,4.4l-3.1,2.2C210.5,73.1,210.8,71.6,211,70.2"/>
						<path class="st4" d="M210.3,74.5l3.1-2.2c-0.3,1.5-0.7,3-1.1,4.5l-3.1,2.2C209.6,77.5,210,76,210.3,74.5"/>
						<path class="st5" d="M209.2,79l3.1-2.2c-0.5,1.6-1,3.1-1.6,4.7l-3.1,2.2C208.2,82.1,208.7,80.6,209.2,79"/>
						<path class="st6" d="M207.6,83.6l3.1-2.2c-0.7,1.7-1.4,3.4-2.3,5.1l-3.1,2.2C206.2,87.1,206.9,85.4,207.6,83.6"/>
						<path class="st7" d="M205.3,88.7l3.1-2.2c-1,2-2.2,4-3.5,5.9l-3.1,2.2C203.1,92.7,204.3,90.8,205.3,88.7"/>
						<path class="st8" d="M201.8,94.6l3.1-2.2c-3.7,5.4-8.3,10-13.6,13.7l-3.1,2.2C193.6,104.6,198.2,100,201.8,94.6"/>
					</g>
				</g>
			</g>
		</g>
	</g>
</g>
<polygon class="st38" points="162,43.5 144.8,47.9 140,65.1 152.4,77.8 169.6,73.4 174.4,56.3 "/>
</svg>
