<?xml version="1.0" encoding="utf-8"?>
<!-- Generator: Adobe Illustrator 21.1.0, SVG Export Plug-In . SVG Version: 6.00 Build 0)  -->
<svg version="1.1" id="Layer_1" xmlns="http://www.w3.org/2000/svg" xmlns:xlink="http://www.w3.org/1999/xlink" x="0px" y="0px"
	 viewBox="0 0 567.1 125" style="enable-background:new 0 0 567.1 125;" xml:space="preserve">
<style type="text/css">
	.st0{fill:none;stroke:#000000;stroke-width:7.2044;}
	.st1{fill:#FFFFFF;}
</style>
<g>
	<g>
		<path class="st0" d="M43,34.1c-2.4,8.9-4.9,18-7.3,27.4C46,60.9,53.7,50.6,53.7,42.2c0-5.9-3.7-11.2-12.8-12.4
			c-16.7-2.5-26.7,3.7-26.7,18.1c0,4.7,1.3,5.6,1.4,6.4c-7.1-0.4-11-3.1-11-10.2c0-13.5,19-21.1,36.2-18.2
			c16.9,2.6,24.4,10.3,24.4,18.2c0,9.7-11.3,20.4-29.8,20.4c-0.2,0-0.3,0-0.5,0c-2.1,8.1-4.2,16.3-6.3,24.8c-5,0.4-9.9,0.9-14.9,1.4
			c4.7-20.2,9.4-39.2,14-57C32.8,33.9,37.9,34,43,34.1z"/>
		<path class="st0" d="M83.7,80.9c5.1-0.1,13.7-4.5,17.3-9.9c1.5,0,3.1,0,4.6,0c-5.9,7.5-15.8,15-29.1,15.5
			c-9.9,0.4-15.3-5-15.3-11.8c0-10.1,5.6-27.1,24.4-26.3c8.5,0.2,13.2,2.8,13.2,7.9c0,8.9-13.5,14-23.3,15c-0.2,1.2-0.3,2.3-0.3,3.3
			C75.2,79.6,79.6,81,83.7,80.9z M89,52.4c-5.8-0.1-10.5,8.2-12.7,15.3c9.5-0.1,16.2-5.9,16.3-11.1C92.6,55,92.1,52.5,89,52.4z"/>
		<path class="st0" d="M121.1,49.4c-0.1,0.5-0.3,0.9-0.4,1.4c2.2-0.8,4.6-1.3,7.2-1.4c10.7-0.1,15.8,2.5,15.8,10.1
			c0,1.6-0.2,3.3-0.6,5.2c-3.2,16-12.1,21.1-22.6,21.1c-3.4,0-6.6-0.8-9.7-2.2c-1.8,6-3.6,11.9-5.4,17.9c-5.2,0.9-10.4,2-15.6,3.1
			c5.5-18.7,10.9-37,16.4-55.2C111.2,49.4,116.2,49.4,121.1,49.4z M129.9,65.7c0.9-3.2,1.3-5.6,1.3-7.4c0-4.4-2.5-5.3-5.8-5.2
			c-2,0-3.9,0.6-5.9,1.6c-2.5,8.2-5,16.3-7.4,24.5c2.5,1.3,5.1,1.3,6.7,1.3C124,80.4,126.5,77.3,129.9,65.7z"/>
		<path class="st0" d="M168.1,48.3c-0.1,0.5-0.3,1-0.4,1.5c2.2-0.9,4.6-1.6,7.2-1.7c10.7-0.5,15.8,2.2,15.8,10.6
			c0,1.7-0.2,3.6-0.6,5.7c-3.2,17.5-12.1,22.8-22.6,22.4c-3.4-0.1-6.6-1.1-9.7-2.6c-1.8,6.1-3.6,12.2-5.4,18.3
			c-5.2,0.6-10.4,1.3-15.6,2c5.5-18.2,10.9-36.7,16.4-55.6C158.2,48.7,163.2,48.5,168.1,48.3z M176.9,65.5c0.9-3.5,1.3-6.1,1.3-8
			c0-4.7-2.5-5.6-5.8-5.5c-2,0.1-3.9,0.7-5.9,1.8c-2.5,8.7-5,17.2-7.4,25.7c2.5,1.4,5.1,1.5,6.7,1.5C171,81.2,173.5,78,176.9,65.5z"
			/>
		<path class="st0" d="M215.6,83c5.1,0.2,13.7-4.5,17.3-11.2c1.5,0,3.1,0,4.6,0c-5.9,9.5-15.8,17.8-29.1,17
			c-9.9-0.6-15.3-6.8-15.3-13.8c0-10.3,5.6-28.6,24.4-30c8.5-0.6,13.2,2.2,13.2,8.5c0,11.1-13.5,17.3-23.3,18.2
			c-0.2,1.4-0.3,2.6-0.3,3.6C207.1,80.9,211.6,82.8,215.6,83z M221,49.5c-5.8,0.3-10.5,10.3-12.7,18.2c9.5,0,16.2-7,16.3-13.4
			C224.6,52.4,224.1,49.3,221,49.5z"/>
		<path class="st0" d="M254.3,43.4c-0.4,1.6-0.8,3.3-1.1,4.9c3.7-2.9,7.8-5.3,12.2-5.7c4.6-0.3,7.4,2.1,7.4,6c0,3.6-2.7,8-7.7,8.2
			c-5.8,0.2-2.9-6.4-6-6.3c-3.1,0.2-4.8,1.3-7.1,3.4c-2.9,12.6-5.7,24.9-8.6,37c-5-0.3-9.9-0.6-14.9-0.9
			c3.6-14.7,7.3-29.9,10.9-45.5C244.4,44.1,249.4,43.8,254.3,43.4z"/>
		<path class="st0" d="M336.5,8.1c-5.2,28.7-10.3,56.6-15.5,83.4c-3.3,17.4-10.2,27.2-27.2,25c-9.8-1.3-15.3-7.9-15.3-16.4
			c0-7,4.4-13.5,12.6-13.2c4.1,0.2,10.1,0.8,10.1,7.8c0,1.2-0.2,2.7-0.6,4.3c-2.6-2.5-4.1-3.1-6.2-3.3c-4.8-0.3-7.2,3.4-7.2,7.3
			c0,5.5,4,7.8,7,8.2c4.6,0.5,7.4-1.3,9.8-12.5c5.4-25.8,10.8-52.7,16.2-80.5c-9,5.2-14.6,14.1-14.6,25.9c0,5.6,1.3,6.5,1.4,7.5
			c-7.1,0.3-11-2.3-11-10c0-14,19-30.5,36.2-33C333.8,8.4,335.2,8.2,336.5,8.1z"/>
		<path class="st0" d="M379.8,35.3c-2.5,14.6-5,29.1-7.4,43.4c-0.2,1.4-0.4,2.8-0.4,3.9c0,2.8,1,4.8,5.2,5
			c4.1,0.1,9.5-6.9,13.6-11.1c1.2,0,2.3,0,3.5,0c-4.7,6.1-16.4,22.8-24.5,22.3c-6.7-0.3-11.3-3.6-12.6-10c-3.1,5-7.7,9.7-14,9.3
			c-9.9-0.6-12.8-8.8-12.8-15.7c0-20,6.4-44.4,27.1-45.9c2.5-0.1,5.1,1,6.9,2.7c0.2-1.1,0.4-2.2,0.6-3.3
			C369.9,35.8,374.8,35.5,379.8,35.3z M344.3,79.7c0,7.2,3.4,8.7,6,8.8c2.4,0.1,4.6-2.5,6.6-5.9c0.1-1.2,0.3-2.6,0.6-4.1
			c1.9-10.9,3.9-21.9,5.8-33c-1.7-1.7-3.6-2.1-5.1-2C350.5,43.9,344.3,63.4,344.3,79.7z"/>
		<path class="st0" d="M414.8,43.5c0-3.2-1.5-4.5-3.8-4.4c-8.7,0.3-14.2,21.8-14.2,35.9c0,7.7,1.2,14,7.5,14.2
			c7.3,0.2,13.2-5.3,18-12.3c1.2,0,2.3,0,3.5,0c-5,7.2-10.5,23.9-28.8,23.2c-8.6-0.3-14.1-6.5-14.1-21.7c0-18.7,6.5-43.8,26.5-44.6
			c5.6-0.2,11.4,1.6,11.4,8.9c0,1.5-0.1,2.7-0.5,4.4c-0.5-0.4-1.3-0.8-2.6-0.8c-0.9,0-2,0.3-3.3,0.9
			C414.6,45.7,414.8,44.5,414.8,43.5z"/>
		<path class="st0" d="M470.6,33.8c-7,6-14,12.1-21,18.3c0.9-0.3,1.8-0.4,2.7-0.4c5.6,0,12,7.9,12,16.7c0,1.1-0.1,2.3-0.3,3.4
			c-0.5,2.6-1,5.1-1.4,7.7c-0.3,1.5-0.5,3-0.5,4.3c0,3,1.1,5,5.2,4.9c4.1,0,7.7-7.6,11.9-11.9c1.2,0,2.3,0,3.5,0
			c-4.7,6.1-14.7,24.1-22.7,24.2c-8,0.1-12.9-4.5-12.9-14.4c0-2.2,0.2-4.6,0.7-7.1c0.4-2.1,0.8-4.1,1.1-6.2c0.2-1.2,0.3-2.4,0.3-3.5
			c0-4.9-2-8-4.8-8c-2.6,0-4.4,1.1-6.6,3c-2,12.1-3.9,24.1-5.9,36.2c-5-0.1-9.9-0.2-14.9-0.3c5-30.1,10-60.6,15-91.2
			c5.1-1,10.2-2,15.3-2.9c-2.6,15.7-5.2,31.5-7.7,47.2c7.7-8.1,19.9-20.4,19.9-20.2C463.2,33.6,466.9,33.7,470.6,33.8z"/>
		<path class="st0" d="M492.3,90.7c5.1-0.2,13.7-8,17.3-17.5c1.5,0,3.1,0,4.6,0c-5.9,13.1-15.8,26.8-29.1,27.3
			c-9.9,0.3-15.3-9.4-15.3-20.9c0-17,5.6-47.1,24.4-46.2c8.5,0.4,13.2,5.1,13.2,14.1c0,15.6-13.5,24.7-23.3,26.4
			c-0.2,2.1-0.3,4.1-0.3,5.7C483.9,88.3,488.3,90.8,492.3,90.7z M497.7,40.4c-5.8-0.3-10.5,14.5-12.7,27
			c9.5-0.2,16.2-10.4,16.3-19.6C501.3,45.1,500.8,40.5,497.7,40.4z"/>
		<path class="st0" d="M548.4,77.8c-0.3,1.4-0.5,2.7-0.5,3.9c0,2.4,0.8,4.2,3.7,4c0.7,0,1.9-0.1,2.7-0.5
			c-2.9,9.9-7.2,11.2-10.7,11.5c-6,0.6-9.2-2.7-10.2-8.1c-3.1,5.1-7.7,10.5-13.9,10.9c-9.9,0.7-12.8-7.9-12.8-15.5
			c0-22.2,6.4-48.8,27.1-46.7c2.5,0.2,5.1,1.8,6.9,3.6c1.5-8,3-15.9,4.5-23.6c5.1,0.1,10.1,0.4,15.2,0.8
			C556.3,36.9,552.4,56.9,548.4,77.8z M520.5,80.1c0,7.5,3.4,8.7,6,8.6c2.4-0.1,4.5-3,6.5-6.3c0.1-1.3,0.3-2.7,0.6-4.1
			c2-10.8,3.9-21.4,5.9-31.8c-1.7-1.7-3.6-2.3-5.1-2.4C526.7,43.4,520.5,63,520.5,80.1z"/>
	</g>
</g>
<g>
	<g>
		<path class="st1" d="M45.2,32.2c-2.4,9-4.9,18.2-7.3,27.7c10.3-0.6,18.1-11,18.1-19.4c0-5.9-3.7-11.3-12.8-12.6
			c-16.7-2.7-26.7,3.6-26.7,18.3c0,4.8,1.3,5.7,1.4,6.5c-7.1-0.4-11-3.2-11-10.4c0-13.7,19-21.4,36.2-18.3
			C60,26.7,67.4,34.5,67.4,42.5c0,9.7-11.3,20.6-29.8,20.6c-0.2,0-0.3,0-0.5,0c-2.1,8.2-4.2,16.5-6.3,25.1c-5,0.5-9.9,1-14.9,1.6
			c4.7-20.6,9.4-39.8,14-57.9C35,32,40.1,32.1,45.2,32.2z"/>
		<path class="st1" d="M85.9,79.4c5.1-0.1,13.7-4.5,17.3-9.9c1.5,0,3.1,0,4.6,0c-5.9,7.5-15.8,15-29.1,15.6
			c-9.9,0.4-15.3-5-15.3-11.8c0-10.1,5.6-27.3,24.4-26.5c8.5,0.3,13.2,2.8,13.2,7.9c0,8.9-13.5,14.1-23.3,15.1
			c-0.2,1.2-0.3,2.4-0.3,3.3C77.4,78.1,81.8,79.5,85.9,79.4z M91.2,50.8c-5.8-0.1-10.5,8.2-12.7,15.4C88,66,94.7,60.2,94.9,55
			C94.9,53.4,94.3,50.8,91.2,50.8z"/>
		<path class="st1" d="M123.3,47.8c-0.1,0.5-0.3,0.9-0.4,1.4c2.2-0.8,4.6-1.3,7.2-1.4C140.9,47.7,146,50.3,146,58
			c0,1.6-0.2,3.3-0.6,5.2c-3.2,15.9-12.1,21.1-22.6,21c-3.4,0-6.6-0.8-9.7-2.2c-1.8,6-3.6,11.9-5.4,17.9c-5.2,1-10.4,2-15.6,3.2
			C97.5,84.3,103,66,108.5,47.8C113.4,47.8,118.4,47.9,123.3,47.8z M132.1,64.1c0.9-3.2,1.3-5.6,1.3-7.4c0-4.4-2.5-5.2-5.8-5.2
			c-2,0-3.9,0.6-5.9,1.6c-2.5,8.2-5,16.3-7.4,24.5c2.5,1.3,5.1,1.3,6.7,1.3C126.2,78.8,128.7,75.7,132.1,64.1z"/>
		<path class="st1" d="M170.3,46.8c-0.1,0.5-0.3,1-0.4,1.5c2.2-0.9,4.6-1.6,7.2-1.7c10.7-0.5,15.8,2.2,15.8,10.6
			c0,1.7-0.2,3.6-0.6,5.7c-3.2,17.5-12.1,22.7-22.6,22.3c-3.4-0.1-6.6-1.1-9.7-2.6c-1.8,6.1-3.6,12.2-5.4,18.2
			c-5.2,0.6-10.4,1.3-15.6,2c5.5-18.2,10.9-36.6,16.4-55.5C160.4,47.2,165.4,47,170.3,46.8z M179.1,63.9c0.9-3.5,1.3-6.1,1.3-7.9
			c0-4.7-2.5-5.6-5.8-5.5c-2,0.1-3.9,0.7-5.9,1.8c-2.5,8.7-5,17.2-7.4,25.6c2.5,1.4,5.1,1.5,6.7,1.5
			C173.2,79.6,175.7,76.4,179.1,63.9z"/>
		<path class="st1" d="M217.8,81.4c5.1,0.2,13.7-4.5,17.3-11.2c1.5,0,3.1,0,4.6,0.1c-5.9,9.5-15.8,17.8-29.1,16.9
			c-9.9-0.6-15.3-6.8-15.3-13.8c0-10.3,5.6-28.5,24.4-29.9c8.5-0.6,13.2,2.2,13.2,8.5c0,11.1-13.5,17.3-23.3,18.1
			c-0.2,1.3-0.3,2.6-0.3,3.6C209.3,79.4,213.8,81.3,217.8,81.4z M223.2,48c-5.8,0.3-10.5,10.2-12.7,18.1c9.5,0,16.2-7,16.3-13.4
			C226.8,50.9,226.3,47.8,223.2,48z"/>
		<path class="st1" d="M256.5,42c-0.4,1.6-0.8,3.3-1.1,4.9c3.7-2.9,7.8-5.3,12.2-5.6c4.6-0.3,7.4,2.1,7.4,6c0,3.6-2.7,8-7.7,8.2
			c-5.8,0.2-2.9-6.4-6-6.3c-3.1,0.1-4.7,1.3-7.1,3.4c-2.9,12.6-5.7,24.9-8.6,36.9c-5-0.3-9.9-0.7-14.9-1
			c3.6-14.7,7.3-29.8,10.9-45.5C246.6,42.6,251.6,42.3,256.5,42z"/>
		<path class="st1" d="M338.7,6.6c-5.2,28.8-10.3,56.7-15.5,83.6c-3.3,17.5-10.2,27.3-27.2,25c-9.8-1.3-15.3-8-15.3-16.5
			c0-7,4.4-13.5,12.6-13.2c4.1,0.2,10.1,0.8,10.1,7.9c0,1.2-0.2,2.7-0.6,4.3c-2.6-2.5-4.1-3.1-6.2-3.3c-4.8-0.3-7.2,3.4-7.2,7.3
			c0,5.5,4,7.8,7,8.2c4.6,0.5,7.4-1.3,9.8-12.5c5.4-25.8,10.8-52.7,16.2-80.7c-9,5.2-14.6,14.2-14.6,26c0,5.6,1.3,6.5,1.4,7.5
			c-7.1,0.3-11-2.3-11-10c0-14,19-30.5,36.2-33C336,6.9,337.4,6.8,338.7,6.6z"/>
		<path class="st1" d="M382,34c-2.5,14.7-5,29.2-7.4,43.5c-0.2,1.4-0.4,2.8-0.4,3.9c0,2.8,1,4.9,5.2,5c4.1,0.1,9.5-6.9,13.6-11.1
			c1.2,0,2.3,0,3.5,0c-4.7,6.1-16.4,22.9-24.5,22.3c-6.7-0.3-11.3-3.6-12.6-10.1c-3.1,5-7.7,9.7-14,9.3c-9.9-0.7-12.8-8.8-12.8-15.7
			c0-20,6.4-44.5,27.1-46c2.5-0.1,5.1,1,6.9,2.8c0.2-1.1,0.4-2.2,0.6-3.3C372.1,34.4,377,34.2,382,34z M346.5,78.4
			c0,7.2,3.4,8.7,6,8.8c2.4,0.1,4.6-2.5,6.6-5.9c0.1-1.2,0.3-2.6,0.6-4.1c1.9-10.9,3.9-21.9,5.8-33.1c-1.7-1.7-3.6-2.1-5.1-2
			C352.7,42.6,346.5,62.1,346.5,78.4z"/>
		<path class="st1" d="M417,42.2c0-3.2-1.5-4.5-3.8-4.5c-8.7,0.3-14.2,21.8-14.2,35.9c0,7.7,1.2,14.1,7.5,14.2
			c7.3,0.2,13.2-5.3,18-12.3c1.2,0,2.3,0,3.5,0c-5,7.2-10.5,24-28.8,23.3c-8.6-0.3-14.1-6.5-14.1-21.7c0-18.7,6.5-43.9,26.5-44.7
			c5.6-0.2,11.4,1.6,11.4,9c0,1.5-0.1,2.7-0.5,4.4c-0.5-0.4-1.3-0.8-2.6-0.8c-0.9,0-2,0.3-3.3,0.8C416.8,44.5,417,43.3,417,42.2z"/>
		<path class="st1" d="M472.9,32.6c-7,6-14,12.1-21,18.2c0.9-0.3,1.8-0.4,2.7-0.4c5.6,0,12,7.9,12,16.7c0,1.1-0.1,2.3-0.3,3.4
			c-0.5,2.6-1,5.1-1.4,7.7c-0.3,1.5-0.5,3-0.5,4.3c0,3,1.1,5,5.2,4.9c4.1-0.1,7.7-7.6,11.9-11.9c1.2,0,2.3,0,3.5,0
			c-4.8,6.1-14.7,24.1-22.7,24.2c-8,0.1-12.9-4.5-12.9-14.4c0-2.2,0.2-4.6,0.7-7.2c0.4-2.1,0.8-4.1,1.1-6.2c0.2-1.2,0.3-2.4,0.3-3.5
			c0-4.9-2-8-4.8-8c-2.6,0-4.4,1.1-6.6,3c-2,12.1-3.9,24.2-5.9,36.2c-5-0.1-9.9-0.1-14.9-0.3c5-30.2,10-60.7,15-91.3
			c5.1-1,10.2-1.9,15.3-2.8c-2.6,15.7-5.2,31.5-7.7,47.2c7.7-8.1,19.9-20.3,19.9-20.2C465.4,32.5,469.1,32.5,472.9,32.6z"/>
		<path class="st1" d="M494.5,89.4c5.1-0.2,13.7-8,17.3-17.5c1.5,0,3.1,0,4.6-0.1c-5.9,13-15.8,26.7-29.1,27.2
			c-9.9,0.4-15.3-9.3-15.3-20.8c0-17,5.6-47,24.4-46c8.5,0.4,13.2,5.1,13.2,14c0,15.4-13.5,24.5-23.3,26.3c-0.2,2.1-0.3,4.1-0.3,5.7
			C486.1,87,490.5,89.5,494.5,89.4z M499.9,39.3c-5.8-0.3-10.5,14.4-12.7,26.9c9.5-0.2,16.2-10.4,16.3-19.5
			C503.5,44,503,39.4,499.9,39.3z"/>
		<path class="st1" d="M550.6,76.3c-0.3,1.4-0.5,2.6-0.5,3.9c0,2.4,0.8,4.1,3.7,3.9c0.7-0.1,1.9-0.1,2.7-0.5
			c-2.9,9.7-7.2,11-10.7,11.4c-6,0.7-9.2-2.6-10.2-7.9c-3.1,5.1-7.7,10.4-13.9,10.9c-9.9,0.8-12.8-7.8-12.8-15.3
			c0-22.1,6.4-48.4,27.1-46.2c2.5,0.2,5.1,1.8,6.9,3.6c1.5-7.9,3-15.6,4.5-23.2c5.1,0.2,10.1,0.5,15.2,1
			C558.5,36.1,554.6,55.7,550.6,76.3z M522.7,78.7c0,7.5,3.4,8.6,6,8.5c2.4-0.1,4.5-2.9,6.5-6.3c0.1-1.3,0.3-2.6,0.6-4.1
			c2-10.7,3.9-21.1,5.9-31.4c-1.7-1.6-3.6-2.3-5.1-2.4C528.9,42.3,522.7,61.7,522.7,78.7z"/>
	</g>
</g>
</svg>
