<?xml version="1.0" encoding="utf-8"?>
<!-- Generator: Adobe Illustrator 21.1.0, SVG Export Plug-In . SVG Version: 6.00 Build 0)  -->
<svg version="1.1" id="Layer_1" xmlns="http://www.w3.org/2000/svg" xmlns:xlink="http://www.w3.org/1999/xlink" x="0px" y="0px"
	 viewBox="0 0 367 231" style="enable-background:new 0 0 367 231;" xml:space="preserve">
<style type="text/css">
	.st0{fill:#3A3434;}
	.st1{fill:#D89839;}
	.st2{fill:none;stroke:#000000;stroke-width:2.0945;stroke-linecap:round;stroke-miterlimit:10;}
	.st3{fill:none;stroke:#000000;stroke-width:1.1895;stroke-linecap:round;stroke-miterlimit:10;}
	.st4{fill:none;stroke:#000000;stroke-width:1.7246;stroke-miterlimit:10;}
	.st5{fill:none;stroke:#000000;stroke-width:2.4641;stroke-miterlimit:10;}
	.st6{fill:#FFFFFF;stroke:#000000;stroke-width:1.8481;stroke-miterlimit:10;}
	.st7{fill:#3C2415;stroke:#000000;stroke-width:1.8481;stroke-miterlimit:10;}
	.st8{fill:#FFFFFF;}
	.st9{clip-path:url(#SVGID_2_);}
	.st10{clip-path:url(#SVGID_4_);}
	.st11{stroke:#FFFFFF;stroke-width:0.411;stroke-miterlimit:10;}
	.st12{fill:#3A3434;stroke:#000000;stroke-width:2.4641;stroke-linecap:round;stroke-miterlimit:10;}
	.st13{clip-path:url(#SVGID_6_);}
</style>
<g>
	<path class="st0" d="M336.1,156.8l-20.8,39.3c-1.6,3.1-2.2,6.6-1.6,10.1c0.6,3.6,1.5,8.2,2.5,12c2,7-39.9,7.5-45.4,3.6
		c-4.2-3,0.7-9.9,11.2-10.5c10.5-0.7,14.6-2.7,17.3-5.6c0,0,4-10.3,2.7-14.3c-1.3-4-30-3.3-29.1-46.5"/>
	<path class="st1" d="M301.9,195.8l-2.7,10.2c-2.7,2.9-6.7,4.9-17.3,5.6c-10.5,0.7-15.4,7.5-11.2,10.5c5.5,3.9,47.4,3.4,45.4-3.6
		c-1.1-3.7-2.1-12.4-2.7-16C313.5,202.5,306.1,204.8,301.9,195.8z"/>
	<ellipse transform="matrix(0.7879 -0.6158 0.6158 0.7879 -74.8515 214.578)" class="st0" cx="274.1" cy="215.9" rx="5.6" ry="2"/>
	<path class="st2" d="M336.1,156.8l-20.8,39.3c-1.6,3.1-2.2,6.6-1.6,10.1c0.6,3.6,1.5,8.2,2.5,12c2,7-39.9,7.5-45.4,3.6
		c-4.2-3,0.7-9.9,11.2-10.5c10.5-0.7,14.6-2.7,17.3-5.6c0,0,4-10.3,2.7-14.3c-1.3-4-30-3.3-29.1-46.5"/>
	<path class="st3" d="M273.2,222.2c0,0-1.6-5.2,4.5-7.5"/>
	<path class="st3" d="M276,223.5c0,0-1.6-5.2,4.5-7.5"/>
	<path class="st0" d="M121.1,150.7l12.3,12.7c1.2,1.7,1.4,3.9,0.3,5.8l-12.5,17.5c-3,5.8-2.6,11.4-2,14.8c0.6,3.6,1.1,6.3,2.2,10
		c2,7-29.4,7.5-34.9,3.6c-4.2-3,0.8-11.2,11.3-11.9c13.6-0.9,8.6-20.9,8.2-25.6c0,0,0.5-7.1-7.6-17.1"/>
	<path class="st1" d="M119.2,201.5c3.1,1.9,1.1,6.3,2.2,10c2,7-29.4,7.5-34.9,3.6c-4.2-3,0.4-9.9,11.3-11.9c3.5-1.2,8-4.8,8.7-8.8
		C107.2,189.5,116.4,199.8,119.2,201.5z"/>
	<path class="st2" d="M121.1,150.7l12.3,12.7c1.2,1.7,1.4,3.9,0.3,5.8l-12.5,17.5c-3,5.8-2.6,11.4-2,14.8c0.6,3.6,1.1,6.3,2.2,10
		c2,7-29.4,7.5-34.9,3.6c-4.2-3,0.8-11.2,11.3-11.9c13.6-0.9,9.9-28.3,5.8-34.7"/>
	<path class="st3" d="M87.5,215.6c0,0-1.6-5.2,4.5-7.5"/>
	<path class="st3" d="M90.4,216.9c0,0-1.6-5.2,4.5-7.5"/>
	<path class="st0" d="M164.9,63.7c0,0-13.4-21.8-26.5-27.8c-12.6-5.8-38.2-10.6-55.7,3.5s-41.2-6-41.2-6S21,19,16.6,19
		S-2.8,35.9,26.7,55s40.1,15.6,43.7,28.4c3.5,12.8-9.1,33.9-5.5,59c2.5,16.9,31.4,50.6,96.4,50.9c56.2,0.2,100.9-16.5,160.8-6.8
		c19.2,3.1,32.6-11.9,38-30.1c4.8-16.1-2.8-38.5-20.2-49.3c-22.1-13.7-43.1-2.5-67.4-3.4S193.5,113.7,164.9,63.7z"/>
	<path class="st1" d="M286.1,183.4c-68-0.7-67.9,10.1-124.1,9.8c-26.4-0.1-46.9-6.7-62-14.3c0,0,21.9-7.3,66.4-3.3
		C210.6,179.6,286.1,183.4,286.1,183.4z"/>
	<circle class="st1" cx="106.5" cy="33.2" r="3.5"/>
	<path class="st1" d="M12.5,21.6C14.8,17.8-2.8,35.9,26.7,55s40.1,15.6,43.7,28.4c3.5,12.8-9.1,33.9-5.5,59c0,0,22.7,3.3,17.5-21.3
		c-5.2-24.6,11.7-12.6,15.8-20.5c4.1-7.9,0.4-8.5-9.3-10.6c-9.8-2.2-14.6-16.2-13.2-24.1c1.4-7.9-13.5-7.9-27.1-13.4
		C35.1,47,5.4,33.3,12.5,21.6z"/>
	<path class="st4" d="M164.9,63.7c0,0-13.4-21.8-26.5-27.8c-12.6-5.8-38.2-10.6-55.7,3.5s-41.2-6-41.2-6S21,19,16.6,19
		S-2.8,35.9,26.7,55s40.1,15.6,43.7,28.4c3.5,12.8-9.1,33.9-5.5,59c2.5,16.9,31.4,50.6,96.4,50.9c56.2,0.2,100-16.5,160.8-6.8
		c19.2,3,33.4-11.2,38-30.1c3.9-16.3-2.8-38.5-20.2-49.3c-22.1-13.7-43.1-2.5-67.4-3.4S193.5,113.7,164.9,63.7z"/>
	<path d="M12.2,28.7c-0.7,0.2-1.5,0.2-2.1-0.3c0,0-1.1-1-1.3-1.8c-0.6-2.9,5.1-10,5.1-10c0.7-1,2.1-1.3,3.1-0.6l7,4.5
		c1.6,1,1.4,3.3-0.3,3.9L12.2,28.7z"/>
	<path class="st5" d="M143.7,110.7c-2.9,4.2-4,8.5-3.8,12.6c0,0.1-0.1,0.2-0.1,0.3c-1.1,6.3,8.9,21.7,8.9,21.7s-0.5-2.2-0.9-5.3
		c2.6,5,5.7,9.4,5.7,9.4s-0.7-2.7-1.2-6.2c2.2,3.1,4.1,5.4,4.1,5.4s-0.8-2.4-1.7-5.8c0.5,0.2,1,0.4,1.4,0.5c0,0,17.2,5,28.4,4.2
		c3.9,2.3,7.1,3.8,7.1,3.8s-1.4-1.5-3.3-3.7c2.2,1.2,3.8,2,3.8,2s-0.5-0.5-1.3-1.4c4,2.4,7.5,4.1,7.5,4.1s-1.9-2-4.3-4.8
		c1.6,0.9,2.8,1.4,2.8,1.4s-1-1.1-2.5-2.7c2.8,1.1,4.8,1.8,4.8,1.8s-2.2-1.8-5-4.4c3.1-0.1,5.2-0.3,5.2-0.3s-2.4-0.6-5.6-1.7
		c0.1-1.2-0.2-2.6-0.9-4.3c-4.4-10.5-4.2-19.2,4.4-32c4.1-6.1,3.9-12.8,1.4-18.5c3.5-0.1,6.9-0.8,6.9-0.8s-4.9-0.8-8.6-2.4
		c0,0,0-0.1-0.1-0.1c3.4-0.3,6.1-0.8,6.1-0.8s-4.2-0.7-8.3-2.1c-3.1-3.5-7-6.2-11.1-7.3l-16.3-6.4"/>
	<circle class="st6" cx="105.8" cy="50" r="15.8"/>
	<circle class="st7" cx="105.8" cy="50" r="11.9"/>
	<circle cx="104.6" cy="48" r="8.6"/>
	<circle class="st8" cx="106.5" cy="42.3" r="1"/>
	<circle class="st8" cx="108.8" cy="47.2" r="2.8"/>
	<path class="st0" d="M357,162.9l-18.7,35.4c-1.6,3.1-2.2,6.6-1.6,10.1c0.6,3.6,1.5,8.2,2.5,12c2,7-39.9,7.5-45.4,3.6
		c-4.2-3,0.7-9.9,11.2-10.5c10.5-0.7,14.6-2.7,17.3-5.6c0,0,4-10.3,2.7-14.3s-30-3.3-29.1-46.5"/>
	<path class="st1" d="M324.9,197.9l-2.7,10.2c-2.7,2.9-6.7,4.9-17.3,5.6c-10.5,0.7-15.4,7.5-11.2,10.5c5.5,3.9,47.4,3.4,45.4-3.6
		c-1.1-3.7-1.4-4.8-1.9-8.4C337.3,212.2,329.2,212.3,324.9,197.9z"/>
	<path class="st2" d="M354.3,170.2l-16,28.1c-1.6,3.1-2.2,6.6-1.6,10.1c0.6,3.6,1.5,8.2,2.5,12c2,7-39.9,7.5-45.4,3.6
		c-4.2-3,0.7-9.9,11.2-10.5c10.5-0.7,14.6-2.7,17.3-5.6c0,0,4-10.3,2.7-14.3s-30-3.3-29.1-46.5"/>
	<path class="st3" d="M296,224.5c0,0-1.6-5.2,4.5-7.5"/>
	<path class="st3" d="M298.9,225.8c0,0-1.6-5.2,4.5-7.5"/>
	<path class="st0" d="M148.3,157l12.3,12.7c1.2,1.7,1.4,3.9,0.3,5.8L148.4,193c-3,5.8-2.6,11.4-2,14.8c0.6,3.6,1.1,6.3,2.2,10
		c2,7-29.4,7.5-34.9,3.6c-4.2-3,0.8-11.2,11.3-11.9c13.6-0.9,8.6-20.9,8.2-25.6c0,0,0.5-7.1-7.6-17.1"/>
	<path class="st1" d="M146.9,196.6c-1.6,6-1.1,7.7-0.5,11.2c0.6,3.6,1.1,6.3,2.2,10c2,7-29.4,7.5-34.9,3.6c-4.2-3,0.4-9.9,11.3-11.9
		c3.5-1.2,5.9-3,7.9-6.5C137.6,194.8,146.9,196.6,146.9,196.6z"/>
	<path class="st2" d="M148.3,157l12.3,12.7c1.2,1.7,1.4,3.9,0.3,5.8L148.4,193c-3,5.8-2.6,11.4-2,14.8c0.6,3.6,1.1,6.3,2.2,10
		c2,7-29.4,7.5-34.9,3.6c-4.2-3,0.8-11.2,11.3-11.9c13.6-0.9,9.9-28.3,5.8-34.7"/>
	<g>
		<defs>
			<path id="SVGID_1_" d="M235,103.9c-19.8-1.3-26.6-3.9-49.8-15.4c-1.4-0.7-39.6,36.6-91.4,28.7C70.4,113.6,68.5,103.6,68,106
				c-2.4,12.1-5.8,19.4-3.3,36.6c1.6,11.1,14.7,29.5,41.9,40.9c0.4,3.5,0.8,7.8,0,11.6c-0.9,4.5,11.9,2.8,12.1,0.3
				c0.2-2.2,0.7-4.6,1.7-7c4.3,1.2,8.8,2.2,13.6,3c0.3,3.2,0.5,6.8-0.2,10c-0.9,4.5,11.9,2.8,12.1,0.3c0.2-2.5,0.9-5.4,2.3-8.3
				l0.2-0.2c4.1,0.3,8.3,0.5,12.8,0.5c25.7,0.1,49.1-3.3,72.6-6.2C261.7,184,249.8,104.9,235,103.9z"/>
		</defs>
		<clipPath id="SVGID_2_">
			<use xlink:href="#SVGID_1_"  style="overflow:visible;"/>
		</clipPath>
		<g id="otfiE4_1_" class="st9">
			
				<image style="overflow:visible;" width="1000" height="1000" id="otfiE4_2_" xlink:href="3E057094ECB5E446.png"  transform="matrix(0.2009 0 0 0.2009 55.9771 51.3567)">
			</image>
		</g>
	</g>
	<g>
		<defs>
			<path id="SVGID_3_" d="M68.3,104.6c0,0-7.2,13.1-2,19.7c0,0,4.6-8.1,10.6-10.9c0,0,4,6.2,4.4,13.2c0,0,47.7,1.3,64.4-11.6
				l-0.2-4.6C145.5,110.4,77,120.1,68.3,104.6z"/>
		</defs>
		<clipPath id="SVGID_4_">
			<use xlink:href="#SVGID_3_"  style="overflow:visible;"/>
		</clipPath>
		<g id="otfiE4_3_" class="st10">
			
				<image style="overflow:visible;" width="1000" height="1000" id="otfiE4_4_" xlink:href="3E057094ECB5E44A.png"  transform="matrix(0.1423 -0.1417 0.1417 0.1423 -1.2369 126.8406)">
			</image>
		</g>
	</g>
	<g>
		<circle class="st11" cx="74.3" cy="126.6" r="2.4"/>
		<circle class="st8" cx="74.3" cy="125.5" r="0.3"/>
		<circle class="st8" cx="74.3" cy="127.7" r="0.3"/>
		<circle class="st8" cx="75.4" cy="126.6" r="0.3"/>
		<circle class="st8" cx="73.2" cy="126.6" r="0.3"/>
	</g>
	<g>
		<circle class="st11" cx="73.2" cy="139.8" r="2.4"/>
		<circle class="st8" cx="73.2" cy="138.7" r="0.3"/>
		<circle class="st8" cx="73.2" cy="140.9" r="0.3"/>
		<circle class="st8" cx="74.3" cy="139.8" r="0.3"/>
		<circle class="st8" cx="72.1" cy="139.8" r="0.3"/>
	</g>
	<g>
		<circle class="st11" cx="78" cy="153" r="2.4"/>
		<circle class="st8" cx="78" cy="151.9" r="0.3"/>
		<circle class="st8" cx="78" cy="154.1" r="0.3"/>
		<circle class="st8" cx="79.1" cy="153" r="0.3"/>
		<circle class="st8" cx="76.9" cy="153" r="0.3"/>
	</g>
	<path class="st3" d="M114.8,221.5c0,0-1.6-5.2,4.5-7.5"/>
	<path class="st3" d="M117.6,222.7c0,0-1.6-5.2,4.5-7.5"/>
	<path class="st12" d="M143.7,110.7c-2.9,4.2-4,8.5-3.8,12.6c0,0.1-0.1,0.2-0.1,0.3c-1.1,6.3,8.9,21.7,8.9,21.7s-0.5-2.2-0.9-5.3
		c2.6,5,5.7,9.4,5.7,9.4s-0.7-2.7-1.2-6.2c2.2,3.1,4.1,5.4,4.1,5.4s-0.8-2.4-1.7-5.8c0.5,0.2,1,0.4,1.4,0.5c0,0,17.2,5,28.4,4.2
		c3.9,2.3,7.1,3.8,7.1,3.8s-1.4-1.5-3.3-3.7c2.2,1.2,3.8,2,3.8,2s-0.5-0.5-1.3-1.4c4,2.4,7.5,4.1,7.5,4.1s-1.9-2-4.3-4.8
		c1.6,0.9,2.8,1.4,2.8,1.4s-1-1.1-2.5-2.7c2.8,1.1,4.8,1.8,4.8,1.8s-2.2-1.8-5-4.4c3.1-0.1,5.2-0.3,5.2-0.3s-2.4-0.6-5.6-1.7
		c0.1-1.2-0.2-2.6-0.9-4.3c-4.4-10.5-4.2-19.2,4.4-32c4.1-6.1,3.9-12.8,1.4-18.5c3.5-0.1,6.9-0.8,6.9-0.8s-4.9-0.8-8.6-2.4
		c0,0,0-0.1-0.1-0.1c3.4-0.3,6.1-0.8,6.1-0.8s-4.2-0.7-8.3-2.1c-3.1-3.5-7-6.2-11.1-7.3l-16.3-6.4"/>
	<g>
		<defs>
			<path id="SVGID_5_" d="M161,19L135.3,6.2c-9-4.5-18.4,1.8-23.3,11.6c-12.5-3.4-21.1-4.6-22.4-0.5c-1.5,4.6,8.2,10.9,17.9,14.9
				c4,1.6,8.1,2.4,11.7,3c4,0.7,8.5,0.6,17.1,5.2c7.1,3.7,21.5,14.8,21.5,14.8l9-18.5C170.1,30.2,167.4,22.2,161,19z"/>
		</defs>
		<clipPath id="SVGID_6_">
			<use xlink:href="#SVGID_5_"  style="overflow:visible;"/>
		</clipPath>
		<g id="otfiE4_5_" class="st13">
			
				<image style="overflow:visible;" width="1000" height="1000" id="otfiE4_6_" xlink:href="3E057094ECB5E44D.png"  transform="matrix(0.2007 -6.551929e-03 6.551929e-03 0.2007 68.1193 -25.3701)">
			</image>
		</g>
	</g>
	<path class="st8" d="M155.8,33.7c0.2-0.5,0.1-1-0.1-1.4c0.1-0.1,0.3-0.3,0.3-0.5c0.2-0.5,0.1-1.1-0.2-1.5c0.3-0.2,0.5-0.4,0.6-0.7
		c0.1-0.3,0.1-0.6,0.1-0.8c0.5-0.1,1-0.4,1.2-0.9c0.1-0.3,0.1-0.7,0-1c0.3-0.2,0.6-0.4,0.7-0.8c0.3-0.8,0-1.7-0.8-2c0,0,0,0-0.1,0
		c0.1-0.1,0.2-0.2,0.2-0.4c0.2-0.4,0.1-0.9-0.1-1.3c0.1-0.1,0.1-0.2,0.2-0.3c0.3-0.8,0-1.7-0.8-2c0,0,0,0-0.1,0
		c0.1-0.1,0.1-0.2,0.2-0.3c0.3-0.8,0-1.7-0.8-2c-0.2-0.1-0.4-0.1-0.7-0.1c0-0.6-0.4-1.1-0.9-1.3c0.3-0.8,0-1.7-0.8-2
		c-0.3-0.1-0.6-0.1-0.9-0.1c0-0.2,0-0.3-0.1-0.5c-0.3-0.8-1.2-1.2-2-0.9c-0.2,0.1-0.3,0.1-0.4,0.2c-0.2-0.3-0.4-0.6-0.8-0.8
		c-0.7-0.3-1.4,0-1.8,0.5c-0.2-0.2-0.4-0.4-0.6-0.5c-0.6-0.2-1.2-0.1-1.7,0.3c-0.1-0.1-0.3-0.3-0.5-0.3c-0.7-0.3-1.5,0-1.9,0.7
		c-0.1-0.4-0.3-0.7-0.7-0.9c-0.7-0.5-1.7-0.2-2.1,0.5c-0.1,0.2-0.2,0.4-0.2,0.6c-0.7-0.1-1.4,0.2-1.7,0.9c-0.1,0.2-0.1,0.3-0.1,0.5
		c-0.7-0.1-1.4,0.2-1.7,0.9c-0.2,0.5-0.1,1.1,0.2,1.5c-0.2,0.2-0.4,0.4-0.5,0.7c-0.1,0.3-0.1,0.5-0.1,0.8c-0.6-0.1-1.2,0.2-1.5,0.8
		c-0.2,0.4-0.2,0.8-0.1,1.2c-0.3,0.2-0.6,0.4-0.7,0.8c-0.1,0.3-0.1,0.7-0.1,1c-0.6,0-1.2,0.3-1.5,0.9c-0.2,0.6-0.1,1.2,0.3,1.7
		c-0.2,0.2-0.4,0.4-0.5,0.7c-0.1,0.2-0.1,0.3-0.1,0.5c-0.7-0.2-1.4,0.2-1.7,0.8c-0.4,0.8-0.1,1.7,0.7,2.1l0,0l-0.3,0.6
		c-0.6,0-1.1,0.4-1.3,0.9c0,0.1-0.1,0.2-0.1,0.4c-0.4,0.1-0.8,0.4-0.9,0.9c-0.1,0.4-0.1,0.7,0,1.1c-0.3,0.2-0.6,0.4-0.7,0.8
		c-0.3,0.7,0,1.5,0.6,1.9c-0.1,0.1-0.1,0.2-0.2,0.3c-0.3,0.8,0,1.7,0.8,2c0.2,0.1,0.4,0.1,0.6,0.1c0.1,0.5,0.4,0.9,0.9,1.1
		c0.5,0.2,1,0.1,1.4-0.1c0.2,0.3,0.4,0.6,0.8,0.7c0.3,0.1,0.6,0.1,0.9,0.1c-0.1,0.7,0.2,1.4,0.9,1.7c0.5,0.2,1.1,0.1,1.5-0.2
		c0.1,0.1,0.2,0.2,0.4,0.2c0.2,0.1,0.5,0.1,0.7,0.1c0,0.6,0.4,1.1,0.9,1.3c0.4,0.2,0.9,0.1,1.3,0c-0.2,0.7,0.1,1.6,0.9,1.9
		c0.5,0.2,1,0.1,1.4-0.1c0.2,0.3,0.4,0.5,0.7,0.7c0,0,0,0,0.1,0c0,0.6,0.3,1.2,0.9,1.4c0.7,0.3,1.5,0,1.9-0.6c0,0,0,0,0,0
		c0.8,0.3,1.7,0,2-0.8c0,0,0,0,0,0c0.5-0.1,0.9-0.4,1.1-0.9c0.1-0.2,0.1-0.4,0.1-0.6c0,0,0,0,0,0c0,0,0.1,0,0.1,0.1
		c0.8,0.3,1.7,0,2-0.8c0.2-0.5,0.1-1-0.1-1.4c0.5-0.1,0.9-0.4,1.1-0.9c0.1-0.1,0.1-0.3,0.1-0.4c0.4-0.1,0.7-0.4,0.9-0.8
		c0.1-0.3,0.1-0.6,0.1-0.8c0.5-0.1,1-0.4,1.2-0.9c0.2-0.5,0.1-1.1-0.2-1.6c0.3-0.2,0.5-0.4,0.6-0.7c0-0.1,0.1-0.2,0.1-0.3
		C154.9,34.7,155.6,34.4,155.8,33.7z"/>
</g>
</svg>
