<?xml version="1.0" encoding="utf-8"?>
<!-- Generator: Adobe Illustrator 21.1.0, SVG Export Plug-In . SVG Version: 6.00 Build 0)  -->
<svg version="1.1" id="Layer_1" xmlns="http://www.w3.org/2000/svg" xmlns:xlink="http://www.w3.org/1999/xlink" x="0px" y="0px"
	 viewBox="0 0 588 165" style="enable-background:new 0 0 588 165;" xml:space="preserve">
<style type="text/css">
	.st0{fill:#FFFFFF;stroke:#000000;stroke-width:10;stroke-linejoin:round;stroke-miterlimit:10;}
	.st1{fill:#FFFFFF;}
</style>
<g>
	<g>
		<g>
			<path class="st0" d="M51.7,143.3c11.4-2.5,25.6,2,38.5-2.3c2.7-0.9,5.4-2.2,8-4.1c2.1,8.2,0.1,14.5-5.3,16.2
				c-14,4.5-34.8-8.7-52.6-1.3c-0.8,0.3-1.5,0.6-2.3,1c-4.1-19.2-7.9-38.7-11.6-58.3c-8,6.9-10.5,15-6.2,22.8c2,3.7,3.7,3.7,4.2,4.3
				c-7.2,3.2-12.1,3.3-15-1.9c-5.6-9.4,8.8-28.2,27.1-36.3c1.5-0.7,3-1.2,4.4-1.8C44.3,102.5,47.9,123,51.7,143.3z"/>
			<path class="st0" d="M100.7,80.8c1,10.3,2,20.6,3,30.8c0.1,1,0.3,2,0.6,2.7c0.7,1.8,2.2,2.8,6.4,1.5c4.2-1.3,8-7.7,11.3-11.7
				c1.2-0.4,2.4-0.7,3.6-1.1c-3.6,5.4-11.5,20.2-19.5,22.7c-7,2.2-12.6,1.7-15.5-2.7c-3.4,5.2-7.6,10.4-12,11.9
				c-7.8,2.8-13.9,2-16.7-3.9c-0.5-1.2-1-2.6-1.2-4.2c-1.6-9.8-3.2-19.6-4.8-29.4c5.1-2.1,10.3-4.1,15.5-6.1c1.3,10,2.7,20,4.2,29.9
				c0.2,1,0.3,1.9,0.7,2.6c0.8,1.8,2.3,2.6,6.5,1.2c2.2-0.8,4.2-3,6.2-5.5c-0.2-0.8-0.4-1.8-0.5-2.9c-1.3-10.1-2.5-20.2-3.7-30.3
				C90.2,84.5,95.5,82.6,100.7,80.8z"/>
			<path class="st0" d="M185.2,89.6c-0.1,1.2,0,2.4,0.3,3.5c0.5,2.1,1.9,3.5,5.3,2.8c4.3-0.9,7.6-7.2,9.3-11.8
				c1.7-0.3,3.4-0.7,5.2-1c-4,6-11.1,20-19.4,21.7c-8.3,1.7-14-0.2-15.8-7c-0.4-1.4-0.6-2.9-0.6-4.7c-0.1-5.7-0.1-11.5-0.2-17.2
				c0-0.9-0.1-1.7-0.3-2.4c-0.9-3.2-3.6-4.8-6.6-4c-2.5,0.6-4.2,1.7-6,3.3c0.6,1,1.1,1.9,1.5,3c0.2,0.6,0.2,1.3,0.3,1.9
				c0.2,11.1,0.6,22.2,0.9,33.2c-5.1,1.2-10.2,2.5-15.3,3.9c-0.6-10.6-1.1-21.2-1.5-31.8c0-0.8-0.2-1.7-0.4-2.4
				c-1-3.1-3.7-4.6-6.7-3.7c-2.7,0.8-4.3,1.9-6.1,3.8c0.7,12.5,1.5,25,2.4,37.4c-5,1.4-10,2.9-15,4.4c-1.4-15.1-2.7-30.4-3.9-45.7
				c5.3-1.7,10.6-3.4,16-5c0.1,1.6,0.2,3.3,0.3,4.9c3.6-3.8,8-7.4,12.9-8.8c4.1-1.2,9.4-0.1,12.8,2.8c4-4.4,9.2-8.7,14.8-10.1
				c6.2-1.6,14.4,2.1,15.9,8.4c0.2,0.7,0.2,1.4,0.3,2.2C185.4,77.3,185.3,83.5,185.2,89.6z"/>
			<path class="st0" d="M213.6,31.2c-0.4,7.5-0.8,15-1.2,22.5c2.3-2.1,5.5-3.9,9.3-4.6c11.1-2,15.8,4,16.7,9.7
				c2.4,15.2-3.8,37.8-22.9,40.9c-10.7,1.8-18.3,0.6-20.1-7.4c-0.3-1.3-0.4-2.9-0.4-4.7c0.4-16.9,0.9-33.8,1.6-50.8
				C202.3,34.8,207.9,33,213.6,31.2z M218,55.6c-1.1,0.2-5,1.6-5.9,2.5c-0.5,8.8-0.9,17.6-1.2,26.4c-0.1,2.4-0.1,4.1,0.2,5.3
				c0.6,2.8,2.2,3.2,5.5,2.7c8.9-1.5,10.5-24.1,9.3-31C224.8,55.8,220.9,55.1,218,55.6z"/>
			<path class="st0" d="M269.3,84.9c5.4-0.6,14.1-7.2,17.4-15c1.7-0.2,3.4-0.3,5.1-0.4c-5.6,11-15.2,21.9-29.2,23.4
				c-10.5,1.1-17.2-5.2-18.5-13.5c-1.9-12.2,0.7-35,22.1-37.9c9.6-1.3,15.4,1.5,16.1,8.6c1.2,12.2-12.9,20.7-23.4,23.2
				c0,1.6,0.1,3.1,0.2,4.3C260,83.9,265,85.3,269.3,84.9z M270.6,46.1c-6.5,0.8-10.4,12.7-11.5,22.2c10.3-1.4,16.9-10,16.2-17.1
				C275.1,49.1,274.1,45.7,270.6,46.1z"/>
			<path class="st0" d="M308.1,37.8c-0.3,1.7-0.6,3.5-0.9,5.2c4-3.2,8.6-5.8,13.6-6.1c5.3-0.4,8.7,2.2,8.8,6.1
				c0.2,3.6-2.7,8.2-8.4,8.5c-6.5,0.4-3.7-6.6-7.2-6.3c-3.5,0.3-5.3,1.5-7.8,3.9c-2.2,13.6-4.4,27.1-6.5,40.6
				c-5.3,0.3-10.6,0.7-15.9,1.2c2.3-17.1,4.7-34.2,7.3-51.4C296.8,38.8,302.4,38.2,308.1,37.8z"/>
			<path class="st0" d="M425.8,8.8c-7.9,25.5-15.4,51-22.7,76.4c-4.7,16.5-12.7,26-30.4,25.2c-10.3-0.4-15.9-6.7-15.9-15.4
				c0-7.2,4.9-14.2,13.8-14.1c4.5,0.1,11.1,0.6,10.8,7.5c0,1.2-0.3,2.7-0.8,4.3c-2.7-2.4-4.4-2.9-6.6-3c-5.1-0.1-7.9,3.8-8,7.7
				c-0.1,5.5,4.1,7.6,7.3,7.7c4.9,0.2,7.9-1.8,11-12.8c6.9-25.4,14.1-50.9,21.7-76.4c-10.9,3.7-17.6,11.8-17.9,23.3
				c-0.2,5.5,1.4,6.4,1.4,7.3c-8.2-0.1-12.6-2.8-12.5-10.5c0-14.1,22.9-28,43.9-27.3C422.5,8.6,424.2,8.7,425.8,8.8z"/>
			<path class="st0" d="M474.7,40.1c-4.6,12.3-9.1,24.7-13.5,37c-0.4,1.2-0.8,2.4-0.9,3.4c-0.3,2.5,0.6,4.4,5.1,5
				c4.6,0.6,11.4-4.8,16.7-7.8c1.3,0.2,2.6,0.4,3.9,0.6c-6.3,4.4-21.4,17.4-30.1,16.3c-7.3-0.9-11.9-4.1-12.8-10.1
				c-3.9,4.2-9.5,8.2-16.3,7.5c-10.8-1-13.3-8.6-12.9-15c1.3-18.7,10.1-41,34.4-39.3c2.9,0.2,5.8,1.6,7.8,3.4c0.3-0.9,0.7-1.9,1-2.8
				C463.1,38.8,468.9,39.4,474.7,40.1z M429.7,75.2c-0.6,6.6,3,8.1,5.9,8.4c2.6,0.3,5.4-1.9,7.9-4.8c0.2-1.1,0.6-2.3,1.1-3.6
				c3.2-9.6,6.5-19.1,9.8-28.7c-1.7-1.7-4-2.4-5.7-2.5C439.7,43.2,431,60.2,429.7,75.2z"/>
			<path class="st0" d="M514.4,53.6c0.5-2.7-1.1-4.1-3.8-4.6C500.4,47.5,491,65,489,77.1c-1.1,6.7-0.6,12.3,6.3,13.4
				c8.1,1.4,15.5-2.2,22.1-7.1c1.3,0.2,2.6,0.5,3.9,0.7c-6.9,5.1-15.9,18-35.8,14.6c-9.3-1.5-14.6-7.6-12.7-20.8
				c2.3-16.3,12.8-37.2,36.6-33.8c6.6,1,13.1,3.7,11.9,9.9c-0.2,1.3-0.6,2.3-1.3,3.6c-0.5-0.4-1.4-0.9-2.9-1.2
				c-1.1-0.2-2.3-0.2-4,0.1C513.8,55.5,514.2,54.5,514.4,53.6z"/>
			<path class="st0" d="M581.4,58.4c-9.4,3.3-18.7,6.7-27.8,10.2c1,0.1,1.8,0.2,2.8,0.4c6.6,1.4,12.1,10,10.1,17.7
				c-0.2,0.8-0.6,1.7-1,2.6c-1.1,2.1-2.2,4.2-3.2,6.3c-0.8,1.5-1.8,3.1-2.2,4.6c-0.5,2,0,3.6,3.5,4.4c0.8,0.2,2.1,0.5,3.1,0.4
				c-5.9,9.1-10.8,8.6-14.6,7.6c-8-2-10.2-8.2-8.4-15.4c0.4-1.8,1.1-3.7,2.1-5.6c0.8-1.7,1.6-3.4,2.4-5.1c0.3-0.8,0.6-1.7,0.9-2.6
				c0.9-3.7,0-7.5-3.6-8.3c-2.8-0.6-5.1-0.2-7.8,0.9c-4.6,9.9-9.1,19.7-13.5,29.6c-5.4-1.2-10.8-2.2-16.2-3.3
				c10.6-24.7,21.5-49.5,32.7-74.3c6.3,0.3,12.6,0.6,19,1.1c-6,12.7-12,25.5-17.9,38.2c10.2-5,26.8-12.4,26.8-12.3
				C572.6,56.3,577,57.3,581.4,58.4z"/>
		</g>
	</g>
	<g>
		<g>
			<path class="st1" d="M53.2,144.6c11.3-2.5,25.5,1.9,38.3-2.4c2.7-0.9,5.4-2.2,7.9-4.1c2.1,8.2,0.2,14.4-5.2,16.1
				c-13.9,4.5-34.7-8.6-52.4-1c-0.8,0.3-1.5,0.6-2.2,1c-4.2-19.1-8.2-38.4-12-57.9c-7.9,7-10.4,15.1-6,22.8c2.1,3.7,3.7,3.7,4.2,4.3
				c-7.1,3.3-12,3.3-15-1.8c-5.6-9.3,8.5-28.2,26.8-36.4c1.5-0.7,3-1.2,4.4-1.8C45.5,104,49.3,124.4,53.2,144.6z"/>
			<path class="st1" d="M101.6,82.1c1,10.3,2.1,20.5,3.2,30.7c0.1,1,0.3,2,0.6,2.7c0.7,1.8,2.3,2.8,6.4,1.5
				c4.2-1.3,7.9-7.7,11.2-11.7c1.2-0.4,2.4-0.7,3.6-1.1c-3.6,5.4-11.3,20.2-19.2,22.7c-7,2.2-12.5,1.7-15.4-2.6
				c-3.4,5.2-7.5,10.4-11.8,11.9c-7.8,2.8-13.8,2-16.6-3.8c-0.5-1.2-1-2.6-1.3-4.2c-1.7-9.7-3.4-19.5-5-29.3
				c5.1-2.1,10.3-4.2,15.4-6.2c1.4,10,2.9,19.9,4.4,29.8c0.2,0.9,0.4,1.9,0.7,2.6c0.8,1.7,2.4,2.6,6.5,1.2c2.2-0.8,4.2-3,6.1-5.5
				c-0.2-0.8-0.4-1.8-0.5-2.9c-1.3-10-2.6-20.1-3.8-30.2C91.2,85.8,96.4,83.9,101.6,82.1z"/>
			<path class="st1" d="M185.8,90.7c-0.1,1.2,0,2.4,0.3,3.5c0.5,2.1,1.9,3.5,5.3,2.8c4.3-0.9,7.6-7.2,9.2-11.7
				c1.7-0.3,3.4-0.7,5.1-1c-4,6-11,20-19.2,21.7c-8.3,1.7-13.9-0.2-15.8-6.9c-0.4-1.4-0.6-2.9-0.6-4.7c-0.1-5.7-0.2-11.4-0.2-17.2
				c0-0.9-0.1-1.7-0.3-2.4c-0.9-3.2-3.6-4.8-6.6-4c-2.4,0.6-4.2,1.7-6,3.3c0.6,1,1.1,1.9,1.5,3c0.2,0.6,0.2,1.3,0.3,1.9
				c0.3,11.1,0.6,22.1,1,33.2c-5.1,1.2-10.1,2.5-15.2,3.9c-0.6-10.5-1.2-21.1-1.7-31.7c0-0.8-0.2-1.7-0.4-2.4
				c-1-3.1-3.7-4.5-6.7-3.6c-2.6,0.8-4.3,1.9-6.1,3.8c0.8,12.5,1.6,24.9,2.5,37.3c-5,1.4-10,2.9-14.9,4.4
				c-1.5-15.1-2.8-30.3-4.1-45.5c5.3-1.7,10.6-3.4,15.9-5.1c0.1,1.6,0.2,3.3,0.3,4.9c3.6-3.8,8-7.4,12.8-8.8
				c4.1-1.2,9.3-0.1,12.8,2.7c4-4.4,9.1-8.8,14.7-10.2c6.2-1.6,14.3,2.1,15.8,8.3c0.2,0.7,0.2,1.4,0.3,2.2
				C185.9,78.4,185.8,84.5,185.8,90.7z"/>
			<path class="st1" d="M213.9,32.2c-0.4,7.5-0.8,15-1.2,22.5c2.3-2.1,5.5-3.9,9.3-4.6c11.1-2.1,15.8,3.9,16.7,9.6
				c2.4,15.2-3.7,37.8-22.7,40.9c-10.6,1.8-18.2,0.6-20-7.3c-0.3-1.3-0.4-2.9-0.4-4.7c0.3-16.8,0.8-33.8,1.4-50.8
				C202.6,35.9,208.2,34,213.9,32.2z M218.3,56.6c-1.1,0.2-5,1.6-5.9,2.5c-0.4,8.8-0.8,17.6-1.2,26.4c-0.1,2.4-0.1,4.1,0.2,5.3
				c0.6,2.8,2.2,3.2,5.5,2.6c8.8-1.5,10.4-24.1,9.2-31C225,56.8,221.1,56.1,218.3,56.6z"/>
			<path class="st1" d="M269.4,85.8c5.4-0.6,14-7.2,17.3-15c1.7-0.2,3.4-0.3,5.1-0.4c-5.6,11-15.1,21.9-29.1,23.4
				c-10.4,1.1-17.1-5.2-18.4-13.5c-1.9-12.2,0.6-34.9,21.9-37.9c9.6-1.3,15.3,1.5,16.1,8.5c1.2,12.2-12.9,20.7-23.3,23.2
				c0,1.6,0.1,3.1,0.2,4.3C260.1,84.8,265.1,86.3,269.4,85.8z M270.7,47.1c-6.5,0.8-10.3,12.7-11.4,22.2c10.3-1.4,16.8-10,16.1-17.1
				C275.2,50,274.2,46.6,270.7,47.1z"/>
			<path class="st1" d="M308,38.7c-0.3,1.7-0.6,3.5-0.9,5.2c4-3.2,8.6-5.8,13.5-6.1c5.3-0.4,8.6,2.2,8.8,6.1
				c0.1,3.6-2.7,8.2-8.4,8.5c-6.5,0.4-3.6-6.6-7.1-6.3c-3.5,0.3-5.3,1.5-7.8,3.9c-2.2,13.6-4.4,27.1-6.5,40.6
				c-5.3,0.3-10.5,0.7-15.8,1.2c2.3-17.1,4.7-34.2,7.3-51.4C296.7,39.7,302.3,39.2,308,38.7z"/>
			<path class="st1" d="M425.5,9.8c-7.9,25.6-15.6,51-22.9,76.5c-4.8,16.5-12.7,26-30.3,25.2c-10.2-0.4-15.8-6.7-15.8-15.5
				c0-7.2,4.9-14.2,13.8-14.1c4.5,0.1,11,0.6,10.7,7.5c0,1.2-0.3,2.7-0.8,4.3c-2.7-2.4-4.3-3-6.6-3c-5.1-0.1-7.9,3.8-7.9,7.7
				c-0.1,5.5,4.1,7.6,7.2,7.7c4.9,0.2,7.9-1.8,11-12.8c7-25.4,14.3-50.9,21.9-76.5c-10.9,3.7-17.6,11.8-18,23.3
				c-0.2,5.5,1.3,6.4,1.4,7.3c-8.1-0.2-12.5-2.8-12.4-10.5c0.1-14.1,22.9-28,43.8-27.3C422.1,9.7,423.8,9.7,425.5,9.8z"/>
			<path class="st1" d="M474,41.3c-4.6,12.3-9.2,24.7-13.7,37c-0.4,1.2-0.8,2.4-0.9,3.4c-0.3,2.5,0.6,4.4,5.1,5
				c4.5,0.6,11.4-4.8,16.6-7.7c1.3,0.2,2.6,0.4,3.9,0.6c-6.3,4.4-21.4,17.4-30,16.3c-7.3-1-11.9-4.2-12.7-10.1
				c-3.9,4.2-9.5,8.2-16.3,7.5c-10.7-1-13.2-8.6-12.7-15.1c1.4-18.7,10.2-41.1,34.5-39.2c2.9,0.2,5.8,1.6,7.8,3.5
				c0.4-0.9,0.7-1.9,1.1-2.8C462.4,40,468.2,40.6,474,41.3z M429,76.3c-0.6,6.6,3,8.2,5.8,8.4c2.6,0.3,5.4-1.9,7.9-4.8
				c0.2-1.1,0.6-2.3,1.1-3.6c3.3-9.6,6.6-19.2,10-28.7c-1.7-1.7-4-2.4-5.6-2.5C439.1,44.4,430.4,61.4,429,76.3z"/>
			<path class="st1" d="M513.5,55c0.5-2.7-1.1-4.2-3.7-4.6c-10.2-1.6-19.7,15.9-21.7,28.1c-1.1,6.7-0.7,12.3,6.2,13.5
				c8.1,1.4,15.5-2.1,22-7c1.3,0.3,2.6,0.5,3.9,0.8c-6.9,5.1-16,18-35.7,14.5c-9.3-1.6-14.5-7.6-12.5-20.9
				c2.4-16.3,13-37.3,36.7-33.8c6.5,1,13,3.7,11.8,10c-0.2,1.3-0.6,2.3-1.3,3.6c-0.5-0.4-1.4-1-2.9-1.2c-1.1-0.2-2.3-0.2-4,0
				C512.9,56.9,513.4,55.9,513.5,55z"/>
			<path class="st1" d="M580.4,60.1c-9.4,3.3-18.7,6.6-27.8,10c1,0.1,1.8,0.2,2.8,0.4c6.6,1.4,12,10.1,9.9,17.7
				c-0.2,0.8-0.6,1.7-1.1,2.6c-1.1,2.1-2.2,4.2-3.3,6.3c-0.8,1.5-1.8,3.1-2.2,4.6c-0.5,2,0,3.6,3.4,4.5c0.8,0.2,2,0.5,3.1,0.4
				c-6,9.1-10.8,8.5-14.6,7.6c-7.9-2-10.1-8.2-8.3-15.5c0.5-1.8,1.2-3.7,2.1-5.6c0.8-1.7,1.7-3.4,2.5-5.1c0.3-0.8,0.7-1.7,0.9-2.6
				c0.9-3.7,0.1-7.5-3.5-8.3c-2.8-0.6-5.1-0.3-7.8,0.9c-4.6,9.9-9.2,19.7-13.7,29.6c-5.4-1.2-10.8-2.3-16.2-3.4
				c10.8-24.8,21.8-49.5,33.2-74.3c6.3,0.3,12.6,0.7,18.9,1.1c-6.1,12.7-12.2,25.5-18.1,38.2c10.3-5,26.9-12.3,26.9-12.2
				C571.6,58,576,59,580.4,60.1z"/>
		</g>
	</g>
</g>
</svg>
