<?xml version="1.0" encoding="utf-8"?>
<!-- Generator: Adobe Illustrator 21.1.0, SVG Export Plug-In . SVG Version: 6.00 Build 0)  -->
<svg version="1.1" id="Layer_1" xmlns="http://www.w3.org/2000/svg" xmlns:xlink="http://www.w3.org/1999/xlink" x="0px" y="0px"
	 viewBox="0 0 1247.9 475.5" style="enable-background:new 0 0 1247.9 475.5;" xml:space="preserve">
<style type="text/css">
	.st0{fill:#BBBDBF;}
	.st1{fill:#FFFFFF;}
	.st2{clip-path:url(#SVGID_2_);}
	.st3{fill:none;stroke:#FFFFFF;stroke-width:3.9112;stroke-miterlimit:10;}
	.st4{clip-path:url(#SVGID_4_);}
	.st5{fill:none;stroke:#FFFFFF;stroke-width:3.851;stroke-miterlimit:10;}
	.st6{clip-path:url(#SVGID_6_);}
	.st7{fill:none;stroke:#FFFFFF;stroke-width:3.2065;stroke-miterlimit:10;}
</style>
<g>
	<g>
		<polygon class="st0" points="191.2,83.4 210.7,105.1 220.9,137.2 234.1,167.7 257.8,192.3 264.7,226.3 286,252.2 299.3,282.6 
			323.8,306.8 335.6,338.1 357.3,363.8 361.2,399.5 386,423.5 399.8,453.6 418.3,481.1 428,508.7 400.2,517.9 368.1,515.9 
			335.9,520 303.7,505.7 271.6,516.7 239.4,504 207.3,519.8 175.1,508.3 142.9,515.4 110.8,505.6 78.6,510 46.4,514 14.3,512.5 
			-17.9,517.9 -52,512.2 -35.6,481.4 -14.8,455.1 -5.4,422.6 10.5,393.6 35.5,369.7 42.2,335.6 65.3,310.6 86.6,284.7 87.1,247.1 
			106.5,220.1 122.2,191 148.1,167.6 165.1,139.2 171.6,104.8 		"/>
	</g>
	<g>
		<g>
			<path class="st1" d="M187.7,85.7c3.9,4.3,7.8,8.7,11.7,13c2.1,2.4,4.2,4.9,6.5,7.1c0.1,0.1,1.3,1.5,1.3,1.4
				c-0.5,0.4-1.6-4-0.7-0.6c1.8,6.9,4.3,13.6,6.5,20.4c1.3,4,2.4,8.2,4,12.1c2.6,6,5.2,12,7.8,18c1.8,4.2,3.2,9.4,6,12.9
				c3.8,4.8,8.8,9.1,13,13.5c2.4,2.5,4.9,5,7.3,7.6c0.8,0.8,1.5,1.7,2.3,2.4c2.1,1.8-1.2-0.5-0.3-1.2c-0.3,0.3,0.9,4.6,1,5
				c0.8,3.8,1.5,7.6,2.3,11.4c1.1,5.6,1.6,11.9,3.5,17.3c1.5,4.4,6.2,8.4,9.1,12c4.3,5.2,8.3,10.8,12.9,15.7c1,1,0.2,0.4-0.1-0.2
				c0.2,0.5,0.5,1,0.6,1.5c1.2,3.1,2.7,6.1,4,9.1c2.7,6.2,5.1,12.8,8.3,18.8c1.9,3.6,5.7,6.4,8.5,9.3c5.2,5.1,10.3,10.2,15.5,15.3
				c0.1,0.1,1.4,1.6,1.5,1.5c-0.7,0.2-1.7-3.8-0.7-1c1,3.2,2.4,6.3,3.6,9.5c2.5,6.7,4.7,13.7,7.7,20.3c2.2,5.1,7.1,9.3,10.6,13.5
				c4.1,4.9,8.3,9.8,12.4,14.8c-0.5-1.1-0.9-2.3-1.4-3.4c1.3,11.6,2.4,23.2,3.8,34.8c0.5,4.6,4.5,7.2,7.7,10.3
				c5.2,5.1,10.5,10.1,15.7,15.2c0.7,0.7,1.4,1.6,2.2,2.1c1,0.7,0.5,0.7,0-0.3c1.1,2.1,1.9,4.3,2.9,6.4c3,6.6,6.1,13.3,9.1,19.9
				c4.5,9.7,11.6,18.4,17.5,27.3c0.7,1,1.3,2.3,2.2,3.2c0.8,0.9,0.5,0.6,0.1-0.2c1.2,2.6,1.9,5.5,2.8,8.1c2.3,6.4,4.5,12.9,6.8,19.3
				c0.8-1.5,1.6-3,2.3-4.4c-5.6,1.8-11.1,3.7-16.7,5.5c-2.9,0.9-5.8,1.9-8.6,2.8c-0.7,0.2-1.5,0.6-2.3,0.7c1.3-0.3,0.8,0-0.3-0.2
				c-6.6-0.9-13.4-0.8-20.1-1.2c-3.9-0.2-7.8-0.8-11.7-0.5c-6.5,0.4-13.1,1.7-19.5,2.5c-3.1,0.4-6.3,0.8-9.4,1.2
				c-0.3,0-1.7,0-1.9,0.2c-0.2,0.2,3.2,1.4,1.3,0.3c-5.2-3.3-11.9-5.3-17.5-7.8c-4.5-2-9.1-4.5-13.8-6.1c-2.9-1-4.7-0.1-7.4,0.9
				c-3.5,1.2-7,2.4-10.5,3.6c-6,2.1-12,4.1-17.9,6.2c1.2,0.1,2.4,0.3,3.6,0.4c-6-2.4-12-4.7-17.9-7.1c-3.5-1.4-7-2.8-10.5-4.2
				c-2.2-0.9-5-2.4-7.4-1.9c-1.8,0.4-3.8,1.8-5.4,2.6c-3.6,1.8-7.2,3.5-10.8,5.3c-5.7,2.8-11.3,5.5-17,8.3c1.6,0,3.1,0,4.7,0
				c-9.3-3.3-18.5-6.6-27.8-9.9c-2.9-1-5.5-2.3-8.6-1.8c-4.9,0.7-9.7,2.2-14.5,3.2c-5.2,1.2-10.6,2-15.8,3.5
				c-2.8,0.8,1.4,0.7,0.6,0.1c-1.4-1-4.2-1.3-5.8-1.8c-5.8-1.8-11.7-3.6-17.5-5.3c-3.5-1.1-7.1-2.8-10.8-2.5
				c-9.8,0.7-19.6,2.7-29.3,4c-0.8,0.1-4.3,0.5-1.9,0.3c-1.6,0.2-3.1,0.4-4.7,0.6c-6,0.7-12,1.5-17.9,2.2c-8,1-15,0.9-23,0.5
				c-8-0.4-15.9-1.3-23.8,0c-6.7,1.1-13.3,2.2-20,3.4c-2.3,0.4-4.9,0.5-7.1,1.2c-2.2,0.7,3.5,0.6-0.5-0.2c-10.7-2-21.5-3.6-32.2-5.4
				c1.4,2.5,2.8,5.1,4.2,7.6c4.4-8.3,8.8-16.6,13.2-24.8c3.3-6.3,7.3-11.2,11.8-16.8c3.4-4.3,6.8-8.5,10.1-12.8
				c1.5-2,2.5-3.4,3.2-5.8c1.5-5.2,3-10.4,4.5-15.6c1.3-4.6,3.3-9.3,4.1-14c0.3-1.9-0.7,1,0.2-0.7c0.9-1.7,1.9-3.4,2.8-5.1
				c2.8-5.1,5.6-10.2,8.4-15.3c1.4-2.5,2.6-5.6,4.4-7.9c2.5-3.1,6-5.7,8.8-8.4c4.2-4,8.5-8.1,12.7-12.1c1.8-1.7,3.4-2.9,4.1-5.2
				c2.6-9.7,3.9-20,5.8-29.9c0.2-1,0.3-2.2,0.6-3.1c-0.5,1.4-0.5,0.9,0.1,0.3c0.6-0.5,1.1-1.2,1.6-1.8c3.8-4.1,7.5-8.1,11.3-12.2
				c4.6-5,9.2-9.9,13.5-15.1c3.8-4.6,7.5-9.2,11.3-13.7c2-2.4,5.5-5.4,6.6-8.4c1-2.8,0.2-7,0.3-10c0.1-5.9,0.2-11.7,0.2-17.6
				c0-1,1-10.4,0.1-10.9c1.5,0.9-1.6,2.4-0.3,1.4c0.4-0.3,0.8-1.2,1.1-1.6c1.4-2,2.8-3.9,4.2-5.9c4.7-6.6,10.2-13.1,14.3-20.2
				c4.9-8.6,10.2-17.5,14.3-26.6c0.2-0.4,0.4-0.8,0.7-1.2c0.2-0.3-1.1,1.2-0.4,0.3c1-1.2,2.4-2.2,3.6-3.2c4.3-3.9,8.7-7.8,13-11.8
				c2.9-2.7,6.1-5.2,8.9-8c2-2.1,3.3-4.8,4.8-7.3c3.1-5.1,6.1-10.3,9.2-15.4c1.4-2.4,3.5-4.9,4.4-7.6c1.3-3.7,1.5-8,2.2-11.8
				c1.1-5.8,2.2-11.5,3.3-17.3c0.3-1.5,0.6-3.1,0.9-4.6c0.2-1,0-0.1-0.3,0.3c0.3-0.5,0.9-1,1.3-1.4c3.7-3.8,7.2-7.9,10.8-11.8
				c2.5-2.7,5-5.4,7.5-8.2c3.6-3.9-4.7-10.4-8.4-6.4c-6.2,6.7-12.8,13.3-18.6,20.3c-1.7,2.1-1.8,3.9-2.3,6.6c-1,5.5-2.1,11-3.1,16.6
				c-0.8,4.2-1.8,8.5-2.4,12.8c-0.2,1.1,0.9-1.2-0.3,0.7c-1.2,1.9-2.3,3.8-3.4,5.7c-3.1,5.1-6.1,10.3-9.2,15.4c-1,1.6-2.2,3.3-3,5
				c-1,2.1,0.6-0.2-0.5,1c-7.2,7-14.9,13.5-22.4,20.2c-5.7,5.1-8.4,12.1-12,18.8c-3.4,6.4-6.6,12.6-10.8,18.5
				c-3.4,4.7-6.8,9.5-10.2,14.2c-1.9,2.7-5.2,5.8-6.2,9c-1,2.9-0.2,7-0.3,10c-0.1,6-0.2,12-0.2,18.1c0,0.6-0.2,10.5-0.1,10.5
				c-3.5-0.2,2-2.5,0.3-1.5c-0.4,0.2-0.9,1.1-1.2,1.5c-1.5,1.8-3,3.7-4.5,5.5c-11.7,14.2-23.8,27.7-36.3,41.3
				c-4.8,5.2-4.7,14-6,20.7c-1,4.9-2.3,9.9-2.9,14.9c-0.1,0.4-0.1,1-0.3,1.4c-0.2,0.8,0.9-1.3,0.2-0.5c-1.1,1.2-2.5,2.4-3.7,3.5
				c-4.2,4-8.3,8-12.5,12c-2.7,2.6-6.2,5.2-8.5,8.2c-1.8,2.3-2.9,5.3-4.3,7.8c-2.9,5.2-5.7,10.4-8.6,15.7
				c-3.6,6.5-5.4,12.8-7.4,19.9c-1.6,5.4-3.1,10.8-4.7,16.2c-0.1,0.5-1.1,3.5-0.6,2.5c0.5-1-1.5,1.7-1.8,2.1
				c-6.1,7.7-13,15.2-18.5,23.3c-4.7,6.9-8.1,15.1-12,22.5c-1.5,2.9-3.1,5.8-4.6,8.7c-1.7,3.1,0.7,7,4.2,7.6
				c8.4,1.4,16.7,2.8,25.1,4.2c3,0.5,6,1.2,9,1.5c3.1,0.3,6.5-0.7,9.6-1.2c5.3-0.9,10.7-1.8,16-2.7c2-0.3,4-0.7,6.1-1
				c0.9-0.1,4.1-0.2,1.7-0.3c8.7,0.3,17.4,0.8,26.1,1.2c13.4,0.6,27-2.1,40.2-4c9.3-1.3,18.5-2.6,27.8-3.8c0.4-0.1,3.1-0.1,3.4-0.5
				c-1.5,2.2-3-0.7-1.7,0.2c0.4,0.3,1.3,0.4,1.8,0.6c4.6,1.4,9.1,2.8,13.7,4.2c4.9,1.5,9.9,3.2,14.9,4.5c2.7,0.7,4.9,0.1,7.6-0.5
				c9.4-2.1,18.8-4.2,28.2-6.2c-1.2-0.1-2.4-0.3-3.6-0.4c6,2.1,12,4.3,17.9,6.4c3.5,1.3,7,2.5,10.5,3.8c2.2,0.8,5.1,2.3,7.4,1.7
				c1.8-0.4,3.8-1.8,5.4-2.6c3.6-1.8,7.2-3.5,10.8-5.3c5.7-2.8,11.3-5.5,17-8.3c-1.6,0-3.1,0-4.7,0c5.7,2.2,11.3,4.5,17,6.7
				c3.6,1.4,7.2,2.9,10.8,4.3c1.9,0.7,4.2,2,6.2,2.2c2.1,0.2,4.2-0.9,6.1-1.6c3.6-1.2,7.2-2.5,10.8-3.7c5.7-1.9,11.3-3.9,17-5.8
				c-1.2-0.1-2.4-0.3-3.6-0.4c8.9,3.9,17.7,7.9,26.6,11.8c2.6,1.1,5.5,3,8.4,3c4.3,0,9-1.2,13.3-1.7c7.8-1,15.5-2.6,23.4-2.1
				c5.8,0.4,11.7,0.7,17.5,1.1c3.5,0.2,7.5,1.1,11,0.4c4.6-0.8,9.4-3.1,13.9-4.6c4.6-1.5,9.3-3.1,13.9-4.6c1.8-0.6,3-2.5,2.3-4.4
				c-3.1-8.9-6.1-17.8-9.3-26.6c-0.9-2.5-2.4-4.5-3.9-6.8c-3.3-4.9-6.6-9.9-9.9-14.8c-4.4-6.5-7.5-12.5-10.7-19.6
				c-2.4-5.2-4.7-10.3-7.1-15.5c-1.1-2.3-1.9-4-3.8-5.8c-7.8-7.5-15.5-15-23.3-22.5c0.5,1.1,0.9,2.3,1.4,3.4
				c-0.7-6.1-1.3-12.2-2-18.3c-0.6-5.8-0.3-12.8-2.1-18.5c-0.7-2.2-2.8-4.1-4.3-5.8c-2.6-3.1-5.2-6.2-7.8-9.3
				c-2.7-3.2-5.4-6.4-8-9.5c-0.7-0.9-1.4-1.9-2.2-2.6c-1.6-1.4,0.6,1.7,0.5,1.2c-0.3-2.5-2.1-5.5-2.9-7.8c-1.5-4-3-8-4.5-12.1
				c-1.6-4.3-2.8-10.5-6-14c-5-5.6-10.8-10.6-16.1-15.9c-2.3-2.3-4.5-4.9-7-6.9c-1.1-0.9-0.4-0.6-0.1,0.2c-0.4-0.8-0.7-1.6-1.1-2.5
				c-4.9-11.2-8.6-23.6-16.4-33.1c-5.2-6.3-10.3-12.6-15.5-18.9c-0.6-0.7-1.3-1.9-2-2.5c-0.8-0.6,0.7,3,0.8,1.2
				c0.1-2.6-1.2-5.9-1.7-8.4c-1.6-7.7-3-15.4-4.7-23c-1-4.7-4.9-7.5-8.2-10.9c-5.4-5.6-10.6-11.6-16.3-16.9
				c-0.9-0.8-0.9-1.5-0.2,0.1c-0.3-0.8-0.7-1.5-1-2.3c-1.5-3.4-2.9-6.8-4.4-10.2c-1.8-4-3.5-8.1-5.3-12.1c-0.6-1.3-1.1-2.7-1.7-4
				c-0.3-0.6-1.1-3.2-0.3-0.7c-1.9-6.1-3.9-12.3-5.8-18.4c-1.6-5-2.6-12-5.8-16.2c-4.5-5.8-10-11-14.9-16.5
				c-1.5-1.6-2.9-3.2-4.4-4.9C190.6,76.7,183,80.6,187.7,85.7z"/>
		</g>
	</g>
	<g>
		<defs>
			<polygon id="SVGID_1_" points="191.2,87.8 170.6,105.3 165.5,137 147.4,168.2 121.4,192.9 85.6,252.7 86.6,284.7 45.6,339.4 
				33.6,371.5 1.2,408.4 0.1,457.6 163.7,438.3 191.2,339.6 166.1,265 213,229.9 191.2,166.8 211.3,108.1 			"/>
		</defs>
		<clipPath id="SVGID_2_">
			<use xlink:href="#SVGID_1_"  style="overflow:visible;"/>
		</clipPath>
		<g class="st2">
			<g>
				<line class="st3" x1="9" y1="-17.6" x2="254.2" y2="117.4"/>
			</g>
			<g>
				<line class="st3" x1="9.5" y1="-39.3" x2="254.6" y2="95.8"/>
			</g>
			<g>
				<line class="st3" x1="8.5" y1="4" x2="253.7" y2="139"/>
			</g>
			<g>
				<line class="st3" x1="7.5" y1="47.3" x2="252.7" y2="182.3"/>
			</g>
			<g>
				<line class="st3" x1="8" y1="25.7" x2="253.2" y2="160.7"/>
			</g>
			<g>
				<line class="st3" x1="7" y1="69" x2="252.2" y2="204"/>
			</g>
			<g>
				<line class="st3" x1="6" y1="112.2" x2="251.2" y2="247.3"/>
			</g>
			<g>
				<line class="st3" x1="6.5" y1="90.6" x2="251.7" y2="225.6"/>
			</g>
			<g>
				<line class="st3" x1="5.5" y1="133.9" x2="250.7" y2="268.9"/>
			</g>
			<g>
				<line class="st3" x1="4.5" y1="177.2" x2="249.7" y2="312.2"/>
			</g>
			<g>
				<line class="st3" x1="5" y1="155.5" x2="250.2" y2="290.5"/>
			</g>
			<g>
				<line class="st3" x1="4" y1="198.8" x2="249.2" y2="333.8"/>
			</g>
			<g>
				<line class="st3" x1="3.1" y1="242.1" x2="248.2" y2="377.1"/>
			</g>
			<g>
				<line class="st3" x1="3.6" y1="220.5" x2="248.7" y2="355.5"/>
			</g>
			<g>
				<line class="st3" x1="2.6" y1="263.8" x2="247.7" y2="398.8"/>
			</g>
			<g>
				<line class="st3" x1="1.6" y1="307" x2="246.8" y2="442.1"/>
			</g>
			<g>
				<line class="st3" x1="2.1" y1="285.4" x2="247.3" y2="420.4"/>
			</g>
			<g>
				<line class="st3" x1="1.1" y1="328.7" x2="246.3" y2="463.7"/>
			</g>
			<g>
				<line class="st3" x1="0.1" y1="372" x2="245.3" y2="507"/>
			</g>
			<g>
				<line class="st3" x1="0.6" y1="350.3" x2="245.8" y2="485.3"/>
			</g>
			<g>
				<line class="st3" x1="-0.4" y1="393.6" x2="244.8" y2="528.6"/>
			</g>
			<g>
				<line class="st3" x1="-1.4" y1="436.9" x2="243.8" y2="571.9"/>
			</g>
			<g>
				<line class="st3" x1="-0.9" y1="415.3" x2="244.3" y2="550.3"/>
			</g>
			<g>
				<line class="st3" x1="-1.9" y1="458.5" x2="243.3" y2="593.6"/>
			</g>
		</g>
	</g>
</g>
<g>
	<g>
		<polygon class="st0" points="454.6,186.3 437.8,223.6 419.3,256.8 386.2,280.6 367.8,313.9 351.3,348.5 336.8,384.3 311.3,413 
			295.8,448.2 274.8,479.8 244.9,505.7 227.1,539.9 265.4,534.4 303.2,542.9 341.1,547.2 378.9,534.6 416.7,543.5 454.6,547.2 
			492.4,532.8 530.3,534.8 568.1,537.1 605.9,539.3 643.8,532.2 674.4,535.8 668,503.3 639,476.9 613.3,448.3 593.5,415.9 
			583.3,377.2 554.4,350.8 535.3,317.9 514.5,286.2 494.7,253.7 480.3,218 		"/>
	</g>
	<g>
		<g>
			<path class="st1" d="M449.8,185.8c-5.6,12.4-10.7,25.2-16.9,37.4c-3.4,6.8-7.4,13.3-11.1,20c-2,3.7-4.1,7.4-6.1,11.1
				c-0.1,0.1-1.2,2-1.2,2.1c-0.4-0.5,2.8-2.4-0.1-0.5c-7.4,4.9-14.5,10.4-21.7,15.6c-4.1,2.9-9.6,5.6-12.1,10.1
				c-6.8,11.8-13.8,23.7-19.7,36.1c-6.1,12.8-12.5,25.5-17.8,38.7c-3.4,8.5-6.9,17-10.3,25.5c-0.3,0.7-0.5,1.4-0.8,2.1
				c0.8-1.7-0.1,0-0.7,0.7c-2.8,3-5.4,6.1-8.2,9.2c-5.2,5.9-11.3,11.6-15.9,17.9c-3.7,5.1-5.7,12.3-8.2,18.1c-2.6,6-4.9,12.5-8,18.2
				c-3.8,6.9-8.8,13.3-13.2,19.8c-2.3,3.4-4.7,6.7-6.8,10.2c-1.7,2.8,0.5,0,0.5-0.1c0.1,0.2-1.9,1.6-2,1.7c-6.9,6-13.9,12-20.8,18
				c-3.9,3.4-7.7,6.1-10.1,10.7c-4.3,8.3-8.6,16.6-12.9,24.9c-1.1,2.1-2.2,4.3-3.3,6.4c-1.4,2.8,2.1,4.2,4.3,3.9
				c11.4-1.7,22.9-3.3,34.3-5c0.9-0.1,1.9-0.2,2.8-0.4c2.7-0.7-1.5,1.1-1.3-0.4c0,0,4.4,1,4.7,1.1c6.8,1.5,13.6,3.1,20.4,4.6
				c8.8,2,17.2,3.5,26.1,4.5c6.9,0.8,13.9,1.6,20.8,2.3c3.4,0.4,6.1,0.7,9.3-0.3c12.1-3.8,24-8,36-12c-1.3,0-2.5,0-3.8,0
				c8.2,1.9,16.4,3.9,24.6,5.8c6,1.4,11.8,3.1,17.9,3.7c10.1,1,20.3,2,30.4,2.9c3,0.3,5.2,0.5,8.1-0.5c3.4-1.2,6.7-2.6,10.1-3.8
				c9.2-3.5,18.3-7,27.5-10.4c-1.3,0.2-2.6,0.5-4,0.7c24.8,1.4,49.7,2.8,74.5,4.3c12.2,0.7,24.3,1.4,36.5,2.1
				c4.2,0.2,8.1-0.7,12.2-1.4c8.2-1.5,16.3-3.1,24.5-4.6c1.5-0.3,3-0.5,4.5-0.9c3.4-0.7-0.5,0.5-0.9-0.1c0.6,0.9,7.1,0.8,8.2,1
				c7.5,0.9,14.9,1.8,22.4,2.7c2.6,0.3,7.4-1.5,6.8-4.8c-1.4-7.3-2.9-14.7-4.3-22c-0.6-3.2-0.8-7-2-10c-0.6-1.6-1.8-2.5-3.2-3.7
				c-10.1-9.2-20.9-18-30.1-28.2c-9.3-10.4-19.3-20.1-26.6-32.1c-4.7-7.7-9.3-15.4-14.1-23c-0.3-0.5-1.3-2.7-0.7-1
				c-0.3-0.7-0.4-1.6-0.6-2.3c-1-3.9-2.1-7.8-3.1-11.7c-2.1-7.8-3.4-16.4-6.3-23.9c-0.6-1.6-1.5-2.3-2.8-3.4
				c-3.1-2.8-6.2-5.7-9.3-8.5c-5.6-5.1-12.4-10-17.2-15.8c-3.8-4.6-6.5-11-9.5-16.2c-14.3-24.5-30.3-48-45.1-72.2
				c-1.7-2.8-3.5-5.5-5.1-8.3c-0.7-1.1,0.5,1.1-0.1-0.3c-0.5-1.2-1-2.4-1.5-3.7c-3.5-8.6-7-17.3-10.5-25.9
				c-1.9-4.6-3.5-7.5-6.7-11.3c-5.9-7.3-11.8-14.5-17.6-21.8c-1.3-1.7-2.7-3.3-4-5c-2.7-3.3-12.3,0.6-9.2,4.3
				c4.3,5.3,8.6,10.6,12.8,15.9c2.9,3.6,5.9,7.3,8.8,10.9c0.9,1.2,1.9,2.4,2.8,3.5c0.4,0.4,1.6,2.3,0.8,0.7
				c6.4,11.6,8.7,25.4,15.1,37c13.1,23.5,29.5,45,43,68.2c4.6,7.9,9.2,15.9,13.8,23.8c2.5,4.3,5,6.7,8.8,10.1
				c6.8,6.2,13.6,12.4,20.4,18.7c0.7,0.7,1.6,1.3,2.2,2c0,0-0.2-1,0.1,0.5c0.6,3.3,1.7,6.6,2.6,9.8c2.3,8.6,4.3,17.3,6.8,25.9
				c1.4,4.9,4.9,9.1,7.5,13.4c4.3,7,8.2,14.5,12.9,21.2c3.4,4.8,7.9,8.9,11.8,13.3c4.7,5.2,9.2,10.8,14.2,15.8
				c5,5,10.4,9.5,15.6,14.2c3.3,3,6.5,6,9.8,8.9c1,0.9,1.9,1.8,2.9,2.6c1.3,1.1,0.1-0.5,0.4,0.4c2.3,7.9,3.2,16.4,4.8,24.5
				c0.5,2.5,1,5,1.5,7.4c2.3-1.6,4.5-3.2,6.8-4.8c-8.2-1-16.3-2-24.5-2.9c-6.2-0.7-10.9-0.1-17,1.1c-9.3,1.8-18.8,3.3-28.1,5.3
				c-2.9,0.6,0.3-0.4,1,0c-0.6-0.4-2.5-0.1-3.2-0.2c-4.7-0.3-9.4-0.5-14-0.8c-30.8-1.8-61.6-3.6-92.4-5.3c-7.2-0.4-13,2.6-19.7,5.1
				c-8.6,3.3-17.2,6.5-25.8,9.8c1.3-0.2,2.6-0.5,4-0.7c-8.2-0.8-16.5-1.6-24.7-2.4c-4-0.4-8-1-12-1.2c-1.8-0.1-0.2,0.1-0.3,0
				c-1.3-0.3-2.5-0.6-3.8-0.9c-9.9-2.3-19.8-4.7-29.7-7c-2.7-0.6-5.2-1.5-8-0.9c-3,0.7-5.9,2-8.9,2.9c-9.1,3-19,5.4-27.8,9.2
				c-2.3,1,1.2,0,1.3,0.1c-0.9-0.5-2.9-0.3-3.9-0.4c-4.9-0.6-9.8-1.1-14.7-1.7c-5-0.6-10-1.1-15-1.7c-1.2-0.1-2.4-0.3-3.6-0.4
				c-0.9-0.1,1.1,0.2,0.7,0.2c-0.4-0.1-0.9-0.2-1.3-0.3c-9.3-2.2-18.6-4.2-28-6.3c-3.2-0.7-6.9-2.1-10.2-2.1
				c-3.4-0.1-7,0.9-10.3,1.4c-9.5,1.4-19.1,2.8-28.6,4.1c1.4,1.3,2.9,2.6,4.3,3.9c3.4-6.6,6.8-13.2,10.2-19.8c2-3.8,4-7.7,6-11.5
				c0.3-0.5,1.5-2.1,1.4-2.7c0,0.2-2.4,2.1-0.4,0.5c6.8-5.4,13.2-11.4,19.8-17.1c4-3.5,8.7-6.7,11.7-11.2
				c7.6-11.4,16.7-22.5,22.2-35.1c3.8-8.7,7.7-17.4,11.5-26.1c0.5-1.1,1-2.2,1.4-3.3c0.6-1.5-0.9,1,0.1-0.2c2.2-2.6,4.6-5.2,6.9-7.7
				c5.8-6.5,11.8-12.9,17.4-19.6c3.6-4.3,5.1-10.8,7.1-15.9c5.5-13.5,11.1-26.6,17.4-39.8c6.3-13.2,13-25.8,20.1-38.5
				c1.8-3.2,3.8-6.5,5.4-9.8c1.3-2.6,0,0.5-0.6,0.2c0.2,0.1,2-1.4,2.2-1.6c7.4-5.3,14.9-10.7,22.3-16c4.3-3.1,8.7-5.4,11.3-10.1
				c4.4-8,8.9-16,13.3-24c6.8-12.3,12.1-25.3,17.9-38c0.9-2.1,1.9-4.1,2.8-6.2C461.6,181.7,451.5,182.1,449.8,185.8z"/>
		</g>
	</g>
	<g>
		<defs>
			<polygon id="SVGID_3_" points="511.4,282.3 480,260.5 471.4,300.1 446.8,286.2 452.8,330.8 425.8,357.3 425.8,416.8 318.8,455.7 
				307.6,444.3 304.9,423.3 337.4,384.3 384.8,280.8 419.2,257.5 454.6,189.2 471.4,221.8 500.6,249.1 			"/>
		</defs>
		<clipPath id="SVGID_4_">
			<use xlink:href="#SVGID_3_"  style="overflow:visible;"/>
		</clipPath>
		<g class="st4">
			<g>
				<line class="st5" x1="293.4" y1="37.9" x2="518.5" y2="180.5"/>
			</g>
			<g>
				<line class="st5" x1="293.9" y1="15" x2="519" y2="157.6"/>
			</g>
			<g>
				<line class="st5" x1="293" y1="60.7" x2="518.1" y2="203.3"/>
			</g>
			<g>
				<line class="st5" x1="292.1" y1="106.5" x2="517.2" y2="249"/>
			</g>
			<g>
				<line class="st5" x1="292.5" y1="83.6" x2="517.6" y2="226.2"/>
			</g>
			<g>
				<line class="st5" x1="291.6" y1="129.3" x2="516.7" y2="271.9"/>
			</g>
			<g>
				<line class="st5" x1="290.7" y1="175" x2="515.8" y2="317.6"/>
			</g>
			<g>
				<line class="st5" x1="291.2" y1="152.2" x2="516.3" y2="294.7"/>
			</g>
			<g>
				<line class="st5" x1="290.3" y1="197.9" x2="515.4" y2="340.4"/>
			</g>
			<g>
				<line class="st5" x1="289.4" y1="243.6" x2="514.5" y2="386.1"/>
			</g>
			<g>
				<line class="st5" x1="289.8" y1="220.7" x2="514.9" y2="363.3"/>
			</g>
			<g>
				<line class="st5" x1="288.9" y1="266.4" x2="514" y2="409"/>
			</g>
			<g>
				<line class="st5" x1="288" y1="312.1" x2="513.1" y2="454.7"/>
			</g>
			<g>
				<line class="st5" x1="288.5" y1="289.3" x2="513.6" y2="431.8"/>
			</g>
			<g>
				<line class="st5" x1="287.5" y1="335" x2="512.7" y2="477.6"/>
			</g>
			<g>
				<line class="st5" x1="286.6" y1="380.7" x2="511.8" y2="523.3"/>
			</g>
			<g>
				<line class="st5" x1="287.1" y1="357.8" x2="512.2" y2="500.4"/>
			</g>
			<g>
				<line class="st5" x1="286.2" y1="403.6" x2="511.3" y2="546.1"/>
			</g>
			<g>
				<line class="st5" x1="285.3" y1="449.3" x2="510.4" y2="591.8"/>
			</g>
			<g>
				<line class="st5" x1="285.7" y1="426.4" x2="510.8" y2="569"/>
			</g>
			<g>
				<line class="st5" x1="284.8" y1="472.1" x2="509.9" y2="614.7"/>
			</g>
			<g>
				<line class="st5" x1="283.9" y1="517.8" x2="509" y2="660.4"/>
			</g>
			<g>
				<line class="st5" x1="284.4" y1="495" x2="509.5" y2="637.5"/>
			</g>
			<g>
				<line class="st5" x1="283.5" y1="540.7" x2="508.6" y2="683.2"/>
			</g>
		</g>
	</g>
</g>
<g>
	<g>
		<polygon class="st0" points="1063.5,13.8 1080.7,48.4 1096.9,77 1110.3,107 1113.6,141.8 1131.9,169.4 1156,194.3 1167.7,225.1 
			1172.9,258.9 1198.2,283.2 1211.8,313.1 1221.1,345 1241.7,371.6 1243,407.3 1256.8,437.1 1270.5,467 1298.1,499 1257.7,489.7 
			1225.3,497.4 1192.9,498.5 1160.6,485.7 1128.2,488.6 1095.9,497.6 1063.5,494.3 1031.2,484.7 998.8,497.3 966.5,502.2 
			934.1,496.2 901.7,500.5 869.4,501.3 841.6,491.2 849.8,463.7 859.9,432.2 876,403.5 886.8,372.3 914.2,349 925.1,317.9 
			943.4,290.2 944.5,254.4 961.5,226.1 977.6,197.5 986.3,165.2 1012.6,141.5 1028.6,112.7 1028.6,76.3 1044.3,47.7 		"/>
	</g>
	<g>
		<g>
			<path class="st1" d="M1059.8,12.7c8.1,16.3,16.1,32.6,25,48.5c4.1,7.2,8.1,14.1,11.4,21.6c2.6,5.8,5.2,11.6,7.7,17.4
				c0.8,1.7,1.7,3.4,2.3,5.2c0.3,0.8,0.1,0.2,0.1,0.1c0.1,0.6,0.1,1.3,0.2,2c0.5,5.6,1.1,11.2,1.6,16.7c0.5,5,0.4,10.4,1.5,15.4
				c0.5,2.6,2.6,4.9,4.1,7.1c3.6,5.5,7.2,10.9,10.9,16.4c4.6,6.9,10.1,12.4,15.9,18.4c3.8,4,7.6,8.1,11.6,11.9
				c0.4,0.4,0.7,0.8,1.1,1.1c-1-0.7-0.7-1.8-0.7-0.7c0,1.8,1.7,4.4,2.3,6.1c2.3,6,4.5,11.9,6.8,17.9c0.7,1.8,1.4,3.6,2.1,5.4
				c0.1,0.3,0.5,1.5,0.2,0.3c0.1,0.5,0.2,1.1,0.3,1.6c0.8,5.6,1.7,11.1,2.6,16.7c0.8,4.8,1,10.2,2.3,14.9c0.8,2.9,3.5,4.7,5.6,6.8
				c4.5,4.3,9,8.6,13.5,13c1.8,1.8,3.7,3.5,5.5,5.3c0.4,0.4,1,1.2,1.5,1.5c1.2,0.7-0.5-1.4-0.4-0.7c0.1,1.3,1.5,3.2,2,4.4
				c1.3,2.8,2.6,5.6,3.9,8.5c3.5,7.6,7.1,14.8,9.4,22.8c1.8,6.3,3.7,12.6,5.5,18.9c0.8,2.7,1.2,5.7,2.7,8c2.8,4.4,6.5,8.3,9.6,12.4
				c3.2,4.1,6.1,9.2,9.9,12.8c0.2,0.2,0.5,0.6,0.6,0.8c-1.2-1.9-0.2-1.3-0.5-0.4c-0.5,1.9,0.2,4.7,0.2,6.7
				c0.2,6.5,0.5,12.9,0.7,19.4c0.1,3-0.3,6.7,0.5,9.6c1.2,4.2,4,8.5,5.8,12.5c3.5,7.6,7.1,15.2,10.6,22.8c2.6,5.6,5.2,11.3,7.7,16.9
				c1.3,2.9,2.4,6.2,4.5,8.8c6.7,8.4,14,16.3,21,24.4c2.1,2.5,4.3,4.9,6.4,7.4c0.6-0.9,1.1-1.9,1.7-2.8c-7.9-1.8-15.7-3.6-23.6-5.4
				c-4.6-1.1-9.2-2.1-13.9-3.2c-1.9-0.4-3.6-0.9-5.6-0.7c-9.4,1.3-18.9,4.5-28.1,6.6c-6.4,1.5-13,1.1-19.5,1.4
				c-4.8,0.2-9.6,0.2-14.4,0.5c-3.2,0.2-0.1-0.6,0.7,0.6c-0.5-0.6-2.8-1.1-3.5-1.4c-9.1-3.6-18.1-7.2-27.2-10.8
				c-6.3-2.5-14.3-0.3-20.9,0.3c-6.6,0.6-13.2,0.7-19.5,2.5c-9.2,2.6-18.4,5.1-27.6,7.7c-1.6,0.4,0.5,0.2-0.7,0.2
				c-1.7,0-3.4-0.3-5-0.5c-5.5-0.6-10.9-1.1-16.4-1.7c-3.4-0.3-6.9-0.5-10.3-1c1.8,0.3-0.7-0.3-1.3-0.4c-2.1-0.6-4.2-1.2-6.2-1.9
				c-5.5-1.6-10.9-3.3-16.4-4.9c-2.6-0.8-5.7-2.4-8.5-2.4c-2.6-0.1-5.7,1.8-8.1,2.8c-5.1,2-10.2,4-15.3,6c-3.3,1.3-6.7,2.9-10.1,4
				c0.7-0.2-0.5,0.1-1.3,0.2c-2,0.3-4.1,0.6-6.1,0.9c-5.3,0.8-10.6,1.6-15.9,2.4c-2.1,0.3-4.1,0.6-6.2,0.9c-0.5,0.1-3.4,0.3-1.8,0.4
				c-8.7-0.6-17.8-3.3-26.5-4.9c-13.4-2.5-26.8,2.6-40.3,3.2c-9.6,0.4-19.2,0.5-28.7,0.7c-0.5,0-1.2-0.1-1.7,0
				c-1.2,0.3,0.5-0.1,1,0.2c-1.1-0.6-2.6-0.9-3.8-1.4c-5-1.8-10-3.6-15-5.5c-3-1.1-5.9-2.2-8.9-3.2c1.6,1.6,3.2,3.2,4.8,4.7
				c5.4-18,10.9-35.9,16.6-53.7c2.5-7.7,6.8-14.3,10.7-21.3c4-7.1,7.3-13.3,10-21c2-5.9,4-11.7,6.1-17.6c0.5-1.6,0.9-3.5,1.7-4.9
				c0.3-0.6-0.4,0.3-0.1-0.1c0.3-0.5,1-0.9,1.5-1.2c8.3-7,16.9-13.8,24.9-21.1c1.9-1.7,2.3-3.9,3.2-6.4c2-5.9,4.1-11.7,6.1-17.6
				c1-2.8,1.7-6,3.1-8.6c2.1-4.1,5.3-8,7.9-11.9c3.1-4.6,6.4-9.2,9.3-14c1.3-2.2,1.2-3.9,1.2-6.5c0.2-6.1,0.4-12.2,0.6-18.3
				c0.1-4-0.6-9,0.4-12.9c-0.2,0.8,0.9-1.3,1.2-1.8c1.4-2.3,2.8-4.6,4.2-7c3.1-5.2,6.2-10.4,9.4-15.6c4.2-7,8.1-14.2,12-21.3
				c2-3.5,4.6-7.1,6.1-10.9c1.3-3.2,1.9-6.8,2.8-10.1c1.6-5.9,3.2-11.7,4.8-17.6c1-3.6,0.5-3.9,2.8-5.9c7.8-7.1,16.1-13.9,23.6-21.3
				c1.8-1.8,2.8-4,4-6.2c3-5.4,6-10.8,9-16.3c1.4-2.5,3.6-5.3,4.2-8.1c0.8-4,0-9,0-13.1c0-6.1,0-12.2,0-18.3c0-1.4-0.2-3.1,0-4.5
				c0.1-0.8-0.2,0.7,0-0.1c0.2-0.7,0.7-1.4,1.1-2c9.4-17.2,18.9-34.2,28.5-51.2c1.7-3,3.4-6,5.1-9c1.3-2.3-6.1-6.7-7.4-4.4
				c-8.5,15-17.1,30-25.4,45.2c-3.7,6.8-9.6,13.8-9.6,21.7c0,6,0,11.9,0,17.9c0,4.6,0.6,9.6,0,14.2c-0.1,0.6,0.1,0.2-0.7,1.6
				c-1.2,2-2.3,4.1-3.4,6.2c-3,5.4-6,10.8-9,16.2c-0.8,1.5-1.5,3.1-2.5,4.5c-0.4,0.6,0.4-0.3,0.1,0.1c-0.4,0.5-0.9,0.9-1.4,1.3
				c-4.1,3.7-8.2,7.4-12.3,11.1c-3.8,3.5-7.9,6.8-11.5,10.4c-1.8,1.8-2,3.8-2.7,6.4c-1.6,5.9-3.2,11.9-4.8,17.8
				c-0.8,3-1.3,6.4-2.6,9.3c-1.7,4-4.4,7.8-6.5,11.6c-2.8,5-5.6,10-8.4,14.9c-4.1,7.4-8.7,14.6-13.1,21.9c-1.6,2.7-4.4,5.9-5.1,8.9
				c-0.9,3.6-0.3,8.3-0.4,12c-0.2,6.2-0.4,12.4-0.6,18.6c0,1.5,0.1,3.2-0.1,4.7c-0.2,0.9,0.1,0.1,0,0.2c-0.2,0.6-0.8,1.2-1.2,1.8
				c-3.2,4.8-6.4,9.6-9.6,14.4c-2.4,3.7-5.4,7.3-7.4,11.2c-1.5,2.9-2.2,6.3-3.3,9.3c-2,5.8-4.1,11.6-6.1,17.4
				c-0.5,1.3-0.8,3-1.5,4.2c-0.4,0.7,0.5-0.4,0,0.2c-0.4,0.5-1.1,0.9-1.6,1.3c-4.3,3.7-8.7,7.4-13,11c-3.9,3.3-8.2,6.4-11.8,10
				c-1.9,1.8-2.3,4.1-3.1,6.6c-2.9,8.6-5.2,17.9-9,26c-4.4,9.3-10.4,17.8-15.1,26.9c-3.9,7.4-5.6,16.5-8.1,24.4
				c-2.5,7.8-4.9,15.7-7.2,23.6c-1.2,4.1-2.4,8.2-3.7,12.3c-0.7,2.4,3.1,4.1,4.8,4.7c6.6,2.4,13.2,4.8,19.7,7.2
				c5.2,1.9,8.8,3.1,14.2,3c13.5-0.3,26.7-0.5,40.1-2.3c4.6-0.6,9.1-1.2,13.7-1.8c1.5-0.2,3.1-0.4,4.6-0.6c0.8-0.1,2.4-0.1,1.2-0.2
				c7.2,0.6,14.6,2.7,21.7,4.1c4.7,0.9,9.2,2.3,14,1.6c8.3-1.2,16.6-2.5,24.9-3.7c5.6-0.8,10.3-2.8,15.6-4.9
				c7.3-2.9,14.7-5.7,22-8.6c-0.8,0-1.5,0-2.3,0c9.7,2.9,19.4,5.8,29.1,8.7c8.2,2.4,17.2,2.5,25.7,3.3c3.7,0.4,7.9,1.5,11.6,1.1
				c3.8-0.4,7.8-2.2,11.5-3.2c8-2.2,16.1-5.4,24.4-6.1c6.3-0.6,12.6-1.2,19-1.7c2.4-0.2,4.9-0.4,7.3-0.7c0.6-0.1,1.4,0,2-0.2
				c1.4-0.6-2-0.8-1.8-0.5c1,0.9,3.4,1.3,4.6,1.8c2.7,1.1,5.4,2.1,8.1,3.2c5.6,2.2,11.3,4.5,16.9,6.7c7.7,3.1,17.1,1.1,25.3,0.8
				c4-0.1,8.3,0.1,12.3-0.4c3.8-0.5,7.7-1.8,11.4-2.7c6.4-1.5,13-2.6,19.2-4.6c0.4-0.1,1.3-0.1,1.7-0.4c-0.5,0.4-2.5-0.6-0.8,0
				c2,0.7,4.3,1,6.4,1.5c11.1,2.5,22.1,5.1,33.2,7.6c2.7,0.6,3.4-0.8,1.7-2.8c-6.6-7.6-13.2-15.3-19.8-22.9c-2.6-3-5-6.3-7.8-9
				c2,2,0.4,0.3-0.3-1.3c-1.2-2.7-2.4-5.3-3.6-8c-3.5-7.7-7-15.4-10.6-23c-2.7-5.8-5.4-11.5-8-17.3c-1-2.2-2-4.3-3-6.5
				c-0.5-1-1-2.6-0.9-2c-0.8-4.6-0.4-9.9-0.5-14.6c-0.2-6-0.4-11.9-0.6-17.9c-0.1-2.9-0.5-4.1-2.3-6.4c-3.8-4.9-7.5-9.7-11.3-14.6
				c-2.4-3.1-5.6-6.3-7.6-9.8c0.8,1.4-0.4-2-0.6-2.7c-0.9-2.9-1.7-5.9-2.6-8.8c-2.4-8.1-4.2-16.4-7.7-24.1
				c-2.9-6.4-5.8-12.7-8.7-19.1c-1.4-3.1-2.4-6.3-4.8-8.7c-8-8-16.3-15.6-24.4-23.4c0.4,0.7,0.8,1.3,1.1,2c-1.6-10-3.1-20-4.7-30
				c-1.3-8.2-5.1-15.8-8-23.6c-1.4-3.8-2.5-8.2-4.4-11.7c-1.6-2.9-4.8-5.3-7.1-7.6c-4.5-4.6-9-9.3-13.5-13.9c-1.3-1.4-2.6-2.7-4-4.1
				c-0.3-0.4-1.1-1.3,0,0c-0.3-0.5-0.7-1-1-1.4c-5.5-8.8-11.4-17.3-17.2-25.9c-0.4-0.6,0.2,1.8,0.3,0.6c0-0.5-0.1-1.2-0.2-1.7
				c-0.3-2.7-0.5-5.4-0.8-8.1c-0.6-6.2-1.2-12.4-1.8-18.6c-0.2-2.6-0.2-5.2-1.2-7.6c-1.9-5.1-4.4-10-6.6-14.9
				c-3.3-7.3-6.5-14.4-10.4-21.4c-10.4-18.4-19.9-37-29.3-55.9c-0.9-1.7-2.9-3.2-4.7-3.6C1061.5,11,1058.9,10.9,1059.8,12.7z"/>
		</g>
	</g>
	<g>
		<defs>
			<polygon id="SVGID_5_" points="1101.7,88.5 1063.5,20.2 1029.1,73.8 1029.1,108.5 1012.9,141.9 991.1,159.8 977.2,196.2 
				991.1,320.8 1063.5,221.6 1050.4,172.2 1085.1,142.1 			"/>
		</defs>
		<clipPath id="SVGID_6_">
			<use xlink:href="#SVGID_5_"  style="overflow:visible;"/>
		</clipPath>
		<g class="st6">
			<g>
				<line class="st7" x1="934.4" y1="-44.6" x2="1135.4" y2="66.1"/>
			</g>
			<g>
				<line class="st7" x1="934.8" y1="-62.3" x2="1135.8" y2="48.4"/>
			</g>
			<g>
				<line class="st7" x1="934" y1="-26.8" x2="1135" y2="83.9"/>
			</g>
			<g>
				<line class="st7" x1="933.2" y1="8.7" x2="1134.2" y2="119.3"/>
			</g>
			<g>
				<line class="st7" x1="933.6" y1="-9.1" x2="1134.6" y2="101.6"/>
			</g>
			<g>
				<line class="st7" x1="932.8" y1="26.4" x2="1133.8" y2="137.1"/>
			</g>
			<g>
				<line class="st7" x1="931.9" y1="61.9" x2="1133" y2="172.6"/>
			</g>
			<g>
				<line class="st7" x1="932.4" y1="44.2" x2="1133.4" y2="154.8"/>
			</g>
			<g>
				<line class="st7" x1="931.5" y1="79.6" x2="1132.5" y2="190.3"/>
			</g>
			<g>
				<line class="st7" x1="930.7" y1="115.1" x2="1131.7" y2="225.8"/>
			</g>
			<g>
				<line class="st7" x1="931.1" y1="97.4" x2="1132.1" y2="208.1"/>
			</g>
			<g>
				<line class="st7" x1="930.3" y1="132.9" x2="1131.3" y2="243.6"/>
			</g>
			<g>
				<line class="st7" x1="929.5" y1="168.4" x2="1130.5" y2="279"/>
			</g>
			<g>
				<line class="st7" x1="929.9" y1="150.6" x2="1130.9" y2="261.3"/>
			</g>
			<g>
				<line class="st7" x1="929.1" y1="186.1" x2="1130.1" y2="296.8"/>
			</g>
			<g>
				<line class="st7" x1="928.3" y1="221.6" x2="1129.3" y2="332.3"/>
			</g>
			<g>
				<line class="st7" x1="928.7" y1="203.9" x2="1129.7" y2="314.5"/>
			</g>
			<g>
				<line class="st7" x1="927.9" y1="239.3" x2="1128.9" y2="350"/>
			</g>
			<g>
				<line class="st7" x1="927.1" y1="274.8" x2="1128.1" y2="385.5"/>
			</g>
			<g>
				<line class="st7" x1="927.5" y1="257.1" x2="1128.5" y2="367.8"/>
			</g>
			<g>
				<line class="st7" x1="926.7" y1="292.6" x2="1127.7" y2="403.3"/>
			</g>
			<g>
				<line class="st7" x1="925.9" y1="328.1" x2="1126.9" y2="438.7"/>
			</g>
			<g>
				<line class="st7" x1="926.3" y1="310.3" x2="1127.3" y2="421"/>
			</g>
			<g>
				<line class="st7" x1="925.5" y1="345.8" x2="1126.5" y2="456.5"/>
			</g>
		</g>
	</g>
</g>
</svg>
