<?xml version="1.0" encoding="utf-8"?>
<!-- Generator: Adobe Illustrator 21.1.0, SVG Export Plug-In . SVG Version: 6.00 Build 0)  -->
<svg version="1.1" id="Layer_1" xmlns="http://www.w3.org/2000/svg" xmlns:xlink="http://www.w3.org/1999/xlink" x="0px" y="0px"
	 viewBox="0 0 483 289.5" style="enable-background:new 0 0 483 289.5;" xml:space="preserve">
<style type="text/css">
	.st0{fill:#3A3434;}
	.st1{fill:#D89839;}
	.st2{fill:none;stroke:#000000;stroke-width:2.8187;stroke-linecap:round;stroke-miterlimit:10;}
	.st3{fill:none;stroke:#000000;stroke-width:1.6007;stroke-linecap:round;stroke-miterlimit:10;}
	.st4{fill:none;stroke:#000000;stroke-width:2.3209;stroke-miterlimit:10;}
	.st5{fill:#3A3434;stroke:#000000;stroke-width:3.3161;stroke-linecap:round;stroke-miterlimit:10;}
	.st6{fill:none;stroke:#000000;stroke-width:3.3161;stroke-miterlimit:10;}
	.st7{fill:#FFFFFF;stroke:#000000;stroke-width:2.4871;stroke-miterlimit:10;}
	.st8{fill:#3C2415;stroke:#000000;stroke-width:2.4871;stroke-miterlimit:10;}
	.st9{fill:#FFFFFF;}
</style>
<g>
	<path class="st0" d="M443.2,192.6l-28,52.9c-2.2,4.2-3,8.9-2.2,13.6c0.8,4.8,2,11.1,3.4,16.1c2.7,9.4-53.7,10.1-61.1,4.8
		c-5.6-4,0.9-13.3,15.1-14.2c14.2-0.9,19.6-3.6,23.2-7.5c0,0,5.4-13.9,3.6-19.3c-1.8-5.4-40.3-4.4-39.2-62.6"/>
	<path class="st1" d="M397.2,245.1l-3.6,13.7c-3.6,3.9-9.1,6.6-23.2,7.5c-14.2,0.9-20.7,10.1-15.1,14.2c7.4,5.3,63.8,4.6,61.1-4.8
		c-1.4-5-2.8-16.7-3.6-21.5C412.7,254.1,402.8,257.2,397.2,245.1z"/>
	
		<ellipse transform="matrix(0.7879 -0.6158 0.6158 0.7879 -91.2922 279.2526)" class="st0" cx="359.7" cy="272.1" rx="7.6" ry="2.7"/>
	<path class="st2" d="M443.2,192.6l-28,52.9c-2.2,4.2-3,8.9-2.2,13.6c0.8,4.8,2,11.1,3.4,16.1c2.7,9.4-53.7,10.1-61.1,4.8
		c-5.6-4,0.9-13.3,15.1-14.2c14.2-0.9,19.6-3.6,23.2-7.5c0,0,5.4-13.9,3.6-19.3c-1.8-5.4-40.3-4.4-39.2-62.6"/>
	<path class="st3" d="M358.6,280.6c0,0-2.2-7,6.1-10.1"/>
	<path class="st3" d="M362.3,282.3c0,0-2.2-7,6.1-10.1"/>
</g>
<g>
	<path class="st0" d="M153.8,184.3l16.6,17.1c1.7,2.3,1.8,5.3,0.4,7.7L154,232.8c-4,7.8-3.5,15.3-2.7,19.9c0.8,4.8,1.5,8.5,3,13.5
		c2.7,9.4-39.6,10.1-47,4.8c-5.6-4,1.1-15,15.2-16c18.3-1.2,11.6-28.1,11.1-34.4c0,0,0.7-9.5-10.2-23"/>
	<path class="st1" d="M151.3,252.7c4.2,2.5,1.5,8.5,3,13.5c2.7,9.4-39.6,10.1-47,4.8c-5.6-4,0.6-13.4,15.2-16
		c4.7-1.6,10.8-6.4,11.7-11.8C135.2,236.6,147.5,250.4,151.3,252.7z"/>
	<path class="st2" d="M153.8,184.3l16.6,17.1c1.7,2.3,1.8,5.3,0.4,7.7L154,232.8c-4,7.8-3.5,15.3-2.7,19.9c0.8,4.8,1.5,8.5,3,13.5
		c2.7,9.4-39.6,10.1-47,4.8c-5.6-4,1.1-15,15.2-16c18.3-1.2,13.3-38.2,7.8-46.7"/>
	<path class="st3" d="M108.7,271.7c0,0-2.2-7,6.1-10.1"/>
	<path class="st3" d="M112.5,273.4c0,0-2.2-7,6.1-10.1"/>
</g>
<g>
	<path class="st0" d="M212.8,67.3c0,0-18-29.4-35.6-37.5c-17-7.8-51.4-14.3-75,4.8s-55.5-8.1-55.5-8.1S19.1,7,13.3,7
		s-26.1,22.8,13.6,48.5s54,20.9,58.8,38.2c4.8,17.3-12.3,45.6-7.3,79.4c3.3,22.8,42.3,68.1,129.7,68.5
		c75.6,0.3,135.8-22.1,216.4-9.2c25.8,4.1,43.8-16,51.1-40.5c6.4-21.7-3.8-51.9-27.2-66.4c-29.8-18.5-58.1-3.4-90.8-4.5
		S251.4,134.5,212.8,67.3z"/>
	<path class="st1" d="M375.9,228.4c-91.5-1-91.4,13.5-167,13.2c-35.6-0.1-63.1-9.1-83.5-19.2c0,0,29.4-9.8,89.4-4.4
		C274.3,223.3,375.9,228.4,375.9,228.4z"/>
	<circle class="st1" cx="134.3" cy="26.2" r="4.7"/>
	<path class="st1" d="M7.7,10.5c3-5-20.6,19.3,19.1,45s54,20.9,58.8,38.2c4.8,17.3-12.3,45.6-7.3,79.4c0,0,30.5,4.4,23.5-28.7
		c-7-33.1,15.8-16.9,21.3-27.6c5.5-10.7,0.6-11.4-12.6-14.3c-13.1-2.9-19.6-21.8-17.8-32.5s-18.2-10.6-36.5-18
		C38.2,44.8-1.8,26.3,7.7,10.5z"/>
	<path class="st4" d="M212.8,67.3c0,0-18-29.4-35.6-37.5c-17-7.8-51.4-14.3-75,4.8s-55.5-8.1-55.5-8.1S19.1,7,13.3,7
		s-26.1,22.8,13.6,48.5s54,20.9,58.8,38.2c4.8,17.3-12.3,45.6-7.3,79.4c3.3,22.8,42.3,68.1,129.7,68.5
		c75.6,0.3,134.6-22.1,216.4-9.2c25.8,4.1,45-15.1,51.1-40.5c5.3-22-3.8-51.9-27.2-66.4c-29.8-18.5-58.1-3.4-90.8-4.5
		S251.4,134.5,212.8,67.3z"/>
	<path d="M7.3,20.2c-0.9,0.3-2,0.2-2.8-0.3c0,0-1.5-1.4-1.8-2.4C1.9,13.5,9.6,4,9.6,4c0.9-1.4,2.8-1.7,4.2-0.8l9.4,6
		c2.1,1.4,1.9,4.4-0.4,5.3L7.3,20.2z"/>
</g>
<g>
	<path class="st5" d="M184.2,130.5c-4,5.7-5.4,11.5-5.1,17c0,0.1-0.1,0.2-0.1,0.4c-1.5,8.5,11.9,29.2,11.9,29.2s-0.6-3-1.2-7.1
		c3.6,6.8,7.6,12.7,7.6,12.7s-0.9-3.6-1.6-8.4c3,4.2,5.6,7.3,5.6,7.3s-1.1-3.3-2.3-7.8c0.6,0.2,1.3,0.5,1.9,0.7
		c0,0,23.2,6.7,38.2,5.7c5.2,3,9.5,5.1,9.5,5.1s-1.9-2-4.5-5c2.9,1.6,5.1,2.7,5.1,2.7s-0.7-0.7-1.8-1.9c5.4,3.2,10.1,5.5,10.1,5.5
		s-2.6-2.7-5.7-6.5c2.2,1.2,3.7,1.9,3.7,1.9s-1.4-1.4-3.3-3.6c3.8,1.5,6.5,2.5,6.5,2.5s-3-2.4-6.7-5.9c4.1-0.2,7-0.5,7-0.5
		s-3.2-0.8-7.5-2.2c0.1-1.6-0.3-3.5-1.2-5.8c-5.9-14.1-5.6-25.8,5.9-43.1c5.5-8.2,5.2-17.2,1.8-24.9c4.7-0.2,9.3-1,9.3-1
		s-6.6-1.1-11.6-3.3c0-0.1-0.1-0.1-0.1-0.2c4.5-0.4,8.2-1.1,8.2-1.1s-5.6-0.9-11.2-2.8c-4.1-4.7-9.4-8.3-14.9-9.8l-21.9-8.6"/>
	<path class="st6" d="M184.2,130.5c-4,5.7-5.4,11.5-5.1,17c0,0.1-0.1,0.2-0.1,0.4c-1.5,8.5,11.9,29.2,11.9,29.2s-0.6-3-1.2-7.1
		c3.6,6.8,7.6,12.7,7.6,12.7s-0.9-3.6-1.6-8.4c3,4.2,5.6,7.3,5.6,7.3s-1.1-3.3-2.3-7.8c0.6,0.2,1.3,0.5,1.9,0.7
		c0,0,23.2,6.7,38.2,5.7c5.2,3,9.5,5.1,9.5,5.1s-1.9-2-4.5-5c2.9,1.6,5.1,2.7,5.1,2.7s-0.7-0.7-1.8-1.9c5.4,3.2,10.1,5.5,10.1,5.5
		s-2.6-2.7-5.7-6.5c2.2,1.2,3.7,1.9,3.7,1.9s-1.4-1.4-3.3-3.6c3.8,1.5,6.5,2.5,6.5,2.5s-3-2.4-6.7-5.9c4.1-0.2,7-0.5,7-0.5
		s-3.2-0.8-7.5-2.2c0.1-1.6-0.3-3.5-1.2-5.8c-5.9-14.1-5.6-25.8,5.9-43.1c5.5-8.2,5.2-17.2,1.8-24.9c4.7-0.2,9.3-1,9.3-1
		s-6.6-1.1-11.6-3.3c0-0.1-0.1-0.1-0.1-0.2c4.5-0.4,8.2-1.1,8.2-1.1s-5.6-0.9-11.2-2.8c-4.1-4.7-9.4-8.3-14.9-9.8l-21.9-8.6"/>
</g>
<g>
	<circle class="st7" cx="133.3" cy="48.8" r="21.3"/>
	<circle class="st8" cx="133.3" cy="48.8" r="16"/>
	<circle cx="131.6" cy="46.2" r="11.5"/>
	<circle class="st9" cx="134.3" cy="38.4" r="1.3"/>
	<circle class="st9" cx="137.4" cy="45.1" r="3.7"/>
</g>
<g>
	<path class="st0" d="M471.4,200.7l-25.2,47.6c-2.2,4.2-3,8.9-2.2,13.6c0.8,4.8,2,11.1,3.4,16.1c2.7,9.4-53.7,10.1-61.1,4.8
		c-5.6-4,0.9-13.3,15.1-14.2c14.2-0.9,19.6-3.6,23.2-7.5c0,0,5.4-13.9,3.6-19.3c-1.8-5.4-40.3-4.4-39.2-62.6"/>
	<path class="st1" d="M428.2,247.9l-3.6,13.7c-3.6,3.9-9.1,6.6-23.2,7.5c-14.2,0.9-20.7,10.1-15.1,14.2c7.4,5.3,63.8,4.6,61.1-4.8
		c-1.4-5-1.8-6.5-2.6-11.3C444.8,267.1,433.9,267.2,428.2,247.9z"/>
	<path class="st2" d="M467.7,210.5l-21.5,37.8c-2.2,4.2-3,8.9-2.2,13.6c0.8,4.8,2,11.1,3.4,16.1c2.7,9.4-53.7,10.1-61.1,4.8
		c-5.6-4,0.9-13.3,15.1-14.2c14.2-0.9,19.6-3.6,23.2-7.5c0,0,5.4-13.9,3.6-19.3c-1.8-5.4-40.3-4.4-39.2-62.6"/>
	<path class="st3" d="M389.3,283.7c0,0-2.2-7,6.1-10.1"/>
	<path class="st3" d="M393.1,285.4c0,0-2.2-7,6.1-10.1"/>
</g>
<g>
	<path class="st0" d="M190.5,192.8l16.6,17.1c1.7,2.3,1.8,5.3,0.4,7.7l-16.9,23.6c-4,7.8-3.5,15.3-2.7,19.9c0.8,4.8,1.5,8.5,3,13.5
		c2.7,9.4-39.6,10.1-47,4.8c-5.6-4,1.1-15,15.2-16c18.3-1.2,11.6-28.1,11.1-34.4c0,0,0.7-9.5-10.2-23"/>
	<path class="st1" d="M188.7,246.2c-2.2,8.1-1.5,10.4-0.7,15c0.8,4.8,1.5,8.5,3,13.5c2.7,9.4-39.6,10.1-47,4.8
		c-5.6-4,0.6-13.4,15.2-16c4.7-1.6,8-4,10.7-8.8C176.1,243.6,188.7,246.2,188.7,246.2z"/>
	<path class="st2" d="M190.5,192.8l16.6,17.1c1.7,2.3,1.8,5.3,0.4,7.7l-16.9,23.6c-4,7.8-3.5,15.3-2.7,19.9c0.8,4.8,1.5,8.5,3,13.5
		c2.7,9.4-39.6,10.1-47,4.8c-5.6-4,1.1-15,15.2-16c18.3-1.2,13.3-38.2,7.8-46.7"/>
	<path class="st3" d="M145.4,279.6c0,0-2.2-7,6.1-10.1"/>
	<path class="st3" d="M149.2,281.3c0,0-2.2-7,6.1-10.1"/>
</g>
</svg>
