<?xml version="1.0" encoding="utf-8"?>
<!-- Generator: Adobe Illustrator 21.1.0, SVG Export Plug-In . SVG Version: 6.00 Build 0)  -->
<svg version="1.1" id="Layer_1" xmlns="http://www.w3.org/2000/svg" xmlns:xlink="http://www.w3.org/1999/xlink" x="0px" y="0px"
	 viewBox="0 0 444 401" style="enable-background:new 0 0 444 401;" xml:space="preserve">
<style type="text/css">
	.st0{fill:#3A3434;}
	.st1{fill:#D89839;}
	.st2{fill:#FFFFFF;stroke:#000000;stroke-width:3.8489;stroke-miterlimit:10;}
	.st3{fill:#3C2415;stroke:#000000;stroke-width:3.8489;stroke-miterlimit:10;}
	.st4{fill:#FFFFFF;}
	.st5{fill:none;stroke:#000000;stroke-width:3.5918;stroke-miterlimit:10;}
	.st6{fill:#3A3434;stroke:#000000;stroke-width:5.1318;stroke-linecap:round;stroke-miterlimit:10;}
	.st7{fill:none;stroke:#000000;stroke-width:5.1318;stroke-miterlimit:10;}
</style>
<path class="st0" d="M302,404c6.8-36.1,13.1-72.7,15.5-112.4c1.1-17.7,0.9-34.2-0.4-49.5c-0.3-41.3-16.8-76.1-10-98.3
	c8.1-26.5,30.1-18.5,92.5-56.7c62.5-38.1,32.1-74.2,23-74.5c-9.1-0.2-52.5,28.7-52.5,28.7S319.5,82.2,284,51.7
	c-35.6-30.5-89.1-21.8-115.8-10.5c-27.6,11.8-46.4,21.4-56.7,56.5S101.2,273,101.2,273c0,44.9,3.9,90.1,7.7,130.5"/>
<path class="st1" d="M432,16c-4.5-7.9,31,30.7-31.4,68.8S316.1,115,308,141.5s17.1,71,8.1,123.1c0,0-47.4,5.6-35.2-45.3
	c12.2-50.9-23.7-26.8-31.8-43.5s-0.4-17.6,20-21.6c20.5-4,31.3-32.9,28.9-49.5C295.6,88,326.5,89,355.1,78.3
	C383.5,67.7,446.1,40.8,432,16z"/>
<g>
	<ellipse transform="matrix(0.9709 -0.2394 0.2394 0.9709 -3.1694 55.748)" class="st1" cx="227.9" cy="40.9" rx="7.3" ry="7.3"/>
	<g>
		<ellipse transform="matrix(0.9709 -0.2394 0.2394 0.9709 -10.9169 59.1199)" class="st2" cx="237.9" cy="74.5" rx="33" ry="33"/>
		
			<ellipse transform="matrix(0.9709 -0.2394 0.2394 0.9709 -10.9169 59.1199)" class="st3" cx="237.9" cy="74.5" rx="24.7" ry="24.7"/>
		<ellipse transform="matrix(0.9709 -0.2394 0.2394 0.9709 -9.7729 59.3425)" cx="239.4" cy="69.9" rx="17.9" ry="17.9"/>
		<ellipse transform="matrix(0.9709 -0.2394 0.2394 0.9709 -7.4359 57.3858)" class="st4" cx="232.5" cy="59.3" rx="2.1" ry="2.1"/>
		
			<ellipse transform="matrix(0.9709 -0.2394 0.2394 0.9709 -10.1576 57.1819)" class="st4" cx="230.3" cy="70.4" rx="5.8" ry="5.8"/>
	</g>
</g>
<path class="st1" d="M316.9,292.7c-3.3,53.5-9.7,82.1-16.5,111l-19.4,0.5c1-11.9,3.1-23.8,6.2-35.4
	C294.9,340.2,307,300.3,316.9,292.7"/>
<path class="st5" d="M302,404c6.8-36.1,13.1-72.7,15.5-112.4c1.1-17.7,0.9-34.2-0.4-49.5c-0.3-41.3-16.8-76.1-10-98.3
	c8.1-26.5,30.1-18.5,92.5-56.7c62.5-38.1,32.1-74.2,23-74.5c-9.1-0.2-52.5,28.7-52.5,28.7S319.5,82.2,284,51.7
	c-35.6-30.5-89.1-21.8-115.8-10.5c-27.6,11.8-46.4,21.4-56.7,56.5S101.2,273,101.2,273c0,44.9,3.9,90.1,7.7,130.5"/>
<g>
	<path class="st6" d="M149.4,175.5c3.9,10,3.9,19.3,1.4,27.4c0,0.2,0,0.4,0,0.6c-0.9,13.3-28.6,39.6-28.6,39.6s2-4.2,4.4-10.3
		c-7.8,8.9-16.1,16.3-16.1,16.3s2.6-5.1,5.5-12c-6.1,5.2-11,8.9-11,8.9s2.9-4.5,6.3-10.9c-1.1,0.1-2.1,0.3-3.1,0.3
		c0,0-37.3,1.6-59.5-5.5c-8.9,2.7-16.2,4.2-16.2,4.2s3.7-2.3,8.6-5.8c-5,1.4-8.7,2.2-8.7,2.2s1.3-0.8,3.4-2.2
		c-9.4,2.8-17.2,4.5-17.2,4.5s4.9-3,11-7.6c-3.8,1-6.3,1.5-6.3,1.5s2.6-1.6,6.3-4.2c-6.2,0.9-10.7,1.3-10.7,1.3s5.4-2.5,12.2-6.4
		c-6.1-1.8-10.4-3.3-10.4-3.3s5.1,0,12.2-0.6c0.5-2.5,1.7-5.2,3.9-8.2c14-19,17.9-36.8,6.9-66.9c-5.3-14.4-1.6-27.8,6.4-38.2
		c-7-2-13.6-5-13.6-5s10.2,0.8,18.6-0.7c0.1-0.1,0.1-0.1,0.2-0.2c-6.6-2.2-12-4.6-12-4.6s8.8,0.7,17.9-0.1
		c7.9-5.6,17.3-9.1,26.1-9.3l36.1-4.8"/>
	<path class="st7" d="M149.4,175.5c3.9,10,3.9,19.3,1.4,27.4c0,0.2,0,0.4,0,0.6c-0.9,13.3-28.6,39.6-28.6,39.6s2-4.2,4.4-10.3
		c-7.8,8.9-16.1,16.3-16.1,16.3s2.6-5.1,5.5-12c-6.1,5.2-11,8.9-11,8.9s2.9-4.5,6.3-10.9c-1.1,0.1-2.1,0.3-3.1,0.3
		c0,0-37.3,1.6-59.5-5.5c-8.9,2.7-16.2,4.2-16.2,4.2s3.7-2.3,8.6-5.8c-5,1.4-8.7,2.2-8.7,2.2s1.3-0.8,3.4-2.2
		c-9.4,2.8-17.2,4.5-17.2,4.5s4.9-3,11-7.6c-3.8,1-6.3,1.5-6.3,1.5s2.6-1.6,6.3-4.2c-6.2,0.9-10.7,1.3-10.7,1.3s5.4-2.5,12.2-6.4
		c-6.1-1.8-10.4-3.3-10.4-3.3s5.1,0,12.2-0.6c0.5-2.5,1.7-5.2,3.9-8.2c14-19,17.9-36.8,6.9-66.9c-5.3-14.4-1.6-27.8,6.4-38.2
		c-7-2-13.6-5-13.6-5s10.2,0.8,18.6-0.7c0.1-0.1,0.1-0.1,0.2-0.2c-6.6-2.2-12-4.6-12-4.6s8.8,0.7,17.9-0.1
		c7.9-5.6,17.3-9.1,26.1-9.3l36.1-4.8"/>
</g>
<path class="st0" d="M332,301.8c-9.8-8.1-21.5-11.9-32.4-11.4c0.6-3.8,0.8-7.7,0.4-11.7c-2.7-28.4-31.6-48.8-64.5-45.7
	c-33,3.1-57.5,28.7-54.8,57c2.4,25.8,26.5,45,55.6,46c3.8,11.6,11.7,23.2,23.1,32.6c24.8,20.5,56.9,22.7,71.7,4.9
	c2-2.5,3.6-5.2,4.8-8.1c2.3-1.6,4.4-3.6,6.3-5.8C355.5,343.4,351,317.5,332,301.8z"/>
<path class="st5" d="M349.3,330.5c-1.8-10.5-7.7-20.9-17.2-28.7c-9.8-8.1-21.5-11.9-32.4-11.4c0.6-3.8,0.8-7.7,0.4-11.7
	c-2.7-28.4-31.6-48.8-64.5-45.7c-33,3.1-57.5,28.7-54.8,57"/>
<path class="st5" d="M236.3,336c3.8,11.6,11.7,23.2,23.1,32.6c16,13.2,35,18.8,50.5,16.4"/>
<path d="M430.7,33.3c1.4,0.6,3,0.4,4.4-0.4c0,0,2.4-2,2.8-3.7c1.5-6-10.1-21.1-10.1-21.1c-1.3-2.1-4.2-2.7-6.5-1.4l-14.8,9
	c-3.4,2-3.2,6.8,0.3,8.2L430.7,33.3z"/>
</svg>
