<?xml version="1.0" encoding="utf-8"?>
<!-- Generator: Adobe Illustrator 21.1.0, SVG Export Plug-In . SVG Version: 6.00 Build 0)  -->
<svg version="1.1" id="Layer_1" xmlns="http://www.w3.org/2000/svg" xmlns:xlink="http://www.w3.org/1999/xlink" x="0px" y="0px"
	 viewBox="0 0 566.6 180.6" style="enable-background:new 0 0 566.6 180.6;" xml:space="preserve">
<style type="text/css">
	.st0{fill:#FFFFFF;stroke:#000000;stroke-width:9.5012;stroke-miterlimit:10;}
	.st1{fill:#FFFFFF;}
</style>
<g>
	<g>
		<g>
			<path class="st0" d="M61.6,22.2c-3.5,17.9-7,35.9-10.4,53.9c14.7,0.6,25.7-20.2,25.7-37.5c0-12.2-5.3-22.8-18.2-24.8
				C34.9,10,20.6,21.5,20.6,47.3c0,8.6,1.9,10.4,2.1,11.9C12.5,57.1,7,51.4,7,39.1c0-22.6,27-36.7,51.6-33
				c24.1,3.7,34.7,19.5,34.7,36.3c0,20.5-16,43.1-42.5,39.7c-0.2,0-0.5-0.1-0.7-0.1c-3,15.4-6,30.8-9,46.3c-7.1-1-14.1-2.1-21.2-3.4
				c6.7-34.6,13.3-69,20-103.2C47.1,22.2,54.4,22.3,61.6,22.2z"/>
			<path class="st0" d="M119.5,121.1c7.2-0.1,19.5-9.8,24.7-21.7c2.2-0.1,4.4-0.2,6.6-0.3c-8.4,16.6-22.5,33.5-41.4,33.6
				c-14.1,0-21.7-12.3-21.7-26.3c0-20.9,7.9-56.3,34.7-55.5c12.1,0.2,18.8,5.5,18.8,16.6c0,19.3-19.2,31-33.2,32.7
				c-0.3,2.6-0.4,5-0.4,6.9C107.5,117.9,113.8,121.2,119.5,121.1z M127.2,59.5c-8.2-0.1-15,17.9-18.1,33
				c13.5,0.1,23.1-12.8,23.2-24.1C132.3,65.1,131.6,59.6,127.2,59.5z"/>
			<path class="st0" d="M172.8,51.6c-0.2,1-0.4,2-0.6,3c3.1-1.9,6.6-3.1,10.3-3.3c15.3-0.9,22.5,4.2,22.5,20c0,3.2-0.3,6.8-0.9,10.8
				c-4.6,33.4-17.2,46.2-32.2,47.5c-4.8,0.4-9.4-0.9-13.8-3.6c-2.5,13-5.1,26.1-7.6,39.2c-7.4,2.5-14.8,4.9-22.2,7.2
				c7.8-40.4,15.6-80.4,23.4-120.1C158.7,52.2,165.8,51.9,172.8,51.6z M185.3,85.6c1.3-6.9,1.9-12.1,1.9-15.8
				c0-9.3-3.5-10.9-8.2-10.7c-2.8,0.2-5.6,1.6-8.4,3.7c-3.5,17.7-7.1,35.5-10.6,53.3c3.5,2.6,7.2,2.3,9.6,2.1
				C177,117.7,180.5,110.6,185.3,85.6z"/>
			<path class="st0" d="M239.7,46.6c-0.2,1-0.4,1.9-0.6,2.9c3.1-2,6.6-3.4,10.3-3.7c15.3-1.5,22.5,3.2,22.5,18.4
				c0,3.1-0.3,6.5-0.9,10.5c-4.6,32.3-17.2,45.1-32.2,47.2c-4.8,0.7-9.4-0.4-13.8-2.7c-2.5,12.7-5.1,25.5-7.6,38.3
				c-7.4,2.9-14.8,5.8-22.2,8.6c7.8-39.6,15.6-78.8,23.4-117.5C225.6,47.9,232.6,47.3,239.7,46.6z M252.2,78.8
				c1.3-6.7,1.9-11.7,1.9-15.3c0-9-3.5-10.4-8.2-9.9c-2.8,0.3-5.6,1.8-8.4,4c-3.5,17.2-7.1,34.6-10.6,52c3.5,2.3,7.2,1.8,9.6,1.5
				C243.8,110.1,247.3,103.1,252.2,78.8z"/>
			<path class="st0" d="M307.3,101.7c7.2-1,19.5-11,24.7-22.2c2.2-0.3,4.4-0.5,6.6-0.8c-8.4,15.6-22.5,32-41.4,34.9
				c-14.1,2.1-21.7-7.6-21.7-20.3c0-18.8,7.9-52.7,34.7-55.3c12.1-1.2,18.8,3,18.8,13c0,17.4-19.2,29.8-33.2,33.4
				c-0.3,2.4-0.4,4.6-0.4,6.3C295.2,100.5,301.6,102.5,307.3,101.7z M314.9,45.3c-8.2,0.8-15,18-18.1,32.1
				c13.5-1.9,23.1-14.4,23.2-24.6C320.1,49.8,319.3,44.8,314.9,45.3z"/>
			<path class="st0" d="M362.4,34.7c-0.5,2.4-1.1,4.8-1.6,7.1c5.3-4.4,11.2-7.8,17.3-8.2c6.6-0.4,10.6,3,10.6,8.2
				c0,4.8-3.8,11-11,11.5c-8.2,0.6-4.1-8.9-8.5-8.6c-4.4,0.3-6.8,2.1-10.1,5.3c-4.1,18.7-8.1,37.6-12.2,56.6
				c-7.1,0.9-14.1,1.8-21.2,2.8c5.2-24.6,10.4-49,15.6-73.2C348.3,35.8,355.3,35.2,362.4,34.7z"/>
			<path class="st0" d="M443.1,50.2c0.9,0.8,2.2,1.2,4.3,1.2c6.9,0.1,10-4.3,15.4-6.1c0.2,0.9,0.4,1.9,0.6,2.8
				c-4.6,5-12.2,9.1-20.7,11.3c-2.8,26.8-18.8,40.6-33.5,41.8c-15.7,1.2-22.5-4.3-22.5-20.8c0-34.1,18.4-49.9,38.6-49.9
				C439.2,30.4,442.8,40.5,443.1,50.2z M431.7,60.9c-4.3,0.1-6.2-2.7-6.2-5.9c0-3.9,2.5-8.2,6.5-9.5c-0.4-4.4-2.1-7-6.2-6.9
				c-13.8,0.1-19.7,28.4-19.7,39.3c0,8.2,4.1,10.1,9.8,9.8C425,87,430,73.9,431.7,60.9z"/>
			<path class="st0" d="M509.3,80.4c-0.4,1.4-0.7,2.7-0.7,4c0,2.8,1.6,4.9,7.3,5.6c5.9,0.7,8.1-2.9,14-6.1c1.7,0.3,3.3,0.5,5,0.8
				c-6.8,4.6-17.9,16.8-29.4,15.8c-11.5-1-18.2-5.7-18.2-15.4c0-2.1,0.3-4.1,0.9-6.6c1.9-7.7,3.7-15.3,5.6-22.9
				c0.3-1.1,0.4-2.3,0.4-3.3c0-4.7-2.8-7.9-6.8-8.3c-3.5-0.3-6.2,0.4-9.3,2c-4.2,17.3-8.3,34.8-12.5,52.5c-7.1-0.1-14.1,0-21.2,0.1
				c5.2-22.4,10.4-44.5,15.6-66.3c7.1,0.3,14.1,0.8,21.2,1.3c-0.6,2.3-1.2,4.6-1.8,6.9c6-3.5,12.8-5.9,19.2-5.2
				c7.9,0.9,16.9,9.7,16.9,18.2c0,1,0,2-0.3,3C513.3,64.6,511.3,72.4,509.3,80.4z"/>
			<path class="st0" d="M545.2,85.8c-0.4,1.4-0.7,2.7-0.7,4.1c0,2.6,1.2,4.8,5.3,5.7c1,0.2,2.6,0.5,3.8,0.4
				c-4.1,9.8-10.3,9.5-15.3,8.6c-10.4-1.7-15-8.1-15-16.2c0-2,0.3-4.1,0.9-6.2c3.5-13.9,7.1-27.6,10.6-41.2c7,1.4,14,2.9,21,4.7
				C552.2,59,548.7,72.3,545.2,85.8z M548.3,17.5c6.5,1.6,11.8,7.6,11.8,13c0,5.4-5.3,8.3-11.8,6.8c-6.5-1.5-11.6-7-11.6-12.5
				C536.6,19.3,541.8,15.9,548.3,17.5z"/>
		</g>
		<g>
			<path class="st1" d="M60.4,19.4C57,37.3,53.5,55.3,50,73.3C64.7,74,75.7,53.2,75.7,35.8c0-12.2-5.3-22.9-18.2-24.9
				c-23.8-3.9-38.1,7.6-38.1,33.4c0,8.6,1.9,10.4,2.1,11.9c-10.1-2.2-15.7-8-15.7-20.2c0-22.7,27-36.6,51.6-32.8
				C81.4,7.1,92,22.9,92,39.8c0,20.5-16,43.1-42.5,39.6c-0.2,0-0.5-0.1-0.7-0.1c-3,15.4-6,30.8-9,46.3c-7.1-1-14.1-2.1-21.2-3.5
				c6.7-34.6,13.3-69,20-103.2C45.9,19.3,53.2,19.4,60.4,19.4z"/>
			<path class="st1" d="M118.3,118.5c7.2,0,19.5-9.7,24.7-21.6c2.2-0.1,4.4-0.2,6.6-0.3c-8.4,16.6-22.5,33.5-41.4,33.5
				c-14.1,0-21.7-12.4-21.7-26.4c0-20.9,7.9-56.3,34.7-55.4c12.1,0.3,18.8,5.6,18.8,16.7c0,19.4-19.2,31-33.2,32.6
				c-0.3,2.6-0.4,5-0.4,6.9C106.3,115.3,112.6,118.6,118.3,118.5z M126,56.9c-8.2-0.1-15,17.8-18.1,33c13.5,0.1,23.1-12.7,23.2-24
				C131.1,62.6,130.4,57,126,56.9z"/>
			<path class="st1" d="M171.7,49.2c-0.2,1-0.4,2-0.6,3c3.1-1.9,6.6-3.1,10.3-3.3c15.3-0.8,22.5,4.2,22.5,20.1
				c0,3.2-0.3,6.8-0.9,10.8c-4.6,33.4-17.2,46.2-32.2,47.5c-4.8,0.4-9.4-1-13.8-3.7c-2.5,13-5.1,26.1-7.6,39.2
				c-7.4,2.5-14.8,4.9-22.2,7.1c7.8-40.4,15.6-80.4,23.4-120.1C157.6,49.7,164.6,49.5,171.7,49.2z M184.2,83.1
				c1.3-6.9,1.9-12.1,1.9-15.8c0-9.3-3.5-10.9-8.2-10.7c-2.8,0.2-5.6,1.5-8.4,3.7c-3.5,17.7-7.1,35.5-10.6,53.3
				c3.5,2.6,7.2,2.3,9.6,2.2C175.8,115.3,179.3,108.2,184.2,83.1z"/>
			<path class="st1" d="M238.5,44.3c-0.2,1-0.4,1.9-0.6,2.9c3.1-2,6.6-3.3,10.3-3.7c15.3-1.5,22.5,3.2,22.5,18.5
				c0,3.1-0.3,6.5-0.9,10.5c-4.6,32.3-17.2,45.1-32.2,47.2c-4.8,0.7-9.4-0.4-13.8-2.7c-2.5,12.7-5.1,25.5-7.6,38.3
				c-7.4,2.9-14.8,5.7-22.2,8.5c7.8-39.6,15.6-78.8,23.4-117.6C224.4,45.6,231.5,45,238.5,44.3z M251,76.5
				c1.3-6.7,1.9-11.7,1.9-15.3c0-9-3.5-10.4-8.2-9.9c-2.8,0.3-5.6,1.8-8.4,4c-3.5,17.2-7.1,34.6-10.6,52c3.5,2.3,7.2,1.8,9.6,1.5
				C242.6,107.8,246.2,100.8,251,76.5z"/>
			<path class="st1" d="M306.1,99.5c7.2-1,19.5-11,24.7-22.2c2.2-0.3,4.4-0.5,6.6-0.8c-8.4,15.6-22.5,32-41.4,34.8
				c-14.1,2.1-21.7-7.6-21.7-20.3c0-18.8,7.9-52.7,34.7-55.2c12.1-1.2,18.8,3.1,18.8,13.1c0,17.4-19.2,29.8-33.2,33.4
				c-0.3,2.4-0.4,4.6-0.4,6.3C294.1,98.3,300.4,100.3,306.1,99.5z M313.7,43c-8.2,0.8-15,18-18.1,32.1c13.5-1.9,23.1-14.4,23.2-24.6
				C318.9,47.6,318.1,42.6,313.7,43z"/>
			<path class="st1" d="M361.2,32.5c-0.5,2.4-1.1,4.8-1.6,7.2c5.3-4.4,11.2-7.8,17.3-8.2c6.6-0.4,10.6,3,10.6,8.2
				c0,4.8-3.8,11-11,11.5c-8.2,0.6-4.1-8.9-8.5-8.6c-4.4,0.3-6.8,2.1-10.1,5.3c-4.1,18.7-8.1,37.6-12.2,56.7
				c-7.1,0.9-14.1,1.8-21.2,2.8c5.2-24.6,10.4-49,15.6-73.2C347.1,33.6,354.1,33,361.2,32.5z"/>
			<path class="st1" d="M441.9,48c0.9,0.8,2.2,1.2,4.3,1.2c6.9,0.1,10-4.3,15.4-6.1c0.2,0.9,0.4,1.9,0.6,2.8
				c-4.6,5-12.2,9.1-20.7,11.3C438.6,84,422.6,97.9,407.9,99c-15.7,1.2-22.5-4.3-22.5-20.8c0-34.2,18.4-49.9,38.6-50
				C438,28.2,441.6,38.3,441.9,48z M430.6,58.7c-4.3,0.1-6.2-2.7-6.2-5.9c0-3.9,2.5-8.2,6.5-9.5c-0.4-4.4-2.1-7-6.2-7
				C410.9,36.4,405,64.6,405,75.6c0,8.2,4.1,10.1,9.8,9.8C423.8,84.9,428.8,71.8,430.6,58.7z"/>
			<path class="st1" d="M508.1,78.2c-0.4,1.4-0.7,2.7-0.7,4c0,2.8,1.6,4.9,7.3,5.6c5.9,0.7,8.1-2.9,14-6.1c1.7,0.3,3.3,0.5,5,0.8
				c-6.8,4.6-17.9,16.8-29.4,15.9c-11.5-1-18.2-5.7-18.2-15.4c0-2.1,0.3-4.1,0.9-6.6c1.9-7.7,3.7-15.3,5.6-22.9
				c0.3-1.1,0.4-2.3,0.4-3.3c0-4.7-2.8-7.9-6.8-8.3c-3.5-0.3-6.2,0.4-9.3,2c-4.2,17.3-8.3,34.8-12.5,52.6c-7.1-0.1-14.1,0-21.2,0.1
				c5.2-22.4,10.4-44.5,15.6-66.3c7.1,0.3,14.1,0.7,21.2,1.3c-0.6,2.3-1.2,4.6-1.8,6.9c6-3.5,12.8-5.9,19.2-5.2
				c7.9,0.9,16.9,9.7,16.9,18.2c0,1,0,2-0.3,3C512.2,62.3,510.1,70.2,508.1,78.2z"/>
			<path class="st1" d="M544,83.6c-0.4,1.4-0.7,2.7-0.7,4.1c0,2.6,1.2,4.8,5.3,5.7c1,0.2,2.6,0.5,3.8,0.4
				c-4.1,9.8-10.3,9.5-15.3,8.7c-10.4-1.7-15-8.1-15-16.1c0-2,0.3-4.2,0.9-6.2c3.5-13.9,7.1-27.6,10.6-41.2c7,1.4,14,2.9,21,4.7
				C551,56.7,547.5,70.1,544,83.6z M547.1,15.2c6.5,1.6,11.8,7.6,11.8,13c0,5.4-5.3,8.4-11.8,6.9c-6.5-1.5-11.6-6.9-11.6-12.5
				C535.5,17.1,540.6,13.6,547.1,15.2z"/>
		</g>
	</g>
</g>
</svg>
