<?xml version="1.0" encoding="utf-8"?>
<!-- Generator: Adobe Illustrator 21.1.0, SVG Export Plug-In . SVG Version: 6.00 Build 0)  -->
<svg version="1.1" id="Layer_1" xmlns="http://www.w3.org/2000/svg" xmlns:xlink="http://www.w3.org/1999/xlink" x="0px" y="0px"
	 viewBox="0 0 438.7 536" style="enable-background:new 0 0 438.7 536;" xml:space="preserve">
<style type="text/css">
	.st0{fill:#F2C91D;}
	.st1{fill:#C49A6C;}
	.st2{fill:none;stroke:#F5D44A;stroke-width:3;stroke-miterlimit:10;}
	.st3{fill:#BE1E2D;}
	.st4{fill:#8F1622;}
	.st5{fill:none;stroke:#F5D44A;stroke-width:2.3472;stroke-miterlimit:10;}
	.st6{fill:#3A3434;stroke:#000000;stroke-width:1.1583;stroke-linecap:round;stroke-miterlimit:10;}
	.st7{fill:#D89839;}
	.st8{fill:none;stroke:#000000;stroke-width:1.7374;stroke-linecap:round;stroke-miterlimit:10;}
	.st9{fill:#FFFFFF;stroke:#000000;stroke-width:1.174;stroke-miterlimit:10;}
	.st10{fill:#3C2415;stroke:#000000;stroke-width:1.174;stroke-miterlimit:10;}
	.st11{fill:#FFFFFF;}
	.st12{fill:#3A3434;stroke:#000000;stroke-width:1.7374;stroke-linecap:round;stroke-miterlimit:10;}
</style>
<g>
	<path class="st0" d="M261.7,10.1c5.8,16.7,4.5,17.1,10.3,33.8c5.8,16.7,4.2,17.3,10,34c5.8,16.7,2.7,17.8,8.5,34.5
		c5.8,16.7,9.5,15.4,15.3,32.1c5.8,16.7,5.9,16.7,11.7,33.4c5.8,16.7,6.5,16.5,12.3,33.2c5.8,16.7,8.5,15.7,14.3,32.4
		c5.8,16.7,2.6,17.8,8.4,34.5c5.8,16.7,7.1,16.3,12.9,33c5.8,16.7,7.1,16.2,12.9,32.9c5.8,16.7,5,17,10.8,33.7
		c5.8,16.7,2.9,17.7,8.7,34.4c5.8,16.7,3.6,17.5,9.4,34.2c5.8,16.7,6.5,16.5,12.3,33.2c1.7,4.9,0.3,11.3-4.9,11.3
		c-17.5-1.2-17.2-5.1-34.7-6.4c-17.5-1.4-17.9,3.5-35.4,2.1c-17.5-1.4-17.1-6.3-34.6-7.7c-17.5-1.4-17.3-4.3-34.7-5.7
		c-17.5-1.4-17.8,2.5-35.3,1.1c-17.5-1.4-17.4-2-34.9-3.4c-17.5-1.4-17.8,2.5-35.3,1.1c-17.5-1.4-17.6-0.6-35-1.9
		c-17.5-1.4-17-7.8-34.5-9.2c-17.5-1.4-17.5-1.5-35-2.8c-17.5-1.4-17.6-0.9-35.1-2.1c-5.2,0-11.2-3.4-9.5-8.3
		c7.7-15.8,11.2-14,19.2-29.6c7.9-15.6,7.7-15.7,15.7-31.4c7.9-15.6,5.3-17,13.2-32.6c7.9-15.6,7.6-15.8,15.6-31.4
		c7.9-15.6,13.8-12.7,21.7-28.3c7.9-15.6,5.7-16.8,13.7-32.4c7.9-15.6,10.6-14.3,18.6-29.9c7.9-15.6,3.3-18,11.3-33.6
		c7.9-15.6,7.4-15.9,15.3-31.6c7.9-15.6,12.3-13.4,20.2-29.1c7.9-15.6,0.5-19.4,8.4-35c7.9-15.6,9.6-14.8,17.5-30.4
		c7.9-15.6,8.6-15.3,16.5-31s7.4-15.8,15-31.7C244.7,2.8,259.3,3.3,261.7,10.1z"/>
</g>
<g>
	<path class="st1" d="M434.3,514.8c-1.5,18.2-10.9,4.6-34.5,8.5c-10,1.6-22.3,1.5-36.5,2.8c-10.9,1-23.1,1.4-36.5,1.8
		c-11.3,0.3-23.5,4.7-36.6,4.4c-11.5-0.2-23.8-0.6-36.7-1.4c-11.6-0.8-23.6-4.3-36.3-5.6c-11.5-1.2-24.2,0.7-36.5-1.3
		c-11.8-1.9-23.2-7.4-35.1-9.7c-12-2.3-23.5-6.8-35-9.4c-12.3-2.7-24.9-2.4-36-5.1c-13-3.2-24.9-6.4-35.1-9.1
		c-21.4-5.6-34.3,7-36.6-11c-1.8-14,8.4-13,13.3-26.3s-2.9-18.1,6.8-28.3c11.7-12.3,13.5,5.6,33.9,10.5c9.5,2.3,21,3.2,33.5,5.8
		c10.3,2.2,21.7,2.9,33.5,5.1c10.7,2,21.2,8,32.7,9.8c10.9,1.7,22.5,1.6,33.9,3c11.2,1.4,22.6,0.3,33.9,1.2c13.1,1,26-0.2,38.7-0.1
		c13.4,0.1,26.5,6.2,38.9,5.5c13.7-0.7,26.9-1.7,38.9-3.1c14.5-1.6,26.9-7.9,37.9-9.6c23.6-3.8,23.4-18.5,35.4-3.2
		c10.7,13.7,4.8,15.4,10.8,31.7C431.2,498.1,435.7,497.4,434.3,514.8z"/>
</g>
<g>
	<line class="st2" x1="152.9" y1="432.4" x2="267.2" y2="274.3"/>
	<line class="st2" x1="142.8" y1="402.5" x2="257" y2="244.5"/>
	<line class="st2" x1="132.6" y1="372.7" x2="246.9" y2="214.6"/>
	<line class="st2" x1="122.5" y1="342.9" x2="236.7" y2="184.8"/>
	<line class="st2" x1="112.3" y1="313.1" x2="226.6" y2="155"/>
</g>
<g>
	<path class="st3" d="M291,129.8c8.8,11.8,17.3,25.4,15.3,38.9c-2,13.5-10.9,28.2-22.7,37.1c-11.8,8.8-27.3,5.4-40.9,3.5
		c-13.5-2-29.8-2.8-38.7-14.6c-8.8-11.8-13.5-28.9-11.6-42.5c2-13.5,14.9-23.8,26.8-32.6c11.8-8.8,24.7-14,38.3-12
		C271.1,109.5,282.1,118,291,129.8z"/>
</g>
<g>
	<path class="st4" d="M257.1,139.8c0,3.9,2.2,8.1,0.4,11.2c-1.9,3.3-4.4,7.3-7.7,9.2c-3.2,1.8-7.9,1.4-11.8,1.4
		c-3.9,0-6.7-3-9.8-4.8c-3.3-1.9-7.7-2.5-9.6-5.8c-1.8-3.2-1.5-7.3-1.5-11.2c0-3.9,1.2-7.2,3-10.3c1.9-3.3,3.1-7.7,6.4-9.6
		c3.2-1.8,7.6-2.6,11.5-2.6c3.9,0,8.5,0.5,11.7,2.4c3.3,1.9,7.2,5,9.1,8.2C260.5,131,257.1,135.9,257.1,139.8z"/>
</g>
<g>
	<path class="st4" d="M284.9,166.7c2,2,5.3,3.1,6,5.6c0.7,2.7,1.5,6.1,0.8,8.7c-0.7,2.6-3.4,4.8-5.4,6.8c-2,2-5,1.9-7.6,2.6
		c-2.7,0.7-5.3,2.7-8,2c-2.6-0.7-4.6-3-6.6-5c-2-2-3.1-4.3-3.8-6.9c-0.7-2.7-2.4-5.6-1.7-8.3c0.7-2.6,2.6-5.3,4.6-7.3
		c2-2,4.7-4.1,7.3-4.8c2.7-0.7,6.3-1.1,9-0.4C282.2,160.3,282.9,164.7,284.9,166.7z"/>
</g>
<g>
	<path class="st4" d="M283,155.2c0,1.4,0.5,3-0.1,4.1c-0.7,1.2-1.9,2.3-3.1,2.9c-1.1,0.7-2.7-0.1-4.1-0.1c-1.4,0-3,0.9-4.1,0.2
		c-1.2-0.7-2.5-1.8-3.2-3c-0.7-1.1,0-2.8,0-4.2c0-1.4,0-2.7,0.6-3.8c0.7-1.2,1.6-2.1,2.8-2.8c1.1-0.7,2.4-0.5,3.8-0.5
		c1.4,0,3-0.6,4.1,0c1.2,0.7,1.1,2.6,1.8,3.8C282.2,152.9,283,153.8,283,155.2z"/>
</g>
<g>
	<path class="st4" d="M224,187.2c-4.9,0.2-10,3.1-14,1c-4.2-2.2-9.3-5.2-11.8-9.2c-2.4-3.9-2.1-9.8-2.3-14.7
		c-0.2-4.9,3.4-8.4,5.5-12.5c2.2-4.2,2.8-9.7,6.8-12.3c3.9-2.4,9-2.2,13.9-2.4c4.9-0.2,9,1.2,13.1,3.3c4.2,2.2,9.8,3.6,12.3,7.6
		c2.4,3.9,3.6,9.4,3.8,14.3c0.2,4.9-0.3,10.6-2.4,14.7c-2.2,4.2-5.9,9.2-9.9,11.7C235.2,191.1,228.9,187,224,187.2z"/>
</g>
<g>
	<line class="st5" x1="175.4" y1="400.9" x2="283" y2="452.6"/>
	<line class="st5" x1="196.6" y1="382.5" x2="304.2" y2="434.2"/>
	<line class="st5" x1="217.8" y1="364.2" x2="325.4" y2="415.9"/>
	<line class="st5" x1="239" y1="345.8" x2="346.6" y2="397.6"/>
	<line class="st5" x1="260.2" y1="327.5" x2="367.8" y2="379.2"/>
</g>
<g>
	<path class="st3" d="M319.5,356.4c-12.9,7.3-27.4,14-40.6,10.3c-13.2-3.6-26.7-14.3-33.9-27.2c-7.3-12.9-2-27.8,1.7-41
		c3.6-13.2,6.5-29.3,19.3-36.5c12.9-7.3,30.4-9.8,43.6-6.2c13.2,3.6,21.8,17.8,29,30.7c7.3,12.9,10.8,26.3,7.2,39.5
		C342.2,339.2,332.4,349.1,319.5,356.4z"/>
</g>
<g>
	<path class="st4" d="M292.3,297.2c-3.9-0.5-8.3,1.2-11.2-1c-3-2.3-6.7-5.3-8.1-8.8c-1.4-3.4-0.4-8,0.1-11.9c0.5-3.9,3.8-6.2,6-9.1
		c2.3-3,3.5-7.3,6.9-8.8c3.4-1.4,7.4-0.6,11.3-0.1c3.9,0.5,7,2.1,9.9,4.3c3,2.3,7.3,4.1,8.7,7.5c1.4,3.4,1.7,7.9,1.2,11.8
		c-0.5,3.9-1.6,8.4-3.8,11.3c-2.3,3-5.8,6.5-9.3,8C300.6,301.7,296.2,297.7,292.3,297.2z"/>
</g>
<g>
	<path class="st4" d="M269.5,326.3c-2.3,1.8-3.7,4.9-6.4,5.3c-2.7,0.4-6.2,0.7-8.8-0.3c-2.5-1-4.3-3.9-6.1-6.2
		c-1.8-2.3-1.3-5.2-1.6-7.8c-0.4-2.7-2-5.6-1-8.2c1-2.5,3.5-4.2,5.8-5.9c2.3-1.8,4.7-2.5,7.3-2.9c2.7-0.4,5.9-1.7,8.4-0.6
		c2.5,1,4.9,3.2,6.7,5.5c1.8,2.3,3.5,5.2,3.9,7.8c0.4,2.7,0.3,6.4-0.7,8.9C276.1,324.4,271.7,324.6,269.5,326.3z"/>
</g>
<g>
	<path class="st4" d="M285.4,321.9c0.4-4.9-1.8-10.3,0.8-14c2.7-3.9,6.3-8.6,10.6-10.6c4.1-1.9,9.9-0.8,14.8-0.4
		c4.9,0.4,7.9,4.4,11.7,7c3.9,2.7,9.3,4,11.3,8.3c1.9,4.1,1.1,9.2,0.6,14.1c-0.4,4.9-2.3,8.8-4.9,12.5c-2.7,3.9-4.7,9.3-9,11.3
		c-4.1,1.9-9.7,2.4-14.6,2c-4.9-0.4-10.5-1.6-14.3-4.2c-3.9-2.7-8.4-7-10.4-11.3C280.2,332.5,285,326.8,285.4,321.9z"/>
</g>
<g>
	<path class="st3" d="M200,379.5c0.2,14.8-1,30.7-10.5,40.5s-25.4,16.4-40.2,16.6c-14.8,0.2-25.3-11.7-35.1-21.3
		s-22.5-19.8-22.7-34.6c-0.2-14.8,6.1-31.4,15.6-41.2s26.1-10.5,40.9-10.6c14.8-0.2,28.2,3.2,38,12.8S199.8,364.8,200,379.5z"/>
</g>
<g>
	<path class="st4" d="M173.2,375.9c-2.3,3.2-3,7.8-6.3,9.3c-3.5,1.5-7.9,3.3-11.6,2.9c-3.6-0.4-7.2-3.5-10.3-5.8
		c-3.2-2.3-3.6-6.3-5.1-9.6c-1.5-3.5-4.8-6.6-4.4-10.3c0.4-3.6,3.1-6.8,5.4-10c2.3-3.2,5.2-5.1,8.5-6.6c3.5-1.5,7.1-4.4,10.8-4
		c3.6,0.4,7.7,2.3,10.9,4.6c3.2,2.3,6.6,5.4,8,8.8c1.5,3.5,2.9,8.2,2.5,12C181.2,370.8,175.5,372.7,173.2,375.9z"/>
</g>
<g>
	<path class="st4" d="M138.3,351.6c0.4,2.8,2.5,5.6,1.5,8.1c-1,2.6-2.4,5.8-4.5,7.5c-2.1,1.7-5.5,1.9-8.4,2.3
		c-2.8,0.4-5.2-1.4-7.7-2.3c-2.6-1-5.9-0.9-7.6-3.1c-1.7-2.1-1.9-5.1-2.4-7.9c-0.4-2.8,0-5.3,1-7.8c1-2.6,1.4-5.9,3.5-7.7
		c2.1-1.7,5.2-2.8,8-3.2c2.8-0.4,6.2-0.6,8.7,0.4c2.6,1,5.8,2.8,7.5,4.9C139.8,344.8,137.8,348.7,138.3,351.6z"/>
</g>
<g>
	<path class="st4" d="M191,397.6c-0.8,1.1-1.3,2.7-2.5,3.3c-1.2,0.5-2.9,0.7-4.2,0.6c-1.3-0.1-2.1-1.7-3.2-2.5
		c-1.1-0.8-3-1.1-3.5-2.2c-0.5-1.2-1-2.9-0.8-4.2c0.1-1.3,1.7-2.3,2.5-3.4c0.8-1.1,1.6-2.2,2.7-2.7c1.2-0.5,2.6-0.8,3.9-0.6
		c1.3,0.1,2.3,1,3.4,1.9c1.1,0.8,2.8,1.2,3.3,2.4c0.5,1.2-0.7,2.7-0.8,4.1C191.8,395.3,191.9,396.5,191,397.6z"/>
</g>
<g>
	<path class="st4" d="M154.5,388.6c0.8,4.8,4.3,9.5,2.6,13.8c-1.7,4.4-4,9.8-7.7,12.8c-3.6,2.9-9.4,3.2-14.3,4
		c-4.8,0.8-8.8-2.3-13-4c-4.4-1.7-10-1.6-13-5.3c-2.9-3.6-3.3-8.7-4-13.5c-0.8-4.8,0.1-9.1,1.7-13.4c1.7-4.4,2.4-10.1,6-13.1
		c3.6-2.9,8.9-4.7,13.7-5.5c4.8-0.8,10.6-1,14.9,0.7c4.4,1.7,9.8,4.7,12.8,8.4C157,377.1,153.7,383.8,154.5,388.6z"/>
</g>
<g>
	<path class="st6" d="M158.8,394.4l-7.6,2.8c-5.9,2.2-26-16-26-16c-4.7-12.9-3.5-25.2,9.4-29.9l7.5-2.7c13.4-4.9,22.8,4,27.7,17.4
		C169.8,365.9,164.7,392.2,158.8,394.4z"/>
	<path class="st7" d="M158.9,396.8l-5.1,1.9c-6.1,2.2-12.9-0.9-15.2-7l-0.2-0.5c-1.5-4.1,0.6-8.5,4.7-10l12.6-4.6
		c4.1-1.5,8.6,0.6,10,4.7l0.2,0.5C168.2,387.8,165,394.5,158.9,396.8z"/>
	<path class="st8" d="M165.8,381.3l0.2,0.5c2.2,6.1-0.9,12.9-7,15.1l-5.1,1.9c-6.1,2.2-12.9-0.9-15.2-7l-0.2-0.5"/>
	<path class="st6" d="M163.3,376.3c0.3,2.8,1.2,5,2.6,6.8c0,0,0,0.1,0.1,0.1c1.6,3.2,10.1,6.9,10.1,6.9s-0.9-0.8-2-2.1
		c2.6,1.4,5.1,2.5,5.1,2.5s-1.1-1-2.4-2.4c1.8,0.7,3.2,1.1,3.2,1.1s-1.1-0.8-2.4-2c0.2-0.1,0.5-0.1,0.7-0.2c0,0,7.9-3.1,11.7-6.8
		c2.1-0.2,3.8-0.5,3.8-0.5s-1-0.2-2.4-0.6c1.2-0.1,2-0.3,2-0.3s-0.4-0.1-0.9-0.2c2.2-0.2,4-0.5,4-0.5s-1.3-0.3-3.1-0.8
		c0.9-0.1,1.5-0.2,1.5-0.2s-0.7-0.2-1.7-0.4c1.4-0.4,2.3-0.7,2.3-0.7s-1.4-0.1-3.2-0.4c1.1-1,1.8-1.8,1.8-1.8s-1.1,0.5-2.6,1
		c-0.4-0.6-0.9-1.1-1.7-1.6c-4.9-3.3-7.6-7.2-8.5-15.6c-0.4-4-2.6-6.9-5.4-8.6c1.2-1.1,2.3-2.5,2.3-2.5s-2,1.1-3.9,1.6
		c0,0,0,0-0.1,0c1.1-1.2,2-2.2,2-2.2s-1.7,1-3.7,1.6c-2.2-0.6-4.5-0.6-6.4,0.2l-7.9,2.2"/>
	<g>
		
			<ellipse transform="matrix(0.9393 -0.3431 0.3431 0.9393 -113.5525 73.1757)" class="st7" cx="150.1" cy="357.5" rx="4.7" ry="3.8"/>
		
			<ellipse transform="matrix(0.9393 -0.3431 0.3431 0.9393 -116.2972 68.4399)" class="st7" cx="135.3" cy="362.9" rx="4.7" ry="3.8"/>
	</g>
	<path class="st6" d="M136.5,386.1c1.6,2.3,2.3,4.6,2.4,6.9c0,0,0,0.1,0,0.1c0.8,3.4-3.3,11.8-3.3,11.8s0.1-1.2,0.2-2.9
		c-1,2.7-2.3,5.1-2.3,5.1s0.2-1.4,0.3-3.4c-0.9,1.7-1.7,3-1.7,3s0.3-1.3,0.6-3.1c-0.2,0.1-0.4,0.2-0.7,0.3c0,0-8,2.7-13.3,2.3
		c-1.7,1.2-3.2,2.1-3.2,2.1s0.6-0.8,1.4-2c-1,0.7-1.7,1.1-1.7,1.1s0.2-0.3,0.6-0.8c-1.8,1.3-3.4,2.2-3.4,2.2s0.8-1.1,1.8-2.6
		c-0.7,0.5-1.3,0.8-1.3,0.8s0.4-0.6,1.1-1.5c-1.3,0.6-2.2,1-2.2,1s1-1,2.2-2.4c-1.5-0.1-2.5-0.2-2.5-0.2s1.1-0.3,2.6-0.9
		c-0.1-0.7,0-1.4,0.2-2.3c1.6-5.7,1.1-10.4-3.5-17.4c-2.2-3.3-2.4-7-1.5-10.1c-1.7-0.1-3.3-0.4-3.3-0.4s2.3-0.4,4-1.3c0,0,0,0,0-0.1
		c-1.6-0.2-3-0.4-3-0.4s2-0.4,3.9-1.1c1.3-1.9,3.1-3.4,5-4l7.5-3.5"/>
	<g>
		<g>
			
				<ellipse transform="matrix(0.9393 -0.3431 0.3431 0.9393 -114.6287 76.3874)" class="st9" cx="158.6" cy="362.2" rx="10.1" ry="10.1"/>
			
				<ellipse transform="matrix(0.9393 -0.3431 0.3431 0.9393 -114.6287 76.3874)" class="st10" cx="158.6" cy="362.2" rx="7.5" ry="7.5"/>
			<ellipse transform="matrix(0.9393 -0.3431 0.3431 0.9393 -114.3915 75.9368)" cx="157.4" cy="361.3" rx="5.4" ry="5.4"/>
			
				<ellipse transform="matrix(0.9393 -0.3431 0.3431 0.9393 -113.0685 75.6777)" class="st11" cx="157.4" cy="357.4" rx="0.6" ry="0.6"/>
			
				<ellipse transform="matrix(0.9393 -0.3431 0.3431 0.9393 -113.756 76.6642)" class="st11" cx="159.8" cy="359.9" rx="1.8" ry="1.8"/>
		</g>
		<g>
			
				<ellipse transform="matrix(0.9393 -0.3431 0.3431 0.9393 -119.619 67.7773)" class="st9" cx="131.8" cy="372" rx="10.1" ry="10.1"/>
			
				<ellipse transform="matrix(0.9393 -0.3431 0.3431 0.9393 -119.619 67.7773)" class="st10" cx="131.8" cy="372" rx="7.5" ry="7.5"/>
			<ellipse transform="matrix(0.9393 -0.3431 0.3431 0.9393 -119.3817 67.3267)" cx="130.6" cy="371.1" rx="5.4" ry="5.4"/>
			
				<ellipse transform="matrix(0.9393 -0.3431 0.3431 0.9393 -118.0587 67.0676)" class="st11" cx="130.5" cy="367.2" rx="0.6" ry="0.6"/>
			
				<ellipse transform="matrix(0.9393 -0.3431 0.3431 0.9393 -118.7462 68.0541)" class="st11" cx="133" cy="369.7" rx="1.8" ry="1.8"/>
		</g>
	</g>
	<path class="st12" d="M157.5,375.3l1.7,9.5c1.4,3.8-0.4,8-4.1,9.4h0c-3.7,1.3-7.8-0.7-9.2-4.5l-4.8-8.3"/>
	<path d="M156.4,393.7l-2.7,1c-2.9,1.1-6.1-0.4-7.2-3.3h0c-0.7-1.9,0.3-4.1,2.2-4.8l6.3-2.3c1.9-0.7,4.1,0.3,4.8,2.2v0
		C160.8,389.4,159.3,392.6,156.4,393.7z"/>
</g>
<g>
	<path class="st6" d="M289.4,326l-6.4-5c-5-3.9-0.3-30.5-0.3-30.5c8.4-10.8,19.5-16.4,30.3-7.9l6.3,4.9c11.3,8.7,8.7,21.4,0,32.7
		C319.3,320.1,294.3,329.8,289.4,326z"/>
	<path class="st7" d="M287.4,327.3l-4.3-3.3c-5.2-4-6.1-11.4-2.1-16.6l0.3-0.4c2.6-3.4,7.5-4,11-1.4l10.6,8.2c3.4,2.7,4,7.6,1.4,11
		l-0.3,0.4C300,330.4,292.5,331.3,287.4,327.3z"/>
	<path class="st8" d="M304.2,324.9l-0.3,0.4c-4,5.1-11.4,6.1-16.6,2.1l-4.3-3.3c-5.2-4-6.1-11.4-2.1-16.6l0.3-0.4"/>
	<path class="st6" d="M307.1,320.1c-2.2,1.7-3.6,3.7-4.3,5.8c0,0-0.1,0.1-0.1,0.1c-1.8,3-0.5,12.2-0.5,12.2s0.2-1.2,0.7-2.8
		c0.2,2.9,0.6,5.6,0.6,5.6s0.3-1.4,0.8-3.3c0.4,1.9,0.7,3.3,0.7,3.3s0.1-1.3,0.4-3.2c0.2,0.2,0.4,0.3,0.5,0.5c0,0,6.8,5,12,6.3
		c1.3,1.7,2.4,3,2.4,3s-0.3-1-0.7-2.3c0.7,0.9,1.3,1.6,1.3,1.6s-0.1-0.3-0.3-0.9c1.3,1.8,2.6,3.2,2.6,3.2s-0.5-1.3-0.9-3
		c0.6,0.7,1,1.1,1,1.1s-0.2-0.7-0.6-1.7c1,1,1.8,1.6,1.8,1.6s-0.6-1.2-1.3-2.9c1.4,0.4,2.4,0.6,2.4,0.6s-1-0.6-2.2-1.7
		c0.3-0.6,0.5-1.3,0.5-2.3c0.2-5.9,2.1-10.3,8.7-15.5c3.1-2.5,4.4-5.9,4.5-9.1c1.6,0.4,3.3,0.6,3.3,0.6s-2-1.1-3.4-2.5
		c0,0,0,0,0-0.1c1.6,0.3,2.9,0.5,2.9,0.5s-1.8-1-3.3-2.3c-0.7-2.2-1.9-4.1-3.5-5.3l-6.1-5.6"/>
	<g>
		
			<ellipse transform="matrix(0.6133 -0.7898 0.7898 0.6133 -113.9467 365.1231)" class="st7" cx="315.9" cy="298.9" rx="3.8" ry="4.7"/>
		
			<ellipse transform="matrix(0.6133 -0.7898 0.7898 0.6133 -111.1345 351.5956)" class="st7" cx="303.5" cy="289.3" rx="3.8" ry="4.7"/>
	</g>
	<path class="st6" d="M284.6,302.7c-1.1,2.6-2.7,4.4-4.6,5.6c0,0-0.1,0.1-0.1,0.1c-2.5,2.5-11.7,3.5-11.7,3.5s1.1-0.5,2.5-1.4
		c-2.9,0.6-5.6,0.8-5.6,0.8s1.3-0.6,3-1.6c-1.9,0.1-3.4,0.1-3.4,0.1s1.3-0.5,3-1.2c-0.2-0.1-0.4-0.3-0.6-0.4c0,0-6.5-5.3-9.1-10.1
		c-2-0.8-3.5-1.6-3.5-1.6s1,0.1,2.5,0.1c-1.1-0.5-1.8-0.9-1.8-0.9s0.4,0,0.9,0.1c-2.1-0.8-3.7-1.7-3.7-1.7s1.4,0.1,3.2,0.2
		c-0.8-0.4-1.3-0.7-1.3-0.7s0.7,0.1,1.8,0.1c-1.2-0.8-2-1.3-2-1.3s1.3,0.3,3.2,0.6c-0.7-1.3-1.2-2.2-1.2-2.2s0.9,0.8,2.1,1.7
		c0.5-0.4,1.2-0.8,2.1-1c5.7-1.7,9.4-4.6,12.9-12.2c1.6-3.7,4.6-5.8,7.8-6.6c-0.8-1.4-1.4-3-1.4-3s1.6,1.7,3.3,2.7c0,0,0,0,0.1,0
		c-0.7-1.4-1.2-2.7-1.2-2.7s1.4,1.5,3,2.7c2.3,0.1,4.5,0.8,6,2.1l6.9,4.5"/>
	<g>
		<g>
			
				<ellipse transform="matrix(0.6133 -0.7898 0.7898 0.6133 -121.3785 369.3507)" class="st9" cx="316.5" cy="308.6" rx="10.1" ry="10.1"/>
			
				<ellipse transform="matrix(0.6133 -0.7898 0.7898 0.6133 -121.3785 369.3507)" class="st10" cx="316.5" cy="308.6" rx="7.5" ry="7.5"/>
			<ellipse transform="matrix(0.6133 -0.7898 0.7898 0.6133 -120.1737 368.9029)" cx="316.7" cy="307.2" rx="5.4" ry="5.4"/>
			
				<ellipse transform="matrix(0.6133 -0.7898 0.7898 0.6133 -117.2494 370.6432)" class="st11" cx="319.9" cy="305.1" rx="0.6" ry="0.6"/>
			
				<ellipse transform="matrix(0.6133 -0.7898 0.7898 0.6133 -120.2032 371.3409)" class="st11" cx="319.1" cy="308.4" rx="1.8" ry="1.8"/>
		</g>
		<g>
			
				<ellipse transform="matrix(0.6133 -0.7898 0.7898 0.6133 -116.2655 344.7563)" class="st9" cx="294" cy="291.1" rx="10.1" ry="10.1"/>
			
				<ellipse transform="matrix(0.6133 -0.7898 0.7898 0.6133 -116.2655 344.7563)" class="st10" cx="294" cy="291.1" rx="7.5" ry="7.5"/>
			<ellipse transform="matrix(0.6133 -0.7898 0.7898 0.6133 -115.0606 344.3084)" cx="294.1" cy="289.7" rx="5.4" ry="5.4"/>
			
				<ellipse transform="matrix(0.6133 -0.7898 0.7898 0.6133 -112.1364 346.0488)" class="st11" cx="297.3" cy="287.5" rx="0.6" ry="0.6"/>
			
				<ellipse transform="matrix(0.6133 -0.7898 0.7898 0.6133 -115.0902 346.7464)" class="st11" cx="296.6" cy="290.9" rx="1.8" ry="1.8"/>
		</g>
	</g>
	<path class="st12" d="M304.8,314.7l-7.1,6.5c-2.5,3.2-7,3.9-10.1,1.5l0,0c-3.1-2.4-3.6-7-1-10.2l4.5-8.5"/>
	<path d="M288.7,323.6l-2.3-1.8c-2.4-1.9-2.9-5.4-1-7.9l0,0c1.3-1.6,3.6-1.9,5.2-0.7l5.3,4.1c1.6,1.3,1.9,3.6,0.7,5.2h0
		C294.7,325,291.2,325.4,288.7,323.6z"/>
</g>
<g>
	<path class="st6" d="M265.4,160.3L263,168c-1.8,6-28.4,11.1-28.4,11.1c-13.1-4-22.2-12.3-18.2-25.5l2.3-7.6
		c4.1-13.6,16.9-15.8,30.5-11.7C249.2,134.4,267.2,154.3,265.4,160.3z"/>
	<path class="st7" d="M267.3,161.7l-1.6,5.2c-1.9,6.2-8.5,9.8-14.8,7.9l-0.5-0.1c-4.1-1.3-6.5-5.6-5.2-9.7l3.9-12.8
		c1.3-4.1,5.6-6.5,9.8-5.2l0.5,0.1C265.7,148.8,269.2,155.4,267.3,161.7z"/>
	<path class="st8" d="M259.1,146.8l0.5,0.1c6.2,1.9,9.8,8.5,7.9,14.7l-1.6,5.2c-1.9,6.2-8.5,9.8-14.8,7.9l-0.5-0.1"/>
	<path class="st6" d="M253.6,145.9c2.4,1.5,4.8,2,7,2c0.1,0,0.1,0,0.1,0c3.5,0.6,11.6-3.9,11.6-3.9s-1.2,0.2-2.9,0.3
		c2.7-1.2,5-2.6,5-2.6s-1.4,0.3-3.4,0.5c1.7-1,2.9-1.9,2.9-1.9s-1.3,0.4-3.1,0.7c0.1-0.2,0.2-0.4,0.2-0.7c0,0,2.3-8.1,1.6-13.5
		c1.1-1.8,1.9-3.3,1.9-3.3s-0.8,0.7-1.9,1.5c0.6-1,1-1.8,1-1.8s-0.3,0.2-0.7,0.6c1.2-1.9,2-3.5,2-3.5s-1,0.9-2.5,2
		c0.4-0.8,0.7-1.3,0.7-1.3s-0.5,0.5-1.4,1.1c0.5-1.3,0.9-2.3,0.9-2.3s-0.9,1-2.3,2.3c-0.1-1.5-0.3-2.5-0.3-2.5s-0.3,1.1-0.8,2.6
		c-0.7-0.1-1.4,0.1-2.3,0.4c-5.6,1.9-10.4,1.7-17.6-2.6c-3.4-2-7.1-2-10.1-0.9c-0.2-1.7-0.6-3.3-0.6-3.3s-0.3,2.3-1.1,4.1
		c0,0,0,0-0.1,0c-0.2-1.6-0.6-2.9-0.6-2.9s-0.3,2-0.9,3.9c-1.8,1.4-3.2,3.2-3.7,5.2l-3.1,7.7"/>
	<g>
		
			<ellipse transform="matrix(0.2909 -0.9568 0.9568 0.2909 24.6906 323.6071)" class="st7" cx="230.7" cy="145.1" rx="4.7" ry="3.8"/>
		
			<ellipse transform="matrix(0.2909 -0.9568 0.9568 0.2909 7.0679 329.8938)" class="st7" cx="226.1" cy="160.2" rx="4.7" ry="3.8"/>
	</g>
	<path class="st6" d="M245.3,173.1c2.8,0.1,5.1,1,6.9,2.2c0,0,0.1,0,0.1,0c3.2,1.4,7.5,9.7,7.5,9.7s-0.9-0.8-2.2-1.9
		c1.6,2.5,2.7,4.9,2.7,4.9s-1-1-2.5-2.3c0.8,1.8,1.3,3.2,1.3,3.2s-0.9-1-2.2-2.3c-0.1,0.2-0.1,0.5-0.2,0.7c0,0-2.6,8-6.2,12.1
		c-0.1,2.1-0.3,3.8-0.3,3.8s-0.3-1-0.7-2.4c-0.1,1.2-0.2,2-0.2,2s-0.1-0.4-0.3-0.9c-0.1,2.2-0.3,4.1-0.3,4.1s-0.4-1.3-1-3
		c-0.1,0.9-0.1,1.5-0.1,1.5s-0.2-0.7-0.5-1.7c-0.3,1.4-0.5,2.4-0.5,2.4s-0.2-1.4-0.6-3.2c-0.9,1.1-1.7,1.9-1.7,1.9s0.4-1.1,0.8-2.6
		c-0.6-0.3-1.2-0.8-1.7-1.6c-3.6-4.7-7.7-7.2-16-7.7c-4-0.2-7-2.3-8.9-4.9c-1.1,1.3-2.3,2.4-2.3,2.4s1-2.1,1.3-4c0,0,0,0,0-0.1
		c-1.1,1.2-2.1,2.1-2.1,2.1s0.9-1.8,1.4-3.8c-0.7-2.2-0.8-4.5-0.2-6.4l1.7-8.1"/>
	<g>
		<g>
			
				<ellipse transform="matrix(0.2909 -0.9568 0.9568 0.2909 34.8183 329.2185)" class="st9" cx="239.5" cy="141.1" rx="10.1" ry="10.1"/>
			
				<ellipse transform="matrix(0.2909 -0.9568 0.9568 0.2909 34.8183 329.2185)" class="st10" cx="239.5" cy="141.1" rx="7.5" ry="7.5"/>
			<ellipse transform="matrix(0.2909 -0.9568 0.9568 0.2909 33.451 328.1413)" cx="238.1" cy="141.5" rx="5.4" ry="5.4"/>
			
				<ellipse transform="matrix(0.2909 -0.9568 0.9568 0.2909 33.4012 323.5333)" class="st11" cx="235" cy="139.2" rx="0.6" ry="0.6"/>
			
				<ellipse transform="matrix(0.2909 -0.9568 0.9568 0.2909 36.2905 326.4565)" class="st11" cx="238.4" cy="138.7" rx="1.8" ry="1.8"/>
		</g>
		<g>
			
				<ellipse transform="matrix(0.2909 -0.9568 0.9568 0.2909 2.7785 340.6483)" class="st9" cx="231.2" cy="168.4" rx="10.1" ry="10.1"/>
			
				<ellipse transform="matrix(0.2909 -0.9568 0.9568 0.2909 2.7785 340.6483)" class="st10" cx="231.2" cy="168.4" rx="7.5" ry="7.5"/>
			<ellipse transform="matrix(0.2909 -0.9568 0.9568 0.2909 1.4112 339.571)" cx="229.8" cy="168.8" rx="5.4" ry="5.4"/>
			
				<ellipse transform="matrix(0.2909 -0.9568 0.9568 0.2909 1.3615 334.9631)" class="st11" cx="226.7" cy="166.6" rx="0.6" ry="0.6"/>
			
				<ellipse transform="matrix(0.2909 -0.9568 0.9568 0.2909 4.2507 337.8863)" class="st11" cx="230.1" cy="166.1" rx="1.8" ry="1.8"/>
		</g>
	</g>
	<path class="st12" d="M249.3,149.9l8.6,4.4c3.9,1.2,6.2,5.2,5,8.9v0c-1.1,3.7-5.2,5.8-9.2,4.6l-9.6-1.2"/>
	<path d="M263.4,161.8l-0.8,2.8c-0.9,3-4,4.6-7,3.7h0c-2-0.6-3.1-2.7-2.5-4.6l2-6.4c0.6-2,2.7-3.1,4.6-2.5h0
		C262.6,155.7,264.3,158.8,263.4,161.8z"/>
</g>
</svg>
