<?xml version="1.0" encoding="utf-8"?>
<!-- Generator: Adobe Illustrator 21.1.0, SVG Export Plug-In . SVG Version: 6.00 Build 0)  -->
<svg version="1.1" id="Layer_1" xmlns="http://www.w3.org/2000/svg" xmlns:xlink="http://www.w3.org/1999/xlink" x="0px" y="0px"
	 viewBox="0 0 438.7 260.7" style="enable-background:new 0 0 438.7 260.7;" xml:space="preserve">
<style type="text/css">
	.st0{fill:#F2C91D;}
	.st1{fill:#C49A6C;}
	.st2{fill:none;stroke:#F5D44A;stroke-width:3;stroke-miterlimit:10;}
	.st3{fill:none;stroke:#F5D44A;stroke-width:2.3472;stroke-miterlimit:10;}
	.st4{fill:#BE1E2D;}
	.st5{fill:#8F1622;}
	.st6{fill:#3A3434;stroke:#000000;stroke-width:1.1583;stroke-linecap:round;stroke-miterlimit:10;}
	.st7{fill:#D89839;}
	.st8{fill:none;stroke:#000000;stroke-width:1.7374;stroke-linecap:round;stroke-miterlimit:10;}
	.st9{fill:#FFFFFF;stroke:#000000;stroke-width:1.174;stroke-miterlimit:10;}
	.st10{fill:#3C2415;stroke:#000000;stroke-width:1.174;stroke-miterlimit:10;}
	.st11{fill:#FFFFFF;}
	.st12{fill:#3A3434;stroke:#000000;stroke-width:1.7374;stroke-linecap:round;stroke-miterlimit:10;}
</style>
<g>
	<path class="st0" d="M420.5,203.6c-5.7-16.3-1.8-17.7-7.4-34c-5.7-16.3-6.4-16-12.1-32.3c-5.7-16.3-3-17.5-9.9-33.4
		c-1.9,1.8-6.5,6.9-9,8.2c-8.6,4.5-19.8-1.3-28-5c-2.7,5.1-7.6,11.2-13.1,14.1c-14,7.3-27.6,2-35.9-11.1c-2.4,2.7-9.1,4.5-12.5,6.2
		c-14.7,7.7-33.9,6.3-41.5-8.4c-1.8-3.5-0.3-8.9-0.7-12.7c-13.7,4.5-32.5,0.8-39.4-12.4c-3.6-6.8-2.4-14.4-0.6-21.3
		c-10.3-0.5-21.3-6.6-26.4-16.4c-4.4-8.4,2.2-18,5.7-26c-0.3-0.1-4-2.3-4.3-2.4c-3.6-1.7-6.1-2.4-8.6-5.2
		c-8.2,11.9-24.6,14.7-38,8.3c-7-3.3-12.1-9.1-14.9-15.7c-5.3,3.6-13.3,5.4-19.8,5.1C93.6,24.2,97.6,26.7,89.3,43
		C81,59.3,81.8,59.7,73.6,76c-8.3,16.3-13,13.9-21.3,30.2c-8.3,16.3-7.8,16.5-16.1,32.8s-2.6,19.2-10.6,35.6
		c-1.7,4.9-1.2,11.6,4,11.6c17.5,1.2,17.6-0.2,35.1,1.2c17.5,1.4,17.5,1.1,35,2.4c17.5,1.4,17.6-0.3,35.1,1.1
		c17.5,1.4,17.5,1.7,34.9,3.1c17.5,1.4,17.6-0.1,35.1,1.3c17.5,1.4,17.7-1.1,35.2,0.3c17.5,1.4,16.9,8.7,34.4,10
		c17.5,1.4,17.8-3.2,35.3-1.8c17.5,1.4,17.4,3,34.8,4.4c17.5,1.4,17.7-1,35.2,0.4c17.5,1.4,17.4,3.1,34.9,4.3
		C419.8,213,422.2,208.6,420.5,203.6z"/>
</g>
<g>
	<path class="st1" d="M435.4,239.6c-1.5,18.2-11.4,8-35.1,11.8c-10,1.6-22.5,2.6-36.7,3.8c-10.9,1-23.3,2.2-36.7,2.6
		c-11.3,0.3-23.6-2.5-36.7-2.8c-11.5-0.2-23.4-5.6-36.3-6.4c-11.6-0.8-23.9,1.2-36.6-0.2c-11.5-1.2-23.1-5.4-35.4-7.3
		c-11.8-1.9-24.8,1.9-36.7-0.4c-12-2.3-22.8-10.3-34.3-12.9c-12.3-2.7-23.8-6.7-34.9-9.4c-13-3.2-25.7-3.1-35.8-5.8
		c-21.4-5.6-31,9.2-33.3-8.7c-1.8-14-0.6-14.3,4.2-27.6s3.9-14.6,13.7-24.8c11.7-12.3,11.9,2.7,32.4,7.6c9.5,2.3,20.4,5.8,32.9,8.5
		c10.3,2.2,20.9,7.3,32.7,9.5c10.7,2,22.3,2.3,33.8,4.1c10.9,1.7,22.2,3.8,33.6,5.2c11.2,1.4,22.6,1.9,33.9,2.8
		c13.1,1,26.3-2.2,39-2.1c13.4,0.1,26.5,3.9,38.9,3.2c13.7-0.7,26.8-2,38.8-3.3c14.5-1.6,27.4-4.5,38.4-6.3
		c23.6-3.8,28.1-25.3,40-10c10.7,13.7,1.2,18.8,7.5,35C433.3,222.2,436.8,222.2,435.4,239.6z"/>
</g>
<g>
	<line class="st2" x1="152.9" y1="157" x2="208.2" y2="80.5"/>
	<line class="st2" x1="142.8" y1="127.2" x2="192.8" y2="58"/>
	<line class="st2" x1="132.6" y1="97.4" x2="186.2" y2="23.3"/>
	<line class="st2" x1="122.5" y1="67.6" x2="152.3" y2="26.2"/>
	<line class="st2" x1="112.3" y1="37.8" x2="129.2" y2="14.4"/>
</g>
<g>
	<line class="st3" x1="175.4" y1="125.6" x2="283" y2="177.3"/>
	<line class="st3" x1="196.6" y1="107.2" x2="304.2" y2="158.9"/>
	<line class="st3" x1="286.7" y1="122" x2="325.4" y2="140.6"/>
	<line class="st3" x1="239.4" y1="99.3" x2="247.2" y2="103"/>
</g>
<g>
	<path class="st4" d="M206.2,104.2c0.2,14.8-7.6,30.4-17.1,40.2s-25.1,10.9-39.9,11.1c-14.8,0.2-29.1-1.9-38.9-11.4
		s-15.8-23.8-16-38.5s6.3-28.3,15.9-38.1s23-13.2,37.8-13.4s29.9,1.3,39.7,10.8C197.5,74.4,206,89.4,206.2,104.2z"/>
</g>
<g>
	<path class="st5" d="M174.5,101.5c-2.3,3.2-3.7,8.1-7.1,9.5c-3.5,1.5-8.1-0.2-11.9-0.6c-3.6-0.4-6.5-2.4-9.7-4.7
		c-3.2-2.3-4.5-5.1-6-8.4c-1.5-3.5-2.8-6.4-2.4-10.1c0.4-3.6,0.8-7.2,3.1-10.3c2.3-3.2,5.6-4.6,8.9-6.1c3.5-1.5,6.5-1.1,10.3-0.7
		c3.6,0.4,6.1,1.4,9.3,3.7c3.2,2.3,6.6,3.7,8,7c1.5,3.5,2.2,7.1,1.8,10.9C178.6,95.2,176.8,98.3,174.5,101.5z"/>
</g>
<g>
	<path class="st5" d="M141.5,75.8c0.4,2.8-1.4,5.9-2.3,8.4c-1,2.6-2.7,4.9-4.8,6.6c-2.1,1.7-4.9,1.2-7.7,1.6
		c-2.8,0.4-5.3,1.7-7.8,0.8c-2.6-1-6.3-1.4-8.1-3.6c-1.7-2.1-1.9-5.7-2.3-8.6c-0.4-2.8,1.2-5.4,2.1-7.9c1-2.6,1.3-5.8,3.5-7.5
		c2.1-1.7,5.1-2.3,7.9-2.8c2.8-0.4,5.2,1,7.7,2c2.6,1,4.4,2.3,6.1,4.5C137.5,71.4,141,72.9,141.5,75.8z"/>
</g>
<g>
	<path class="st5" d="M190.9,122.2c-0.8,1.1-1.5,2.1-2.7,2.6c-1.2,0.5-2.5,0.5-3.8,0.4c-1.3-0.1-2.6-0.2-3.8-1
		c-1.1-0.8-2.6-1.6-3.1-2.8c-0.5-1.2,0.4-2.8,0.5-4.2c0.1-1.3,0.3-2.5,1.1-3.6c0.8-1.1,1.7-2.2,2.9-2.7c1.2-0.5,2.5,0.1,3.9,0.3
		c1.3,0.1,2.5,0.1,3.6,0.9c1.1,0.8,1.8,1.8,2.3,3c0.5,1.2,1.4,2.4,1.3,3.8C192.9,120.2,191.7,121.1,190.9,122.2z"/>
</g>
<g>
	<path class="st5" d="M156.3,113c0.8,4.8,1.1,9.3-0.5,13.6c-1.7,4.4-3.4,9.6-7,12.5c-3.6,2.9-8.9,3.3-13.8,4
		c-4.8,0.8-10.3,2.6-14.5,0.9c-4.4-1.7-9.6-4.8-12.5-8.5c-2.9-3.6-5.8-9.1-6.6-13.9c-0.8-4.8,3.2-9.9,4.8-14.2
		c1.7-4.4,2.7-10.3,6.4-13.2c3.6-2.9,9.2-4.4,14-5.1c4.8-0.8,8.9,3.3,13.2,4.9c4.4,1.7,9.9,1.7,12.9,5.4
		C155.5,103,155.6,108.2,156.3,113z"/>
</g>
<g>
	<path class="st6" d="M158.8,119.1l-7.6,2.8c-5.9,2.2-26-16-26-16c-4.7-12.9-3.5-25.2,9.4-29.9l7.5-2.7c13.4-4.9,22.8,4,27.7,17.4
		C169.8,90.6,164.7,116.9,158.8,119.1z"/>
	<path class="st7" d="M158.9,121.5l-5.1,1.9c-6.1,2.2-12.9-0.9-15.2-7l-0.2-0.5c-1.5-4.1,0.6-8.5,4.7-10l12.6-4.6
		c4.1-1.5,8.6,0.6,10,4.7l0.2,0.5C168.2,112.5,165,119.2,158.9,121.5z"/>
	<path class="st8" d="M165.8,106l0.2,0.5c2.2,6.1-0.9,12.9-7,15.1l-5.1,1.9c-6.1,2.2-12.9-0.9-15.2-7l-0.2-0.5"/>
	<path class="st6" d="M163.3,101c0.3,2.8,1.2,5,2.6,6.8c0,0,0,0.1,0.1,0.1c1.6,3.2,10.1,6.9,10.1,6.9s-0.9-0.8-2-2.1
		c2.6,1.4,5.1,2.5,5.1,2.5s-1.1-1-2.4-2.4c1.8,0.7,3.2,1.1,3.2,1.1s-1.1-0.8-2.4-2c0.2-0.1,0.5-0.1,0.7-0.2c0,0,7.9-3.1,11.7-6.8
		c2.1-0.2,3.8-0.5,3.8-0.5s-1-0.2-2.4-0.6c1.2-0.1,2-0.3,2-0.3s-0.4-0.1-0.9-0.2c2.2-0.2,4-0.5,4-0.5s-1.3-0.3-3.1-0.8
		c0.9-0.1,1.5-0.2,1.5-0.2s-0.7-0.2-1.7-0.4c1.4-0.4,2.3-0.7,2.3-0.7s-1.4-0.1-3.2-0.4c1.1-1,1.8-1.8,1.8-1.8s-1.1,0.5-2.6,1
		c-0.4-0.6-0.9-1.1-1.7-1.6c-4.9-3.3-7.6-7.2-8.5-15.6c-0.4-4-2.6-6.9-5.4-8.6c1.2-1.1,2.3-2.5,2.3-2.5s-2,1.1-3.9,1.6
		c0,0,0,0-0.1,0c1.1-1.2,2-2.2,2-2.2s-1.7,1-3.7,1.6c-2.2-0.6-4.5-0.6-6.4,0.2l-7.9,2.2"/>
	<g>
		
			<ellipse transform="matrix(0.9393 -0.3431 0.3431 0.9393 -19.1063 56.4682)" class="st7" cx="150.1" cy="82.2" rx="4.7" ry="3.8"/>
		
			<ellipse transform="matrix(0.9393 -0.3431 0.3431 0.9393 -21.8511 51.7324)" class="st7" cx="135.3" cy="87.6" rx="4.7" ry="3.8"/>
	</g>
	<path class="st6" d="M136.5,110.8c1.6,2.3,2.3,4.6,2.4,6.9c0,0,0,0.1,0,0.1c0.8,3.4-3.3,11.8-3.3,11.8s0.1-1.2,0.2-2.9
		c-1,2.7-2.3,5.1-2.3,5.1s0.2-1.4,0.3-3.4c-0.9,1.7-1.7,3-1.7,3s0.3-1.3,0.6-3.1c-0.2,0.1-0.4,0.2-0.7,0.3c0,0-8,2.7-13.3,2.3
		c-1.7,1.2-3.2,2.1-3.2,2.1s0.6-0.8,1.4-2c-1,0.7-1.7,1.1-1.7,1.1s0.2-0.3,0.6-0.8c-1.8,1.3-3.4,2.2-3.4,2.2s0.8-1.1,1.8-2.6
		c-0.7,0.5-1.3,0.8-1.3,0.8s0.4-0.6,1.1-1.5c-1.3,0.6-2.2,1-2.2,1s1-1,2.2-2.4c-1.5-0.1-2.5-0.2-2.5-0.2s1.1-0.3,2.6-0.9
		c-0.1-0.7,0-1.4,0.2-2.3c1.6-5.7,1.1-10.4-3.5-17.4c-2.2-3.3-2.4-7-1.5-10.1c-1.7-0.1-3.3-0.4-3.3-0.4s2.3-0.4,4-1.3c0,0,0,0,0-0.1
		c-1.6-0.2-3-0.4-3-0.4s2-0.4,3.9-1.1c1.3-1.9,3.1-3.4,5-4l7.5-3.5"/>
	<g>
		<g>
			
				<ellipse transform="matrix(0.9393 -0.3431 0.3431 0.9393 -20.1826 59.6798)" class="st9" cx="158.6" cy="86.9" rx="10.1" ry="10.1"/>
			
				<ellipse transform="matrix(0.9393 -0.3431 0.3431 0.9393 -20.1826 59.6798)" class="st10" cx="158.6" cy="86.9" rx="7.5" ry="7.5"/>
			<ellipse transform="matrix(0.9393 -0.3431 0.3431 0.9393 -19.9453 59.2292)" cx="157.4" cy="86" rx="5.4" ry="5.4"/>
			
				<ellipse transform="matrix(0.9393 -0.3431 0.3431 0.9393 -18.6224 58.9701)" class="st11" cx="157.4" cy="82.1" rx="0.6" ry="0.6"/>
			
				<ellipse transform="matrix(0.9393 -0.3431 0.3431 0.9393 -19.3098 59.9566)" class="st11" cx="159.8" cy="84.6" rx="1.8" ry="1.8"/>
		</g>
		<g>
			
				<ellipse transform="matrix(0.9393 -0.3431 0.3431 0.9393 -25.1728 51.0697)" class="st9" cx="131.8" cy="96.7" rx="10.1" ry="10.1"/>
			
				<ellipse transform="matrix(0.9393 -0.3431 0.3431 0.9393 -25.1728 51.0697)" class="st10" cx="131.8" cy="96.7" rx="7.5" ry="7.5"/>
			<ellipse transform="matrix(0.9393 -0.3431 0.3431 0.9393 -24.9356 50.6191)" cx="130.6" cy="95.8" rx="5.4" ry="5.4"/>
			
				<ellipse transform="matrix(0.9393 -0.3431 0.3431 0.9393 -23.6126 50.36)" class="st11" cx="130.5" cy="91.9" rx="0.6" ry="0.6"/>
			<ellipse transform="matrix(0.9393 -0.3431 0.3431 0.9393 -24.3 51.3465)" class="st11" cx="133" cy="94.4" rx="1.8" ry="1.8"/>
		</g>
	</g>
	<path class="st12" d="M157.5,100l1.7,9.5c1.4,3.8-0.4,8-4.1,9.4h0c-3.7,1.3-7.8-0.7-9.2-4.5L141,106"/>
	<path d="M156.4,118.4l-2.7,1c-2.9,1.1-6.1-0.4-7.2-3.3l0,0c-0.7-1.9,0.3-4.1,2.2-4.8l6.3-2.3c1.9-0.7,4.1,0.3,4.8,2.2v0
		C160.8,114.1,159.3,117.3,156.4,118.4z"/>
</g>
</svg>
