<?xml version="1.0" encoding="utf-8"?>
<!-- Generator: Adobe Illustrator 21.1.0, SVG Export Plug-In . SVG Version: 6.00 Build 0)  -->
<svg version="1.1" id="Layer_1" xmlns="http://www.w3.org/2000/svg" xmlns:xlink="http://www.w3.org/1999/xlink" x="0px" y="0px"
	 viewBox="0 0 438.7 391.9" style="enable-background:new 0 0 438.7 391.9;" xml:space="preserve">
<style type="text/css">
	.st0{fill:#F2C91D;}
	.st1{fill:#C49A6C;}
	.st2{fill:none;stroke:#F5D44A;stroke-width:3;stroke-miterlimit:10;}
	.st3{fill:none;stroke:#F5D44A;stroke-width:2.3472;stroke-miterlimit:10;}
	.st4{fill:#BE1E2D;}
	.st5{fill:#8F1622;}
	.st6{fill:#3A3434;stroke:#000000;stroke-width:1.1583;stroke-linecap:round;stroke-miterlimit:10;}
	.st7{fill:#D89839;}
	.st8{fill:none;stroke:#000000;stroke-width:1.7374;stroke-linecap:round;stroke-miterlimit:10;}
	.st9{fill:#FFFFFF;stroke:#000000;stroke-width:1.174;stroke-miterlimit:10;}
	.st10{fill:#3C2415;stroke:#000000;stroke-width:1.174;stroke-miterlimit:10;}
	.st11{fill:#FFFFFF;}
	.st12{fill:#3A3434;stroke:#000000;stroke-width:1.7374;stroke-linecap:round;stroke-miterlimit:10;}
</style>
<g>
	<path class="st0" d="M424.3,333.6c-5.8-16.8-7.1-16.3-12.9-33.1c-5.8-16.8-3.4-17.6-9.2-34.4c-5.8-16.8-10.7-15.1-16.6-31.9
		c-5.8-16.8-7.6-16.2-13.4-32.9c-5.8-16.8-3.7-17.5-9.5-34.3c-5.8-16.8-1.9-18.1-7.7-34.9c-5.8-16.8-7.8-16.1-13.6-32.9
		s-7.3-16.1-14.9-32.2c-2.6,3.6-3.3,7-7.5,9.2c-14,7.3-29.2-1.5-37.4-14.6c-2.4,2.7-6.4,10.4-9.7,12.1c-14.7,7.7-36.8,0.6-44.5-14.1
		c-1.8-3.5-0.3-8.2-0.7-11.9C213,52.2,198.9,45.2,192,32c-3.6-6.8-5.4-13.8-3.7-20.7c-5.1-0.3-13-3.7-17.3-6.4
		c-10.6,15.2-5.4,18.6-13.8,35.1c-8.4,16.5-11.1,15.1-19.5,31.7c-8.4,16.5-5.8,17.9-14.2,34.4c-8.4,16.5-8.4,16.5-16.8,33.1
		c-8.4,16.5-6,17.7-14.4,34.3c-8.4,16.5-8.6,16.4-17,33c-8.4,16.5-10.4,15.5-18.8,32c-8.4,16.5-9.6,15.9-18,32.5s-10,15.8-18.1,32.5
		c-1.7,4.9,4.3,11.3,9.5,11.3c17.5,1.2,17.2,5.2,34.7,6.5c17.5,1.4,17.5,0.9,35,2.3c17.5,1.4,17.5,1.9,34.9,3.2
		c17.5,1.4,17.9-4.1,35.4-2.7c17.5,1.4,17.6-0.3,35.1,1c17.5,1.4,17.5,0.6,35,2c17.5,1.4,17.3,3.9,34.8,5.3c17.5,1.4,17.5,1.6,35,3
		c17.5,1.4,17.1,6.5,34.6,7.8c17.5,1.4,17.6,0.2,35.1,1.6c17.5,1.4,17.8-3.4,35.3-2.2C419.9,342.4,426,338.5,424.3,333.6z"/>
</g>
<g>
	<path class="st1" d="M435.4,370.8c-1.5,18.2-11.4,8-35.1,11.8c-10,1.6-22.5,2.6-36.7,3.8c-10.9,1-23.3,2.2-36.7,2.6
		c-11.3,0.3-23.6-2.5-36.7-2.8c-11.5-0.2-23.4-5.6-36.3-6.4c-11.6-0.8-23.9,1.2-36.6-0.2c-11.5-1.2-23.1-5.4-35.4-7.3
		c-11.8-1.9-24.8,1.9-36.7-0.4c-12-2.3-22.8-10.3-34.3-12.9c-12.3-2.7-23.8-6.7-34.9-9.4c-13-3.2-25.7-3.1-35.8-5.8
		c-21.4-5.6-31,9.2-33.3-8.7c-1.8-14-0.6-14.3,4.2-27.6S15.2,293,25,282.8c11.7-12.3,11.9,2.7,32.4,7.6c9.5,2.3,20.4,5.8,32.9,8.5
		c10.3,2.2,20.9,7.3,32.7,9.5c10.7,2,22.3,2.3,33.8,4.1c10.9,1.7,22.2,3.8,33.6,5.2c11.2,1.4,22.6,1.9,33.9,2.8
		c13.1,1,26.3-2.2,39-2.1c13.4,0.1,26.5,3.9,38.9,3.2c13.7-0.7,26.8-2,38.8-3.3c14.5-1.6,27.4-4.5,38.4-6.3
		c23.6-3.8,28.1-25.3,40-10c10.7,13.7,1.2,18.8,7.5,35C433.3,353.4,436.8,353.5,435.4,370.8z"/>
</g>
<g>
	<line class="st2" x1="152.9" y1="288.3" x2="267.2" y2="130.2"/>
	<line class="st2" x1="142.8" y1="258.5" x2="257" y2="100.4"/>
	<line class="st2" x1="132.6" y1="228.6" x2="243.8" y2="74.8"/>
	<line class="st2" x1="122.5" y1="198.8" x2="219.2" y2="65"/>
	<line class="st2" x1="112.3" y1="169" x2="202.1" y2="44.8"/>
</g>
<g>
	<line class="st3" x1="175.4" y1="256.8" x2="283" y2="308.5"/>
	<line class="st3" x1="196.6" y1="238.5" x2="304.2" y2="290.2"/>
	<line class="st3" x1="217.8" y1="220.1" x2="325.4" y2="271.8"/>
	<line class="st3" x1="239" y1="201.8" x2="346.6" y2="253.5"/>
	<line class="st3" x1="260.2" y1="183.4" x2="367.8" y2="235.2"/>
</g>
<g>
	<path class="st4" d="M319.7,212.8c-12.9,7.3-26.4,9.4-39.6,5.7c-13.2-3.6-29-9.4-36.3-22.3c-7.3-12.9-6.9-30.2-3.2-43.4
		c3.6-13.2,15.6-22.3,28.5-29.5c12.9-7.3,25.2-7.2,38.4-3.6c13.2,3.6,22.5,10.7,29.8,23.6c7.3,12.9,9.9,24.8,6.2,38
		C339.8,194.5,332.6,205.5,319.7,212.8z"/>
</g>
<g>
	<path class="st5" d="M291.8,157.5c-3.9-0.5-8.4-2.3-11.3-4.5c-3-2.3-2-7.9-3.4-11.4c-1.4-3.4-4.9-6.3-4.4-10.2
		c0.5-3.9,1.4-8.3,3.6-11.2c2.3-3,6.8-4,10.3-5.5c3.4-1.4,6.8-1.2,10.7-0.8c3.9,0.5,6.6,2.1,9.5,4.3c3,2.3,5.8,4.3,7.3,7.8
		c1.4,3.4,0.5,6.7,0,10.6c-0.5,3.9-0.8,7.1-3,10c-2.3,3-4.3,6.7-7.7,8.2C300.1,156.2,295.7,158,291.8,157.5z"/>
</g>
<g>
	<path class="st5" d="M270,183c-2.3,1.8-4.2,4.8-6.9,5.1c-2.7,0.4-6.3,0.2-8.9-0.8c-2.5-1-5.1-3.4-6.9-5.7c-1.8-2.3-3.3-5.4-3.7-8.1
		c-0.4-2.7,3.2-5,4.2-7.6c1-2.5,1.7-4.4,4-6.2c2.3-1.8,4.1-4,6.7-4.4c2.7-0.4,6.2-1.4,8.8-0.4c2.5,1,5.2,3.4,7,5.7
		c1.8,2.3,3.1,5.6,3.5,8.2c0.4,2.7,0.1,6.3-1,8.9C275.9,180.3,272.3,181.3,270,183z"/>
</g>
<g>
	<path class="st5" d="M283.1,177.7c0.4-4.9,1.2-9.6,3.8-13.4c2.7-3.9,7.1-6,11.4-8c4.1-1.9,8.8-6.7,13.6-6.3
		c4.9,0.4,7.3,7.7,11.1,10.3c3.9,2.7,11.5,2.6,13.5,6.9c1.9,4.1,2.1,10.3,1.7,15.2c-0.4,4.9-3.5,9.7-6.1,13.4
		c-2.7,3.9-5.9,9.1-10.2,11.1c-4.1,1.9-10.3,3.1-15.2,2.6c-4.9-0.4-9.1-5.1-12.8-7.7c-3.9-2.7-7.2-6.3-9.2-10.6
		C282.7,187.3,282.7,182.6,283.1,177.7z"/>
</g>
<g>
	<path class="st4" d="M206.2,235.4c0.2,14.8-7.6,30.4-17.1,40.2c-9.6,9.8-25.1,10.9-39.9,11.1c-14.8,0.2-29.1-1.9-38.9-11.4
		s-15.8-23.8-16-38.5s6.3-28.3,15.9-38.1s23-13.2,37.8-13.4s29.9,1.3,39.7,10.8C197.5,205.6,206,220.6,206.2,235.4z"/>
</g>
<g>
	<path class="st5" d="M174.5,232.7c-2.3,3.2-3.7,8.1-7.1,9.5c-3.5,1.5-8.1-0.2-11.9-0.6c-3.6-0.4-6.5-2.4-9.7-4.7
		c-3.2-2.3-4.5-5.1-6-8.4c-1.5-3.5-2.8-6.4-2.4-10.1c0.4-3.6,0.8-7.2,3.1-10.3c2.3-3.2,5.6-4.6,8.9-6.1c3.5-1.5,6.5-1.1,10.3-0.7
		c3.6,0.4,6.1,1.4,9.3,3.7c3.2,2.3,6.6,3.7,8,7c1.5,3.5,2.2,7.1,1.8,10.9C178.6,226.4,176.8,229.6,174.5,232.7z"/>
</g>
<g>
	<path class="st5" d="M141.5,207c0.4,2.8-1.4,5.9-2.3,8.4c-1,2.6-2.7,4.9-4.8,6.6c-2.1,1.7-4.9,1.2-7.7,1.6
		c-2.8,0.4-5.3,1.7-7.8,0.8c-2.6-1-6.3-1.4-8.1-3.6c-1.7-2.1-1.9-5.7-2.3-8.6c-0.4-2.8,1.2-5.4,2.1-7.9c1-2.6,1.3-5.8,3.5-7.5
		c2.1-1.7,5.1-2.3,7.9-2.8c2.8-0.4,5.2,1,7.7,2c2.6,1,4.4,2.3,6.1,4.5C137.5,202.6,141,204.2,141.5,207z"/>
</g>
<g>
	<path class="st5" d="M190.9,253.5c-0.8,1.1-1.5,2.1-2.7,2.6c-1.2,0.5-2.5,0.5-3.8,0.4c-1.3-0.1-2.6-0.2-3.8-1
		c-1.1-0.8-2.6-1.6-3.1-2.8c-0.5-1.2,0.4-2.8,0.5-4.2c0.1-1.3,0.3-2.5,1.1-3.6c0.8-1.1,1.7-2.2,2.9-2.7c1.2-0.5,2.5,0.1,3.9,0.3
		c1.3,0.1,2.5,0.1,3.6,0.9c1.1,0.8,1.8,1.8,2.3,3c0.5,1.2,1.4,2.4,1.3,3.8C192.9,251.4,191.7,252.3,190.9,253.5z"/>
</g>
<g>
	<path class="st5" d="M156.3,244.3c0.8,4.8,1.1,9.3-0.5,13.6c-1.7,4.4-3.4,9.6-7,12.5c-3.6,2.9-8.9,3.3-13.8,4
		c-4.8,0.8-10.3,2.6-14.5,0.9c-4.4-1.7-9.6-4.8-12.5-8.5c-2.9-3.6-5.8-9.1-6.6-13.9c-0.8-4.8,3.2-9.9,4.8-14.2
		c1.7-4.4,2.7-10.3,6.4-13.2c3.6-2.9,9.2-4.4,14-5.1c4.8-0.8,8.9,3.3,13.2,4.9c4.4,1.7,9.9,1.7,12.9,5.4
		C155.5,234.3,155.6,239.4,156.3,244.3z"/>
</g>
<g>
	<path class="st6" d="M158.8,250.3l-7.6,2.8c-5.9,2.2-26-16-26-16c-4.7-12.9-3.5-25.2,9.4-29.9l7.5-2.7c13.4-4.9,22.8,4,27.7,17.4
		C169.8,221.9,164.7,248.2,158.8,250.3z"/>
	<path class="st7" d="M158.9,252.7l-5.1,1.9c-6.1,2.2-12.9-0.9-15.2-7l-0.2-0.5c-1.5-4.1,0.6-8.5,4.7-10l12.6-4.6
		c4.1-1.5,8.6,0.6,10,4.7l0.2,0.5C168.2,243.7,165,250.5,158.9,252.7z"/>
	<path class="st8" d="M165.8,237.2l0.2,0.5c2.2,6.1-0.9,12.9-7,15.1l-5.1,1.9c-6.1,2.2-12.9-0.9-15.2-7l-0.2-0.5"/>
	<path class="st6" d="M163.3,232.3c0.3,2.8,1.2,5,2.6,6.8c0,0,0,0.1,0.1,0.1c1.6,3.2,10.1,6.9,10.1,6.9s-0.9-0.8-2-2.1
		c2.6,1.4,5.1,2.5,5.1,2.5s-1.1-1-2.4-2.4c1.8,0.7,3.2,1.1,3.2,1.1s-1.1-0.8-2.4-2c0.2-0.1,0.5-0.1,0.7-0.2c0,0,7.9-3.1,11.7-6.8
		c2.1-0.2,3.8-0.5,3.8-0.5s-1-0.2-2.4-0.6c1.2-0.1,2-0.3,2-0.3s-0.4-0.1-0.9-0.2c2.2-0.2,4-0.5,4-0.5s-1.3-0.3-3.1-0.8
		c0.9-0.1,1.5-0.2,1.5-0.2s-0.7-0.2-1.7-0.4c1.4-0.4,2.3-0.7,2.3-0.7s-1.4-0.1-3.2-0.4c1.1-1,1.8-1.8,1.8-1.8s-1.1,0.5-2.6,1
		c-0.4-0.6-0.9-1.1-1.7-1.6c-4.9-3.3-7.6-7.2-8.5-15.6c-0.4-4-2.6-6.9-5.4-8.6c1.2-1.1,2.3-2.5,2.3-2.5s-2,1.1-3.9,1.6
		c0,0,0,0-0.1,0c1.1-1.2,2-2.2,2-2.2s-1.7,1-3.7,1.6c-2.2-0.6-4.5-0.6-6.4,0.2l-7.9,2.2"/>
	<g>
		
			<ellipse transform="matrix(0.9393 -0.3431 0.3431 0.9393 -64.1304 64.4329)" class="st7" cx="150.1" cy="213.5" rx="4.7" ry="3.8"/>
		
			<ellipse transform="matrix(0.9393 -0.3431 0.3431 0.9393 -66.8751 59.6971)" class="st7" cx="135.3" cy="218.9" rx="4.7" ry="3.8"/>
	</g>
	<path class="st6" d="M136.5,242c1.6,2.3,2.3,4.6,2.4,6.9c0,0,0,0.1,0,0.1c0.8,3.4-3.3,11.8-3.3,11.8s0.1-1.2,0.2-2.9
		c-1,2.7-2.3,5.1-2.3,5.1s0.2-1.4,0.3-3.4c-0.9,1.7-1.7,3-1.7,3s0.3-1.3,0.6-3.1c-0.2,0.1-0.4,0.2-0.7,0.3c0,0-8,2.7-13.3,2.3
		c-1.7,1.2-3.2,2.1-3.2,2.1s0.6-0.8,1.4-2c-1,0.7-1.7,1.1-1.7,1.1s0.2-0.3,0.6-0.8c-1.8,1.3-3.4,2.2-3.4,2.2s0.8-1.1,1.8-2.6
		c-0.7,0.5-1.3,0.8-1.3,0.8s0.4-0.6,1.1-1.5c-1.3,0.6-2.2,1-2.2,1s1-1,2.2-2.4c-1.5-0.1-2.5-0.2-2.5-0.2s1.1-0.3,2.6-0.9
		c-0.1-0.7,0-1.4,0.2-2.3c1.6-5.7,1.1-10.4-3.5-17.4c-2.2-3.3-2.4-7-1.5-10.1c-1.7-0.1-3.3-0.4-3.3-0.4s2.3-0.4,4-1.3c0,0,0,0,0-0.1
		c-1.6-0.2-3-0.4-3-0.4s2-0.4,3.9-1.1c1.3-1.9,3.1-3.4,5-4l7.5-3.5"/>
	<g>
		<g>
			
				<ellipse transform="matrix(0.9393 -0.3431 0.3431 0.9393 -65.2066 67.6446)" class="st9" cx="158.6" cy="218.1" rx="10.1" ry="10.1"/>
			
				<ellipse transform="matrix(0.9393 -0.3431 0.3431 0.9393 -65.2066 67.6446)" class="st10" cx="158.6" cy="218.1" rx="7.5" ry="7.5"/>
			<ellipse transform="matrix(0.9393 -0.3431 0.3431 0.9393 -64.9694 67.194)" cx="157.4" cy="217.2" rx="5.4" ry="5.4"/>
			
				<ellipse transform="matrix(0.9393 -0.3431 0.3431 0.9393 -63.6464 66.9349)" class="st11" cx="157.4" cy="213.4" rx="0.6" ry="0.6"/>
			
				<ellipse transform="matrix(0.9393 -0.3431 0.3431 0.9393 -64.3338 67.9214)" class="st11" cx="159.8" cy="215.8" rx="1.8" ry="1.8"/>
		</g>
		<g>
			
				<ellipse transform="matrix(0.9393 -0.3431 0.3431 0.9393 -70.1969 59.0345)" class="st9" cx="131.8" cy="227.9" rx="10.1" ry="10.1"/>
			
				<ellipse transform="matrix(0.9393 -0.3431 0.3431 0.9393 -70.1969 59.0345)" class="st10" cx="131.8" cy="227.9" rx="7.5" ry="7.5"/>
			<ellipse transform="matrix(0.9393 -0.3431 0.3431 0.9393 -69.9596 58.5839)" cx="130.6" cy="227" rx="5.4" ry="5.4"/>
			
				<ellipse transform="matrix(0.9393 -0.3431 0.3431 0.9393 -68.6366 58.3248)" class="st11" cx="130.5" cy="223.2" rx="0.6" ry="0.6"/>
			
				<ellipse transform="matrix(0.9393 -0.3431 0.3431 0.9393 -69.3241 59.3113)" class="st11" cx="133" cy="225.6" rx="1.8" ry="1.8"/>
		</g>
	</g>
	<path class="st12" d="M157.5,231.2l1.7,9.5c1.4,3.8-0.4,8-4.1,9.4h0c-3.7,1.3-7.8-0.7-9.2-4.5l-4.8-8.3"/>
	<path d="M156.4,249.6l-2.7,1c-2.9,1.1-6.1-0.4-7.2-3.3h0c-0.7-1.9,0.3-4.1,2.2-4.8l6.3-2.3c1.9-0.7,4.1,0.3,4.8,2.2l0,0
		C160.8,245.3,159.3,248.5,156.4,249.6z"/>
</g>
<g>
	<path class="st6" d="M289.4,181.9l-6.4-5c-5-3.9-0.3-30.5-0.3-30.5c8.4-10.8,19.5-16.4,30.3-7.9l6.3,4.9c11.3,8.7,8.7,21.4,0,32.7
		C319.3,176.1,294.3,185.8,289.4,181.9z"/>
	<path class="st7" d="M287.4,183.2l-4.3-3.3c-5.2-4-6.1-11.4-2.1-16.6l0.3-0.4c2.6-3.4,7.5-4,11-1.4l10.6,8.2c3.4,2.7,4,7.6,1.4,11
		l-0.3,0.4C300,186.3,292.5,187.2,287.4,183.2z"/>
	<path class="st8" d="M304.2,180.8l-0.3,0.4c-4,5.1-11.4,6.1-16.6,2.1l-4.3-3.3c-5.2-4-6.1-11.4-2.1-16.6l0.3-0.4"/>
	<path class="st6" d="M307.1,176.1c-2.2,1.7-3.6,3.7-4.3,5.8c0,0-0.1,0.1-0.1,0.1c-1.8,3-0.5,12.2-0.5,12.2s0.2-1.2,0.7-2.8
		c0.2,2.9,0.6,5.6,0.6,5.6s0.3-1.4,0.8-3.3c0.4,1.9,0.7,3.3,0.7,3.3s0.1-1.3,0.4-3.2c0.2,0.2,0.4,0.3,0.5,0.5c0,0,6.8,5,12,6.3
		c1.3,1.7,2.4,3,2.4,3s-0.3-1-0.7-2.3c0.7,0.9,1.3,1.6,1.3,1.6s-0.1-0.3-0.3-0.9c1.3,1.8,2.6,3.2,2.6,3.2s-0.5-1.3-0.9-3
		c0.6,0.7,1,1.1,1,1.1s-0.2-0.7-0.6-1.7c1,1,1.8,1.6,1.8,1.6s-0.6-1.2-1.3-2.9c1.4,0.4,2.4,0.6,2.4,0.6s-1-0.6-2.2-1.7
		c0.3-0.6,0.5-1.3,0.5-2.3c0.2-5.9,2.1-10.3,8.7-15.5c3.1-2.5,4.4-5.9,4.5-9.1c1.6,0.4,3.3,0.6,3.3,0.6s-2-1.1-3.4-2.5
		c0,0,0,0,0-0.1c1.6,0.3,2.9,0.5,2.9,0.5s-1.8-1-3.3-2.3c-0.7-2.2-1.9-4.1-3.5-5.3l-6.1-5.6"/>
	<g>
		
			<ellipse transform="matrix(0.6133 -0.7898 0.7898 0.6133 -0.1621 309.4168)" class="st7" cx="315.9" cy="154.9" rx="3.8" ry="4.7"/>
		
			<ellipse transform="matrix(0.6133 -0.7898 0.7898 0.6133 2.6502 295.8893)" class="st7" cx="303.5" cy="145.2" rx="3.8" ry="4.7"/>
	</g>
	<path class="st6" d="M284.6,158.6c-1.1,2.6-2.7,4.4-4.6,5.6c0,0-0.1,0.1-0.1,0.1c-2.5,2.5-11.7,3.5-11.7,3.5s1.1-0.5,2.5-1.4
		c-2.9,0.6-5.6,0.8-5.6,0.8s1.3-0.6,3-1.6c-1.9,0.1-3.4,0.1-3.4,0.1s1.3-0.5,3-1.2c-0.2-0.1-0.4-0.3-0.6-0.4c0,0-6.5-5.3-9.1-10.1
		c-2-0.8-3.5-1.6-3.5-1.6s1,0.1,2.5,0.1c-1.1-0.5-1.8-0.9-1.8-0.9s0.4,0,0.9,0.1c-2.1-0.8-3.7-1.7-3.7-1.7s1.4,0.1,3.2,0.2
		c-0.8-0.4-1.3-0.7-1.3-0.7s0.7,0.1,1.8,0.1c-1.2-0.8-2-1.3-2-1.3s1.3,0.3,3.2,0.6c-0.7-1.3-1.2-2.2-1.2-2.2s0.9,0.8,2.1,1.7
		c0.5-0.4,1.2-0.8,2.1-1c5.7-1.7,9.4-4.6,12.9-12.2c1.6-3.7,4.6-5.8,7.8-6.6c-0.8-1.4-1.4-3-1.4-3s1.6,1.7,3.3,2.7c0,0,0,0,0.1,0
		c-0.7-1.4-1.2-2.7-1.2-2.7s1.4,1.5,3,2.7c2.3,0.1,4.5,0.8,6,2.1l6.9,4.5"/>
	<g>
		<g>
			
				<ellipse transform="matrix(0.6133 -0.7898 0.7898 0.6133 -7.5938 313.6444)" class="st9" cx="316.5" cy="164.6" rx="10.1" ry="10.1"/>
			
				<ellipse transform="matrix(0.6133 -0.7898 0.7898 0.6133 -7.5938 313.6444)" class="st10" cx="316.5" cy="164.6" rx="7.5" ry="7.5"/>
			<ellipse transform="matrix(0.6133 -0.7898 0.7898 0.6133 -6.389 313.1966)" cx="316.7" cy="163.1" rx="5.4" ry="5.4"/>
			
				<ellipse transform="matrix(0.6133 -0.7898 0.7898 0.6133 -3.4647 314.9369)" class="st11" cx="319.9" cy="161" rx="0.6" ry="0.6"/>
			
				<ellipse transform="matrix(0.6133 -0.7898 0.7898 0.6133 -6.4186 315.6346)" class="st11" cx="319.1" cy="164.4" rx="1.8" ry="1.8"/>
		</g>
		<g>
			
				<ellipse transform="matrix(0.6133 -0.7898 0.7898 0.6133 -2.4808 289.05)" class="st9" cx="294" cy="147.1" rx="10.1" ry="10.1"/>
			<ellipse transform="matrix(0.6133 -0.7898 0.7898 0.6133 -2.4808 289.05)" class="st10" cx="294" cy="147.1" rx="7.5" ry="7.5"/>
			<ellipse transform="matrix(0.6133 -0.7898 0.7898 0.6133 -1.276 288.6021)" cx="294.1" cy="145.6" rx="5.4" ry="5.4"/>
			
				<ellipse transform="matrix(0.6133 -0.7898 0.7898 0.6133 1.6483 290.3425)" class="st11" cx="297.3" cy="143.5" rx="0.6" ry="0.6"/>
			
				<ellipse transform="matrix(0.6133 -0.7898 0.7898 0.6133 -1.3055 291.0401)" class="st11" cx="296.6" cy="146.9" rx="1.8" ry="1.8"/>
		</g>
	</g>
	<path class="st12" d="M304.8,170.6l-7.1,6.5c-2.5,3.2-7,3.9-10.1,1.5l0,0c-3.1-2.4-3.6-7-1-10.2l4.5-8.5"/>
	<path d="M288.7,179.5l-2.3-1.8c-2.4-1.9-2.9-5.4-1-7.9v0c1.3-1.6,3.6-1.9,5.2-0.7l5.3,4.1c1.6,1.3,1.9,3.6,0.7,5.2l0,0
		C294.7,180.9,291.2,181.4,288.7,179.5z"/>
</g>
<path class="st11" d="M-272.5-6.4c10.7-8.7,18.9-19.8,23.7-33c17-46.7-16.1-101.6-73.9-122.6s-118.4-0.2-135.4,46.6
	c-5,13.7-5.6,28-2.7,42c-1.7,0.5-3.4,1.2-5,2c-14.7,7.7-20.4,25.8-12.7,40.5c5.1,9.8,14.8,15.5,25.1,16c-1.8,6.9-1.1,14.5,2.4,21.4
	c6.9,13.2,22.3,19.1,36,14.6c0.4,3.7,1.4,7.4,3.3,11c7.7,14.7,25.8,20.4,40.5,12.7c3.4-1.8,6.2-4.1,8.6-6.7
	c8.2,13.1,25.3,17.9,39.3,10.6c5.5-2.9,9.8-7.3,12.5-12.4c8.2,3.8,17.9,3.8,26.5-0.6C-269.7,27.9-264,9.7-271.7-5
	C-271.9-5.5-272.2-5.9-272.5-6.4z"/>
<path class="st11" d="M-204.5,150.8c10.7-8.7,18.9-19.8,23.7-33c17-46.7-16.1-101.6-73.9-122.6S-373.2-5-390.1,41.8
	c-5,13.7-5.6,28-2.7,42c-1.7,0.5-3.4,1.2-5,2c-14.7,7.7-20.4,25.8-12.7,40.5c5.1,9.8,14.8,15.5,25.1,16c-1.8,6.9-1.1,14.5,2.4,21.4
	c6.9,13.2,22.3,19.1,36,14.6c0.4,3.7,1.4,7.4,3.3,11c7.7,14.7,25.8,20.4,40.5,12.7c3.4-1.8,6.2-4.1,8.6-6.7
	c8.2,13.1,25.3,17.9,39.3,10.6c5.5-2.9,9.8-7.3,12.5-12.4c8.2,3.8,17.9,3.8,26.5-0.6c14.7-7.7,20.4-25.8,12.7-40.5
	C-203.9,151.8-204.2,151.3-204.5,150.8z"/>
<path class="st11" d="M-266.5,67.7c10.7-8.7,18.9-19.8,23.7-33c17-46.7-16.1-101.6-73.9-122.6s-118.4-0.2-135.4,46.6
	c-5,13.7-5.6,28-2.7,42c-1.7,0.5-3.4,1.2-5,2c-14.7,7.7-20.4,25.8-12.7,40.5c5.1,9.8,14.8,15.5,25.1,16c-1.8,6.9-1.1,14.5,2.4,21.4
	c6.9,13.2,22.3,19.1,36,14.6c0.4,3.7,1.4,7.4,3.3,11c7.7,14.7,25.8,20.4,40.5,12.7c3.4-1.8,6.2-4.1,8.6-6.7
	c8.2,13.1,25.3,17.9,39.3,10.6c5.5-2.9,9.8-7.3,12.5-12.4c8.2,3.8,17.9,3.8,26.5-0.6c14.7-7.7,20.4-25.8,12.7-40.5
	C-265.9,68.6-266.2,68.1-266.5,67.7z"/>
<g>
	<path class="st4" d="M227.6,60.9c-1.8-3.5-2.5-8.2-2.9-12c-6.6,2.2-14.6,3-20.8,0.7c7.5,9.6,18.5,14.9,29.4,17.7
		C231.2,65.2,229,63.7,227.6,60.9z"/>
</g>
<path class="st11" d="M-230.6,13.8c10.7-8.7,18.9-19.8,23.7-33c17-46.7-16.1-101.6-73.9-122.6s-118.4-0.2-135.4,46.6
	c-5,13.7-5.6,28-2.7,42c-1.7,0.5-3.4,1.2-5,2c-14.7,7.7-20.4,25.8-12.7,40.5c5.1,9.8,14.8,15.5,25.1,16c-1.8,6.9-1.1,14.5,2.4,21.4
	c6.9,13.2,22.3,19.1,36,14.6c0.4,3.7,1.4,7.4,3.3,11c7.7,14.7,25.8,20.4,40.5,12.7c3.4-1.8,6.2-4.1,8.6-6.7
	c8.2,13.1,25.3,17.9,39.3,10.6c5.5-2.9,9.8-7.3,12.5-12.4c8.2,3.8,17.9,3.8,26.5-0.6c14.7-7.7,20.4-25.8,12.7-40.5
	C-230,14.7-230.3,14.3-230.6,13.8z"/>
</svg>
