<?xml version="1.0" encoding="utf-8"?>
<!-- Generator: Adobe Illustrator 21.1.0, SVG Export Plug-In . SVG Version: 6.00 Build 0)  -->
<svg version="1.1" id="Layer_1" xmlns="http://www.w3.org/2000/svg" xmlns:xlink="http://www.w3.org/1999/xlink" x="0px" y="0px"
	 viewBox="0 0 131.1 91.9" style="enable-background:new 0 0 131.1 91.9;" xml:space="preserve">
<style type="text/css">
	.st0{fill:#3A3434;}
	.st1{fill:none;stroke:#000000;stroke-width:3.3198;stroke-linecap:round;stroke-miterlimit:10;}
</style>
<g>
	<path class="st0" d="M15.7,76.8c16.4,10,47.8,10,47.8,10s-1.5-1.1-3-2.3c13.3,4.9,27.2-4.2,27.2-4.2s-6.8-1.2-8.2-1.6
		c-0.3-0.1-0.7-0.2-1-0.4c0.1,0,0.1,0,0.2-0.1c12.4,1.7,23.6-6.8,23.6-6.8s-2.5-0.3-4.8-0.5c8.5-3.8,13.9-11,13.9-11
		s-4.7,0.8-7.2,1.1c12.7-6,16.2-22.1,16.2-22.1s-2.2,1.5-4.2,2.9c6.1-6.7,8.8-14.6,8.8-14.6s-3.7,3-6.4,4.9c0.2-0.4,0.3-0.8,0.5-1.3
		c4.5-6.4,6-13.2,6-13.2s-1.1,0.8-2.5,1.7c2-8.2,2.5-13.9,2.5-13.9s-15.1,13.2-18.8,15.8C74.8,43.2,2.5,51,2.5,51"/>
	<path class="st1" d="M20,79c16.4,10,43.6,7.7,43.6,7.7s-1.5-1.1-3-2.3c13.3,4.9,27.2-4.2,27.2-4.2s-6.8-1.2-8.2-1.6
		c-0.3-0.1-0.7-0.2-1-0.4c0.1,0,0.1,0,0.2-0.1c12.4,1.7,23.6-6.8,23.6-6.8s-2.5-0.3-4.8-0.5c8.5-3.8,13.9-11,13.9-11
		s-4.7,0.8-7.2,1.1c12.7-6,16.2-22.1,16.2-22.1s-2.2,1.5-4.2,2.9c6.1-6.7,8.8-14.6,8.8-14.6s-3.7,3-6.4,4.9c0.2-0.4,0.3-0.8,0.5-1.3
		c4.5-6.4,6-13.2,6-13.2s-1.1,0.8-2.5,1.7c2-8.2,2.5-13.9,2.5-13.9s-15.1,13.2-18.8,15.8C74.8,43.2,7.8,50.4,7.8,50.4"/>
</g>
</svg>
