<?xml version="1.0" encoding="utf-8"?>
<!-- Generator: Adobe Illustrator 21.1.0, SVG Export Plug-In . SVG Version: 6.00 Build 0)  -->
<svg version="1.1" id="Layer_1" xmlns="http://www.w3.org/2000/svg" xmlns:xlink="http://www.w3.org/1999/xlink" x="0px" y="0px"
	 viewBox="0 0 1400 174.3" style="enable-background:new 0 0 1400 174.3;" xml:space="preserve">
<g>
	<path d="M57.5,174.3c-17.1,0-30.9-5.4-41.6-16.1C5.3,147.4,0,133,0,115.1v-3.3c0-12,2.3-22.7,6.9-32.1c4.6-9.4,11.1-16.8,19.5-22
		c8.4-5.3,17.7-7.9,28-7.9c16.3,0,29,5.2,37.9,15.6c8.9,10.4,13.4,25.2,13.4,44.3v10.9H27.2c0.8,9.9,4.1,17.8,9.9,23.5
		c5.8,5.8,13.1,8.7,21.9,8.7c12.4,0,22.4-5,30.2-15l14.5,13.9c-4.8,7.2-11.2,12.7-19.3,16.7C76.5,172.3,67.5,174.3,57.5,174.3z
		 M54.3,71.4c-7.4,0-13.4,2.6-17.9,7.8c-4.5,5.2-7.5,12.4-8.7,21.6H79v-2c-0.6-9-3-15.8-7.2-20.5C67.6,73.7,61.7,71.4,54.3,71.4z"/>
	<path d="M169.7,91.5L192.5,52h30l-36.7,59.1l37.9,60.9H194L170,131L146.1,172h-30l37.9-60.9L117.5,52h29.7L169.7,91.5z"/>
	<path d="M240.9,20.7c0-4.2,1.3-7.6,3.9-10.4c2.6-2.8,6.4-4.1,11.3-4.1c4.9,0,8.7,1.4,11.3,4.1s4,6.2,4,10.4c0,4.1-1.3,7.5-4,10.2
		c-2.7,2.7-6.4,4.1-11.3,4.1c-4.9,0-8.6-1.4-11.3-4.1C242.2,28.2,240.9,24.8,240.9,20.7z M269.5,172h-27V52h27V172z"/>
	<path d="M366.2,139.4c0-4.8-2-8.5-5.9-11c-4-2.5-10.5-4.7-19.7-6.7c-9.2-1.9-16.8-4.4-23-7.3c-13.5-6.5-20.2-15.9-20.2-28.3
		c0-10.4,4.4-19,13.1-26c8.7-7,19.8-10.4,33.3-10.4c14.4,0,25.9,3.6,34.8,10.7c8.8,7.1,13.3,16.3,13.3,27.6h-27
		c0-5.2-1.9-9.5-5.8-12.9c-3.8-3.4-9-5.2-15.3-5.2c-5.9,0-10.7,1.4-14.5,4.1c-3.7,2.7-5.6,6.4-5.6,11c0,4.1,1.7,7.4,5.2,9.7
		c3.5,2.3,10.5,4.6,21.1,6.9c10.6,2.3,18.9,5.1,24.9,8.3c6,3.2,10.5,7.1,13.4,11.6c2.9,4.5,4.4,10,4.4,16.4
		c0,10.8-4.5,19.5-13.4,26.2c-9,6.7-20.7,10-35.2,10c-9.8,0-18.6-1.8-26.3-5.3c-7.7-3.6-13.7-8.4-18-14.6
		c-4.3-6.2-6.4-12.9-6.4-20.1h26.2c0.4,6.4,2.8,11.3,7.2,14.7c4.4,3.4,10.3,5.2,17.6,5.2c7.1,0,12.5-1.3,16.2-4.1
		C364.3,147.3,366.2,143.8,366.2,139.4z"/>
	<path d="M449.9,22.8V52h21.2v20h-21.2v67c0,4.6,0.9,7.9,2.7,9.9c1.8,2,5,3.1,9.7,3.1c3.1,0,6.3-0.4,9.4-1.1v20.9
		c-6.1,1.7-12.1,2.6-17.8,2.6c-20.7,0-31.1-11.4-31.1-34.3V72h-19.8V52H423V22.8H449.9z"/>
	<path d="M544.6,174.3c-17.1,0-30.9-5.4-41.6-16.1c-10.6-10.8-15.9-25.1-15.9-43v-3.3c0-12,2.3-22.7,6.9-32.1
		c4.6-9.4,11.1-16.8,19.5-22c8.4-5.3,17.7-7.9,28-7.9c16.3,0,29,5.2,37.9,15.6c8.9,10.4,13.4,25.2,13.4,44.3v10.9h-78.4
		c0.8,9.9,4.1,17.8,9.9,23.5c5.8,5.8,13.1,8.7,21.9,8.7c12.4,0,22.4-5,30.2-15l14.5,13.9c-4.8,7.2-11.2,12.7-19.3,16.7
		C563.6,172.3,554.6,174.3,544.6,174.3z M541.4,71.4c-7.4,0-13.4,2.6-17.9,7.8c-4.6,5.2-7.5,12.4-8.7,21.6h51.4v-2
		c-0.6-9-3-15.8-7.2-20.5C554.7,73.7,548.9,71.4,541.4,71.4z"/>
	<path d="M638.7,52l0.8,13.9c8.9-10.7,20.5-16.1,35-16.1c25,0,37.7,14.3,38.2,42.9V172h-27V94.3c0-7.6-1.6-13.3-4.9-16.9
		c-3.3-3.7-8.7-5.5-16.1-5.5c-10.9,0-19,4.9-24.3,14.8V172h-27V52H638.7z"/>
	<path d="M773.8,22.8V52H795v20h-21.2v67c0,4.6,0.9,7.9,2.7,9.9c1.8,2,5,3.1,9.7,3.1c3.1,0,6.2-0.4,9.4-1.1v20.9
		c-6.1,1.7-12.1,2.6-17.8,2.6c-20.7,0-31.1-11.4-31.1-34.3V72h-19.8V52h19.8V22.8H773.8z"/>
	<path d="M815.7,20.7c0-4.2,1.3-7.6,3.9-10.4c2.6-2.8,6.4-4.1,11.3-4.1c4.9,0,8.7,1.4,11.3,4.1c2.7,2.8,4,6.2,4,10.4
		c0,4.1-1.3,7.5-4,10.2c-2.7,2.7-6.4,4.1-11.3,4.1c-4.9,0-8.6-1.4-11.3-4.1C817,28.2,815.7,24.8,815.7,20.7z M844.3,172h-27V52h27
		V172z"/>
	<path d="M945.4,172c-1.2-2.3-2.2-6-3.1-11.2c-8.6,9-19.1,13.4-31.5,13.4c-12.1,0-21.9-3.4-29.5-10.3c-7.6-6.9-11.4-15.4-11.4-25.5
		c0-12.8,4.8-22.6,14.3-29.5c9.5-6.8,23.1-10.3,40.8-10.3h16.5v-7.9c0-6.2-1.7-11.2-5.2-14.9c-3.5-3.7-8.8-5.6-15.9-5.6
		c-6.1,0-11.2,1.5-15.1,4.6c-3.9,3.1-5.9,7-5.9,11.7h-27c0-6.6,2.2-12.7,6.5-18.5c4.4-5.7,10.3-10.2,17.8-13.5
		c7.5-3.3,15.9-4.9,25.1-4.9c14.1,0,25.3,3.5,33.6,10.6c8.4,7.1,12.6,17,12.9,29.8v54.1c0,10.8,1.5,19.4,4.5,25.9v1.9H945.4z
		 M915.8,152.6c5.3,0,10.3-1.3,15-3.9c4.7-2.6,8.2-6.1,10.6-10.4v-22.6h-14.5c-10,0-17.5,1.7-22.5,5.2c-5,3.5-7.5,8.4-7.5,14.8
		c0,5.2,1.7,9.3,5.2,12.4C905.4,151.1,910,152.6,915.8,152.6z"/>
	<path d="M1025.3,172h-27V1.6h27V172z"/>
	<path d="M1054.7,20.7c0-4.2,1.3-7.6,3.9-10.4c2.6-2.8,6.4-4.1,11.3-4.1c4.9,0,8.7,1.4,11.3,4.1s4,6.2,4,10.4c0,4.1-1.3,7.5-4,10.2
		c-2.7,2.7-6.4,4.1-11.3,4.1c-4.9,0-8.6-1.4-11.3-4.1C1056,28.2,1054.7,24.8,1054.7,20.7z M1083.3,172h-27V52h27V172z"/>
	<path d="M1180,139.4c0-4.8-2-8.5-5.9-11c-4-2.5-10.5-4.7-19.7-6.7c-9.2-1.9-16.8-4.4-23-7.3c-13.5-6.5-20.2-15.9-20.2-28.3
		c0-10.4,4.4-19,13.1-26c8.7-7,19.8-10.4,33.3-10.4c14.3,0,25.9,3.6,34.8,10.7c8.8,7.1,13.3,16.3,13.3,27.6h-27
		c0-5.2-1.9-9.5-5.8-12.9c-3.8-3.4-9-5.2-15.3-5.2c-5.9,0-10.7,1.4-14.5,4.1c-3.7,2.7-5.6,6.4-5.6,11c0,4.1,1.7,7.4,5.2,9.7
		c3.5,2.3,10.5,4.6,21.1,6.9c10.6,2.3,18.9,5.1,24.9,8.3c6,3.2,10.5,7.1,13.4,11.6c2.9,4.5,4.4,10,4.4,16.4
		c0,10.8-4.5,19.5-13.4,26.2c-9,6.7-20.7,10-35.2,10c-9.8,0-18.6-1.8-26.3-5.3c-7.7-3.6-13.7-8.4-18-14.6
		c-4.3-6.2-6.4-12.9-6.4-20.1h26.2c0.4,6.4,2.8,11.3,7.2,14.7c4.4,3.4,10.3,5.2,17.6,5.2c7.1,0,12.5-1.3,16.2-4.1
		C1178.1,147.3,1180,143.8,1180,139.4z"/>
	<path d="M1255.3,52l0.8,12.5c8.4-9.8,20-14.8,34.6-14.8c16.1,0,27,6.1,33,18.4c8.7-12.3,21-18.4,36.8-18.4c13.2,0,23.1,3.7,29.6,11
		c6.5,7.3,9.8,18.1,9.9,32.4V172h-27V93.9c0-7.6-1.7-13.2-5-16.8s-8.8-5.3-16.5-5.3c-6.1,0-11.2,1.6-15,4.9
		c-3.9,3.3-6.6,7.6-8.2,12.9l0.1,82.3h-27V93c-0.4-14.1-7.6-21.2-21.6-21.2c-10.8,0-18.5,4.4-23,13.2v87h-27V52H1255.3z"/>
</g>
</svg>
