<?xml version="1.0" encoding="utf-8"?>
<!-- Generator: Adobe Illustrator 21.1.0, SVG Export Plug-In . SVG Version: 6.00 Build 0)  -->
<svg version="1.1" id="Layer_1" xmlns="http://www.w3.org/2000/svg" xmlns:xlink="http://www.w3.org/1999/xlink" x="0px" y="0px"
	 viewBox="0 0 57.7 88" style="enable-background:new 0 0 57.7 88;" xml:space="preserve">
<style type="text/css">
	.st0{fill:#543421;}
	.st1{fill:none;stroke:#0A3D23;stroke-width:1.0668;stroke-linecap:round;stroke-linejoin:round;}
</style>
<path class="st0" d="M22.2,87.1c2.8,0.2,3.8-0.4,3.8-0.4s1.9,0.2,2.7-0.3c0,0,1.4,0.3,2.9-0.3c0.9-0.3,1.5-0.8,1.5-0.8
	s4.8-0.8,5-1.7c0.1-0.3-0.1-0.7-0.1-0.7s-0.2-7.8,1.5-9.1s-23.2-0.3-23.1,1S17.3,85,17.3,85c0.1,0.7,0.7,1.2,2.5,1.3
	C19.8,86.2,19.4,86.9,22.2,87.1z"/>
<g>
	<g>
		<polyline class="st1" points="7.6,77.1 1.2,77.1 28.4,75.9 2.7,75.9 48.9,74.6 2.5,74.6 54.8,73.4 3.9,73.4 53.4,72.2 4.2,72.2 
			53.1,71.1 5.3,71.1 54.6,69.9 5.6,69.9 53.9,68.7 3.8,68.7 53.2,67.5 6.9,67.5 50.3,66.3 6.1,66.3 50.2,65.1 6.4,65.1 52.3,63.9 
			7.1,63.9 49.8,62.7 7.8,62.7 49.8,61.5 7.7,61.5 48.7,60.3 6.3,60.3 49.1,59.1 7.7,59.1 47.5,57.9 8.3,57.9 47.9,56.7 10,56.7 
			46.5,55.5 9.9,55.5 46.7,54.3 9.4,54.3 47.1,53.1 9.5,53.1 47.2,51.9 11.6,51.9 45.4,50.7 11.5,50.7 46.4,49.6 12.7,49.6 
			45.6,48.4 10.7,48.4 43.6,47.2 10.5,47.2 44.4,46 13.7,46 44.5,44.8 12.9,44.8 43.6,43.5 12.4,43.5 42.6,42.4 11.9,42.4 
			41.3,41.2 12.7,41.2 41.3,40 14.5,40 41,38.8 16,38.8 39.8,37.6 16.4,37.6 39.1,36.4 15.8,36.4 39.7,35.2 15.7,35.2 38.1,34 
			15.6,34 37.3,32.8 14.9,32.8 37.8,31.6 18.4,31.6 36.6,30.5 18.8,30.5 38.6,29.3 16.4,29.3 37.2,28.1 16.7,28.1 37,26.9 
			18.2,26.9 34.8,25.7 17.4,25.7 34.6,24.5 18,24.5 34,23.3 18.4,23.3 35,22.2 21.3,22.2 33.9,21 19,21 33.3,19.8 21.2,19.8 
			32.3,18.6 21.1,18.6 34.1,17.3 20.8,17.3 31.3,16.2 23.4,16.2 31.1,15 23.4,15 32.2,13.8 22.5,13.8 32.4,12.6 23.5,12.6 30,11.4 
			21.8,11.4 31.5,10.2 23.3,10.2 30.4,9 23.1,9 28.8,7.8 23.8,7.8 29.3,6.6 24.3,6.6 28,5.4 23.7,5.4 29,4.2 25.5,4.2 26.5,3.1 
			24.7,3.1 26.7,1.9 26.4,1.9 		"/>
	</g>
</g>
</svg>
