<?xml version="1.0" encoding="utf-8"?>
<!-- Generator: Adobe Illustrator 21.1.0, SVG Export Plug-In . SVG Version: 6.00 Build 0)  -->
<svg version="1.1" id="Layer_1" xmlns="http://www.w3.org/2000/svg" xmlns:xlink="http://www.w3.org/1999/xlink" x="0px" y="0px"
	 viewBox="0 0 1267.3 344" style="enable-background:new 0 0 1267.3 344;" xml:space="preserve">
<style type="text/css">
	.st0{fill:none;stroke:#009345;stroke-width:3.415;stroke-linecap:round;stroke-linejoin:round;}
	.st1{fill:none;stroke:#0A3D23;stroke-width:3.0239;stroke-linecap:round;stroke-linejoin:round;}
	.st2{fill:none;stroke:#006838;stroke-width:2.1193;stroke-linecap:round;stroke-linejoin:round;}
	.st3{fill:none;stroke:#006838;stroke-width:3.415;stroke-linecap:round;stroke-linejoin:round;}
	.st4{fill:none;stroke:#009345;stroke-width:2.2714;stroke-linecap:round;stroke-linejoin:round;}
	.st5{fill:none;stroke:#0A3D23;stroke-width:3.2988;stroke-linecap:round;stroke-linejoin:round;}
	.st6{fill:none;stroke:#0A3D23;stroke-width:3.415;stroke-linecap:round;stroke-linejoin:round;}
	.st7{fill:none;stroke:#006838;stroke-width:2.4996;stroke-linecap:round;stroke-linejoin:round;}
	.st8{fill:none;stroke:#0A3D23;stroke-width:4.2046;stroke-linecap:round;stroke-linejoin:round;}
	.st9{fill:none;stroke:#006838;stroke-width:2.2262;stroke-linecap:round;stroke-linejoin:round;}
	.st10{fill:none;stroke:#006838;stroke-width:3.1752;stroke-linecap:round;stroke-linejoin:round;}
	.st11{fill:none;stroke:#0A3D23;stroke-width:2.9653;stroke-linecap:round;stroke-linejoin:round;}
	.st12{fill:none;stroke:#0A3D23;stroke-width:2.1023;stroke-linecap:round;stroke-linejoin:round;}
	.st13{fill:none;stroke:#006838;stroke-width:3.234;stroke-linecap:round;stroke-linejoin:round;}
	.st14{fill:none;stroke:#009345;stroke-width:2.8826;stroke-linecap:round;stroke-linejoin:round;}
	.st15{fill:none;stroke:#0A3D23;stroke-width:3.6218;stroke-linecap:round;stroke-linejoin:round;}
	.st16{fill:none;stroke:#009345;stroke-width:3.5076;stroke-linecap:round;stroke-linejoin:round;}
	.st17{fill:none;stroke:#009345;stroke-width:2.4268;stroke-linecap:round;stroke-linejoin:round;}
	.st18{fill:none;stroke:#006838;stroke-width:2.5392;stroke-linecap:round;stroke-linejoin:round;}
	.st19{fill:none;stroke:#009345;stroke-width:3.3204;stroke-linecap:round;stroke-linejoin:round;}
	.st20{fill:none;stroke:#009345;stroke-width:3.3745;stroke-linecap:round;stroke-linejoin:round;}
	.st21{fill:none;stroke:#006838;stroke-width:3.1933;stroke-linecap:round;stroke-linejoin:round;}
	.st22{fill:none;stroke:#0A3D23;stroke-width:1.8592;stroke-linecap:round;stroke-linejoin:round;}
	.st23{fill:none;stroke:#006838;stroke-width:2.7594;stroke-linecap:round;stroke-linejoin:round;}
	.st24{fill:none;stroke:#0A3D23;stroke-width:2.7334;stroke-linecap:round;stroke-linejoin:round;}
	.st25{fill:none;stroke:#0A3D23;stroke-width:2.929;stroke-linecap:round;stroke-linejoin:round;}
	.st26{fill:none;stroke:#006838;stroke-width:2.9002;stroke-linecap:round;stroke-linejoin:round;}
	.st27{fill:none;stroke:#009345;stroke-width:2.693;stroke-linecap:round;stroke-linejoin:round;}
	.st28{fill:none;stroke:#006838;stroke-width:2.118;stroke-linecap:round;stroke-linejoin:round;}
	.st29{fill:none;stroke:#009345;stroke-width:2.8621;stroke-linecap:round;stroke-linejoin:round;}
</style>
<g>
	<g>
		<polyline class="st0" points="1245.2,259.6 1195.3,258.7 1276.8,255 1197.6,253.6 1276.4,249.9 1197.7,248.5 1277.5,244.7 
			1201.1,243.4 1277.5,239.6 1201.3,238.3 1273.4,234.4 1203.8,233.2 1271.6,229.3 1203.4,228.1 1268.9,224.1 1204.8,223 
			1267.5,219 1207.4,217.9 1266.9,213.8 1208.7,212.8 1265,208.7 1206.8,207.7 1268,203.6 1208.9,202.6 1263.6,198.4 1213.3,197.5 
			1263.9,193.3 1214.6,192.4 1261.5,188.1 1215.1,187.3 1260,183 1217.3,182.2 1259.8,177.8 1216.6,177.1 1259.8,172.7 1216.7,172 
			1256.3,167.5 1220.5,166.9 1252.7,162.4 1222.8,161.8 1251.2,157.2 1221.1,156.7 1250.3,152.1 1225.8,151.6 1249.4,146.9 
			1225.1,146.5 1249,141.8 1227,141.4 1247.2,136.7 1226.9,136.3 1247.6,131.5 1231.2,131.2 1247.3,126.4 1228.1,126.1 
			1242.5,121.2 1229.9,121 1240.7,116 1233.6,115.9 1240.7,110.9 1235.8,110.8 1237.8,105.7 1236.8,105.7 1237.7,100.6 
			1235.2,100.6 		"/>
	</g>
</g>
<g>
	<g>
		<polyline class="st1" points="1208.5,243.3 1163.9,242.5 1252.4,239.5 1167.5,238.1 1248.5,235 1170,233.6 1248.5,230.5 
			1170.8,229.1 1247,225.9 1172,224.6 1245.4,221.4 1173.5,220.1 1243.4,216.8 1177.3,215.6 1244.4,212.3 1176.5,211.1 
			1239.2,207.7 1180.4,206.6 1237.5,203.1 1181.2,202.1 1236.6,198.5 1179.8,197.5 1236.3,194 1184.7,193.1 1235.5,189.5 
			1183.3,188.6 1232.9,184.9 1187.6,184.1 1230.4,180.3 1188,179.5 1228.8,175.7 1188.8,175 1228.9,171.1 1189.6,170.4 
			1225.6,166.5 1194.7,165.9 1225.1,161.9 1194.9,161.3 1222.8,157.3 1195.6,156.8 1222.5,152.7 1196.9,152.3 1219,148.1 
			1199.3,147.8 1216.3,143.6 1202.4,143.3 1213.9,139 1204.9,138.8 1212.1,134.4 1205.2,134.3 1213.9,129.9 1205.8,129.8 
			1210.7,125.3 1208,125.3 		"/>
	</g>
</g>
<g>
	<g>
		<polyline class="st2" points="625.6,209.7 593.8,209.2 643.7,206.8 595.8,206 643,203.6 597.7,202.8 642,200.4 598.5,199.7 
			642.9,197.3 598,196.5 640.8,194.1 597.2,193.3 641.5,190.9 598.2,190.2 639.3,187.7 600,187 638.8,184.5 602,183.9 637.5,181.3 
			601,180.7 637.8,178.1 603.5,177.5 637,174.9 602.3,174.3 636,171.8 603.2,171.2 635.6,168.6 603.2,168 633.1,165.3 604.8,164.9 
			632.4,162.1 607,161.7 632.4,158.9 608.2,158.5 630.8,155.7 608.7,155.4 631,152.6 608.2,152.2 629.9,149.4 609,149 630,146.2 
			610.4,145.9 627.8,143 611.3,142.7 626.7,139.8 609.9,139.5 628.7,136.6 612.9,136.4 626.5,133.4 612.4,133.1 624.9,130.2 
			612.8,130 625.8,127 614.4,126.8 624,123.8 613.4,123.6 624.7,120.6 615.2,120.5 622.3,117.4 615.7,117.3 623.3,114.3 
			616.6,114.2 622.9,111.1 619.1,111 621.8,107.9 618.4,107.8 619.9,104.6 619.3,104.6 		"/>
	</g>
</g>
<g>
	<g>
		<polyline class="st3" points="1179.1,221.7 1133,220.9 1218.1,217.3 1132.2,215.8 1214.7,212.1 1136.9,210.8 1212.9,207 
			1136.9,205.6 1210.8,201.8 1135.3,200.5 1211.9,196.7 1138.7,195.4 1207.1,191.5 1140.3,190.3 1210,186.4 1144,185.3 1208,181.3 
			1141.3,180.1 1207.3,176.1 1143.4,175 1205.5,171 1147.2,170 1200.7,165.8 1146.5,164.8 1203.2,160.7 1147.3,159.7 1197.6,155.5 
			1148.8,154.6 1197.4,150.3 1152.1,149.5 1196.9,145.2 1151.2,144.4 1197,140.1 1153,139.3 1192,134.9 1155.2,134.2 1193,129.8 
			1155.6,129.1 1193.5,124.7 1159.3,124.1 1189.7,119.5 1158.4,118.9 1188.1,114.3 1159.6,113.8 1188,109.2 1160.5,108.7 
			1187.7,104.1 1161.7,103.6 1187.2,98.9 1162.8,98.5 1182.5,93.7 1164.9,93.4 1181.8,88.6 1167.3,88.3 1182.7,83.5 1169.4,83.3 
			1179.9,78.3 1168.4,78.1 1178.3,73.2 1173.2,73.1 1176.7,68 1174.2,68 1175.2,62.9 1174.4,62.9 		"/>
	</g>
</g>
<g>
	<g>
		<polyline class="st4" points="62.1,298.5 28.5,297.9 69.9,295.2 29,294.5 68.9,291.8 31.3,291.2 68.9,288.4 32,287.8 67.5,285 
			31.3,284.4 68.2,281.6 30.3,280.9 65.7,278.1 33.4,277.5 66.9,274.7 31.6,274.1 66,271.3 34.5,270.7 65,267.9 33.2,267.3 
			63.6,264.4 34.2,263.9 65.4,261.1 35.3,260.5 63.5,257.6 35.9,257.1 63.6,254.2 35.1,253.7 62.4,250.7 34.4,250.3 63.1,247.4 
			35.7,246.9 61.7,243.9 37.2,243.5 62.2,240.5 36.3,240.1 61.5,237.1 38.7,236.7 62.4,233.7 37.1,233.3 60.7,230.3 37.8,229.9 
			59.2,226.9 38.7,226.5 58.7,223.5 38.2,223.1 60.3,220.1 39.8,219.8 58.1,216.7 38.8,216.3 58.3,213.3 40,213 59.1,209.9 
			40.5,209.6 56.6,206.5 42.4,206.3 57.6,203.1 43.6,202.9 56.1,199.7 41.2,199.5 54.9,196.3 41.7,196.1 54.2,192.9 44.1,192.7 
			53.6,189.5 43,189.3 53.2,186 45.8,185.9 54.7,182.7 45.2,182.5 54.5,179.2 46.4,179.1 52.3,175.8 46.8,175.7 51.8,172.4 
			46.2,172.3 53.8,169.1 47.5,169 52.4,165.6 48.2,165.5 51.7,162.2 45.9,162.1 51.5,158.8 47.9,158.8 50.4,155.4 48.4,155.4 
			51.6,152.1 49.7,152 49.5,148.6 47.7,148.6 		"/>
	</g>
</g>
<g>
	<g>
		<polyline class="st5" points="28.4,302.3 -19.7,301.5 63.8,298 -17.4,296.6 63.3,293 -17.1,291.6 64.2,288.1 -13.6,286.7 
			64,283.1 -13.3,281.8 59.9,278.2 -10.7,276.9 58,273.2 -10.9,271.9 55.2,268.1 -9.4,267 53.7,263.2 -6.7,262.1 53,258.2 
			-5.4,257.2 51,253.2 -7,252.2 53.6,248.3 -4.8,247.3 49.3,243.3 -0.4,242.4 49.4,238.3 1.1,237.5 46.9,233.4 1.6,232.6 
			45.3,228.4 3.9,227.7 44.9,223.4 3.4,222.7 44.7,218.5 3.6,217.8 41.2,213.5 7.5,212.9 37.6,208.5 9.9,208 36,203.5 8.4,203 
			34.9,198.6 13.1,198.2 34,193.6 12.6,193.2 33.4,188.6 14.6,188.3 31.5,183.7 14.7,183.4 31.7,178.7 18.9,178.5 31.2,173.7 
			16.1,173.5 26.4,168.7 18,168.6 24.6,163.7 21.8,163.7 24.4,158.7 24.1,158.7 		"/>
	</g>
</g>
<g>
	<g>
		<polyline class="st0" points="1056.1,176.2 1011,175.5 1090.1,171.7 1009,170.3 1092.4,166.6 1011.8,165.2 1087.7,161.4 
			1012.3,160.1 1086.3,156.3 1016.4,155.1 1087.3,151.2 1016.8,149.9 1087.7,146.1 1016.5,144.8 1086.5,140.9 1020,139.8 
			1080.7,135.7 1020.2,134.6 1083.2,130.6 1022.4,129.5 1080.6,125.4 1021.8,124.4 1078.5,120.3 1024.1,119.3 1079.1,115.2 
			1023.3,114.2 1074.5,110 1024.8,109.1 1073.2,104.8 1026.3,104 1071.7,99.7 1030,98.9 1072.2,94.5 1028.3,93.8 1068.6,89.4 
			1033.7,88.8 1066.8,84.2 1030.9,83.6 1067.4,79.1 1035.9,78.5 1066.1,73.9 1033.5,73.4 1067.5,68.9 1036.7,68.3 1065.8,63.7 
			1037.9,63.2 1063.7,58.6 1041.5,58.2 1061.6,53.4 1042.5,53.1 1061,48.3 1041.1,47.9 1060.2,43.1 1043.3,42.8 1056.2,37.9 
			1042.9,37.7 1056.5,32.8 1045,32.6 1053.8,27.6 1046.5,27.5 1052.7,22.5 1048.7,22.4 1052.5,17.4 1052.1,17.4 		"/>
	</g>
</g>
<g>
	<g>
		<polyline class="st6" points="1119.4,168.5 1073.3,167.7 1158.4,164 1072.5,162.5 1154.9,158.9 1077.2,157.5 1153.2,153.7 
			1077.2,152.4 1151.1,148.5 1075.6,147.2 1152.2,143.4 1079,142.2 1147.4,138.2 1080.6,137.1 1150.2,133.2 1084.3,132 1148.2,128 
			1081.5,126.8 1147.6,122.9 1083.7,121.7 1145.8,117.7 1087.5,116.7 1141,112.5 1086.8,111.6 1143.5,107.4 1087.5,106.5 
			1137.9,102.2 1089.1,101.4 1137.6,97.1 1092.3,96.3 1137.1,91.9 1091.5,91.1 1137.3,86.8 1093.3,86.1 1132.3,81.6 1095.4,81 
			1133.3,76.5 1095.9,75.9 1133.8,71.4 1099.6,70.8 1129.9,66.2 1098.6,65.7 1128.4,61.1 1099.8,60.6 1128.3,55.9 1100.8,55.5 
			1128,50.8 1102,50.4 1127.4,45.7 1103.1,45.3 1122.8,40.5 1105.2,40.2 1122.1,35.3 1107.6,35.1 1123,30.2 1109.7,30 1120.2,25.1 
			1108.6,24.9 1118.6,19.9 1113.5,19.8 1117,14.8 1114.5,14.7 1115.5,9.6 1114.7,9.6 		"/>
	</g>
</g>
<g>
	<g>
		<polyline class="st7" points="1085.5,186.3 1051.7,185.7 1115.5,183.1 1051.2,181.9 1112.9,179.3 1054.7,178.3 1111.6,175.5 
			1054.7,174.5 1110,171.7 1053.6,170.8 1110.7,168 1056.1,167.1 1107.2,164.2 1057.3,163.3 1109.2,160.5 1060.1,159.6 
			1107.7,156.7 1058.1,155.8 1107.2,152.9 1059.8,152.1 1105.8,149.2 1062.6,148.4 1102.3,145.4 1062.1,144.7 1104,141.7 
			1062.7,141 1099.9,137.8 1063.9,137.2 1099.7,134.1 1066.4,133.5 1099.2,130.3 1065.8,129.7 1099.3,126.6 1067.2,126 
			1095.6,122.8 1068.7,122.3 1096.3,119.1 1069.1,118.6 1096.6,115.3 1071.9,114.9 1093.7,111.5 1071.2,111.1 1092.5,107.8 
			1072.2,107.4 1092.4,104 1072.9,103.6 1092.2,100.2 1073.9,99.9 1091.7,96.5 1074.7,96.2 1088.3,92.7 1076.3,92.5 1087.7,88.9 
			1078.1,88.8 1088.3,85.2 1079.7,85 1086.2,81.4 1078.9,81.3 1085,77.7 1082.6,77.6 1083.7,73.9 1083.3,73.9 		"/>
	</g>
</g>
<g>
	<g>
		<polyline class="st8" points="154.7,327.2 89.7,326.1 192.9,321.6 94.1,319.9 192.4,315.3 97.8,313.7 190.1,309 98.6,307.4 
			187.8,302.6 96.2,301 191,296.3 98.7,294.7 187.3,289.9 100.1,288.4 187.4,283.7 101.9,282.2 180.9,277.3 103.6,275.9 179.1,271 
			109.6,269.7 178.3,264.6 106.8,263.4 178.2,258.3 110.3,257.1 173.7,251.9 109.5,250.8 177.4,245.7 113.4,244.6 172.9,239.3 
			116,238.3 174.2,233 119.1,232.1 168.5,226.6 116.3,225.7 168.5,220.3 121.7,219.5 168.3,214 119.8,213.1 166.4,207.7 
			123.7,206.9 164.4,201.3 122.9,200.6 161.6,194.9 123.7,194.3 161,188.6 125.6,188 160.4,182.3 131.8,181.8 155.6,175.9 
			132.8,175.5 154.3,169.6 131,169.2 152.7,163.3 137.1,163 153.2,157 138.3,156.7 150.4,150.6 136.6,150.4 145.7,144.3 
			139.2,144.1 144.3,137.9 141.5,137.9 144.9,131.6 143.2,131.6 		"/>
	</g>
</g>
<g>
	<g>
		<polyline class="st0" points="1148.9,239.6 1102.8,238.8 1187.9,235.1 1102,233.6 1184.4,229.9 1106.7,228.6 1182.7,224.8 
			1106.7,223.5 1180.6,219.6 1105.1,218.3 1181.7,214.5 1108.5,213.2 1176.9,209.3 1110.1,208.1 1179.8,204.2 1113.8,203.1 
			1177.8,199.1 1111.1,197.9 1177.1,193.9 1113.2,192.8 1175.3,188.8 1117,187.8 1170.5,183.6 1116.3,182.6 1173,178.5 1117,177.5 
			1167.4,173.3 1118.6,172.4 1167.2,168.2 1121.9,167.4 1166.7,163 1121,162.2 1166.8,157.9 1122.8,157.1 1161.8,152.7 
			1124.9,152.1 1162.8,147.6 1125.4,146.9 1163.3,142.5 1129.1,141.9 1159.5,137.3 1128.1,136.7 1157.9,132.2 1129.4,131.7 
			1157.8,127 1130.3,126.5 1157.5,121.9 1131.5,121.4 1156.9,116.8 1132.6,116.3 1152.3,111.6 1134.7,111.3 1151.6,106.4 
			1137.1,106.2 1152.5,101.3 1139.2,101.1 1149.7,96.1 1138.1,95.9 1148.1,91 1143,90.9 1146.5,85.9 1144,85.8 1145,80.7 
			1144.2,80.7 		"/>
	</g>
</g>
<g>
	<g>
		<polyline class="st3" points="149.3,340.5 104.1,339.8 183.2,336 102.1,334.6 185.6,330.9 104.9,329.5 180.8,325.7 105.4,324.4 
			179.4,320.6 109.5,319.4 180.4,315.5 109.9,314.2 180.8,310.4 109.6,309.1 179.6,305.2 113.1,304.1 173.8,300 113.4,298.9 
			176.3,294.9 115.5,293.8 173.7,289.7 114.9,288.7 171.6,284.6 117.3,283.6 172.2,279.5 116.4,278.5 167.6,274.3 117.9,273.4 
			166.3,269.1 119.4,268.3 164.8,264 123.2,263.2 165.3,258.8 121.4,258.1 161.7,253.7 126.8,253.1 160,248.5 124,247.9 
			160.5,243.4 129,242.8 159.2,238.2 126.6,237.7 160.6,233.2 129.8,232.6 158.9,228 131,227.5 156.8,222.9 134.6,222.5 
			154.7,217.7 135.6,217.4 154.1,212.6 134.2,212.2 153.3,207.4 136.4,207.1 149.3,202.2 136,202 149.6,197.1 138.1,196.9 
			147,191.9 139.6,191.8 145.8,186.8 141.8,186.7 145.6,181.7 145.2,181.7 		"/>
	</g>
</g>
<g>
	<g>
		<polyline class="st7" points="73.5,296.6 36.6,296 100.7,293.3 39.2,292.2 97.8,289.5 41,288.5 98.1,285.8 41.3,284.8 97.2,282.1 
			42,281.1 96.2,278.3 42.9,277.4 94.8,274.5 45.7,273.7 96,270.8 44.7,269.9 92,267 47.7,266.2 90.9,263.2 48,262.5 90.5,259.4 
			46.5,258.7 90.7,255.7 50.2,255 90.3,252 48.8,251.3 88.5,248.2 52,247.5 86.8,244.4 52,243.8 85.7,240.6 52.4,240 86.2,236.8 
			52.7,236.2 83.8,233 56.5,232.5 83.7,229.2 56.4,228.7 82.1,225.4 56.6,225 82.2,221.7 57.4,221.2 79.6,217.9 59.1,217.5 
			77.7,214.1 61.3,213.8 76.1,210.3 63,210.1 75,206.5 63,206.3 76.8,202.9 63.1,202.6 73.5,199 66.3,198.9 72.4,195.2 67.4,195.2 
			72.9,191.5 66.9,191.4 71.6,187.7 68.4,187.7 70.7,183.9 70.3,183.9 		"/>
	</g>
</g>
<g>
	<g>
		<polyline class="st9" points="189.2,297.3 158.6,296.8 196.9,294.1 158.1,293.4 196.6,290.7 159.1,290.1 193.7,287.3 160,286.7 
			193.5,284 158.3,283.4 193.4,280.6 161,280.1 194.1,277.3 160,276.7 192.9,273.9 161.9,273.4 194.3,270.6 162.1,270.1 
			193.6,267.3 160.1,266.7 192.7,263.9 161,263.4 192,260.6 161.4,260.1 190.2,257.2 163.2,256.8 190.9,253.9 163.1,253.4 
			190.7,250.6 165,250.1 191.2,247.2 165.4,246.7 189,243.8 165.5,243.4 190.4,240.5 163.6,240 188.5,237.2 166,236.8 187.6,233.8 
			165.4,233.4 187.9,230.4 166.8,230.1 187.8,227.1 167,226.7 188.3,223.7 167.7,223.4 185.4,220.4 169.2,220.1 187.4,217 
			167.3,216.7 185.3,213.7 169,213.4 186.4,210.4 169.6,210.1 185.3,207 170.7,206.8 183.3,203.6 171.3,203.4 183.2,200.3 
			170.1,200.1 182.3,197 171.8,196.8 182.1,193.6 172.7,193.4 182.4,190.3 172.3,190.1 181.8,187 172.9,186.8 181.3,183.6 
			172.3,183.4 182.4,180.2 172.9,180.1 182.2,176.9 173.3,176.7 181.8,173.5 175.1,173.4 179.7,170.1 174.8,170.1 180.7,166.8 
			174.5,166.7 179.5,163.4 175.2,163.3 177.7,160 175,160 178,156.7 175.3,156.7 178,153.4 176.2,153.3 177.6,150 177.6,150 		"/>
	</g>
</g>
<g>
	<g>
		<polyline class="st0" points="109.8,297.1 60.1,296.3 142.9,292.6 59.2,291.1 142.5,287.5 61.7,286.1 142.1,282.3 65.1,281 
			137,277.1 65.4,275.9 136.2,272 64.7,270.7 136.2,266.9 69.4,265.7 134.9,261.7 68,260.5 135.3,256.6 70.9,255.5 132.1,251.4 
			71.7,250.4 130.9,246.3 70.8,245.2 127.8,241.1 76.4,240.2 127.8,235.9 77.6,235.1 128.6,230.8 78.1,230 125.2,225.7 78.1,224.8 
			124.5,220.5 81.6,219.8 124.1,215.4 79.5,214.6 121.9,210.2 81.7,209.5 120.9,205.1 85.3,204.5 118.2,199.9 83,199.3 117.9,194.8 
			88.3,194.3 117.3,189.6 87,189.1 114.9,184.5 90.6,184.1 115.2,179.4 92.4,179 113.6,174.2 90.3,173.8 112.4,169.1 93.7,168.7 
			109.9,163.9 92.5,163.6 105.8,158.7 93,158.5 104.8,153.5 98.7,153.4 105.7,148.4 99.2,148.3 103.4,143.3 99.9,143.2 102.1,138.1 
			100.8,138.1 		"/>
	</g>
</g>
<g>
	<g>
		<polyline class="st10" points="217.9,317.4 176,316.7 251.4,313.3 174.2,311.9 253.5,308.6 176.9,307.2 249.1,303.7 177.4,302.5 
			247.7,299 181.2,297.8 248.6,294.2 181.6,293 248.9,289.4 181.5,288.2 247.7,284.7 184.8,283.6 242.2,279.8 185.1,278.8 
			244.5,275 187.1,274 242,270.2 186.6,269.2 240,265.4 188.9,264.5 240.5,260.6 188.1,259.7 236.2,255.8 189.6,255 234.8,251.1 
			191.1,250.3 233.4,246.3 194.6,245.6 233.8,241.5 193,240.8 230.4,236.7 198.2,236.1 228.7,231.9 195.6,231.3 229.2,227.1 
			200.3,226.6 227.9,222.3 198.1,221.8 229.2,217.6 201.2,217.2 227.5,212.9 202.3,212.4 225.5,208.1 205.7,207.7 223.5,203.3 
			206.7,203 222.8,198.5 205.5,198.2 222,193.7 207.6,193.4 218.3,188.9 207.3,188.7 218.4,184.2 209.3,184 215.9,179.3 
			210.7,179.2 214.8,174.5 212.8,174.5 		"/>
	</g>
</g>
<g>
	<g>
		<polyline class="st11" points="185.9,330.9 142.3,330.1 226.1,327.1 144.9,325.7 226,322.7 146,321.3 222.7,318.1 149,316.8 
			222.6,313.7 152.2,312.4 220.6,309.1 151.8,307.9 221.5,304.7 153.3,303.5 217.1,300.2 156.5,299.1 216.8,295.7 156.2,294.7 
			213.6,291.2 159.9,290.3 213,286.7 158,285.8 212.5,282.3 160.8,281.4 212.5,277.8 164,277 210.9,273.4 164.7,272.6 207.1,268.9 
			167.3,268.2 205.1,264.4 169.2,263.8 205.1,259.9 169.7,259.3 203.7,255.5 170.5,254.9 202.8,251 173.3,250.5 198.3,246.5 
			172.6,246.1 197.8,242 174.7,241.6 197.7,237.6 175.4,237.2 197.1,233.2 176.9,232.8 195,228.7 178,228.4 190.2,224.2 182.6,224 
			189.4,219.7 184.3,219.6 187.7,215.2 185.9,215.2 186.2,210.7 185,210.7 		"/>
	</g>
</g>
<g>
	<g>
		<polyline class="st3" points="1022,170.7 975.2,169.9 1059.1,166.3 975.1,164.8 1057.9,161.1 977.4,159.7 1052.7,155.9 
			979.4,154.6 1051.7,150.7 977.5,149.5 1050.9,145.6 982.4,144.4 1051.3,140.5 981.4,139.3 1048.7,135.3 985,134.2 1050.2,130.2 
			986,129.1 1048.5,125.1 983.7,123.9 1046.4,119.9 985.8,118.9 1044.6,114.8 987.1,113.8 1041,109.6 990.5,108.7 1041.4,104.5 
			991,103.6 1040.5,99.3 994.7,98.5 1040.5,94.2 995.9,93.4 1036.5,89 996.7,88.3 1038,83.9 994.5,83.1 1034.3,78.7 998.9,78.1 
			1032.2,73.6 998.6,73 1031.9,68.4 1001.5,67.9 1031.2,63.3 1002.5,62.8 1031.2,58.2 1004.3,57.7 1026.1,53 1007.2,52.6 
			1028.4,47.9 1005,47.5 1024.5,42.7 1008.3,42.4 1025.4,37.6 1009.9,37.3 1023.2,32.4 1012.4,32.2 1019.3,27.2 1014,27.1 
			1018.4,22.1 1012.7,22 1016.4,16.9 1016.1,16.9 1017,11.8 1015.7,11.8 		"/>
	</g>
</g>
<g>
	<g>
		<polyline class="st7" points="963.5,153.2 925.6,152.5 990,149.9 929,148.8 989.9,146.1 927.5,145 988.6,142.3 929.4,141.3 
			987.9,138.5 929.3,137.5 986.3,134.8 932.9,133.8 983.4,131 931,130.1 983.9,127.3 933.8,126.4 982.4,123.5 936.4,122.7 
			979.9,119.7 934.1,118.9 980.9,115.9 936.4,115.2 978.3,112.1 936.3,111.4 977.4,108.4 938.5,107.7 976.2,104.6 938.4,103.9 
			975,100.8 940.7,100.2 976.3,97.1 942.5,96.5 974.7,93.3 942.2,92.8 970.8,89.5 942.3,89 973.2,85.8 945.3,85.3 972.1,82 
			945.3,81.6 968.7,78.2 946.2,77.8 968.7,74.5 947,74.1 968.8,70.7 948.6,70.4 966.4,66.9 951.5,66.7 966.7,63.2 951,62.9 
			963.9,59.4 951.3,59.2 963,55.7 952.8,55.5 962.8,51.9 952.6,51.7 960.5,48.1 957.1,48 961.3,44.4 954.7,44.3 958.7,40.6 
			958.4,40.6 		"/>
	</g>
</g>
<g>
	<g>
		<polyline class="st12" points="987.3,153.2 956.7,152.7 1007.6,150.4 956.1,149.5 1007.4,147.2 957.7,146.4 1007.2,144.1 
			959.7,143.2 1004,140.8 959.9,140.1 1003.5,137.7 959.5,136.9 1003.5,134.6 962.4,133.9 1002.7,131.4 961.5,130.7 1002.9,128.2 
			963.4,127.5 1001,125 963.8,124.4 1000.2,121.8 963.2,121.2 998.3,118.6 966.7,118.1 998.3,115.4 967.5,114.9 998.8,112.3 
			967.8,111.8 996.7,109.1 967.8,108.6 996.3,106 969.9,105.5 996,102.8 968.6,102.3 994.7,99.6 970,99.2 994.1,96.5 972.2,96.1 
			992.4,93.3 970.8,92.9 992.2,90.1 974.1,89.8 991.8,86.9 973.2,86.6 990.3,83.7 975.5,83.5 990.5,80.6 976.6,80.3 989.5,77.4 
			975.3,77.1 988.8,74.2 977.4,74 987.3,71 976.7,70.8 984.8,67.8 977,67.7 984.2,64.7 980.5,64.6 984.7,61.5 980.7,61.5 
			983.3,58.4 981.2,58.3 982.5,55.2 981.7,55.2 		"/>
	</g>
</g>
<g>
	<g>
		<polyline class="st11" points="349.6,305 309.5,304.3 393.2,301.4 309.3,299.9 390.6,296.9 313.1,295.5 390.1,292.5 312.7,291.1 
			388.4,288 314.6,286.7 384.2,283.5 314.3,282.3 384.6,279 315.5,277.8 383.4,274.5 320.7,273.4 382.7,270.1 319.6,269 
			381.6,265.6 321,264.6 379.4,261.1 323,260.2 378,256.7 323.5,255.8 373.4,252.2 327.1,251.4 373.7,247.8 330.1,247 371.9,243.3 
			330,242.6 370.2,238.8 329.7,238.1 369.6,234.4 333.3,233.7 367.1,229.9 334.5,229.3 363.5,225.4 338.2,224.9 361.8,220.9 
			339.3,220.5 363.6,216.5 339.6,216.1 361,212 341.6,211.7 357.1,207.5 343.8,207.3 356.9,203 344.4,202.8 358.1,198.6 
			347.4,198.4 353.4,194.1 347.9,194 350.9,189.6 349.3,189.5 352.8,185.1 350.4,185.1 		"/>
	</g>
</g>
<g>
	<g>
		<polyline class="st13" points="299.2,323 251.8,322.1 331.6,318.7 254.5,317.3 326.5,313.8 256.6,312.6 329.3,309 258.7,307.8 
			325.6,304.1 259.8,302.9 326.5,299.2 259.8,298.1 325.9,294.4 260,293.2 322.4,289.5 261.5,288.4 322.4,284.6 264.7,283.6 
			322.1,279.8 264.4,278.8 317.1,274.8 265.6,273.9 320.1,270.1 267,269.1 318.5,265.2 268.4,264.3 314.2,260.2 270.2,259.5 
			312.6,255.4 268.3,254.6 314.2,250.5 273,249.8 311.6,245.6 273,244.9 309.2,240.7 272.8,240.1 307.1,235.8 275.5,235.2 
			309.7,230.9 275.1,230.3 305.5,226 276.8,225.5 307,221.2 277,220.7 303.4,216.3 277.6,215.8 305.4,211.5 279.4,211 300,206.5 
			280.5,206.2 299.8,201.7 284.9,201.4 301.2,196.9 285.3,196.6 300.6,192 284.2,191.7 298.2,187.1 287.4,186.9 295.2,182.3 
			289.7,182.2 297.1,177.4 290.3,177.3 294.3,172.5 289.8,172.5 292.5,167.6 291.4,167.6 		"/>
	</g>
</g>
<g>
	<g>
		<polyline class="st14" points="316.9,317.5 274.4,316.7 357.6,313.9 278,312.5 355.7,309.5 276.5,308.1 355,305.1 280.8,303.8 
			352.6,300.7 279,299.5 352.1,296.4 284.2,295.2 351.3,292.1 286.1,290.9 350.2,287.7 284.2,286.6 347.7,283.4 287.6,282.3 
			346.5,279 288.7,278 345.7,274.7 289,273.7 342.5,270.3 291.5,269.4 339.6,265.9 295.1,265.2 340.2,261.6 296.8,260.9 
			337.5,257.2 295.9,256.5 335.9,252.9 297.8,252.2 333.5,248.5 301.9,248 331.6,244.1 300.1,243.6 331.9,239.8 304.9,239.3 
			329.3,235.4 305.7,235 325.5,231 308.4,230.7 325.3,226.7 307.4,226.4 326,222.4 311,222.1 321.2,218 312.9,217.8 322.8,213.7 
			314.6,213.5 319.8,209.3 313.9,209.2 318.4,205 316.8,205 		"/>
	</g>
</g>
<g>
	<g>
		<polyline class="st15" points="264.2,308.5 210.4,307.6 306.5,303.8 214.4,302.2 305.5,298.4 217.5,296.8 304.7,292.9 
			219.1,291.4 299.4,287.4 219,286 298.1,282 220.7,280.7 296.2,276.6 223.7,275.3 296.6,271.1 222.1,269.8 297.5,265.7 224,264.4 
			295.1,260.3 225.6,259 292.3,254.8 227.6,253.7 288.9,249.3 228.9,248.3 287.6,243.9 230,242.8 289.4,238.5 231.9,237.5 
			285.8,233 234.7,232.1 285.1,227.6 233.8,226.7 282.3,222 238.8,221.3 279.3,216.5 241.3,215.9 277.3,211.1 238.6,210.4 
			275.4,205.6 244.3,205.1 276.1,200.2 244.3,199.6 273.7,194.7 248.4,194.2 273.7,189.2 246.1,188.8 273.2,183.8 247.2,183.4 
			271.7,178.4 249.9,178 268.2,172.9 252.4,172.6 266.3,167.4 255.4,167.2 264.3,162 255.1,161.8 262,156.5 254.7,156.4 262.3,151 
			256.8,150.9 		"/>
	</g>
</g>
<g>
	<g>
		<polyline class="st16" points="396.3,318.7 347.5,317.9 431.8,314.1 344.7,312.5 428.8,308.7 345.8,307.3 428.6,303.5 
			350.7,302.1 427.6,298.3 350.2,296.9 424.5,292.9 350.8,291.7 423.1,287.7 354.5,286.5 420.5,282.4 352.7,281.2 421.6,277.2 
			355,276 420.2,271.9 359.1,270.9 418,266.7 360.9,265.7 418,261.4 357.8,260.4 414.6,256.1 362.8,255.2 413.5,250.8 362.1,249.9 
			412.8,245.5 365.5,244.7 409.1,240.2 367.4,239.5 410.1,234.9 366.7,234.2 411,229.6 365.9,228.8 406.8,224.3 371.1,223.7 
			405.8,219 373.1,218.4 405.7,213.7 372.6,213.1 400.8,208.4 372.1,207.9 403.5,203.2 373.1,202.7 401.9,197.9 378.7,197.5 
			401.2,192.6 380.4,192.3 398.3,187.3 381.1,187 393.9,181.9 379.4,181.7 396,176.7 380.5,176.4 395.7,171.5 382.8,171.3 
			390.8,166.1 383.2,166 389.3,160.9 384.1,160.8 391.3,155.6 388.1,155.6 		"/>
	</g>
</g>
<g>
	<g>
		<polyline class="st17" points="234.6,317.1 200.8,316.6 260.4,314 203.1,313 260.8,310.4 202.1,309.3 258.6,306.7 202.3,305.7 
			257.5,303 204.4,302.1 256,299.3 207,298.5 255.7,295.7 208.3,294.9 254.2,292.1 208.7,291.3 252.5,288.4 209.7,287.7 
			251.8,284.8 208.8,284 252,281.1 209.4,280.4 250,277.5 210.4,276.8 249,273.8 211.8,273.1 250.5,270.2 213.2,269.5 249.4,266.5 
			213.2,265.9 246,262.8 213.9,262.3 246.3,259.1 216.9,258.6 246.4,255.5 218.1,255 243.1,251.8 216.8,251.3 243.2,248.2 
			220.8,247.8 243.6,244.5 220.6,244.1 239.7,240.8 219.9,240.5 239.3,237.2 223.8,236.9 238.4,233.6 221.6,233.3 239.1,229.9 
			224.8,229.7 238.8,226.3 226.4,226.1 236.6,222.6 227.5,222.5 234.3,218.9 226.2,218.8 234.6,215.3 226.5,215.2 232.2,211.6 
			229.5,211.6 232,208 231.2,208 230.9,204.3 229.3,204.3 		"/>
	</g>
</g>
<g>
	<g>
		<polyline class="st18" points="361.3,340.6 326,340 397.5,337.4 324.5,336.1 394.3,333.6 326.8,332.4 391.5,329.7 330.2,328.6 
			392.7,325.9 330.7,324.8 391.1,322.1 331.5,321 389.3,318.2 331.8,317.2 386.7,314.3 332.8,313.4 386.4,310.5 335.4,309.6 
			386.8,306.8 336.8,305.9 384.9,302.9 339.4,302.1 384.2,299.1 339,298.3 380.2,295.3 339.2,294.5 378.9,291.4 339.9,290.8 
			377.6,287.6 341.1,287 375.5,283.8 345.9,283.3 375.2,280 344.9,279.5 374.7,276.2 346.6,275.7 371.8,272.3 348.3,271.9 
			370.5,268.5 350.2,268.1 370.8,264.7 349.8,264.3 369.3,260.8 351.5,260.5 368.2,257 353.9,256.7 367.8,253.1 353.8,252.9 
			364.1,249.2 354.9,249.1 363.3,245.4 356.9,245.3 363.6,241.6 358.3,241.5 362.9,237.8 360.7,237.7 		"/>
	</g>
</g>
<g>
	<g>
		<polyline class="st19" points="937.4,177.4 892.5,176.6 974.7,173 891.8,171.6 971.4,168 896.3,166.7 969.7,163 896.3,161.7 
			967.7,158 894.7,156.7 968.8,153.1 898,151.8 964.2,148 899.5,146.9 966.9,143 903.1,141.9 965,138 900.4,136.9 964.4,133 
			902.5,132 962.7,128 906.2,127.1 958,123 905.5,122.1 960.4,118.1 906.2,117.1 955.1,113 907.7,112.2 954.8,108 910.8,107.2 
			954.3,103 910,102.2 954.5,98 911.7,97.3 949.7,93 913.8,92.3 950.7,88 914.2,87.4 951.1,83 917.8,82.4 947.4,78 916.8,77.5 
			945.9,73 918,72.5 945.8,68 918.9,67.5 945.6,63 920.1,62.6 945.1,58.1 921.1,57.7 940.6,53 923.1,52.7 939.9,48 925.4,47.7 
			940.8,43 927.5,42.8 938.1,38 926.4,37.8 936.6,33 931.1,32.9 935,28 932.1,28 933.6,23 932.2,23 		"/>
	</g>
</g>
<g>
	<g>
		<polyline class="st13" points="490.7,309.8 448,309.1 520.6,305.5 446,304.2 522.9,300.7 448.6,299.4 518.4,295.8 449,294.6 
			517.2,291 452.8,289.8 518.3,286.1 453,285 518.7,281.2 452.8,280.1 517.7,276.4 456,275.3 512.2,271.4 456.1,270.4 514.7,266.6 
			458.1,265.6 512.2,261.7 457.4,260.7 510.3,256.7 459.6,255.9 511,251.9 458.7,251 506.7,247 460.1,246.2 505.5,242.2 
			461.4,241.4 504.2,237.3 464.9,236.6 504.7,232.4 463.2,231.7 501.4,227.6 468.2,227 499.8,222.7 465.5,222.1 500.4,217.8 
			470.1,217.3 499.3,212.9 467.8,212.4 500.7,208.1 470.8,207.6 499.1,203.3 471.8,202.8 497.2,198.4 475.1,198 495.3,193.5 
			476,193.2 494.8,188.7 474.6,188.3 494.1,183.8 476.6,183.5 490.4,178.9 476.1,178.6 490.7,174.1 478.1,173.8 488.3,169.1 
			479.4,169 487.3,164.2 481.4,164.1 487.2,159.4 484.6,159.4 485.2,154.5 484.1,154.5 		"/>
	</g>
</g>
<g>
	<g>
		<polyline class="st15" points="457.4,295.4 402.5,294.4 500.4,290.7 405.1,289.1 499.9,285.2 408,283.6 495.3,279.7 411.7,278.3 
			494.8,274.3 410.1,272.8 491.8,268.8 413.4,267.4 488.5,263.3 415.5,262.1 487,257.9 416.8,256.7 485.9,252.4 417.7,251.3 
			488.6,247.1 420.3,245.9 485.9,241.6 422.2,240.5 481.8,236.1 423.4,235.1 481.7,230.6 423.9,229.6 478.1,225.2 423.4,224.2 
			479.2,219.8 428.2,218.9 477.8,214.3 429.8,213.4 474.8,208.8 429,208 471,203.3 431.1,202.6 473.6,197.9 435.7,197.3 
			470.8,192.4 437.6,191.8 467.9,186.9 436.9,186.4 467,181.5 436.8,180.9 463.2,175.9 440.6,175.6 463.4,170.5 443.5,170.2 
			459.6,165 441.3,164.7 460.6,159.6 444.5,159.3 457.8,154.1 447.4,153.9 456.6,148.7 447.8,148.5 453.7,143.2 450.1,143.1 
			455.9,137.8 452.6,137.7 		"/>
	</g>
</g>
<g>
	<g>
		<polyline class="st9" points="429.9,297.3 396.9,296.8 436,294.1 397.8,293.4 434.7,290.7 398.1,290.1 435.1,287.4 398.5,286.8 
			434.6,284.1 399,283.5 432.9,280.7 399.1,280.1 434,277.4 400.6,276.8 432.1,274.1 400.9,273.5 433.3,270.8 401.1,270.2 
			432.1,267.4 399.7,266.9 432.7,264.1 402.5,263.6 429.9,260.7 400.8,260.2 430,257.4 402.5,256.9 429.5,254 403.4,253.6 
			428.5,250.7 403.9,250.2 428.2,247.3 403.8,246.9 428.3,244 405.2,243.6 428,240.7 403.2,240.2 428.7,237.3 405.1,236.9 
			428.6,234 406.4,233.6 426.9,230.6 405.6,230.2 425.8,227.3 405.2,226.9 425.5,223.9 408.3,223.6 426,220.6 408.5,220.3 
			426.9,217.3 406.9,217 426.2,213.9 408.1,213.6 424.5,210.6 410,210.3 424.8,207.2 409.1,207 425,203.9 410.8,203.7 422,200.5 
			409.4,200.3 424.3,197.2 408.9,196.9 424.2,193.8 411.2,193.6 423.1,190.4 410.6,190.2 422.6,187.1 411.9,186.9 421.4,183.8 
			413.1,183.6 421,180.4 410.9,180.2 420,177.1 414.1,177 418.5,173.7 412.8,173.6 420.9,170.4 413.1,170.3 420.6,167 414.1,166.9 
			419,163.7 414.9,163.6 418.2,160.3 415,160.3 419.2,157 416.7,156.9 419,153.6 417.1,153.6 415.5,150.2 415.4,150.2 		"/>
	</g>
</g>
<g>
	<g>
		<polyline class="st20" points="577.1,279 527.8,278.1 612,274.5 531.6,273.1 612.5,269.5 534.3,268.1 607.5,264.3 531.2,262.9 
			609,259.2 535.2,257.9 604.5,254.1 535.3,252.9 606.1,249.1 539.1,247.9 604.7,244 536.7,242.8 604.4,238.9 542.4,237.8 
			602.7,233.8 543.2,232.8 600.9,228.7 542.3,227.7 599.5,223.6 544.9,222.7 598.4,218.6 543.7,217.6 598,213.5 544.7,212.6 
			595.8,208.4 548.5,207.6 595.6,203.3 548.8,202.5 589.9,198.2 552.6,197.5 593.1,193.2 552.8,192.4 589,188 554.5,187.4 
			588.2,182.9 556.6,182.4 586.7,177.8 556.2,177.3 586.4,172.8 556.4,172.3 582.8,167.7 557.6,167.2 583.3,162.6 558.9,162.2 
			582.2,157.5 562,157.2 581.2,152.4 564.6,152.2 580.8,147.4 565.2,147.1 576.8,142.2 565.6,142 577.6,137.2 568.3,137 
			574.5,132.1 566.7,131.9 573.9,127 569.7,126.9 570.1,121.9 569.5,121.9 		"/>
	</g>
</g>
<g>
	<g>
		<polyline class="st19" points="651.7,237.9 604.8,237.1 682.7,233.5 606.4,232.2 685.2,228.6 608.9,227.2 683,223.6 606.9,222.2 
			683.4,218.6 608.7,217.3 680.4,213.6 609.9,212.4 680.4,208.7 610.3,207.4 679.3,203.7 613,202.5 677.7,198.6 612.5,197.5 
			672.9,193.6 614.8,192.6 674.4,188.6 615.3,187.6 673.7,183.7 616.2,182.6 671.8,178.6 619,177.7 668.8,173.6 620.4,172.8 
			670.6,168.7 620,167.8 667.6,163.7 624,162.9 664.1,158.6 622.8,157.9 663.3,153.6 626.6,153 663.9,148.6 629.4,148 662.6,143.7 
			628,143.1 660.7,138.7 629.5,138.1 658,133.6 632.9,133.2 656.9,128.6 630.7,128.2 654.8,123.6 634.7,123.2 656.3,118.6 
			634,118.3 653.6,113.6 635.6,113.3 652,108.6 637,108.4 651,103.6 640.1,103.4 650.3,98.6 641,98.5 649.3,93.6 640.7,93.5 
			645.6,88.6 644.7,88.6 647.4,83.6 643.2,83.5 		"/>
	</g>
</g>
<g>
	<g>
		<polyline class="st21" points="600.3,272.9 555.3,272.2 636.1,268.8 557,267.4 638.3,264.1 559.6,262.7 636,259.3 557.9,257.9 
			636.2,254.5 559.8,253.2 633.1,249.7 561.1,248.4 632.8,244.9 561.7,243.7 631.7,240.1 564.6,238.9 629.9,235.2 564.3,234.1 
			625.1,230.4 566.6,229.4 626.3,225.6 567.3,224.6 625.4,220.8 568.4,219.8 623.4,216 571.3,215.1 620.4,211.2 572.9,210.4 
			621.8,206.5 572.6,205.6 618.7,201.6 576.7,200.9 615.2,196.7 575.7,196.1 614.2,192 579.5,191.4 614.6,187.1 582.4,186.6 
			613.2,182.4 581.3,181.8 611.1,177.5 582.9,177 608.3,172.7 586.4,172.3 607,167.9 584.5,167.5 604.9,163 588.5,162.8 
			606.1,158.3 588,158 603.3,153.5 589.8,153.2 601.5,148.6 591.3,148.5 600.4,143.8 594.5,143.7 599.5,139 595.6,138.9 
			598.4,134.2 595.5,134.2 		"/>
	</g>
</g>
<g>
	<g>
		<polyline class="st11" points="628.2,256.9 585.1,256.1 667.6,253.2 586.8,251.8 669.7,248.8 589.3,247.4 667.5,244.3 591.8,243 
			665.4,239.9 592.3,238.6 664.7,235.4 594.1,234.2 663.1,230.9 593.9,229.7 660.3,226.5 595.1,225.3 658.8,222 595.7,220.9 
			658.5,217.5 598.8,216.5 656.8,213 599.2,212 652.3,208.5 600.6,207.6 654,204.1 602.7,203.2 648.6,199.5 606.3,198.8 
			648.4,195.1 607.6,194.4 649,190.7 608.3,189.9 646.9,186.2 611.3,185.6 642.2,181.7 611.3,181.1 640.7,177.2 614.9,176.7 
			639.6,172.7 612.8,172.2 637.5,168.2 616.2,167.8 639.5,163.8 617.5,163.4 638.2,159.3 618.8,158.9 632.7,154.8 622.3,154.6 
			632.5,150.3 623.1,150.1 633,145.9 622.9,145.7 631.3,141.4 624.2,141.2 626.7,136.8 625.6,136.8 		"/>
	</g>
</g>
<g>
	<g>
		<polyline class="st22" points="557.6,256.9 530.3,256.4 562.1,254.2 529.9,253.6 563.3,251.4 530.8,250.9 562.6,248.6 
			530.9,248.1 561.9,245.8 532,245.3 562.2,243 533.1,242.5 560.4,240.2 532.7,239.7 561.5,237.4 533.8,236.9 561.7,234.6 
			533.3,234.1 560.2,231.8 532.6,231.3 558.5,229 534.3,228.6 558.3,226.2 533.2,225.8 559,223.5 533.9,223 558.8,220.7 
			534.9,220.3 557.3,217.9 535.2,217.5 557,215.1 536.8,214.8 558.6,212.3 535.4,211.9 557.9,209.5 537.9,209.2 555.6,206.7 
			537.1,206.4 556.5,204 536.1,203.6 554.5,201.1 537.6,200.8 554.6,198.3 538.3,198 556.3,195.6 539.7,195.3 554.4,192.8 
			538,192.5 555.1,190 538.7,189.7 553.5,187.2 539.2,186.9 553.5,184.4 538.9,184.2 554,181.6 541.3,181.4 554,178.8 540.1,178.6 
			552.7,176 541.3,175.8 552.9,173.2 540.3,173 552,170.4 541.4,170.2 552,167.6 542.5,167.5 550.8,164.9 542.8,164.7 550.9,162 
			542.6,161.9 549.6,159.2 544.3,159.1 548.6,156.5 542.7,156.3 549.9,153.7 545.2,153.6 548.5,150.9 543.8,150.8 549.5,148.1 
			545.6,148 549.3,145.3 545.2,145.2 548.8,142.5 545.3,142.4 547.4,139.7 546.2,139.7 547.2,136.9 546.2,136.9 		"/>
	</g>
</g>
<g>
	<g>
		<polyline class="st21" points="704.5,216.9 657.9,216.1 743,212.8 661.7,211.4 743.2,208 664.4,206.6 738.4,203.1 661.6,201.8 
			739.5,198.3 665.6,197 735.1,193.5 665.9,192.3 736.5,188.7 669.7,187.5 735,183.9 667.6,182.7 734.5,179.1 673.1,178 
			732.7,174.2 674.1,173.2 730.8,169.4 673.4,168.4 729.3,164.6 676,163.7 728.1,159.8 675.1,158.9 727.5,155 676.3,154.1 
			725.3,150.2 680,149.4 724.9,145.4 680.5,144.6 719.3,140.5 684.3,139.9 722.1,135.7 684.6,135.1 718,130.9 686.4,130.3 
			717.2,126.1 688.6,125.6 715.6,121.2 688.4,120.8 715,116.5 688.7,116 711.5,111.6 690,111.2 711.8,106.8 691.5,106.5 710.5,102 
			694.6,101.7 709.5,97.2 697.2,97 708.8,92.4 697.9,92.2 704.9,87.5 698.5,87.4 705.5,82.7 701.3,82.7 702.4,77.9 700,77.9 		"/>
	</g>
</g>
<g>
	<g>
		<polyline class="st23" points="523.8,272.8 482.8,272.1 562.3,269.4 486.1,268 561.3,265.2 488.7,263.9 560.5,261.1 490.1,259.8 
			556.2,256.9 490.3,255.7 555,252.7 491.8,251.6 553.3,248.6 494.2,247.6 553.4,244.4 493.3,243.4 553.9,240.3 494.9,239.3 
			551.8,236.2 496.4,235.2 549.4,232 498.2,231.1 546.6,227.8 499.4,227 545.4,223.7 500.4,222.9 546.5,219.6 502.1,218.8 
			543.6,215.4 504.4,214.7 542.8,211.3 504,210.6 540.4,207 508,206.5 537.9,202.8 510.2,202.4 536.2,198.7 508.3,198.2 
			534.5,194.5 512.9,194.1 534.7,190.3 513.1,190 532.7,186.2 516.5,185.9 532.5,182 515,181.7 531.9,177.9 516,177.6 530.5,173.7 
			518.3,173.5 527.6,169.5 520.4,169.4 525.9,165.4 522.9,165.3 524.2,161.2 523,161.2 		"/>
	</g>
</g>
<g>
	<g>
		<polyline class="st24" points="672.6,231.2 633,230.5 718.8,228 634.9,226.5 720.3,223.9 637.6,222.5 717.8,219.8 640.3,218.5 
			715.5,215.7 641.1,214.4 714.5,211.6 643.1,210.4 712.6,207.5 643.3,206.3 709.6,203.4 644.9,202.2 707.9,199.2 645.8,198.2 
			707.3,195.1 649,194.1 705.2,191 649.8,190 700.7,186.8 651.5,185.9 701.9,182.7 653.8,181.8 696.5,178.5 657.5,177.8 
			695.9,174.4 659.1,173.7 696.1,170.3 660.1,169.7 693.8,166.2 663.3,165.6 689,162 663.6,161.5 687.2,157.8 667.3,157.5 
			685.8,153.7 665.8,153.4 683.5,149.5 669.4,149.3 684.9,145.5 671,145.2 683.4,141.3 672.6,141.1 677.8,137.1 676.1,137.1 
			677.2,133 677.2,133 		"/>
	</g>
</g>
<g>
	<g>
		<polyline class="st17" points="487.9,326.4 454.2,325.8 513.8,323.2 456.5,322.2 514.2,319.6 455.5,318.6 511.9,315.9 455.7,315 
			510.9,312.3 457.7,311.3 509.4,308.6 460.4,307.7 509.1,305 461.7,304.1 507.6,301.3 462.1,300.5 505.9,297.7 463.1,296.9 
			505.2,294 462.2,293.3 505.4,290.4 462.8,289.7 503.4,286.7 463.8,286 502.4,283 465.2,282.4 503.8,279.4 466.6,278.8 
			502.8,275.8 466.6,275.2 499.4,272.1 467.3,271.5 499.7,268.4 470.3,267.9 499.8,264.7 471.4,264.2 496.5,261 470.2,260.6 
			496.6,257.4 474.2,257 497,253.8 473.9,253.4 493.1,250.1 473.3,249.8 492.7,246.4 477.2,246.2 491.8,242.8 475,242.5 
			492.5,239.2 478.2,238.9 492.2,235.6 479.8,235.4 490,231.9 480.9,231.7 487.6,228.2 479.6,228 487.9,224.6 479.9,224.4 
			485.5,220.9 482.9,220.8 485.4,217.3 484.5,217.2 484.3,213.6 482.7,213.5 		"/>
	</g>
</g>
<g>
	<g>
		<polyline class="st0" points="909.4,209 858.7,208.1 944.3,204.4 862.3,203 943.5,199.3 865,197.9 942.9,194.2 866.4,192.8 
			938.1,189 866.1,187.7 937,183.8 867.6,182.6 935.3,178.7 870.2,177.6 935.9,173.6 868.6,172.4 937,168.5 870.1,167.3 
			934.8,163.3 871.5,162.2 932.4,158.2 873.3,157.1 929.3,153 874.3,152 928.3,147.9 875.2,146.9 930.1,142.8 876.8,141.8 
			926.9,137.6 879.3,136.8 926.4,132.5 878.3,131.6 924,127.3 882.8,126.6 921.3,122.1 885,121.5 919.6,117 882.3,116.3 918,111.8 
			887.5,111.3 918.8,106.7 887.3,106.1 916.7,101.5 891,101.1 916.9,96.4 888.7,95.9 916.6,91.3 889.6,90.8 915.4,86.1 892,85.7 
			912.2,81 894.1,80.6 910.5,75.8 896.8,75.6 908.9,70.7 896.4,70.5 906.8,65.5 895.8,65.3 907.4,60.4 897.6,60.2 902.6,55.2 
			901.9,55.2 903.4,50.1 901.8,50.1 		"/>
	</g>
</g>
<g>
	<g>
		<polyline class="st9" points="674.9,246.3 642.2,245.8 679.1,243.1 641.4,242.4 681,239.7 641.5,239.1 680.7,236.4 644.1,235.8 
			677.5,233 644.7,232.4 678.4,229.6 643.7,229 678.5,226.3 645.8,225.8 678.5,223 643.5,222.4 677.9,219.6 647,219.1 677.6,216.3 
			645,215.7 676.2,212.9 645.2,212.4 676.3,209.6 645.4,209 676.6,206.2 647.1,205.7 676,202.9 648.9,202.4 675.1,199.5 
			648.6,199.1 673,196.1 647.9,195.7 673.3,192.8 650,192.4 673.1,189.5 649.9,189.1 672,186.1 650.4,185.8 672.2,182.8 
			648.7,182.4 672,179.5 651,179.1 671,176.2 650.4,175.8 671.2,172.8 650.1,172.4 672,169.5 652.9,169.1 669.9,166.1 653.5,165.8 
			669.6,162.7 652.2,162.4 669.7,159.4 652.2,159.1 669.6,156 654,155.7 669.7,152.7 653.8,152.4 667.5,149.3 653,149 668.1,145.9 
			653.7,145.7 666.8,142.5 654.7,142.3 666.4,139.2 656.1,139 666.9,135.8 655.3,135.6 666,132.5 658.1,132.3 666.3,129.1 
			658.5,129 664.6,125.7 657.9,125.6 664.2,122.4 657.9,122.2 662.8,119 658.4,118.9 662.6,115.6 660.2,115.6 662.3,112.3 
			658.7,112.2 662.1,109 660.5,108.9 662.9,105.6 660.7,105.6 662.6,102.3 662,102.3 662.6,98.9 660.4,98.9 		"/>
	</g>
</g>
<g>
	<g>
		<polyline class="st25" points="865.3,181.4 822.1,180.7 891.3,177.5 823.8,176.3 891.7,173.1 825.1,171.9 890.5,168.7 
			827.2,167.6 888.9,164.2 828.5,163.2 889.1,159.8 830.5,158.8 885,155.3 830.2,154.4 887.6,151 832.8,150 882.7,146.5 834,145.6 
			884.5,142.1 834.3,141.3 882.7,137.7 833.7,136.9 880.6,133.3 836.1,132.5 878.5,128.8 838,128.1 880.4,124.5 835.7,123.7 
			876.4,120 840.5,119.4 877.5,115.6 841.1,115 876.4,111.2 842.1,110.6 877.2,106.9 841.9,106.3 875.2,102.4 841.1,101.8 874,98.1 
			844.8,97.6 872.8,93.7 844,93.2 872.1,89.3 846.9,88.8 869.9,84.8 846.3,84.4 870.5,80.4 847.9,80 869.1,76 849.8,75.6 
			865.4,71.5 848.2,71.2 864.7,67.2 852.7,67 863.1,62.7 852,62.5 861.7,58.3 852.7,58.1 863.6,53.9 852.3,53.7 862.8,49.5 
			856.7,49.4 861.1,45.1 854.9,45 859.3,40.6 858.9,40.6 		"/>
	</g>
</g>
<g>
	<g>
		<polyline class="st26" points="888.1,177.5 848.5,176.8 929.8,173.9 848.2,172.5 930.6,169.6 852.2,168.2 926.6,165.2 852,163.9 
			927.7,160.8 855.2,159.6 924.3,156.4 857,155.3 921.2,152 857.9,150.9 920.1,147.6 858.9,146.6 919.6,143.3 862.1,142.3 
			920.2,138.9 860.1,137.9 917.4,134.5 861.6,133.5 916.5,130.1 866.5,129.3 915.1,125.8 865.9,124.9 912.2,121.4 869.7,120.6 
			910.3,117 870.6,116.3 908.8,112.6 872.3,112 906,108.2 873.8,107.6 907.2,103.8 875.1,103.3 902.1,99.4 875.1,98.9 901.5,95 
			878.8,94.6 900.8,90.7 880,90.3 899.3,86.3 879.7,85.9 898.9,81.9 883.6,81.6 896.4,77.5 883.2,77.3 894.7,73.1 886.8,73 
			891,68.7 887.2,68.6 889.9,64.3 888.1,64.3 		"/>
	</g>
</g>
<g>
	<g>
		<polyline class="st27" points="830,195.8 792.6,195.2 869.2,192.5 795.5,191.2 869.3,188.4 794.8,187.1 866.4,184.4 795.3,183.1 
			864.9,180.3 798,179.1 862.8,176.2 801.3,175.1 862.1,172.2 803.1,171.1 860.1,168.1 803.9,167.1 857.8,164.1 805.4,163.2 
			856.7,160 804.8,159.1 856.5,156 805.8,155.1 854,151.9 807.2,151.1 852.5,147.8 809.2,147 853.7,143.8 811.1,143 852.2,139.7 
			811.5,139 848,135.6 812.6,135 847.9,131.5 816.3,131 847.7,127.5 818,126.9 843.7,123.4 816.9,122.9 843.4,119.3 821.8,119 
			843.5,115.3 821.8,114.9 838.7,111.2 821.5,110.9 838,107.1 826.1,106.9 836.6,103.1 824.1,102.9 837,99.1 828,98.9 836.3,95 
			830.2,94.9 833.5,90.9 831.7,90.9 832,86.9 831.4,86.8 		"/>
	</g>
</g>
<g>
	<g>
		<polyline class="st0" points="783.5,206.9 735.8,206.1 819.7,202.4 734.3,200.9 817.8,197.2 736.6,195.8 814.8,192.1 739.9,190.8 
			813.4,186.9 740.7,185.6 810.3,181.7 740.9,180.5 809.3,176.6 743.6,175.4 811.8,171.5 742.1,170.3 809.7,166.4 744.3,165.2 
			804.7,161.1 746.9,160.1 806.2,156 748.9,155 803.9,150.9 749.9,149.9 802.6,145.7 751.8,144.9 803.3,140.6 753.1,139.8 
			802.3,135.5 755.1,134.7 796.8,130.3 753.1,129.5 799.6,125.2 755.7,124.4 795.9,120 757.4,119.3 795.8,114.9 758.7,114.2 
			795,109.7 761.3,109.2 792.3,104.6 758.8,104 789.7,99.4 760.9,98.9 790.5,94.3 762.8,93.8 790.2,89.2 765.7,88.7 787.9,84 
			767.8,83.7 786.4,78.9 767.5,78.5 782.2,73.7 769.5,73.4 783.3,68.6 770.9,68.3 779.6,63.4 770.8,63.2 782.4,58.3 774.8,58.2 
			778.9,53.1 776.6,53.1 777.3,48 775.9,47.9 		"/>
	</g>
</g>
<g>
	<g>
		<polyline class="st28" points="813.6,184 784,183.5 822.3,181 782.7,180.3 821.5,177.8 783.8,177.2 820,174.6 785.4,174 
			819.6,171.4 785.5,170.8 818,168.2 785.2,167.6 817.8,165 786.5,164.5 819.8,161.9 785.2,161.3 818.9,158.7 786.2,158.2 
			816.1,155.5 787.4,155 817.4,152.3 788.3,151.8 816.4,149.1 788.5,148.7 816,146 789.3,145.5 816.8,142.8 789.7,142.3 
			816.6,139.6 790.6,139.2 813.5,136.4 789,136 815.7,133.2 790.2,132.8 813.8,130 790.9,129.6 814.1,126.8 791.3,126.4 814,123.7 
			792.5,123.3 812.7,120.5 790.6,120.1 811.5,117.3 791.5,116.9 812.4,114.1 792.3,113.8 812.6,110.9 793.7,110.6 811.6,107.8 
			794.6,107.5 811,104.6 794.1,104.3 808.8,101.3 794.9,101.1 809.9,98.2 795.4,98 807.9,95 794.9,94.8 810.1,91.9 797.1,91.6 
			808.3,88.7 797.8,88.5 807.5,85.5 797.8,85.3 807.8,82.3 798,82.2 808.2,79.2 798.3,79 806.5,76 798.4,75.8 806.4,72.8 
			798.5,72.6 805.1,69.5 799.3,69.4 803.7,66.4 798.5,66.3 803.7,63.2 799,63.1 805.3,60 800.7,60 803.2,56.8 799.9,56.8 803,53.6 
			801.7,53.6 803.8,50.4 801.1,50.4 		"/>
	</g>
</g>
<g>
	<g>
		<polyline class="st29" points="744.3,227.8 705.6,227.1 769.6,223.9 704.7,222.8 767,219.6 708.4,218.6 765.7,215.3 708.2,214.3 
			764.2,211 706.6,210 765.3,206.7 709.3,205.8 761.6,202.4 710.4,201.5 764.2,198.1 713.3,197.2 762.7,193.8 710.7,192.9 
			762.4,189.5 712.3,188.6 761.1,185.2 715.3,184.4 757.3,180.8 714.5,180.1 759.6,176.6 714.9,175.8 755.2,172.2 715.9,171.5 
			755.2,167.9 718.5,167.3 755,163.6 717.5,163 755.4,159.4 718.8,158.7 751.4,155 720.4,154.4 752.5,150.7 720.5,150.2 
			753.1,146.4 723.4,145.9 750.1,142.1 722.4,141.6 749,137.8 723.2,137.4 749.2,133.5 723.7,133 749.2,129.2 724.5,128.8 
			748.9,124.9 725.2,124.5 745.3,120.6 726.8,120.3 744.9,116.3 728.6,116 745.9,112 730.1,111.7 743.8,107.7 729,107.4 
			742.6,103.4 732.8,103.2 741.5,99.1 733.4,98.9 740.5,94.7 733.3,94.6 740.8,90.5 733.7,90.3 739.4,86.2 733.4,86.1 737.8,81.9 
			735.6,81.8 736.9,77.6 736.5,77.6 		"/>
	</g>
</g>
<g>
	<g>
		<polyline class="st24" points="761.3,190.7 720.7,190 808.7,187.4 724.4,185.9 806.6,183.3 726.8,181.9 803.9,179.2 726.4,177.8 
			802.5,175 729.6,173.8 803.8,171 730.2,169.7 801.2,166.8 733.2,165.7 796.7,162.7 735,161.6 795.3,158.6 738.6,157.6 
			792.8,154.5 737.9,153.5 793.5,150.4 740.2,149.5 790.3,146.3 740.8,145.4 787.7,142.2 744,141.4 787.3,138.1 746.8,137.4 
			784.5,133.9 747.1,133.2 782.6,129.8 751,129.2 783.8,125.7 751.6,125.1 780.9,121.5 751.8,121 779.7,117.4 756.3,117 
			777.6,113.3 757.4,113 772.5,109.1 756.9,108.9 772,105 758.9,104.8 770.4,100.9 763.6,100.8 770.2,96.8 765.2,96.7 769,92.7 
			767.4,92.6 		"/>
	</g>
</g>
</svg>
